<svg xmlns="http://www.w3.org/2000/svg" xmlns:xlink="http://www.w3.org/1999/xlink" xmlns:lucid="lucid" width="2308" height="1735.33"><g transform="translate(0 0)" lucid:page-tab-id="HWEp-vi-RSFO"><path d="M0 0h2308v1735.33H0z" fill="#fff"/><path d="M60 200h340v178H60z" stroke="#333" stroke-width="2" fill="#fff"/><path d="M60 237.6h340M60 275.2h340" stroke="#333" stroke-width="2" fill="none"/><use xlink:href="#a" transform="matrix(1,0,0,1,68,208) translate(97.07499999999999 14.6)"/><use xlink:href="#b" transform="matrix(1,0,0,1,72,245.6) translate(0 14.4)"/><use xlink:href="#c" transform="matrix(1,0,0,1,72,245.6) translate(10.95 14.4)"/><use xlink:href="#d" transform="matrix(1,0,0,1,72,283.2) translate(0 14.4)"/><use xlink:href="#e" transform="matrix(1,0,0,1,72,283.2) translate(15.5 14.4)"/><use xlink:href="#d" transform="matrix(1,0,0,1,72,283.2) translate(0 46.800000000000004)"/><use xlink:href="#f" transform="matrix(1,0,0,1,72,283.2) translate(15.5 46.800000000000004)"/><use xlink:href="#g" transform="matrix(1,0,0,1,72,283.2) translate(118.35000000000001 46.800000000000004)"/><use xlink:href="#d" transform="matrix(1,0,0,1,72,283.2) translate(0 79.20000000000002)"/><use xlink:href="#h" transform="matrix(1,0,0,1,72,283.2) translate(15.5 79.20000000000002)"/><path d="M453.15 75c0-4.42 3.58-8 8-8h836.75c4.4 0 8 3.58 8 8v25.16c0 4.4-3.6 8-8 8H461.15c-4.42 0-8-3.6-8-8z" stroke="#000" stroke-opacity="0" stroke-width="2" fill="#fff" fill-opacity="0"/><use xlink:href="#i" transform="matrix(1,0,0,1,457.1465527853429,70.99999999994924) translate(296.1920987654321 23.657777777777778)"/><use xlink:href="#j" transform="matrix(1,0,0,1,457.1465527853429,70.99999999994924) translate(332.61185185185184 23.657777777777778)"/><use xlink:href="#k" transform="matrix(1,0,0,1,457.1465527853429,70.99999999994924) translate(438.88469135802467 23.657777777777778)"/><path d="M729.63 106.8H1039M729.65 106.8h-1.02M1038.96 106.8h1.03" stroke="#a9afb8" stroke-width="2" fill="none"/><path d="M453.15 116.16c0-4.42 3.58-8 8-8h837.7c4.42 0 8 3.58 8 8V119c0 4.42-3.58 8-8 8h-837.7c-4.42 0-8-3.58-8-8z" stroke="#000" stroke-opacity="0" stroke-width="2" fill="#fff" fill-opacity="0"/><use xlink:href="#l" transform="matrix(1,0,0,1,457.1465527853434,112.15522395684805) translate(241.01236625514406 14.917037037037037)"/><use xlink:href="#m" transform="matrix(1,0,0,1,457.1465527853434,112.15522395684805) translate(302.11257201646094 14.917037037037037)"/><use xlink:href="#n" transform="matrix(1,0,0,1,457.1465527853434,112.15522395684805) translate(374.21761316872426 14.917037037037037)"/><use xlink:href="#o" transform="matrix(1,0,0,1,457.1465527853434,112.15522395684805) translate(395.4624691358025 14.917037037037037)"/><use xlink:href="#p" transform="matrix(1,0,0,1,457.1465527853434,112.15522395684805) translate(465.01812757201645 14.917037037037037)"/><use xlink:href="#q" transform="matrix(1,0,0,1,457.1465527853434,112.15522395684805) translate(477.46761316872426 14.917037037037037)"/><use xlink:href="#r" transform="matrix(1,0,0,1,457.1465527853434,112.15522395684805) translate(552.122037037037 14.917037037037037)"/><use xlink:href="#s" transform="matrix(1,0,0,1,457.1465527853434,112.15522395684805) translate(577.6158641975309 14.917037037037037)"/><path d="M576.67 456H839.8v199H576.66z" stroke="#333" stroke-width="2" fill="#fff"/><path d="M576.67 493.6H839.8M576.66 595.9H839.8" stroke="#333" stroke-width="2" fill="none"/><use xlink:href="#t" transform="matrix(1,0,0,1,584.666666666667,464) translate(71.05 14.6)"/><use xlink:href="#u" transform="matrix(1,0,0,1,584.666666666667,464) translate(125 14.6)"/><use xlink:href="#v" transform="matrix(1,0,0,1,588.666666666667,501.6) translate(0 14.4)"/><use xlink:href="#w" transform="matrix(1,0,0,1,588.666666666667,501.6) translate(10.95 14.4)"/><use xlink:href="#v" transform="matrix(1,0,0,1,588.666666666667,501.6) translate(0 36)"/><use xlink:href="#x" transform="matrix(1,0,0,1,588.666666666667,501.6) translate(10.95 36)"/><use xlink:href="#v" transform="matrix(1,0,0,1,588.666666666667,501.6) translate(0 57.6)"/><use xlink:href="#y" transform="matrix(1,0,0,1,588.666666666667,501.6) translate(10.95 57.6)"/><path d="M576.67 789.33H839.8v253H576.66z" stroke="#333" stroke-width="2" fill="#fff"/><path d="M576.67 826.93H839.8m-263.13 156.3H839.8" stroke="#333" stroke-width="2" fill="none"/><use xlink:href="#z" transform="matrix(1,0,0,1,584.666666666667,797.3333333333335) translate(86.55 14.6)"/><use xlink:href="#A" transform="matrix(1,0,0,1,584.666666666667,797.3333333333335) translate(142.45 14.6)"/><use xlink:href="#v" transform="matrix(1,0,0,1,588.666666666667,834.9333333333335) translate(0 25.499999999999986)"/><use xlink:href="#B" transform="matrix(1,0,0,1,588.666666666667,834.9333333333335) translate(10.95 25.499999999999986)"/><use xlink:href="#v" transform="matrix(1,0,0,1,588.666666666667,834.9333333333335) translate(0 57.89999999999999)"/><use xlink:href="#C" transform="matrix(1,0,0,1,588.666666666667,834.9333333333335) translate(10.95 57.89999999999999)"/><use xlink:href="#v" transform="matrix(1,0,0,1,588.666666666667,834.9333333333335) translate(0 90.30000000000001)"/><use xlink:href="#D" transform="matrix(1,0,0,1,588.666666666667,834.9333333333335) translate(10.95 90.30000000000001)"/><use xlink:href="#v" transform="matrix(1,0,0,1,588.666666666667,834.9333333333335) translate(0 122.70000000000002)"/><use xlink:href="#E" transform="matrix(1,0,0,1,588.666666666667,834.9333333333335) translate(10.95 122.70000000000002)"/><path d="M1000.17 1234.17h180v156h-180z" stroke="#333" stroke-width="2" fill="#fff"/><path d="M1000.17 1271.77h180m-180 59.1h180" stroke="#333" stroke-width="2" fill="none"/><use xlink:href="#F" transform="matrix(1,0,0,1,1008.166666666667,1242.1666666666667) translate(56.55 14.6)"/><use xlink:href="#v" transform="matrix(1,0,0,1,1012.166666666667,1279.7666666666667) translate(0 25.6)"/><use xlink:href="#G" transform="matrix(1,0,0,1,1012.166666666667,1279.7666666666667) translate(10.95 25.6)"/><use xlink:href="#H" transform="matrix(1,0,0,1,1012.166666666667,1338.8666666666666) translate(0 25.6)"/><use xlink:href="#I" transform="matrix(1,0,0,1,1012.166666666667,1338.8666666666666) translate(15.5 25.6)"/><path d="M1000.17 1463.33h180v156h-180z" stroke="#333" stroke-width="2" fill="#fff"/><path d="M1000.17 1500.93h180m-180 59.1h180" stroke="#333" stroke-width="2" fill="none"/><use xlink:href="#J" transform="matrix(1,0,0,1,1008.166666666667,1471.3333333333335) translate(37.05 14.6)"/><use xlink:href="#K" transform="matrix(1,0,0,1,1008.166666666667,1471.3333333333335) translate(76.05 14.6)"/><path d="M1260.17 487.33h180v156h-180z" stroke="#333" stroke-width="2" fill="#fff"/><path d="M1260.17 524.93h180m-180 59.1h180" stroke="#333" stroke-width="2" fill="none"/><use xlink:href="#L" transform="matrix(1,0,0,1,1268.166666666667,495.33333333333326) translate(63.05 14.6)"/><use xlink:href="#v" transform="matrix(1,0,0,1,1272.166666666667,532.9333333333333) translate(0 14.4)"/><use xlink:href="#M" transform="matrix(1,0,0,1,1272.166666666667,532.9333333333333) translate(10.95 14.4)"/><use xlink:href="#H" transform="matrix(1,0,0,1,1272.166666666667,592.0333333333333) translate(0 14.4)"/><use xlink:href="#N" transform="matrix(1,0,0,1,1272.166666666667,592.0333333333333) translate(15.5 14.4)"/><path d="M1510.67 1258h280v177h-280z" stroke="#333" stroke-width="2" fill="#fff"/><path d="M1510.67 1295.6h280m-280 59.1h280" stroke="#333" stroke-width="2" fill="none"/><use xlink:href="#O" transform="matrix(1,0,0,1,1518.666666666667,1266) translate(100.125 14.6)"/><use xlink:href="#v" transform="matrix(1,0,0,1,1522.666666666667,1303.6) translate(0 25.6)"/><use xlink:href="#P" transform="matrix(1,0,0,1,1522.666666666667,1303.6) translate(10.95 25.6)"/><use xlink:href="#H" transform="matrix(1,0,0,1,1522.666666666667,1362.6999999999998) translate(0 25.299999999999997)"/><use xlink:href="#Q" transform="matrix(1,0,0,1,1522.666666666667,1362.6999999999998) translate(15.5 25.299999999999997)"/><use xlink:href="#H" transform="matrix(1,0,0,1,1522.666666666667,1362.6999999999998) translate(0 46.9)"/><use xlink:href="#R" transform="matrix(1,0,0,1,1522.666666666667,1362.6999999999998) translate(15.5 46.9)"/><use xlink:href="#S" transform="matrix(1,0,0,1,1522.666666666667,1362.6999999999998) translate(129.3 46.9)"/><path d="M1510.67 1005h280v199h-280z" stroke="#333" stroke-width="2" fill="#fff"/><path d="M1510.67 1042.6h280m-280 59.1h280" stroke="#333" stroke-width="2" fill="none"/><use xlink:href="#T" transform="matrix(1,0,0,1,1518.666666666667,1013) translate(98.7 14.6)"/><use xlink:href="#v" transform="matrix(1,0,0,1,1522.666666666667,1050.6) translate(0 25.6)"/><use xlink:href="#U" transform="matrix(1,0,0,1,1522.666666666667,1050.6) translate(10.95 25.6)"/><use xlink:href="#H" transform="matrix(1,0,0,1,1522.666666666667,1109.6999999999998) translate(0 25.5)"/><use xlink:href="#V" transform="matrix(1,0,0,1,1522.666666666667,1109.6999999999998) translate(15.5 25.5)"/><use xlink:href="#W" transform="matrix(1,0,0,1,1522.666666666667,1109.6999999999998) translate(91.30000000000001 25.5)"/><use xlink:href="#X" transform="matrix(1,0,0,1,1522.666666666667,1109.6999999999998) translate(157.15 25.5)"/><use xlink:href="#Y" transform="matrix(1,0,0,1,1522.666666666667,1109.6999999999998) translate(181.1 25.5)"/><use xlink:href="#X" transform="matrix(1,0,0,1,1522.666666666667,1109.6999999999998) translate(0 47.1)"/><use xlink:href="#Z" transform="matrix(1,0,0,1,1522.666666666667,1109.6999999999998) translate(23.95 47.1)"/><use xlink:href="#aa" transform="matrix(1,0,0,1,1522.666666666667,1109.6999999999998) translate(113.8 47.1)"/><use xlink:href="#ab" transform="matrix(1,0,0,1,1522.666666666667,1109.6999999999998) translate(0 68.7)"/><path d="M1510.67 1489h280v156h-280z" stroke="#333" stroke-width="2" fill="#fff"/><path d="M1510.67 1526.6h280m-280 59.1h280" stroke="#333" stroke-width="2" fill="none"/><use xlink:href="#ac" transform="matrix(1,0,0,1,1518.666666666667,1497) translate(115 14.6)"/><path d="M1245.5 1234.67h180v156h-180z" stroke="#333" stroke-width="2" fill="#fff"/><path d="M1245.5 1272.27h180m-180 59.1h180" stroke="#333" stroke-width="2" fill="none"/><use xlink:href="#ad" transform="matrix(1,0,0,1,1253.5,1242.666666666667) translate(45.074999999999996 14.6)"/><use xlink:href="#ae" transform="matrix(1,0,0,1,1253.5,1242.666666666667) translate(101.975 14.6)"/><path d="M1000.17 487.33h180v156h-180z" stroke="#333" stroke-width="2" fill="#fff"/><path d="M1000.17 524.93h180m-180 59.1h180" stroke="#333" stroke-width="2" fill="none"/><use xlink:href="#af" transform="matrix(1,0,0,1,1008.166666666667,495.33333333333326) translate(67 14.6)"/><path d="M136.88 568H400v253H136.88z" stroke="#333" stroke-width="2" fill="#fff"/><path d="M136.88 605.6H400M136.88 761.9H400" stroke="#333" stroke-width="2" fill="none"/><use xlink:href="#ag" transform="matrix(1,0,0,1,144.87500000000034,576) translate(100.025 14.6)"/><use xlink:href="#ah" transform="matrix(1,0,0,1,144.87500000000034,576) translate(105.025 14.6)"/><use xlink:href="#v" transform="matrix(1,0,0,1,148.87500000000034,613.6) translate(0 14.4)"/><use xlink:href="#ai" transform="matrix(1,0,0,1,148.87500000000034,613.6) translate(10.95 14.4)"/><use xlink:href="#v" transform="matrix(1,0,0,1,148.87500000000034,613.6) translate(0 46.800000000000004)"/><use xlink:href="#aj" transform="matrix(1,0,0,1,148.87500000000034,613.6) translate(10.95 46.800000000000004)"/><use xlink:href="#ak" transform="matrix(1,0,0,1,148.87500000000034,613.6) translate(0 79.20000000000002)"/><use xlink:href="#al" transform="matrix(1,0,0,1,148.87500000000034,613.6) translate(0 111.60000000000002)"/><path d="M1520.17 233.5h180v156h-180z" stroke="#333" stroke-width="2" fill="#fff"/><path d="M1520.17 271.1h180m-180 59.1h180" stroke="#333" stroke-width="2" fill="none"/><use xlink:href="#am" transform="matrix(1,0,0,1,1528.166666666667,241.5) translate(52.574999999999996 14.6)"/><path d="M1780.17 233.5h180v156h-180z" stroke="#333" stroke-width="2" fill="#fff"/><path d="M1780.17 271.1h180m-180 59.1h180" stroke="#333" stroke-width="2" fill="none"/><use xlink:href="#an" transform="matrix(1,0,0,1,1788.166666666667,241.5) translate(15.125 14.6)"/><use xlink:href="#ao" transform="matrix(1,0,0,1,1788.166666666667,241.5) translate(80.025 14.6)"/><path d="M2040.17 487.33h180v177h-180z" stroke="#333" stroke-width="2" fill="#fff"/><path d="M2040.17 524.93h180m-180 80.7h180" stroke="#333" stroke-width="2" fill="none"/><use xlink:href="#ap" transform="matrix(1,0,0,1,2048.166666666667,495.33333333333326) translate(0 14.6)"/><use xlink:href="#v" transform="matrix(1,0,0,1,2052.166666666667,532.9333333333333) translate(0 25.299999999999997)"/><use xlink:href="#aq" transform="matrix(1,0,0,1,2052.166666666667,532.9333333333333) translate(10.95 25.299999999999997)"/><use xlink:href="#v" transform="matrix(1,0,0,1,2052.166666666667,532.9333333333333) translate(0 46.9)"/><use xlink:href="#ar" transform="matrix(1,0,0,1,2052.166666666667,532.9333333333333) translate(10.95 46.9)"/><path d="M1520.17 487.33h180v156h-180z" stroke="#333" stroke-width="2" fill="#fff"/><path d="M1520.17 524.93h180m-180 59.1h180" stroke="#333" stroke-width="2" fill="none"/><use xlink:href="#as" transform="matrix(1,0,0,1,1528.166666666667,495.33333333333326) translate(54.525 14.6)"/><path d="M2040.17 233.5h180v156h-180z" stroke="#333" stroke-width="2" fill="#fff"/><path d="M2040.17 271.1h180m-180 59.1h180" stroke="#333" stroke-width="2" fill="none"/><use xlink:href="#at" transform="matrix(1,0,0,1,2048.166666666667,241.5) translate(67.025 14.6)"/><path d="M431.38 735H467c6.63 0 12 5.37 12 12v51c0 6.63 5.37 12 12 12h84.17" stroke="#333" fill="none"/><path d="M401.7 735l14.86-14.85L431.7 735l-15.14 14.85z" stroke="#333" fill="#333"/><path d="M575.67 810.5h-.52v-1h.52z" fill="#333"/><path d="M431.38 256H458c6.63 0 12 5.37 12 12v307c0 6.63-5.37 12-12 12h-56.5" stroke="#333" fill="none"/><path d="M401.7 256l14.86-14.85L431.7 256l-15.14 14.85z" stroke="#333" fill="#333"/><path d="M401.5 587.5h-.5v-1h.5z" fill="#333"/><path d="M431.38 704h44.95c6.63 0 12-5.37 12-12V490.5c0-6.64 5.38-12 12-12h74.84" stroke="#333" fill="none"/><path d="M401.7 704l14.86-14.85L431.7 704l-15.14 14.85z" stroke="#333" fill="#333"/><path d="M575.67 479h-.52v-1h.52z" fill="#333"/><path d="M863.5 815.33h40v60h-40z" stroke="#000" stroke-opacity="0" stroke-width="2" fill="#fff" fill-opacity="0"/><use xlink:href="#au" transform="matrix(1,0,0,1,868.5,820.3333333333334) translate(10 28.6)"/><path d="M428 217h40v60h-40z" stroke="#000" stroke-opacity="0" stroke-width="2" fill="#fff" fill-opacity="0"/><use xlink:href="#au" transform="matrix(1,0,0,1,433,222) translate(10 28.6)"/><path d="M400 545.83h40v60h-40z" stroke="#000" stroke-opacity="0" stroke-width="2" fill="#fff" fill-opacity="0"/><use xlink:href="#au" transform="matrix(1,0,0,1,405,550.8333333333333) translate(10 28.6)"/><path d="M960.17 461h40v60h-40z" stroke="#000" stroke-opacity="0" stroke-width="2" fill="#fff" fill-opacity="0"/><use xlink:href="#au" transform="matrix(1,0,0,1,965.166666666667,466) translate(10 28.6)"/><path d="M536.67 434h40v60h-40z" stroke="#000" stroke-opacity="0" stroke-width="2" fill="#fff" fill-opacity="0"/><use xlink:href="#av" transform="matrix(1,0,0,1,541.666666666667,439) translate(1.5 28.6)"/><path d="M708.23 787.83v-65.16c0-.28-.22-.5-.5-.5s-.5-.23-.5-.5V679" stroke="#333" fill="none"/><path d="M708.73 788.33h-1v-.5h1z" fill="#333"/><path d="M707.23 656.98l12.73 21.52H694.5z" stroke="#333" fill="#fff"/><path d="M1350.17 644.83v68.77c0 6.63-5.38 12-12 12H720.23c-6.63 0-12-5.37-12-12V679" stroke="#333" fill="none"/><path d="M1350.67 644.85h-1v-.52h1z" fill="#333"/><path d="M708.23 656.98l12.73 21.52H695.5z" stroke="#333" fill="#fff"/><path d="M1610.17 644.83V714c0 6.63-5.38 12-12 12H720.23c-6.63 0-12-5.37-12-12v-35" stroke="#333" fill="none"/><path d="M1610.67 644.85h-1v-.52h1z" fill="#333"/><path d="M708.23 656.98l12.73 21.52H695.5z" stroke="#333" fill="#fff"/><path d="M1000.17 1005h180v156h-180z" stroke="#333" stroke-width="2" fill="#fff"/><path d="M1000.17 1042.6h180m-180 59.1h180" stroke="#333" stroke-width="2" fill="none"/><use xlink:href="#aw" transform="matrix(1,0,0,1,1008.166666666667,1013) translate(65.025 14.6)"/><path d="M1090.17 1003.5V737.6c0-6.63-5.38-12-12-12H720.23c-6.63 0-12-5.37-12-12V679" stroke="#333" fill="none"/><path d="M1090.67 1004h-1v-.5h1z" fill="#333"/><path d="M708.23 656.98l12.73 21.52H695.5z" stroke="#333" fill="#fff"/><path d="M998.67 1024.33h-27.5c-6.63 0-12-5.37-12-12v-84.5c0-6.62-5.38-12-12-12h-76" stroke="#333" fill="none"/><path d="M999.17 1024.83h-.52v-1h.52z" fill="#333"/><path d="M841.5 915.83l14.85-14.85 15.15 14.85-15.15 14.85z" stroke="#333" fill="#fff"/><path d="M1465.67 985.33h52v60h-52z" stroke="#000" stroke-opacity="0" stroke-width="2" fill="#fff" fill-opacity="0"/><g><use xlink:href="#av" transform="matrix(1,0,0,1,1470.666666666667,990.3333333333334) translate(7.5 28.6)"/></g><path d="M863.67 846.67h57v60h-57z" stroke="#000" stroke-opacity="0" stroke-width="2" fill="#fff" fill-opacity="0"/><g><use xlink:href="#av" transform="matrix(1,0,0,1,868.666666666667,851.6666666666666) translate(10 28.6)"/></g><path d="M2130.17 665.83V714c0 6.63-5.38 12-12 12H720.23c-6.63 0-12-5.37-12-12v-35" stroke="#333" fill="none"/><path d="M2130.67 665.85h-1v-.52h1z" fill="#333"/><path d="M708.23 656.98l12.73 21.52H695.5z" stroke="#333" fill="#fff"/><path d="M1090.17 644.83v67.97c0 6.63-5.38 12-12 12H720.23c-6.63 0-12-5.37-12-12V679" stroke="#333" fill="none"/><path d="M1090.67 644.85h-1v-.52h1z" fill="#333"/><path d="M708.23 656.98l12.73 21.52H695.5z" stroke="#333" fill="#fff"/><path d="M2130.17 391v72.32" stroke="#333" fill="none"/><path d="M2130.67 391h-1v-.5h1z" fill="#333"/><path d="M2130.17 485.35l-12.73-21.52h25.45z" stroke="#333" fill="#fff"/><path d="M1090.17 1232.67V1185" stroke="#333" fill="none"/><path d="M1090.67 1233.17h-1v-.52h1z" fill="#333"/><path d="M1090.17 1162.98l12.72 21.52h-25.46z" stroke="#333" fill="#fff"/><path d="M1090.17 1461.83v-47.66" stroke="#333" fill="none"/><path d="M1090.67 1462.33h-1v-.5h1z" fill="#333"/><path d="M1090.17 1392.15l12.72 21.52h-25.46z" stroke="#333" fill="#fff"/><path d="M1870.17 391v35.42c0 6.62-5.38 12-12 12h-236c-6.63 0-12 5.37-12 12v12.9" stroke="#333" fill="none"/><path d="M1870.67 391h-1v-.5h1z" fill="#333"/><path d="M1610.17 485.35l-12.73-21.52h25.45z" stroke="#333" fill="#fff"/><path d="M1610.17 391v72.33" stroke="#333" fill="none"/><path d="M1610.67 391h-1v-.5h1z" fill="#333"/><path d="M1610.17 485.35l-12.73-21.52h25.45z" stroke="#333" fill="#fff"/><path d="M1335.5 1233.17v-23.34c0-6.62-5.37-12-12-12h-221.33c-6.63 0-12-5.37-12-12v-.83" stroke="#333" fill="none"/><path d="M1336 1233.67h-1v-.52h1z" fill="#333"/><path d="M1090.17 1162.98l12.72 21.52h-25.46z" stroke="#333" fill="#fff"/><path d="M998.67 505h-66.7c-6.62 0-12 5.37-12 12v324.33c0 6.63-5.36 12-12 12h-36.8" stroke="#333" fill="none"/><path d="M999.17 505.5h-.52v-1h.52z" fill="#333"/><path d="M841.5 853.33l14.85-14.85 15.15 14.85-15.15 14.85z" stroke="#333" fill="#fff"/><path d="M1650.67 1003.5V738c0-6.63-5.38-12-12-12H720.23c-6.63 0-12-5.37-12-12v-35" stroke="#333" fill="none"/><path d="M1651.17 1004h-1v-.5h1z" fill="#333"/><path d="M708.23 656.98l12.73 21.52H695.5z" stroke="#333" fill="#fff"/><path d="M871.17 886H1314c6.63 0 12 5.37 12 12v114c0 6.63 5.37 12 12 12h171.17" stroke="#333" fill="none"/><path d="M841.5 886l14.85-14.85L871.5 886l-15.15 14.85z" stroke="#333" fill="#fff"/><path d="M1509.67 1024.5h-.52v-1h.52z" fill="#333"/><path d="M1650.67 1487.5V1459" stroke="#333" fill="none"/><path d="M1651.17 1488h-1v-.5h1z" fill="#333"/><path d="M1650.67 1436.98l12.72 21.52h-25.46z" stroke="#333" fill="#fff"/><path d="M1650.67 1256.5V1228" stroke="#333" fill="none"/><path d="M1651.17 1257h-1v-.5h1z" fill="#333"/><path d="M1650.67 1205.98l12.72 21.52h-25.46z" stroke="#333" fill="#fff"/><path d="M421 694h40v60h-40z" stroke="#000" stroke-opacity="0" stroke-width="2" fill="#fff" fill-opacity="0"/><g><use xlink:href="#au" transform="matrix(1,0,0,1,426,699.0000000000001) translate(10 28.6)"/></g><path d="M953.67 986.33h57v60h-57z" stroke="#000" stroke-opacity="0" stroke-width="2" fill="#fff" fill-opacity="0"/><g><use xlink:href="#av" transform="matrix(1,0,0,1,958.666666666667,991.3333333333334) translate(10 28.6)"/></g><path d="M863.5 877.33h57v60h-57z" stroke="#000" stroke-opacity="0" stroke-width="2" fill="#fff" fill-opacity="0"/><g><use xlink:href="#av" transform="matrix(1,0,0,1,868.5,882.3333333333334) translate(10 28.6)"/></g><path d="M428 658h40v60h-40z" stroke="#000" stroke-opacity="0" stroke-width="2" fill="#fff" fill-opacity="0"/><g><use xlink:href="#av" transform="matrix(1,0,0,1,433,663) translate(1.5 28.6)"/></g><path d="M536.67 766h40v60h-40z" stroke="#000" stroke-opacity="0" stroke-width="2" fill="#fff" fill-opacity="0"/><g><use xlink:href="#au" transform="matrix(1,0,0,1,541.666666666667,771) translate(10 28.6)"/></g><defs><path fill="#333" d="M67-125c0 54 23 88 75 88 28 0 53-7 68-21v-34h-60v-39h108v91C232-14 192 4 140 4 58 4 20-42 15-125 8-236 126-280 215-234c19 10 29 26 37 47l-47 15c-11-23-29-39-63-39-53 1-75 33-75 86" id="ax"/><path fill="#333" d="M133-34C117-15 103 5 69 4 32 3 11-16 11-54c-1-60 55-63 116-61 1-26-3-47-28-47-18 1-26 9-28 27l-52-2c7-38 36-58 82-57s74 22 75 68l1 82c-1 14 12 18 25 15v27c-30 8-71 5-69-32zm-48 3c29 0 43-24 42-57-32 0-66-3-65 30 0 17 8 27 23 27" id="ay"/><path fill="#333" d="M220-157c-53 9-28 100-34 157h-49v-107c1-27-5-49-29-50C55-147 81-57 75 0H25l-1-190h47c2 12-1 28 3 38 10-53 101-56 108 0 13-22 24-43 59-42 82 1 51 116 57 194h-49v-107c-1-25-5-48-29-50" id="az"/><path fill="#333" d="M185-48c-13 30-37 53-82 52C43 2 14-33 14-96s30-98 90-98c62 0 83 45 84 108H66c0 31 8 55 39 56 18 0 30-7 34-22zm-45-69c5-46-57-63-70-21-2 6-4 13-4 21h74" id="aA"/><path fill="#333" d="M135-194c53 0 70 44 70 98 0 56-19 98-73 100-31 1-45-17-59-34 3 33 2 69 2 105H25l-1-265h48c2 10 0 23 3 31 11-24 29-35 60-35zM114-30c33 0 39-31 40-66 0-38-9-64-40-64-56 0-55 130 0 130" id="aB"/><path fill="#333" d="M25 0v-261h50V0H25" id="aC"/><path fill="#333" d="M123 10C108 53 80 86 19 72V37c35 8 53-11 59-39L3-190h52l48 148c12-52 28-100 44-148h51" id="aD"/><path fill="#333" d="M169-182c-1-43-94-46-97-3 18 66 151 10 154 114 3 95-165 93-204 36-6-8-10-19-12-30l50-8c3 46 112 56 116 5-17-69-150-10-154-114-4-87 153-88 188-35 5 8 8 18 10 28" id="aE"/><path fill="#333" d="M115-3C79 11 28 4 28-45v-112H4v-33h27l15-45h31v45h36v33H77v99c-1 23 16 31 38 25v30" id="aF"/><g id="a"><use transform="matrix(0.05,0,0,0.05,0,0)" xlink:href="#ax"/><use transform="matrix(0.05,0,0,0.05,14,0)" xlink:href="#ay"/><use transform="matrix(0.05,0,0,0.05,24,0)" xlink:href="#az"/><use transform="matrix(0.05,0,0,0.05,40,0)" xlink:href="#aA"/><use transform="matrix(0.05,0,0,0.05,50,0)" xlink:href="#aB"/><use transform="matrix(0.05,0,0,0.05,60.95,0)" xlink:href="#aC"/><use transform="matrix(0.05,0,0,0.05,65.95,0)" xlink:href="#ay"/><use transform="matrix(0.05,0,0,0.05,75.95,0)" xlink:href="#aD"/><use transform="matrix(0.05,0,0,0.05,85.95,0)" xlink:href="#aE"/><use transform="matrix(0.05,0,0,0.05,97.95,0)" xlink:href="#aF"/><use transform="matrix(0.05,0,0,0.05,103.9,0)" xlink:href="#ay"/><use transform="matrix(0.05,0,0,0.05,113.9,0)" xlink:href="#aF"/><use transform="matrix(0.05,0,0,0.05,119.85000000000001,0)" xlink:href="#aA"/></g><path fill="#333" d="M16-82v-28h88v28H16" id="aG"/><use transform="matrix(0.05,0,0,0.05,0,0)" xlink:href="#aG" id="b"/><path fill="#333" d="M210-169c-67 3-38 105-44 169h-31v-121c0-29-5-50-35-48C34-165 62-65 56 0H25l-1-190h30c1 10-1 24 2 32 10-44 99-50 107 0 11-21 27-35 58-36 85-2 47 119 55 194h-31v-121c0-29-5-49-35-48" id="aH"/><path fill="#333" d="M-5 72V49h209v23H-5" id="aI"/><path fill="#333" d="M24 0v-261h32V0H24" id="aJ"/><path fill="#333" d="M100-194c63 0 86 42 84 106H49c0 40 14 67 53 68 26 1 43-12 49-29l28 8c-11 28-37 45-77 45C44 4 14-33 15-96c1-61 26-98 85-98zm52 81c6-60-76-77-97-28-3 7-6 17-6 28h103" id="aK"/><path fill="#333" d="M108 0H70L1-190h34L89-25l56-165h34" id="aL"/><path fill="#333" d="M33-154v-36h34v36H33zM33 0v-36h34V0H33" id="aM"/><path fill="#333" d="M30 0v-248h33v221h125V0H30" id="aN"/><g id="c"><use transform="matrix(0.05,0,0,0.05,0,0)" xlink:href="#aH"/><use transform="matrix(0.05,0,0,0.05,14.950000000000001,0)" xlink:href="#aI"/><use transform="matrix(0.05,0,0,0.05,24.950000000000003,0)" xlink:href="#aJ"/><use transform="matrix(0.05,0,0,0.05,28.900000000000002,0)" xlink:href="#aK"/><use transform="matrix(0.05,0,0,0.05,38.900000000000006,0)" xlink:href="#aL"/><use transform="matrix(0.05,0,0,0.05,47.900000000000006,0)" xlink:href="#aK"/><use transform="matrix(0.05,0,0,0.05,57.900000000000006,0)" xlink:href="#aJ"/><use transform="matrix(0.05,0,0,0.05,61.85,0)" xlink:href="#aM"/><use transform="matrix(0.05,0,0,0.05,66.85000000000001,0)" xlink:href="#aN"/><use transform="matrix(0.05,0,0,0.05,76.85000000000001,0)" xlink:href="#aK"/><use transform="matrix(0.05,0,0,0.05,86.85000000000001,0)" xlink:href="#aL"/><use transform="matrix(0.05,0,0,0.05,95.85000000000001,0)" xlink:href="#aK"/><use transform="matrix(0.05,0,0,0.05,105.85000000000001,0)" xlink:href="#aJ"/></g><path fill="#333" d="M118-107v75H92v-75H18v-26h74v-75h26v75h74v26h-74" id="aO"/><use transform="matrix(0.05,0,0,0.05,0,0)" xlink:href="#aO" id="d"/><path fill="#333" d="M30 0v-248h187v28H63v79h144v27H63v87h162V0H30" id="aP"/><path fill="#333" d="M117-194c89-4 53 116 60 194h-32v-121c0-31-8-49-39-48C34-167 62-67 57 0H25l-1-190h30c1 10-1 24 2 32 11-22 29-35 61-36" id="aQ"/><path fill="#333" d="M59-47c-2 24 18 29 38 22v24C64 9 27 4 27-40v-127H5v-23h24l9-43h21v43h35v23H59v120" id="aR"/><path fill="#333" d="M114-163C36-179 61-72 57 0H25l-1-190h30c1 12-1 29 2 39 6-27 23-49 58-41v29" id="aS"/><path fill="#333" d="M87 75C49 33 22-17 22-94c0-76 28-126 65-167h31c-38 41-64 92-64 168S80 34 118 75H87" id="aT"/><path fill="#333" d="M33-261c38 41 65 92 65 168S71 34 33 75H2C39 34 66-17 66-93S39-220 2-261h31" id="aU"/><path fill="#333" d="M100-194c62-1 85 37 85 99 1 63-27 99-86 99S16-35 15-95c0-66 28-99 85-99zM99-20c44 1 53-31 53-75 0-43-8-75-51-75s-53 32-53 75 10 74 51 75" id="aV"/><path fill="#333" d="M24-231v-30h32v30H24zM24 0v-190h32V0H24" id="aW"/><path fill="#333" d="M85-194c31 0 48 13 60 33l-1-100h32l1 261h-30c-2-10 0-23-3-31C134-8 116 4 85 4 32 4 16-35 15-94c0-66 23-100 70-100zm9 24c-40 0-46 34-46 75 0 40 6 74 45 74 42 0 51-32 51-76 0-42-9-74-50-73" id="aX"/><g id="e"><use transform="matrix(0.05,0,0,0.05,0,0)" xlink:href="#aP"/><use transform="matrix(0.05,0,0,0.05,12,0)" xlink:href="#aQ"/><use transform="matrix(0.05,0,0,0.05,22,0)" xlink:href="#aR"/><use transform="matrix(0.05,0,0,0.05,27,0)" xlink:href="#aK"/><use transform="matrix(0.05,0,0,0.05,37,0)" xlink:href="#aS"/><use transform="matrix(0.05,0,0,0.05,42.95,0)" xlink:href="#aT"/><use transform="matrix(0.05,0,0,0.05,48.900000000000006,0)" xlink:href="#aU"/><use transform="matrix(0.05,0,0,0.05,54.85,0)" xlink:href="#aM"/><use transform="matrix(0.05,0,0,0.05,59.85,0)" xlink:href="#aL"/><use transform="matrix(0.05,0,0,0.05,68.85000000000001,0)" xlink:href="#aV"/><use transform="matrix(0.05,0,0,0.05,78.85000000000001,0)" xlink:href="#aW"/><use transform="matrix(0.05,0,0,0.05,82.80000000000001,0)" xlink:href="#aX"/></g><path fill="#333" d="M232-93c-1 65-40 97-104 97C67 4 28-28 28-90v-158h33c8 89-33 224 67 224 102 0 64-133 71-224h33v155" id="aY"/><path fill="#333" d="M115-194c55 1 70 41 70 98S169 2 115 4C84 4 66-9 55-30l1 105H24l-1-265h31l2 30c10-21 28-34 59-34zm-8 174c40 0 45-34 45-75s-6-73-45-74c-42 0-51 32-51 76 0 43 10 73 51 73" id="aZ"/><path fill="#333" d="M141-36C126-15 110 5 73 4 37 3 15-17 15-53c-1-64 63-63 125-63 3-35-9-54-41-54-24 1-41 7-42 31l-33-3c5-37 33-52 76-52 45 0 72 20 72 64v82c-1 20 7 32 28 27v20c-31 9-61-2-59-35zM48-53c0 20 12 33 32 33 41-3 63-29 60-74-43 2-92-5-92 41" id="ba"/><path fill="#333" d="M115-194c53 0 69 39 70 98 0 66-23 100-70 100C84 3 66-7 56-30L54 0H23l1-261h32v101c10-23 28-34 59-34zm-8 174c40 0 45-34 45-75 0-40-5-75-45-74-42 0-51 32-51 76 0 43 10 73 51 73" id="bb"/><g id="f"><use transform="matrix(0.05,0,0,0.05,0,0)" xlink:href="#aY"/><use transform="matrix(0.05,0,0,0.05,12.950000000000001,0)" xlink:href="#aZ"/><use transform="matrix(0.05,0,0,0.05,22.950000000000003,0)" xlink:href="#aX"/><use transform="matrix(0.05,0,0,0.05,32.95,0)" xlink:href="#ba"/><use transform="matrix(0.05,0,0,0.05,42.95,0)" xlink:href="#aR"/><use transform="matrix(0.05,0,0,0.05,47.95,0)" xlink:href="#aK"/><use transform="matrix(0.05,0,0,0.05,57.95,0)" xlink:href="#aT"/><use transform="matrix(0.05,0,0,0.05,63.900000000000006,0)" xlink:href="#bb"/><use transform="matrix(0.05,0,0,0.05,73.9,0)" xlink:href="#aV"/><use transform="matrix(0.05,0,0,0.05,83.9,0)" xlink:href="#aV"/><use transform="matrix(0.05,0,0,0.05,93.9,0)" xlink:href="#aJ"/></g><path fill="#333" d="M96-169c-40 0-48 33-48 73s9 75 48 75c24 0 41-14 43-38l32 2c-6 37-31 61-74 61-59 0-76-41-82-99-10-93 101-131 147-64 4 7 5 14 7 22l-32 3c-4-21-16-35-41-35" id="bc"/><path fill="#333" d="M135-143c-3-34-86-38-87 0 15 53 115 12 119 90S17 21 10-45l28-5c4 36 97 45 98 0-10-56-113-15-118-90-4-57 82-63 122-42 12 7 21 19 24 35" id="bd"/><path fill="#333" d="M33 0v-248h34V0H33" id="be"/><path fill="#333" d="M84 4C-5 8 30-112 23-190h32v120c0 31 7 50 39 49 72-2 45-101 50-169h31l1 190h-30c-1-10 1-25-2-33-11 22-28 36-60 37" id="bf"/><g id="g"><use transform="matrix(0.05,0,0,0.05,0,0)" xlink:href="#aZ"/><use transform="matrix(0.05,0,0,0.05,10,0)" xlink:href="#aS"/><use transform="matrix(0.05,0,0,0.05,15.949999999999998,0)" xlink:href="#aV"/><use transform="matrix(0.05,0,0,0.05,25.950000000000003,0)" xlink:href="#bc"/><use transform="matrix(0.05,0,0,0.05,34.95,0)" xlink:href="#aK"/><use transform="matrix(0.05,0,0,0.05,44.95,0)" xlink:href="#bd"/><use transform="matrix(0.05,0,0,0.05,53.95,0)" xlink:href="#bd"/><use transform="matrix(0.05,0,0,0.05,62.95,0)" xlink:href="#be"/><use transform="matrix(0.05,0,0,0.05,67.95,0)" xlink:href="#aQ"/><use transform="matrix(0.05,0,0,0.05,77.95,0)" xlink:href="#aZ"/><use transform="matrix(0.05,0,0,0.05,87.95,0)" xlink:href="#bf"/><use transform="matrix(0.05,0,0,0.05,97.95,0)" xlink:href="#aR"/><use transform="matrix(0.05,0,0,0.05,102.95,0)" xlink:href="#aU"/><use transform="matrix(0.05,0,0,0.05,108.9,0)" xlink:href="#aM"/><use transform="matrix(0.05,0,0,0.05,113.9,0)" xlink:href="#bb"/><use transform="matrix(0.05,0,0,0.05,123.9,0)" xlink:href="#aV"/><use transform="matrix(0.05,0,0,0.05,133.9,0)" xlink:href="#aV"/><use transform="matrix(0.05,0,0,0.05,143.9,0)" xlink:href="#aJ"/></g><path fill="#333" d="M30-248c118-7 216 8 213 122C240-48 200 0 122 0H30v-248zM63-27c89 8 146-16 146-99s-60-101-146-95v194" id="bg"/><path fill="#333" d="M206 0h-36l-40-164L89 0H53L-1-190h32L70-26l43-164h34l41 164 42-164h31" id="bh"/><g id="h"><use transform="matrix(0.05,0,0,0.05,0,0)" xlink:href="#bg"/><use transform="matrix(0.05,0,0,0.05,12.950000000000001,0)" xlink:href="#aS"/><use transform="matrix(0.05,0,0,0.05,18.900000000000002,0)" xlink:href="#ba"/><use transform="matrix(0.05,0,0,0.05,28.900000000000002,0)" xlink:href="#bh"/><use transform="matrix(0.05,0,0,0.05,41.85,0)" xlink:href="#aT"/><use transform="matrix(0.05,0,0,0.05,47.800000000000004,0)" xlink:href="#aZ"/><use transform="matrix(0.05,0,0,0.05,57.800000000000004,0)" xlink:href="#ba"/><use transform="matrix(0.05,0,0,0.05,67.80000000000001,0)" xlink:href="#aS"/><use transform="matrix(0.05,0,0,0.05,73.75000000000001,0)" xlink:href="#ba"/><use transform="matrix(0.05,0,0,0.05,83.75000000000001,0)" xlink:href="#aH"/><use transform="matrix(0.05,0,0,0.05,98.70000000000002,0)" xlink:href="#bd"/><use transform="matrix(0.05,0,0,0.05,107.7,0)" xlink:href="#aU"/><use transform="matrix(0.05,0,0,0.05,113.65000000000003,0)" xlink:href="#aM"/><use transform="matrix(0.05,0,0,0.05,118.65000000000003,0)" xlink:href="#aL"/><use transform="matrix(0.05,0,0,0.05,127.65000000000003,0)" xlink:href="#aV"/><use transform="matrix(0.05,0,0,0.05,137.65000000000003,0)" xlink:href="#aW"/><use transform="matrix(0.05,0,0,0.05,141.60000000000002,0)" xlink:href="#aX"/></g><path fill="#a9afb8" d="M101-251c68 0 84 54 84 127C185-50 166 4 99 4S15-52 14-124c-1-75 17-127 87-127zm-1 216c37-5 36-46 36-89s4-89-36-89c-39 0-36 45-36 89 0 43-3 85 36 89" id="bi"/><path fill="#a9afb8" d="M23 0v-37h61v-169l-59 37v-38l62-41h46v211h57V0H23" id="bj"/><g id="i"><use transform="matrix(0.0728395061728395,0,0,0.0728395061728395,0,0)" xlink:href="#bi"/><use transform="matrix(0.0728395061728395,0,0,0.0728395061728395,14.5679012345679,0)" xlink:href="#bj"/></g><path fill="#a9afb8" d="M67-125c0 53 21 87 73 88 37 1 54-22 65-47l45 17C233-25 199 4 140 4 58 4 20-42 15-125 8-235 124-281 211-232c18 10 29 29 36 50l-46 12c-8-25-30-41-62-41-52 0-71 34-72 86" id="bk"/><path fill="#a9afb8" d="M25 0v-261h50V0H25" id="bl"/><path fill="#a9afb8" d="M133-34C117-15 103 5 69 4 32 3 11-16 11-54c-1-60 55-63 116-61 1-26-3-47-28-47-18 1-26 9-28 27l-52-2c7-38 36-58 82-57s74 22 75 68l1 82c-1 14 12 18 25 15v27c-30 8-71 5-69-32zm-48 3c29 0 43-24 42-57-32 0-66-3-65 30 0 17 8 27 23 27" id="bm"/><path fill="#a9afb8" d="M137-138c1-29-70-34-71-4 15 46 118 7 119 86 1 83-164 76-172 9l43-7c4 19 20 25 44 25 33 8 57-30 24-41C81-84 22-81 20-136c-2-80 154-74 161-7" id="bn"/><path fill="#a9afb8" d="M185-48c-13 30-37 53-82 52C43 2 14-33 14-96s30-98 90-98c62 0 83 45 84 108H66c0 31 8 55 39 56 18 0 30-7 34-22zm-45-69c5-46-57-63-70-21-2 6-4 13-4 21h74" id="bo"/><g id="j"><use transform="matrix(0.0728395061728395,0,0,0.0728395061728395,0,0)" xlink:href="#bk"/><use transform="matrix(0.0728395061728395,0,0,0.0728395061728395,18.86543209876543,0)" xlink:href="#bl"/><use transform="matrix(0.0728395061728395,0,0,0.0728395061728395,26.14938271604938,0)" xlink:href="#bm"/><use transform="matrix(0.0728395061728395,0,0,0.0728395061728395,40.717283950617286,0)" xlink:href="#bn"/><use transform="matrix(0.0728395061728395,0,0,0.0728395061728395,55.28518518518518,0)" xlink:href="#bn"/><use transform="matrix(0.0728395061728395,0,0,0.0728395061728395,69.85308641975308,0)" xlink:href="#bo"/><use transform="matrix(0.0728395061728395,0,0,0.0728395061728395,84.42098765432098,0)" xlink:href="#bn"/></g><path fill="#a9afb8" d="M140-251c80 0 125 45 125 126S219 4 139 4C58 4 15-44 15-125s44-126 125-126zm-1 214c52 0 73-35 73-88 0-50-21-86-72-86-52 0-73 35-73 86s22 88 72 88" id="bp"/><path fill="#a9afb8" d="M128 0H69L1-190h53L99-40l48-150h52" id="bq"/><path fill="#a9afb8" d="M135-150c-39-12-60 13-60 57V0H25l-1-190h47c2 13-1 29 3 40 6-28 27-53 61-41v41" id="br"/><path fill="#a9afb8" d="M25-224v-37h50v37H25zM25 0v-190h50V0H25" id="bs"/><path fill="#a9afb8" d="M231 0h-52l-39-155L100 0H48L-1-190h46L77-45c9-52 24-97 36-145h53l37 145 32-145h46" id="bt"/><g id="k"><use transform="matrix(0.0728395061728395,0,0,0.0728395061728395,0,0)" xlink:href="#bp"/><use transform="matrix(0.0728395061728395,0,0,0.0728395061728395,20.39506172839506,0)" xlink:href="#bq"/><use transform="matrix(0.0728395061728395,0,0,0.0728395061728395,34.96296296296296,0)" xlink:href="#bo"/><use transform="matrix(0.0728395061728395,0,0,0.0728395061728395,49.53086419753086,0)" xlink:href="#br"/><use transform="matrix(0.0728395061728395,0,0,0.0728395061728395,59.72839506172839,0)" xlink:href="#bq"/><use transform="matrix(0.0728395061728395,0,0,0.0728395061728395,74.29629629629629,0)" xlink:href="#bs"/><use transform="matrix(0.0728395061728395,0,0,0.0728395061728395,81.58024691358024,0)" xlink:href="#bo"/><use transform="matrix(0.0728395061728395,0,0,0.0728395061728395,96.14814814814812,0)" xlink:href="#bt"/></g><path fill="#a9afb8" d="M233-177c-1 41-23 64-60 70L243 0h-38l-65-103H63V0H30v-248c88 3 205-21 203 71zM63-129c60-2 137 13 137-47 0-61-80-42-137-45v92" id="bu"/><path fill="#a9afb8" d="M141-36C126-15 110 5 73 4 37 3 15-17 15-53c-1-64 63-63 125-63 3-35-9-54-41-54-24 1-41 7-42 31l-33-3c5-37 33-52 76-52 45 0 72 20 72 64v82c-1 20 7 32 28 27v20c-31 9-61-2-59-35zM48-53c0 20 12 33 32 33 41-3 63-29 60-74-43 2-92-5-92 41" id="bv"/><path fill="#a9afb8" d="M115-194c55 1 70 41 70 98S169 2 115 4C84 4 66-9 55-30l1 105H24l-1-265h31l2 30c10-21 28-34 59-34zm-8 174c40 0 45-34 45-75s-6-73-45-74c-42 0-51 32-51 76 0 43 10 73 51 73" id="bw"/><path fill="#a9afb8" d="M106-169C34-169 62-67 57 0H25v-261h32l-1 103c12-21 28-36 61-36 89 0 53 116 60 194h-32v-121c2-32-8-49-39-48" id="bx"/><path fill="#a9afb8" d="M100-194c63 0 86 42 84 106H49c0 40 14 67 53 68 26 1 43-12 49-29l28 8c-11 28-37 45-77 45C44 4 14-33 15-96c1-61 26-98 85-98zm52 81c6-60-76-77-97-28-3 7-6 17-6 28h103" id="by"/><path fill="#a9afb8" d="M24 0v-261h32V0H24" id="bz"/><g id="l"><use transform="matrix(0.04248971193415638,0,0,0.04248971193415638,0,0)" xlink:href="#bu"/><use transform="matrix(0.04248971193415638,0,0,0.04248971193415638,11.004835390946502,0)" xlink:href="#bv"/><use transform="matrix(0.04248971193415638,0,0,0.04248971193415638,19.502777777777776,0)" xlink:href="#bw"/><use transform="matrix(0.04248971193415638,0,0,0.04248971193415638,28.000720164609046,0)" xlink:href="#bx"/><use transform="matrix(0.04248971193415638,0,0,0.04248971193415638,36.498662551440326,0)" xlink:href="#bv"/><use transform="matrix(0.04248971193415638,0,0,0.04248971193415638,44.9966049382716,0)" xlink:href="#by"/><use transform="matrix(0.04248971193415638,0,0,0.04248971193415638,53.49454732510288,0)" xlink:href="#bz"/></g><path fill="#a9afb8" d="M197 0v-115H63V0H30v-248h33v105h134v-105h34V0h-34" id="bA"/><path fill="#a9afb8" d="M210-169c-67 3-38 105-44 169h-31v-121c0-29-5-50-35-48C34-165 62-65 56 0H25l-1-190h30c1 10-1 24 2 32 10-44 99-50 107 0 11-21 27-35 58-36 85-2 47 119 55 194h-31v-121c0-29-5-49-35-48" id="bB"/><path fill="#a9afb8" d="M9 0v-24l116-142H16v-24h144v24L44-24h123V0H9" id="bC"/><path fill="#a9afb8" d="M177-190C167-65 218 103 67 71c-23-6-38-20-44-43l32-5c15 47 100 32 89-28v-30C133-14 115 1 83 1 29 1 15-40 15-95c0-56 16-97 71-98 29-1 48 16 59 35 1-10 0-23 2-32h30zM94-22c36 0 50-32 50-73 0-42-14-75-50-75-39 0-46 34-46 75s6 73 46 73" id="bD"/><path fill="#a9afb8" d="M24-231v-30h32v30H24zM24 0v-190h32V0H24" id="bE"/><path fill="#a9afb8" d="M96-169c-40 0-48 33-48 73s9 75 48 75c24 0 41-14 43-38l32 2c-6 37-31 61-74 61-59 0-76-41-82-99-10-93 101-131 147-64 4 7 5 14 7 22l-32 3c-4-21-16-35-41-35" id="bF"/><g id="m"><use transform="matrix(0.04248971193415638,0,0,0.04248971193415638,0,0)" xlink:href="#bA"/><use transform="matrix(0.04248971193415638,0,0,0.04248971193415638,11.004835390946502,0)" xlink:href="#bv"/><use transform="matrix(0.04248971193415638,0,0,0.04248971193415638,19.502777777777776,0)" xlink:href="#bB"/><use transform="matrix(0.04248971193415638,0,0,0.04248971193415638,32.20720164609053,0)" xlink:href="#bC"/><use transform="matrix(0.04248971193415638,0,0,0.04248971193415638,39.85534979423868,0)" xlink:href="#bv"/><use transform="matrix(0.04248971193415638,0,0,0.04248971193415638,48.35329218106995,0)" xlink:href="#bD"/><use transform="matrix(0.04248971193415638,0,0,0.04248971193415638,56.85123456790123,0)" xlink:href="#bE"/><use transform="matrix(0.04248971193415638,0,0,0.04248971193415638,60.20792181069959,0)" xlink:href="#bF"/></g><path fill="#a9afb8" d="M85-194c31 0 48 13 60 33l-1-100h32l1 261h-30c-2-10 0-23-3-31C134-8 116 4 85 4 32 4 16-35 15-94c0-66 23-100 70-100zm9 24c-40 0-46 34-46 75 0 40 6 74 45 74 42 0 51-32 51-76 0-42-9-74-50-73" id="bG"/><g id="n"><use transform="matrix(0.04248971193415638,0,0,0.04248971193415638,0,0)" xlink:href="#bG"/><use transform="matrix(0.04248971193415638,0,0,0.04248971193415638,8.497942386831275,0)" xlink:href="#by"/></g><path fill="#a9afb8" d="M212-179c-10-28-35-45-73-45-59 0-87 40-87 99 0 60 29 101 89 101 43 0 62-24 78-52l27 14C228-24 195 4 139 4 59 4 22-46 18-125c-6-104 99-153 187-111 19 9 31 26 39 46" id="bH"/><path fill="#a9afb8" d="M114-163C36-179 61-72 57 0H25l-1-190h30c1 12-1 29 2 39 6-27 23-49 58-41v29" id="bI"/><path fill="#a9afb8" d="M108 0H70L1-190h34L89-25l56-165h34" id="bJ"/><path fill="#a9afb8" d="M100-194c62-1 85 37 85 99 1 63-27 99-86 99S16-35 15-95c0-66 28-99 85-99zM99-20c44 1 53-31 53-75 0-43-8-75-51-75s-53 32-53 75 10 74 51 75" id="bK"/><g id="o"><use transform="matrix(0.04248971193415638,0,0,0.04248971193415638,0,0)" xlink:href="#bH"/><use transform="matrix(0.04248971193415638,0,0,0.04248971193415638,11.004835390946502,0)" xlink:href="#bv"/><use transform="matrix(0.04248971193415638,0,0,0.04248971193415638,19.502777777777776,0)" xlink:href="#bI"/><use transform="matrix(0.04248971193415638,0,0,0.04248971193415638,24.559053497942386,0)" xlink:href="#bJ"/><use transform="matrix(0.04248971193415638,0,0,0.04248971193415638,32.20720164609053,0)" xlink:href="#bv"/><use transform="matrix(0.04248971193415638,0,0,0.04248971193415638,40.70514403292181,0)" xlink:href="#bz"/><use transform="matrix(0.04248971193415638,0,0,0.04248971193415638,44.06183127572016,0)" xlink:href="#bx"/><use transform="matrix(0.04248971193415638,0,0,0.04248971193415638,52.559773662551436,0)" xlink:href="#bK"/></g><path fill="#a9afb8" d="M32 76v-337h29V76H32" id="bL"/><use transform="matrix(0.04248971193415638,0,0,0.04248971193415638,0,0)" xlink:href="#bL" id="p"/><path fill="#a9afb8" d="M190 0L58-211 59 0H30v-248h39L202-35l-2-213h31V0h-41" id="bM"/><path fill="#a9afb8" d="M115-194c53 0 69 39 70 98 0 66-23 100-70 100C84 3 66-7 56-30L54 0H23l1-261h32v101c10-23 28-34 59-34zm-8 174c40 0 45-34 45-75 0-40-5-75-45-74-42 0-51 32-51 76 0 43 10 73 51 73" id="bN"/><g id="q"><use transform="matrix(0.04248971193415638,0,0,0.04248971193415638,0,0)" xlink:href="#bM"/><use transform="matrix(0.04248971193415638,0,0,0.04248971193415638,11.004835390946502,0)" xlink:href="#bK"/><use transform="matrix(0.04248971193415638,0,0,0.04248971193415638,19.502777777777776,0)" xlink:href="#bJ"/><use transform="matrix(0.04248971193415638,0,0,0.04248971193415638,27.150925925925925,0)" xlink:href="#by"/><use transform="matrix(0.04248971193415638,0,0,0.04248971193415638,35.6488683127572,0)" xlink:href="#bB"/><use transform="matrix(0.04248971193415638,0,0,0.04248971193415638,48.35329218106995,0)" xlink:href="#bN"/><use transform="matrix(0.04248971193415638,0,0,0.04248971193415638,56.851234567901244,0)" xlink:href="#by"/><use transform="matrix(0.04248971193415638,0,0,0.04248971193415638,65.34917695473251,0)" xlink:href="#bI"/></g><path fill="#a9afb8" d="M101-251c82-7 93 87 43 132L82-64C71-53 59-42 53-27h129V0H18c2-99 128-94 128-182 0-28-16-43-45-43s-46 15-49 41l-32-3c6-41 34-60 81-64" id="bO"/><path fill="#a9afb8" d="M64 0c3-98 48-159 88-221H18v-27h164v26C143-157 98-101 97 0H64" id="bP"/><path fill="#a9afb8" d="M68-38c1 34 0 65-14 84H32c9-13 17-26 17-46H33v-38h35" id="bQ"/><g id="r"><use transform="matrix(0.04248971193415638,0,0,0.04248971193415638,0,0)" xlink:href="#bO"/><use transform="matrix(0.04248971193415638,0,0,0.04248971193415638,8.497942386831275,0)" xlink:href="#bP"/><use transform="matrix(0.04248971193415638,0,0,0.04248971193415638,16.99588477366255,0)" xlink:href="#bQ"/></g><path fill="#a9afb8" d="M101-251c68 0 85 55 85 127S166 4 100 4C33 4 14-52 14-124c0-73 17-127 87-127zm-1 229c47 0 54-49 54-102s-4-102-53-102c-51 0-55 48-55 102 0 53 5 102 54 102" id="bR"/><g id="s"><use transform="matrix(0.04248971193415638,0,0,0.04248971193415638,0,0)" xlink:href="#bO"/><use transform="matrix(0.04248971193415638,0,0,0.04248971193415638,8.497942386831275,0)" xlink:href="#bR"/><use transform="matrix(0.04248971193415638,0,0,0.04248971193415638,16.99588477366255,0)" xlink:href="#bO"/><use transform="matrix(0.04248971193415638,0,0,0.04248971193415638,25.493827160493822,0)" xlink:href="#bR"/></g><path fill="#333" d="M143 4C61 4 22-44 18-125c-5-107 100-154 193-111 17 8 29 25 37 43l-32 9c-13-25-37-40-76-40-61 0-88 39-88 99 0 61 29 100 91 101 35 0 62-11 79-27v-45h-74v-28h105v86C228-13 192 4 143 4" id="bS"/><g id="t"><use transform="matrix(0.05,0,0,0.05,0,0)" xlink:href="#bS"/><use transform="matrix(0.05,0,0,0.05,14,0)" xlink:href="#ba"/><use transform="matrix(0.05,0,0,0.05,24,0)" xlink:href="#aH"/><use transform="matrix(0.05,0,0,0.05,38.95,0)" xlink:href="#aK"/></g><path fill="#333" d="M140-251c81 0 123 46 123 126C263-46 219 4 140 4 59 4 17-45 17-125s42-126 123-126zm0 227c63 0 89-41 89-101s-29-99-89-99c-61 0-89 39-89 99S79-25 140-24" id="bT"/><path fill="#333" d="M24-231v-30h32v30H24zM-9 49c24 4 33-6 33-30v-209h32V24c2 40-23 58-65 49V49" id="bU"/><g id="u"><use transform="matrix(0.05,0,0,0.05,0,0)" xlink:href="#bT"/><use transform="matrix(0.05,0,0,0.05,14,0)" xlink:href="#bb"/><use transform="matrix(0.05,0,0,0.05,24,0)" xlink:href="#bU"/><use transform="matrix(0.05,0,0,0.05,27.950000000000003,0)" xlink:href="#aK"/><use transform="matrix(0.05,0,0,0.05,37.95,0)" xlink:href="#bc"/><use transform="matrix(0.05,0,0,0.05,46.95,0)" xlink:href="#aR"/></g><use transform="matrix(0.05,0,0,0.05,0,0)" xlink:href="#aG" id="v"/><path fill="#333" d="M179-190L93 31C79 59 56 82 12 73V49c39 6 53-20 64-50L1-190h34L92-34l54-156h33" id="bV"/><path fill="#333" d="M127-220V0H93v-220H8v-28h204v28h-85" id="bW"/><g id="w"><use transform="matrix(0.05,0,0,0.05,0,0)" xlink:href="#aH"/><use transform="matrix(0.05,0,0,0.05,14.950000000000001,0)" xlink:href="#aI"/><use transform="matrix(0.05,0,0,0.05,24.950000000000003,0)" xlink:href="#aR"/><use transform="matrix(0.05,0,0,0.05,29.950000000000003,0)" xlink:href="#bV"/><use transform="matrix(0.05,0,0,0.05,38.95,0)" xlink:href="#aZ"/><use transform="matrix(0.05,0,0,0.05,48.95,0)" xlink:href="#aK"/><use transform="matrix(0.05,0,0,0.05,58.95,0)" xlink:href="#aM"/><use transform="matrix(0.05,0,0,0.05,63.95,0)" xlink:href="#bT"/><use transform="matrix(0.05,0,0,0.05,77.95,0)" xlink:href="#bb"/><use transform="matrix(0.05,0,0,0.05,87.95,0)" xlink:href="#bU"/><use transform="matrix(0.05,0,0,0.05,91.9,0)" xlink:href="#aK"/><use transform="matrix(0.05,0,0,0.05,101.9,0)" xlink:href="#bc"/><use transform="matrix(0.05,0,0,0.05,110.9,0)" xlink:href="#aR"/><use transform="matrix(0.05,0,0,0.05,115.9,0)" xlink:href="#bW"/><use transform="matrix(0.05,0,0,0.05,125.85000000000001,0)" xlink:href="#bV"/><use transform="matrix(0.05,0,0,0.05,134.85000000000002,0)" xlink:href="#aZ"/><use transform="matrix(0.05,0,0,0.05,144.85000000000002,0)" xlink:href="#aK"/></g><path fill="#333" d="M141 0L90-78 38 0H4l68-98-65-92h35l48 74 47-74h35l-64 92 68 98h-35" id="bX"/><g id="x"><use transform="matrix(0.05,0,0,0.05,0,0)" xlink:href="#aH"/><use transform="matrix(0.05,0,0,0.05,14.950000000000001,0)" xlink:href="#aI"/><use transform="matrix(0.05,0,0,0.05,24.950000000000003,0)" xlink:href="#bX"/><use transform="matrix(0.05,0,0,0.05,33.95,0)" xlink:href="#aM"/><use transform="matrix(0.05,0,0,0.05,38.95,0)" xlink:href="#aW"/><use transform="matrix(0.05,0,0,0.05,42.900000000000006,0)" xlink:href="#aQ"/><use transform="matrix(0.05,0,0,0.05,52.900000000000006,0)" xlink:href="#aR"/></g><g id="y"><use transform="matrix(0.05,0,0,0.05,0,0)" xlink:href="#aH"/><use transform="matrix(0.05,0,0,0.05,14.950000000000001,0)" xlink:href="#aI"/><use transform="matrix(0.05,0,0,0.05,24.950000000000003,0)" xlink:href="#bV"/><use transform="matrix(0.05,0,0,0.05,33.95,0)" xlink:href="#aM"/><use transform="matrix(0.05,0,0,0.05,38.95,0)" xlink:href="#aW"/><use transform="matrix(0.05,0,0,0.05,42.900000000000006,0)" xlink:href="#aQ"/><use transform="matrix(0.05,0,0,0.05,52.900000000000006,0)" xlink:href="#aR"/></g><path fill="#333" d="M30-248c87 1 191-15 191 75 0 78-77 80-158 76V0H30v-248zm33 125c57 0 124 11 124-50 0-59-68-47-124-48v98" id="bY"/><g id="z"><use transform="matrix(0.05,0,0,0.05,0,0)" xlink:href="#bY"/><use transform="matrix(0.05,0,0,0.05,12,0)" xlink:href="#aJ"/><use transform="matrix(0.05,0,0,0.05,15.949999999999998,0)" xlink:href="#ba"/><use transform="matrix(0.05,0,0,0.05,25.950000000000003,0)" xlink:href="#bV"/><use transform="matrix(0.05,0,0,0.05,34.95,0)" xlink:href="#aK"/><use transform="matrix(0.05,0,0,0.05,44.95,0)" xlink:href="#aS"/></g><path fill="#333" d="M101-251c82-7 93 87 43 132L82-64C71-53 59-42 53-27h129V0H18c2-99 128-94 128-182 0-28-16-43-45-43s-46 15-49 41l-32-3c6-41 34-60 81-64" id="bZ"/><g id="A"><use transform="matrix(0.05,0,0,0.05,0,0)" xlink:href="#aL"/><use transform="matrix(0.05,0,0,0.05,9,0)" xlink:href="#bZ"/></g><path fill="#333" d="M143 0L79-87 56-68V0H24v-261h32v163l83-92h37l-77 82L181 0h-38" id="ca"/><path fill="#333" d="M194 0L95-120 63-95V0H30v-248h33v124l119-124h40L117-140 236 0h-42" id="cb"/><g id="B"><use transform="matrix(0.05,0,0,0.05,0,0)" xlink:href="#aH"/><use transform="matrix(0.05,0,0,0.05,14.950000000000001,0)" xlink:href="#aI"/><use transform="matrix(0.05,0,0,0.05,24.950000000000003,0)" xlink:href="#ca"/><use transform="matrix(0.05,0,0,0.05,33.95,0)" xlink:href="#aK"/><use transform="matrix(0.05,0,0,0.05,43.95,0)" xlink:href="#bV"/><use transform="matrix(0.05,0,0,0.05,52.95,0)" xlink:href="#aM"/><use transform="matrix(0.05,0,0,0.05,57.95,0)" xlink:href="#cb"/><use transform="matrix(0.05,0,0,0.05,69.95,0)" xlink:href="#aK"/><use transform="matrix(0.05,0,0,0.05,79.95,0)" xlink:href="#bV"/></g><g id="C"><use transform="matrix(0.05,0,0,0.05,0,0)" xlink:href="#aH"/><use transform="matrix(0.05,0,0,0.05,14.950000000000001,0)" xlink:href="#aI"/><use transform="matrix(0.05,0,0,0.05,24.950000000000003,0)" xlink:href="#bh"/><use transform="matrix(0.05,0,0,0.05,37.900000000000006,0)" xlink:href="#aK"/><use transform="matrix(0.05,0,0,0.05,47.900000000000006,0)" xlink:href="#ba"/><use transform="matrix(0.05,0,0,0.05,57.900000000000006,0)" xlink:href="#aZ"/><use transform="matrix(0.05,0,0,0.05,67.9,0)" xlink:href="#aV"/><use transform="matrix(0.05,0,0,0.05,77.9,0)" xlink:href="#aQ"/><use transform="matrix(0.05,0,0,0.05,87.9,0)" xlink:href="#bd"/><use transform="matrix(0.05,0,0,0.05,96.9,0)" xlink:href="#aM"/><use transform="matrix(0.05,0,0,0.05,101.9,0)" xlink:href="#aL"/><use transform="matrix(0.05,0,0,0.05,110.9,0)" xlink:href="#aK"/><use transform="matrix(0.05,0,0,0.05,120.9,0)" xlink:href="#bc"/><use transform="matrix(0.05,0,0,0.05,129.9,0)" xlink:href="#aR"/><use transform="matrix(0.05,0,0,0.05,134.9,0)" xlink:href="#aV"/><use transform="matrix(0.05,0,0,0.05,144.9,0)" xlink:href="#aS"/></g><g id="D"><use transform="matrix(0.05,0,0,0.05,0,0)" xlink:href="#aH"/><use transform="matrix(0.05,0,0,0.05,14.950000000000001,0)" xlink:href="#aI"/><use transform="matrix(0.05,0,0,0.05,24.950000000000003,0)" xlink:href="#aW"/><use transform="matrix(0.05,0,0,0.05,28.900000000000002,0)" xlink:href="#aR"/><use transform="matrix(0.05,0,0,0.05,33.900000000000006,0)" xlink:href="#aK"/><use transform="matrix(0.05,0,0,0.05,43.900000000000006,0)" xlink:href="#aH"/><use transform="matrix(0.05,0,0,0.05,58.85,0)" xlink:href="#bd"/><use transform="matrix(0.05,0,0,0.05,67.85000000000001,0)" xlink:href="#aM"/><use transform="matrix(0.05,0,0,0.05,72.85000000000001,0)" xlink:href="#aL"/><use transform="matrix(0.05,0,0,0.05,81.85000000000001,0)" xlink:href="#aK"/><use transform="matrix(0.05,0,0,0.05,91.85000000000001,0)" xlink:href="#bc"/><use transform="matrix(0.05,0,0,0.05,100.85000000000001,0)" xlink:href="#aR"/><use transform="matrix(0.05,0,0,0.05,105.85000000000001,0)" xlink:href="#aV"/><use transform="matrix(0.05,0,0,0.05,115.85000000000001,0)" xlink:href="#aS"/></g><path fill="#333" d="M266 0h-40l-56-210L115 0H75L2-248h35L96-30l15-64 43-154h32l59 218 59-218h35" id="cc"/><g id="E"><use transform="matrix(0.05,0,0,0.05,0,0)" xlink:href="#aH"/><use transform="matrix(0.05,0,0,0.05,14.950000000000001,0)" xlink:href="#aI"/><use transform="matrix(0.05,0,0,0.05,24.950000000000003,0)" xlink:href="#bc"/><use transform="matrix(0.05,0,0,0.05,33.95,0)" xlink:href="#bf"/><use transform="matrix(0.05,0,0,0.05,43.95,0)" xlink:href="#aS"/><use transform="matrix(0.05,0,0,0.05,49.900000000000006,0)" xlink:href="#aS"/><use transform="matrix(0.05,0,0,0.05,55.85,0)" xlink:href="#aK"/><use transform="matrix(0.05,0,0,0.05,65.85000000000001,0)" xlink:href="#aQ"/><use transform="matrix(0.05,0,0,0.05,75.85000000000001,0)" xlink:href="#aR"/><use transform="matrix(0.05,0,0,0.05,80.85000000000001,0)" xlink:href="#cc"/><use transform="matrix(0.05,0,0,0.05,97.45000000000002,0)" xlink:href="#aK"/><use transform="matrix(0.05,0,0,0.05,107.45,0)" xlink:href="#ba"/><use transform="matrix(0.05,0,0,0.05,117.45,0)" xlink:href="#aZ"/><use transform="matrix(0.05,0,0,0.05,127.45,0)" xlink:href="#aV"/><use transform="matrix(0.05,0,0,0.05,137.45000000000002,0)" xlink:href="#aQ"/><use transform="matrix(0.05,0,0,0.05,147.45000000000002,0)" xlink:href="#aM"/><use transform="matrix(0.05,0,0,0.05,152.45000000000002,0)" xlink:href="#cc"/><use transform="matrix(0.05,0,0,0.05,169.05,0)" xlink:href="#aK"/><use transform="matrix(0.05,0,0,0.05,179.05,0)" xlink:href="#ba"/><use transform="matrix(0.05,0,0,0.05,189.05,0)" xlink:href="#aZ"/><use transform="matrix(0.05,0,0,0.05,199.05,0)" xlink:href="#aV"/><use transform="matrix(0.05,0,0,0.05,209.05,0)" xlink:href="#aQ"/></g><path fill="#333" d="M205 0l-28-72H64L36 0H1l101-248h38L239 0h-34zm-38-99l-47-123c-12 45-31 82-46 123h93" id="cd"/><g id="F"><use transform="matrix(0.05,0,0,0.05,0,0)" xlink:href="#cd"/><use transform="matrix(0.05,0,0,0.05,12,0)" xlink:href="#aH"/><use transform="matrix(0.05,0,0,0.05,26.950000000000003,0)" xlink:href="#aH"/><use transform="matrix(0.05,0,0,0.05,41.900000000000006,0)" xlink:href="#aV"/></g><g id="G"><use transform="matrix(0.05,0,0,0.05,0,0)" xlink:href="#aH"/><use transform="matrix(0.05,0,0,0.05,14.950000000000001,0)" xlink:href="#aI"/><use transform="matrix(0.05,0,0,0.05,24.950000000000003,0)" xlink:href="#ba"/><use transform="matrix(0.05,0,0,0.05,34.95,0)" xlink:href="#aH"/><use transform="matrix(0.05,0,0,0.05,49.900000000000006,0)" xlink:href="#aH"/><use transform="matrix(0.05,0,0,0.05,64.85000000000001,0)" xlink:href="#aV"/><use transform="matrix(0.05,0,0,0.05,74.85000000000001,0)" xlink:href="#bf"/><use transform="matrix(0.05,0,0,0.05,84.85000000000001,0)" xlink:href="#aQ"/><use transform="matrix(0.05,0,0,0.05,94.85000000000001,0)" xlink:href="#aR"/><use transform="matrix(0.05,0,0,0.05,99.85000000000001,0)" xlink:href="#aM"/><use transform="matrix(0.05,0,0,0.05,104.85000000000001,0)" xlink:href="#aW"/><use transform="matrix(0.05,0,0,0.05,108.80000000000001,0)" xlink:href="#aQ"/><use transform="matrix(0.05,0,0,0.05,118.80000000000001,0)" xlink:href="#aR"/></g><use transform="matrix(0.05,0,0,0.05,0,0)" xlink:href="#aO" id="H"/><g id="I"><use transform="matrix(0.05,0,0,0.05,0,0)" xlink:href="#bS"/><use transform="matrix(0.05,0,0,0.05,14,0)" xlink:href="#aK"/><use transform="matrix(0.05,0,0,0.05,24,0)" xlink:href="#aR"/><use transform="matrix(0.05,0,0,0.05,29,0)" xlink:href="#cd"/><use transform="matrix(0.05,0,0,0.05,41,0)" xlink:href="#aH"/><use transform="matrix(0.05,0,0,0.05,55.95,0)" xlink:href="#aV"/><use transform="matrix(0.05,0,0,0.05,65.95,0)" xlink:href="#bf"/><use transform="matrix(0.05,0,0,0.05,75.95,0)" xlink:href="#aQ"/><use transform="matrix(0.05,0,0,0.05,85.95,0)" xlink:href="#aR"/><use transform="matrix(0.05,0,0,0.05,90.95,0)" xlink:href="#aT"/><use transform="matrix(0.05,0,0,0.05,96.9,0)" xlink:href="#aU"/><use transform="matrix(0.05,0,0,0.05,102.85000000000001,0)" xlink:href="#aM"/><use transform="matrix(0.05,0,0,0.05,107.85000000000001,0)" xlink:href="#aW"/><use transform="matrix(0.05,0,0,0.05,111.80000000000001,0)" xlink:href="#aQ"/><use transform="matrix(0.05,0,0,0.05,121.80000000000001,0)" xlink:href="#aR"/></g><g id="J"><use transform="matrix(0.05,0,0,0.05,0,0)" xlink:href="#bS"/><use transform="matrix(0.05,0,0,0.05,14,0)" xlink:href="#bf"/><use transform="matrix(0.05,0,0,0.05,24,0)" xlink:href="#aQ"/></g><g id="K"><use transform="matrix(0.05,0,0,0.05,0,0)" xlink:href="#cd"/><use transform="matrix(0.05,0,0,0.05,12,0)" xlink:href="#aH"/><use transform="matrix(0.05,0,0,0.05,26.950000000000003,0)" xlink:href="#aH"/><use transform="matrix(0.05,0,0,0.05,41.900000000000006,0)" xlink:href="#aV"/></g><g id="L"><use transform="matrix(0.05,0,0,0.05,0,0)" xlink:href="#bg"/><use transform="matrix(0.05,0,0,0.05,12.950000000000001,0)" xlink:href="#aV"/><use transform="matrix(0.05,0,0,0.05,22.950000000000003,0)" xlink:href="#aV"/><use transform="matrix(0.05,0,0,0.05,32.95,0)" xlink:href="#aS"/></g><g id="M"><use transform="matrix(0.05,0,0,0.05,0,0)" xlink:href="#aH"/><use transform="matrix(0.05,0,0,0.05,14.950000000000001,0)" xlink:href="#aI"/><use transform="matrix(0.05,0,0,0.05,24.950000000000003,0)" xlink:href="#aW"/><use transform="matrix(0.05,0,0,0.05,28.900000000000002,0)" xlink:href="#bd"/><use transform="matrix(0.05,0,0,0.05,37.900000000000006,0)" xlink:href="#aN"/><use transform="matrix(0.05,0,0,0.05,47.900000000000006,0)" xlink:href="#aV"/><use transform="matrix(0.05,0,0,0.05,57.900000000000006,0)" xlink:href="#bc"/><use transform="matrix(0.05,0,0,0.05,66.9,0)" xlink:href="#ca"/><use transform="matrix(0.05,0,0,0.05,75.9,0)" xlink:href="#aK"/><use transform="matrix(0.05,0,0,0.05,85.9,0)" xlink:href="#aX"/><use transform="matrix(0.05,0,0,0.05,95.9,0)" xlink:href="#aM"/><use transform="matrix(0.05,0,0,0.05,100.9,0)" xlink:href="#bb"/><use transform="matrix(0.05,0,0,0.05,110.9,0)" xlink:href="#aV"/><use transform="matrix(0.05,0,0,0.05,120.9,0)" xlink:href="#aV"/><use transform="matrix(0.05,0,0,0.05,130.9,0)" xlink:href="#aJ"/></g><g id="N"><use transform="matrix(0.05,0,0,0.05,0,0)" xlink:href="#bT"/><use transform="matrix(0.05,0,0,0.05,14,0)" xlink:href="#aZ"/><use transform="matrix(0.05,0,0,0.05,24,0)" xlink:href="#aK"/><use transform="matrix(0.05,0,0,0.05,34,0)" xlink:href="#aQ"/><use transform="matrix(0.05,0,0,0.05,44,0)" xlink:href="#aT"/><use transform="matrix(0.05,0,0,0.05,49.95,0)" xlink:href="#aU"/><use transform="matrix(0.05,0,0,0.05,55.900000000000006,0)" xlink:href="#aM"/><use transform="matrix(0.05,0,0,0.05,60.900000000000006,0)" xlink:href="#aL"/><use transform="matrix(0.05,0,0,0.05,69.9,0)" xlink:href="#aV"/><use transform="matrix(0.05,0,0,0.05,79.9,0)" xlink:href="#aW"/><use transform="matrix(0.05,0,0,0.05,83.85000000000001,0)" xlink:href="#aX"/></g><path fill="#333" d="M63-220v92h138v28H63V0H30v-248h175v28H63" id="ce"/><g id="O"><use transform="matrix(0.05,0,0,0.05,0,0)" xlink:href="#ce"/><use transform="matrix(0.05,0,0,0.05,10.950000000000001,0)" xlink:href="#aW"/><use transform="matrix(0.05,0,0,0.05,14.9,0)" xlink:href="#aS"/><use transform="matrix(0.05,0,0,0.05,20.85,0)" xlink:href="#aK"/><use transform="matrix(0.05,0,0,0.05,30.85,0)" xlink:href="#cd"/><use transform="matrix(0.05,0,0,0.05,42.85,0)" xlink:href="#aS"/><use transform="matrix(0.05,0,0,0.05,48.800000000000004,0)" xlink:href="#aH"/></g><g id="P"><use transform="matrix(0.05,0,0,0.05,0,0)" xlink:href="#aH"/><use transform="matrix(0.05,0,0,0.05,14.950000000000001,0)" xlink:href="#aI"/><use transform="matrix(0.05,0,0,0.05,24.950000000000003,0)" xlink:href="#ba"/><use transform="matrix(0.05,0,0,0.05,34.95,0)" xlink:href="#aH"/><use transform="matrix(0.05,0,0,0.05,49.900000000000006,0)" xlink:href="#aH"/><use transform="matrix(0.05,0,0,0.05,64.85000000000001,0)" xlink:href="#aV"/><use transform="matrix(0.05,0,0,0.05,74.85000000000001,0)" xlink:href="#aM"/><use transform="matrix(0.05,0,0,0.05,79.85000000000001,0)" xlink:href="#aW"/><use transform="matrix(0.05,0,0,0.05,83.80000000000001,0)" xlink:href="#aQ"/><use transform="matrix(0.05,0,0,0.05,93.80000000000001,0)" xlink:href="#aR"/></g><g id="Q"><use transform="matrix(0.05,0,0,0.05,0,0)" xlink:href="#bS"/><use transform="matrix(0.05,0,0,0.05,14,0)" xlink:href="#aK"/><use transform="matrix(0.05,0,0,0.05,24,0)" xlink:href="#aR"/><use transform="matrix(0.05,0,0,0.05,29,0)" xlink:href="#cd"/><use transform="matrix(0.05,0,0,0.05,41,0)" xlink:href="#aH"/><use transform="matrix(0.05,0,0,0.05,55.95,0)" xlink:href="#aH"/><use transform="matrix(0.05,0,0,0.05,70.9,0)" xlink:href="#aV"/><use transform="matrix(0.05,0,0,0.05,80.9,0)" xlink:href="#aT"/><use transform="matrix(0.05,0,0,0.05,86.85000000000001,0)" xlink:href="#aU"/><use transform="matrix(0.05,0,0,0.05,92.80000000000001,0)" xlink:href="#aM"/><use transform="matrix(0.05,0,0,0.05,97.80000000000001,0)" xlink:href="#aW"/><use transform="matrix(0.05,0,0,0.05,101.75000000000001,0)" xlink:href="#aQ"/><use transform="matrix(0.05,0,0,0.05,111.75,0)" xlink:href="#aR"/></g><g id="R"><use transform="matrix(0.05,0,0,0.05,0,0)" xlink:href="#cd"/><use transform="matrix(0.05,0,0,0.05,12,0)" xlink:href="#aX"/><use transform="matrix(0.05,0,0,0.05,22,0)" xlink:href="#aX"/><use transform="matrix(0.05,0,0,0.05,32,0)" xlink:href="#cd"/><use transform="matrix(0.05,0,0,0.05,44,0)" xlink:href="#aH"/><use transform="matrix(0.05,0,0,0.05,58.95,0)" xlink:href="#aH"/><use transform="matrix(0.05,0,0,0.05,73.9,0)" xlink:href="#aV"/><use transform="matrix(0.05,0,0,0.05,83.9,0)" xlink:href="#aT"/><use transform="matrix(0.05,0,0,0.05,89.85000000000001,0)" xlink:href="#aW"/><use transform="matrix(0.05,0,0,0.05,93.80000000000001,0)" xlink:href="#aQ"/><use transform="matrix(0.05,0,0,0.05,103.80000000000001,0)" xlink:href="#aR"/></g><g id="S"><use transform="matrix(0.05,0,0,0.05,0,0)" xlink:href="#ba"/><use transform="matrix(0.05,0,0,0.05,10,0)" xlink:href="#aH"/><use transform="matrix(0.05,0,0,0.05,24.950000000000003,0)" xlink:href="#aV"/><use transform="matrix(0.05,0,0,0.05,34.95,0)" xlink:href="#bf"/><use transform="matrix(0.05,0,0,0.05,44.95,0)" xlink:href="#aQ"/><use transform="matrix(0.05,0,0,0.05,54.95,0)" xlink:href="#aR"/><use transform="matrix(0.05,0,0,0.05,59.95,0)" xlink:href="#aU"/><use transform="matrix(0.05,0,0,0.05,65.9,0)" xlink:href="#aM"/><use transform="matrix(0.05,0,0,0.05,70.9,0)" xlink:href="#aL"/><use transform="matrix(0.05,0,0,0.05,79.9,0)" xlink:href="#aV"/><use transform="matrix(0.05,0,0,0.05,89.9,0)" xlink:href="#aW"/><use transform="matrix(0.05,0,0,0.05,93.85000000000001,0)" xlink:href="#aX"/></g><g id="T"><use transform="matrix(0.05,0,0,0.05,0,0)" xlink:href="#cc"/><use transform="matrix(0.05,0,0,0.05,16.599999999999998,0)" xlink:href="#aK"/><use transform="matrix(0.05,0,0,0.05,26.599999999999994,0)" xlink:href="#ba"/><use transform="matrix(0.05,0,0,0.05,36.599999999999994,0)" xlink:href="#aZ"/><use transform="matrix(0.05,0,0,0.05,46.599999999999994,0)" xlink:href="#aV"/><use transform="matrix(0.05,0,0,0.05,56.599999999999994,0)" xlink:href="#aQ"/></g><path fill="#333" d="M177-190C167-65 218 103 67 71c-23-6-38-20-44-43l32-5c15 47 100 32 89-28v-30C133-14 115 1 83 1 29 1 15-40 15-95c0-56 16-97 71-98 29-1 48 16 59 35 1-10 0-23 2-32h30zM94-22c36 0 50-32 50-73 0-42-14-75-50-75-39 0-46 34-46 75s6 73 46 73" id="cf"/><g id="U"><use transform="matrix(0.05,0,0,0.05,0,0)" xlink:href="#aH"/><use transform="matrix(0.05,0,0,0.05,14.950000000000001,0)" xlink:href="#aI"/><use transform="matrix(0.05,0,0,0.05,24.950000000000003,0)" xlink:href="#aX"/><use transform="matrix(0.05,0,0,0.05,34.95,0)" xlink:href="#ba"/><use transform="matrix(0.05,0,0,0.05,44.95,0)" xlink:href="#aH"/><use transform="matrix(0.05,0,0,0.05,59.900000000000006,0)" xlink:href="#ba"/><use transform="matrix(0.05,0,0,0.05,69.9,0)" xlink:href="#cf"/><use transform="matrix(0.05,0,0,0.05,79.9,0)" xlink:href="#aK"/><use transform="matrix(0.05,0,0,0.05,89.9,0)" xlink:href="#aM"/><use transform="matrix(0.05,0,0,0.05,94.9,0)" xlink:href="#aW"/><use transform="matrix(0.05,0,0,0.05,98.85000000000001,0)" xlink:href="#aQ"/><use transform="matrix(0.05,0,0,0.05,108.85000000000001,0)" xlink:href="#aR"/></g><path fill="#333" d="M185-189c-5-48-123-54-124 2 14 75 158 14 163 119 3 78-121 87-175 55-17-10-28-26-33-46l33-7c5 56 141 63 141-1 0-78-155-14-162-118-5-82 145-84 179-34 5 7 8 16 11 25" id="cg"/><g id="V"><use transform="matrix(0.05,0,0,0.05,0,0)" xlink:href="#cg"/><use transform="matrix(0.05,0,0,0.05,12,0)" xlink:href="#aR"/><use transform="matrix(0.05,0,0,0.05,17,0)" xlink:href="#aS"/><use transform="matrix(0.05,0,0,0.05,22.95,0)" xlink:href="#aW"/><use transform="matrix(0.05,0,0,0.05,26.899999999999995,0)" xlink:href="#ca"/><use transform="matrix(0.05,0,0,0.05,35.9,0)" xlink:href="#aK"/><use transform="matrix(0.05,0,0,0.05,45.9,0)" xlink:href="#aT"/><use transform="matrix(0.05,0,0,0.05,51.85,0)" xlink:href="#aW"/><use transform="matrix(0.05,0,0,0.05,55.800000000000004,0)" xlink:href="#aQ"/><use transform="matrix(0.05,0,0,0.05,65.80000000000001,0)" xlink:href="#aR"/></g><path fill="#333" d="M195 0l-74-108L45 0H8l94-129-87-119h37l69 98 67-98h37l-84 118L233 0h-38" id="ch"/><path fill="#333" d="M68-38c1 34 0 65-14 84H32c9-13 17-26 17-46H33v-38h35" id="ci"/><g id="W"><use transform="matrix(0.05,0,0,0.05,0,0)" xlink:href="#aV"/><use transform="matrix(0.05,0,0,0.05,10,0)" xlink:href="#aS"/><use transform="matrix(0.05,0,0,0.05,15.949999999999998,0)" xlink:href="#aW"/><use transform="matrix(0.05,0,0,0.05,19.9,0)" xlink:href="#cf"/><use transform="matrix(0.05,0,0,0.05,29.899999999999995,0)" xlink:href="#aW"/><use transform="matrix(0.05,0,0,0.05,33.85,0)" xlink:href="#aQ"/><use transform="matrix(0.05,0,0,0.05,43.85,0)" xlink:href="#ch"/><use transform="matrix(0.05,0,0,0.05,55.85,0)" xlink:href="#ci"/></g><g id="X"><use transform="matrix(0.05,0,0,0.05,0,0)" xlink:href="#aW"/><use transform="matrix(0.05,0,0,0.05,3.95,0)" xlink:href="#aQ"/><use transform="matrix(0.05,0,0,0.05,13.949999999999998,0)" xlink:href="#aR"/></g><path fill="#333" d="M137-103V0h-34v-103L8-248h37l75 118 75-118h37" id="cj"/><g id="Y"><use transform="matrix(0.05,0,0,0.05,0,0)" xlink:href="#aV"/><use transform="matrix(0.05,0,0,0.05,10,0)" xlink:href="#aS"/><use transform="matrix(0.05,0,0,0.05,15.949999999999998,0)" xlink:href="#aW"/><use transform="matrix(0.05,0,0,0.05,19.9,0)" xlink:href="#cf"/><use transform="matrix(0.05,0,0,0.05,29.899999999999995,0)" xlink:href="#aW"/><use transform="matrix(0.05,0,0,0.05,33.85,0)" xlink:href="#aQ"/><use transform="matrix(0.05,0,0,0.05,43.85,0)" xlink:href="#cj"/><use transform="matrix(0.05,0,0,0.05,53.550000000000004,0)" xlink:href="#ci"/></g><g id="Z"><use transform="matrix(0.05,0,0,0.05,0,0)" xlink:href="#aX"/><use transform="matrix(0.05,0,0,0.05,10,0)" xlink:href="#aW"/><use transform="matrix(0.05,0,0,0.05,13.949999999999998,0)" xlink:href="#aS"/><use transform="matrix(0.05,0,0,0.05,19.9,0)" xlink:href="#aK"/><use transform="matrix(0.05,0,0,0.05,29.899999999999995,0)" xlink:href="#bc"/><use transform="matrix(0.05,0,0,0.05,38.9,0)" xlink:href="#aR"/><use transform="matrix(0.05,0,0,0.05,43.9,0)" xlink:href="#aW"/><use transform="matrix(0.05,0,0,0.05,47.85,0)" xlink:href="#aV"/><use transform="matrix(0.05,0,0,0.05,57.85,0)" xlink:href="#aQ"/><use transform="matrix(0.05,0,0,0.05,67.85,0)" xlink:href="#ch"/><use transform="matrix(0.05,0,0,0.05,79.85,0)" xlink:href="#ci"/></g><g id="aa"><use transform="matrix(0.05,0,0,0.05,0,0)" xlink:href="#aW"/><use transform="matrix(0.05,0,0,0.05,3.95,0)" xlink:href="#aQ"/><use transform="matrix(0.05,0,0,0.05,13.949999999999998,0)" xlink:href="#aR"/></g><g id="ab"><use transform="matrix(0.05,0,0,0.05,0,0)" xlink:href="#aX"/><use transform="matrix(0.05,0,0,0.05,10,0)" xlink:href="#aW"/><use transform="matrix(0.05,0,0,0.05,13.949999999999998,0)" xlink:href="#aS"/><use transform="matrix(0.05,0,0,0.05,19.9,0)" xlink:href="#aK"/><use transform="matrix(0.05,0,0,0.05,29.899999999999995,0)" xlink:href="#bc"/><use transform="matrix(0.05,0,0,0.05,38.9,0)" xlink:href="#aR"/><use transform="matrix(0.05,0,0,0.05,43.9,0)" xlink:href="#aW"/><use transform="matrix(0.05,0,0,0.05,47.85,0)" xlink:href="#aV"/><use transform="matrix(0.05,0,0,0.05,57.85,0)" xlink:href="#aQ"/><use transform="matrix(0.05,0,0,0.05,67.85,0)" xlink:href="#cj"/><use transform="matrix(0.05,0,0,0.05,79.85,0)" xlink:href="#aU"/><use transform="matrix(0.05,0,0,0.05,85.8,0)" xlink:href="#aM"/><use transform="matrix(0.05,0,0,0.05,90.8,0)" xlink:href="#aL"/><use transform="matrix(0.05,0,0,0.05,99.8,0)" xlink:href="#aV"/><use transform="matrix(0.05,0,0,0.05,109.80000000000001,0)" xlink:href="#aW"/><use transform="matrix(0.05,0,0,0.05,113.75,0)" xlink:href="#aX"/></g><g id="ac"><use transform="matrix(0.05,0,0,0.05,0,0)" xlink:href="#bS"/><use transform="matrix(0.05,0,0,0.05,14,0)" xlink:href="#bf"/><use transform="matrix(0.05,0,0,0.05,24,0)" xlink:href="#aQ"/></g><path fill="#333" d="M197 0v-115H63V0H30v-248h33v105h134v-105h34V0h-34" id="ck"/><path fill="#333" d="M106-169C34-169 62-67 57 0H25v-261h32l-1 103c12-21 28-36 61-36 89 0 53 116 60 194h-32v-121c2-32-8-49-39-48" id="cl"/><g id="ad"><use transform="matrix(0.05,0,0,0.05,0,0)" xlink:href="#ck"/><use transform="matrix(0.05,0,0,0.05,12.950000000000001,0)" xlink:href="#aK"/><use transform="matrix(0.05,0,0,0.05,22.950000000000003,0)" xlink:href="#ba"/><use transform="matrix(0.05,0,0,0.05,32.95,0)" xlink:href="#aJ"/><use transform="matrix(0.05,0,0,0.05,36.900000000000006,0)" xlink:href="#aR"/><use transform="matrix(0.05,0,0,0.05,41.900000000000006,0)" xlink:href="#cl"/></g><g id="ae"><use transform="matrix(0.05,0,0,0.05,0,0)" xlink:href="#ca"/><use transform="matrix(0.05,0,0,0.05,9,0)" xlink:href="#aW"/><use transform="matrix(0.05,0,0,0.05,12.949999999999998,0)" xlink:href="#aR"/></g><g id="af"><use transform="matrix(0.05,0,0,0.05,0,0)" xlink:href="#cb"/><use transform="matrix(0.05,0,0,0.05,12,0)" xlink:href="#aK"/><use transform="matrix(0.05,0,0,0.05,22,0)" xlink:href="#bV"/></g><g id="ah"><use transform="matrix(0.05,0,0,0.05,0,0)" xlink:href="#aN"/><use transform="matrix(0.05,0,0,0.05,10,0)" xlink:href="#aK"/><use transform="matrix(0.05,0,0,0.05,20,0)" xlink:href="#aL"/><use transform="matrix(0.05,0,0,0.05,29,0)" xlink:href="#aK"/><use transform="matrix(0.05,0,0,0.05,39,0)" xlink:href="#aJ"/></g><g id="ai"><use transform="matrix(0.05,0,0,0.05,0,0)" xlink:href="#aH"/><use transform="matrix(0.05,0,0,0.05,14.950000000000001,0)" xlink:href="#aI"/><use transform="matrix(0.05,0,0,0.05,24.950000000000003,0)" xlink:href="#bh"/><use transform="matrix(0.05,0,0,0.05,37.900000000000006,0)" xlink:href="#aW"/><use transform="matrix(0.05,0,0,0.05,41.85000000000001,0)" xlink:href="#aX"/><use transform="matrix(0.05,0,0,0.05,51.85,0)" xlink:href="#aR"/><use transform="matrix(0.05,0,0,0.05,56.85,0)" xlink:href="#cl"/><use transform="matrix(0.05,0,0,0.05,66.85000000000001,0)" xlink:href="#aM"/><use transform="matrix(0.05,0,0,0.05,71.85000000000001,0)" xlink:href="#aW"/><use transform="matrix(0.05,0,0,0.05,75.80000000000001,0)" xlink:href="#aQ"/><use transform="matrix(0.05,0,0,0.05,85.80000000000001,0)" xlink:href="#aR"/></g><g id="aj"><use transform="matrix(0.05,0,0,0.05,0,0)" xlink:href="#aH"/><use transform="matrix(0.05,0,0,0.05,14.950000000000001,0)" xlink:href="#aI"/><use transform="matrix(0.05,0,0,0.05,24.950000000000003,0)" xlink:href="#cl"/><use transform="matrix(0.05,0,0,0.05,34.95,0)" xlink:href="#aK"/><use transform="matrix(0.05,0,0,0.05,44.95,0)" xlink:href="#aW"/><use transform="matrix(0.05,0,0,0.05,48.900000000000006,0)" xlink:href="#cf"/><use transform="matrix(0.05,0,0,0.05,58.900000000000006,0)" xlink:href="#cl"/><use transform="matrix(0.05,0,0,0.05,68.9,0)" xlink:href="#aR"/><use transform="matrix(0.05,0,0,0.05,73.9,0)" xlink:href="#aM"/><use transform="matrix(0.05,0,0,0.05,78.9,0)" xlink:href="#aW"/><use transform="matrix(0.05,0,0,0.05,82.85000000000001,0)" xlink:href="#aQ"/><use transform="matrix(0.05,0,0,0.05,92.85000000000001,0)" xlink:href="#aR"/></g><g id="ak"><use transform="matrix(0.05,0,0,0.05,0,0)" xlink:href="#aG"/><use transform="matrix(0.05,0,0,0.05,5.95,0)" xlink:href="#aH"/><use transform="matrix(0.05,0,0,0.05,20.900000000000002,0)" xlink:href="#aI"/><use transform="matrix(0.05,0,0,0.05,30.900000000000002,0)" xlink:href="#cf"/><use transform="matrix(0.05,0,0,0.05,40.900000000000006,0)" xlink:href="#ba"/><use transform="matrix(0.05,0,0,0.05,50.900000000000006,0)" xlink:href="#aH"/><use transform="matrix(0.05,0,0,0.05,65.85000000000001,0)" xlink:href="#aK"/><use transform="matrix(0.05,0,0,0.05,75.85000000000001,0)" xlink:href="#bT"/><use transform="matrix(0.05,0,0,0.05,89.85000000000001,0)" xlink:href="#bb"/><use transform="matrix(0.05,0,0,0.05,99.85000000000001,0)" xlink:href="#bU"/><use transform="matrix(0.05,0,0,0.05,103.80000000000001,0)" xlink:href="#aK"/><use transform="matrix(0.05,0,0,0.05,113.80000000000001,0)" xlink:href="#bc"/><use transform="matrix(0.05,0,0,0.05,122.80000000000001,0)" xlink:href="#aR"/><use transform="matrix(0.05,0,0,0.05,127.80000000000001,0)" xlink:href="#bd"/><use transform="matrix(0.05,0,0,0.05,136.8,0)" xlink:href="#aM"/><use transform="matrix(0.05,0,0,0.05,141.8,0)" xlink:href="#aL"/><use transform="matrix(0.05,0,0,0.05,150.8,0)" xlink:href="#aK"/><use transform="matrix(0.05,0,0,0.05,160.8,0)" xlink:href="#bc"/><use transform="matrix(0.05,0,0,0.05,169.8,0)" xlink:href="#aR"/><use transform="matrix(0.05,0,0,0.05,174.8,0)" xlink:href="#aV"/><use transform="matrix(0.05,0,0,0.05,184.8,0)" xlink:href="#aS"/></g><path fill="#333" d="M80-196l47-18 7 23-49 13 32 44-20 13-27-46-27 45-21-12 33-44-49-13 8-23 47 19-2-53h23" id="cm"/><g id="al"><use transform="matrix(0.05,0,0,0.05,0,0)" xlink:href="#aG"/><use transform="matrix(0.05,0,0,0.05,5.95,0)" xlink:href="#cm"/><use transform="matrix(0.05,0,0,0.05,12.949999999999998,0)" xlink:href="#aH"/><use transform="matrix(0.05,0,0,0.05,27.899999999999995,0)" xlink:href="#aI"/><use transform="matrix(0.05,0,0,0.05,37.9,0)" xlink:href="#aZ"/><use transform="matrix(0.05,0,0,0.05,47.9,0)" xlink:href="#bY"/><use transform="matrix(0.05,0,0,0.05,59.900000000000006,0)" xlink:href="#aJ"/><use transform="matrix(0.05,0,0,0.05,63.85,0)" xlink:href="#ba"/><use transform="matrix(0.05,0,0,0.05,73.85,0)" xlink:href="#bV"/><use transform="matrix(0.05,0,0,0.05,82.85,0)" xlink:href="#aK"/><use transform="matrix(0.05,0,0,0.05,92.85,0)" xlink:href="#aS"/><use transform="matrix(0.05,0,0,0.05,98.8,0)" xlink:href="#aM"/><use transform="matrix(0.05,0,0,0.05,103.80000000000001,0)" xlink:href="#bY"/><use transform="matrix(0.05,0,0,0.05,115.80000000000001,0)" xlink:href="#aJ"/><use transform="matrix(0.05,0,0,0.05,119.75,0)" xlink:href="#ba"/><use transform="matrix(0.05,0,0,0.05,129.75,0)" xlink:href="#bV"/><use transform="matrix(0.05,0,0,0.05,138.75,0)" xlink:href="#aK"/><use transform="matrix(0.05,0,0,0.05,148.75,0)" xlink:href="#aS"/></g><path fill="#333" d="M209 0H11v-25l151-195H24v-28h176v25L50-27h159V0" id="cn"/><g id="am"><use transform="matrix(0.05,0,0,0.05,0,0)" xlink:href="#cn"/><use transform="matrix(0.05,0,0,0.05,10.950000000000001,0)" xlink:href="#aV"/><use transform="matrix(0.05,0,0,0.05,20.950000000000003,0)" xlink:href="#aH"/><use transform="matrix(0.05,0,0,0.05,35.900000000000006,0)" xlink:href="#bb"/><use transform="matrix(0.05,0,0,0.05,45.900000000000006,0)" xlink:href="#aW"/><use transform="matrix(0.05,0,0,0.05,49.85000000000001,0)" xlink:href="#aK"/></g><g id="an"><use transform="matrix(0.05,0,0,0.05,0,0)" xlink:href="#cg"/><use transform="matrix(0.05,0,0,0.05,12,0)" xlink:href="#aZ"/><use transform="matrix(0.05,0,0,0.05,22,0)" xlink:href="#aW"/><use transform="matrix(0.05,0,0,0.05,25.950000000000003,0)" xlink:href="#aR"/><use transform="matrix(0.05,0,0,0.05,30.950000000000003,0)" xlink:href="#aR"/><use transform="matrix(0.05,0,0,0.05,35.95,0)" xlink:href="#aW"/><use transform="matrix(0.05,0,0,0.05,39.900000000000006,0)" xlink:href="#aQ"/><use transform="matrix(0.05,0,0,0.05,49.900000000000006,0)" xlink:href="#cf"/></g><path fill="#333" d="M212-179c-10-28-35-45-73-45-59 0-87 40-87 99 0 60 29 101 89 101 43 0 62-24 78-52l27 14C228-24 195 4 139 4 59 4 22-46 18-125c-6-104 99-153 187-111 19 9 31 26 39 46" id="co"/><g id="ao"><use transform="matrix(0.05,0,0,0.05,0,0)" xlink:href="#co"/><use transform="matrix(0.05,0,0,0.05,12.950000000000001,0)" xlink:href="#aS"/><use transform="matrix(0.05,0,0,0.05,18.900000000000002,0)" xlink:href="#aK"/><use transform="matrix(0.05,0,0,0.05,28.900000000000002,0)" xlink:href="#ba"/><use transform="matrix(0.05,0,0,0.05,38.900000000000006,0)" xlink:href="#aR"/><use transform="matrix(0.05,0,0,0.05,43.900000000000006,0)" xlink:href="#bf"/><use transform="matrix(0.05,0,0,0.05,53.900000000000006,0)" xlink:href="#aS"/><use transform="matrix(0.05,0,0,0.05,59.85,0)" xlink:href="#aK"/></g><g id="ap"><use transform="matrix(0.05,0,0,0.05,0,0)" xlink:href="#bY"/><use transform="matrix(0.05,0,0,0.05,12,0)" xlink:href="#aS"/><use transform="matrix(0.05,0,0,0.05,17.95,0)" xlink:href="#aV"/><use transform="matrix(0.05,0,0,0.05,27.950000000000003,0)" xlink:href="#bU"/><use transform="matrix(0.05,0,0,0.05,31.899999999999995,0)" xlink:href="#aK"/><use transform="matrix(0.05,0,0,0.05,41.9,0)" xlink:href="#bc"/><use transform="matrix(0.05,0,0,0.05,50.9,0)" xlink:href="#aR"/><use transform="matrix(0.05,0,0,0.05,55.900000000000006,0)" xlink:href="#aW"/><use transform="matrix(0.05,0,0,0.05,59.85,0)" xlink:href="#aJ"/><use transform="matrix(0.05,0,0,0.05,63.800000000000004,0)" xlink:href="#aK"/></g><g id="aq"><use transform="matrix(0.05,0,0,0.05,0,0)" xlink:href="#aH"/><use transform="matrix(0.05,0,0,0.05,14.950000000000001,0)" xlink:href="#aI"/><use transform="matrix(0.05,0,0,0.05,24.950000000000003,0)" xlink:href="#aX"/><use transform="matrix(0.05,0,0,0.05,34.95,0)" xlink:href="#aW"/><use transform="matrix(0.05,0,0,0.05,38.900000000000006,0)" xlink:href="#aS"/><use transform="matrix(0.05,0,0,0.05,44.85000000000001,0)" xlink:href="#aK"/><use transform="matrix(0.05,0,0,0.05,54.85,0)" xlink:href="#bc"/><use transform="matrix(0.05,0,0,0.05,63.85,0)" xlink:href="#aR"/><use transform="matrix(0.05,0,0,0.05,68.85000000000001,0)" xlink:href="#aW"/><use transform="matrix(0.05,0,0,0.05,72.80000000000001,0)" xlink:href="#aV"/><use transform="matrix(0.05,0,0,0.05,82.80000000000001,0)" xlink:href="#aQ"/><use transform="matrix(0.05,0,0,0.05,92.80000000000001,0)" xlink:href="#ch"/><use transform="matrix(0.05,0,0,0.05,104.80000000000001,0)" xlink:href="#aM"/><use transform="matrix(0.05,0,0,0.05,109.80000000000001,0)" xlink:href="#aW"/><use transform="matrix(0.05,0,0,0.05,113.75,0)" xlink:href="#aQ"/><use transform="matrix(0.05,0,0,0.05,123.75,0)" xlink:href="#aR"/></g><g id="ar"><use transform="matrix(0.05,0,0,0.05,0,0)" xlink:href="#aH"/><use transform="matrix(0.05,0,0,0.05,14.950000000000001,0)" xlink:href="#aI"/><use transform="matrix(0.05,0,0,0.05,24.950000000000003,0)" xlink:href="#aX"/><use transform="matrix(0.05,0,0,0.05,34.95,0)" xlink:href="#aW"/><use transform="matrix(0.05,0,0,0.05,38.900000000000006,0)" xlink:href="#aS"/><use transform="matrix(0.05,0,0,0.05,44.85000000000001,0)" xlink:href="#aK"/><use transform="matrix(0.05,0,0,0.05,54.85,0)" xlink:href="#bc"/><use transform="matrix(0.05,0,0,0.05,63.85,0)" xlink:href="#aR"/><use transform="matrix(0.05,0,0,0.05,68.85000000000001,0)" xlink:href="#aW"/><use transform="matrix(0.05,0,0,0.05,72.80000000000001,0)" xlink:href="#aV"/><use transform="matrix(0.05,0,0,0.05,82.80000000000001,0)" xlink:href="#aQ"/><use transform="matrix(0.05,0,0,0.05,92.80000000000001,0)" xlink:href="#cj"/><use transform="matrix(0.05,0,0,0.05,103.80000000000001,0)" xlink:href="#aM"/><use transform="matrix(0.05,0,0,0.05,108.80000000000001,0)" xlink:href="#aW"/><use transform="matrix(0.05,0,0,0.05,112.75,0)" xlink:href="#aQ"/><use transform="matrix(0.05,0,0,0.05,122.75,0)" xlink:href="#aR"/></g><g id="as"><use transform="matrix(0.05,0,0,0.05,0,0)" xlink:href="#aP"/><use transform="matrix(0.05,0,0,0.05,12,0)" xlink:href="#aQ"/><use transform="matrix(0.05,0,0,0.05,22,0)" xlink:href="#aK"/><use transform="matrix(0.05,0,0,0.05,32,0)" xlink:href="#aH"/><use transform="matrix(0.05,0,0,0.05,46.95,0)" xlink:href="#bV"/></g><g id="at"><use transform="matrix(0.05,0,0,0.05,0,0)" xlink:href="#cg"/><use transform="matrix(0.05,0,0,0.05,12,0)" xlink:href="#aZ"/><use transform="matrix(0.05,0,0,0.05,22,0)" xlink:href="#aW"/><use transform="matrix(0.05,0,0,0.05,25.950000000000003,0)" xlink:href="#aR"/></g><path fill="#333" d="M27 0v-27h64v-190l-56 39v-29l58-41h29v221h61V0H27" id="cp"/><use transform="matrix(0.05,0,0,0.05,0,0)" xlink:href="#cp" id="au"/><path fill="#333" d="M101-251c68 0 85 55 85 127S166 4 100 4C33 4 14-52 14-124c0-73 17-127 87-127zm-1 229c47 0 54-49 54-102s-4-102-53-102c-51 0-55 48-55 102 0 53 5 102 54 102" id="cq"/><path fill="#333" d="M33 0v-38h34V0H33" id="cr"/><g id="av"><use transform="matrix(0.05,0,0,0.05,0,0)" xlink:href="#cq"/><use transform="matrix(0.05,0,0,0.05,10,0)" xlink:href="#cr"/><use transform="matrix(0.05,0,0,0.05,15,0)" xlink:href="#cr"/><use transform="matrix(0.05,0,0,0.05,20,0)" xlink:href="#cm"/></g><g id="aw"><use transform="matrix(0.05,0,0,0.05,0,0)" xlink:href="#be"/><use transform="matrix(0.05,0,0,0.05,5,0)" xlink:href="#aR"/><use transform="matrix(0.05,0,0,0.05,10,0)" xlink:href="#aK"/><use transform="matrix(0.05,0,0,0.05,20,0)" xlink:href="#aH"/></g></defs></g></svg>