<svg xmlns="http://www.w3.org/2000/svg" xmlns:xlink="http://www.w3.org/1999/xlink" xmlns:lucid="lucid" width="1514.85" height="1608"><g transform="translate(0 0)" lucid:page-tab-id="0_0"><path d="M0 0h1514.85v1608H0z" fill="#fff"/><path d="M339 76c0-4.42 3.58-8 8-8h836.75c4.42 0 8 3.58 8 8v25.16c0 4.4-3.58 8-8 8H347c-4.42 0-8-3.6-8-8z" stroke="#000" stroke-opacity="0" stroke-width="2" fill="#fff" fill-opacity="0"/><use xlink:href="#a" transform="matrix(1,0,0,1,343,72) translate(313.01802469135805 25.782777777777778)"/><use xlink:href="#b" transform="matrix(1,0,0,1,343,72) translate(349.4377777777778 25.782777777777778)"/><path d="M610.1 107.8h318.96M610.13 107.8h-1.03M929.03 107.8h1.03" stroke="#a9afb8" stroke-width="2" fill="none"/><path d="M339 117.16c0-4.42 3.58-8 8-8h837.7c4.43 0 8 3.58 8 8V120c0 4.42-3.57 8-8 8H347c-4.42 0-8-3.58-8-8z" stroke="#000" stroke-opacity="0" stroke-width="2" fill="#fff" fill-opacity="0"/><use xlink:href="#c" transform="matrix(1,0,0,1,343.00000000000045,113.15522395689881) translate(241.01236625514406 14.917037037037037)"/><use xlink:href="#d" transform="matrix(1,0,0,1,343.00000000000045,113.15522395689881) translate(302.11257201646094 14.917037037037037)"/><use xlink:href="#e" transform="matrix(1,0,0,1,343.00000000000045,113.15522395689881) translate(374.21761316872426 14.917037037037037)"/><use xlink:href="#f" transform="matrix(1,0,0,1,343.00000000000045,113.15522395689881) translate(395.4624691358025 14.917037037037037)"/><use xlink:href="#g" transform="matrix(1,0,0,1,343.00000000000045,113.15522395689881) translate(465.01812757201645 14.917037037037037)"/><use xlink:href="#h" transform="matrix(1,0,0,1,343.00000000000045,113.15522395689881) translate(477.46761316872426 14.917037037037037)"/><use xlink:href="#i" transform="matrix(1,0,0,1,343.00000000000045,113.15522395689881) translate(552.122037037037 14.917037037037037)"/><use xlink:href="#j" transform="matrix(1,0,0,1,343.00000000000045,113.15522395689881) translate(577.6158641975309 14.917037037037037)"/><path d="M100 508c0-4.42 3.58-8 8-8h404c4.42 0 8 3.58 8 8v259c0 4.42-3.58 8-8 8H108c-4.42 0-8-3.58-8-8z" stroke="#333" fill="#fff"/><path d="M100 537.6h420M100 693.9h420" stroke="#333" fill="none"/><use xlink:href="#k" transform="matrix(1,0,0,1,108,508) translate(140.05 14.4)"/><use xlink:href="#l" transform="matrix(1,0,0,1,112,545.6) translate(0 14.4)"/><use xlink:href="#m" transform="matrix(1,0,0,1,112,545.6) translate(10.95 14.4)"/><use xlink:href="#l" transform="matrix(1,0,0,1,112,545.6) translate(0 46.800000000000004)"/><use xlink:href="#n" transform="matrix(1,0,0,1,112,545.6) translate(10.95 46.800000000000004)"/><use xlink:href="#l" transform="matrix(1,0,0,1,112,545.6) translate(0 79.20000000000002)"/><use xlink:href="#o" transform="matrix(1,0,0,1,112,545.6) translate(10.95 79.20000000000002)"/><use xlink:href="#p" transform="matrix(1,0,0,1,112,545.6) translate(0 111.60000000000002)"/><use xlink:href="#l" transform="matrix(1,0,0,1,112,701.9000000000001) translate(0 14.4)"/><use xlink:href="#q" transform="matrix(1,0,0,1,112,701.9000000000001) translate(10.95 14.4)"/><use xlink:href="#l" transform="matrix(1,0,0,1,112,701.9000000000001) translate(0 36)"/><use xlink:href="#r" transform="matrix(1,0,0,1,112,701.9000000000001) translate(10.95 36)"/><path d="M660 211.5c0-4.42 3.58-8 8-8h279c4.42 0 8 3.58 8 8v205c0 4.42-3.58 8-8 8H668c-4.42 0-8-3.58-8-8z" stroke="#333" fill="#fff"/><path d="M660 241.1h295m-295 59.1h295" stroke="#333" fill="none"/><use xlink:href="#s" transform="matrix(1,0,0,1,668,211.50000000011642) translate(118.5 14.4)"/><use xlink:href="#t" transform="matrix(1,0,0,1,672,308.2000000001164) translate(0 14.4)"/><use xlink:href="#u" transform="matrix(1,0,0,1,672,308.2000000001164) translate(15.5 14.4)"/><use xlink:href="#t" transform="matrix(1,0,0,1,672,308.2000000001164) translate(0 36)"/><use xlink:href="#v" transform="matrix(1,0,0,1,672,308.2000000001164) translate(15.5 36)"/><use xlink:href="#w" transform="matrix(1,0,0,1,672,308.2000000001164) translate(118.35000000000001 36)"/><use xlink:href="#t" transform="matrix(1,0,0,1,672,308.2000000001164) translate(0 57.6)"/><use xlink:href="#x" transform="matrix(1,0,0,1,672,308.2000000001164) translate(15.5 57.6)"/><use xlink:href="#t" transform="matrix(1,0,0,1,672,308.2000000001164) translate(0 79.20000000000002)"/><use xlink:href="#y" transform="matrix(1,0,0,1,672,308.2000000001164) translate(15.5 79.20000000000002)"/><path d="M1200 781c0-4.42 3.58-8 8-8h204c4.42 0 8 3.58 8 8v205c0 4.42-3.58 8-8 8h-204c-4.42 0-8-3.58-8-8z" stroke="#333" fill="#fff"/><path d="M1200 810.6h220m-220 59.1h220" stroke="#333" fill="none"/><use xlink:href="#z" transform="matrix(1,0,0,1,1208,781) translate(51.55 14.4)"/><use xlink:href="#l" transform="matrix(1,0,0,1,1212,818.6) translate(0 14.4)"/><use xlink:href="#A" transform="matrix(1,0,0,1,1212,818.6) translate(10.95 14.4)"/><use xlink:href="#t" transform="matrix(1,0,0,1,1212,877.7) translate(0 14.4)"/><use xlink:href="#B" transform="matrix(1,0,0,1,1212,877.7) translate(15.5 14.4)"/><use xlink:href="#C" transform="matrix(1,0,0,1,1212,877.7) translate(0 36)"/><use xlink:href="#D" transform="matrix(1,0,0,1,1212,877.7) translate(112.95 36)"/><use xlink:href="#E" transform="matrix(1,0,0,1,1212,877.7) translate(0 57.6)"/><use xlink:href="#t" transform="matrix(1,0,0,1,1212,877.7) translate(0 79.20000000000002)"/><use xlink:href="#F" transform="matrix(1,0,0,1,1212,877.7) translate(15.5 79.20000000000002)"/><path d="M1200 1054c0-4.42 3.58-8 8-8h204c4.42 0 8 3.58 8 8v205c0 4.42-3.58 8-8 8h-204c-4.42 0-8-3.58-8-8z" stroke="#333" fill="#fff"/><path d="M1200 1083.6h220m-220 59.1h220" stroke="#333" fill="none"/><use xlink:href="#G" transform="matrix(1,0,0,1,1208,1054) translate(26.474999999999994 14.4)"/><use xlink:href="#l" transform="matrix(1,0,0,1,1212,1091.6) translate(0 14.4)"/><use xlink:href="#H" transform="matrix(1,0,0,1,1212,1091.6) translate(10.95 14.4)"/><use xlink:href="#t" transform="matrix(1,0,0,1,1212,1150.6999999999998) translate(0 14.4)"/><use xlink:href="#B" transform="matrix(1,0,0,1,1212,1150.6999999999998) translate(15.5 14.4)"/><use xlink:href="#C" transform="matrix(1,0,0,1,1212,1150.6999999999998) translate(0 36)"/><use xlink:href="#D" transform="matrix(1,0,0,1,1212,1150.6999999999998) translate(112.95 36)"/><use xlink:href="#E" transform="matrix(1,0,0,1,1212,1150.6999999999998) translate(0 57.6)"/><use xlink:href="#t" transform="matrix(1,0,0,1,1212,1150.6999999999998) translate(0 79.20000000000002)"/><use xlink:href="#F" transform="matrix(1,0,0,1,1212,1150.6999999999998) translate(15.5 79.20000000000002)"/><path d="M1200.96 1327c0-4.42 3.58-8 8-8h204c4.42 0 8 3.58 8 8v205c0 4.42-3.58 8-8 8h-204c-4.42 0-8-3.58-8-8z" stroke="#333" fill="#fff"/><path d="M1200.96 1356.6h220m-220 59.1h220" stroke="#333" fill="none"/><use xlink:href="#I" transform="matrix(1,0,0,1,1208.9573859611987,1327) translate(22.424999999999997 14.4)"/><use xlink:href="#l" transform="matrix(1,0,0,1,1212.9573859611987,1364.6) translate(0 14.4)"/><use xlink:href="#H" transform="matrix(1,0,0,1,1212.9573859611987,1364.6) translate(10.95 14.4)"/><use xlink:href="#t" transform="matrix(1,0,0,1,1212.9573859611987,1423.6999999999998) translate(0 14.4)"/><use xlink:href="#B" transform="matrix(1,0,0,1,1212.9573859611987,1423.6999999999998) translate(15.5 14.4)"/><use xlink:href="#C" transform="matrix(1,0,0,1,1212.9573859611987,1423.6999999999998) translate(0 36)"/><use xlink:href="#D" transform="matrix(1,0,0,1,1212.9573859611987,1423.6999999999998) translate(112.95 36)"/><use xlink:href="#E" transform="matrix(1,0,0,1,1212.9573859611987,1423.6999999999998) translate(0 57.6)"/><use xlink:href="#t" transform="matrix(1,0,0,1,1212.9573859611987,1423.6999999999998) translate(0 79.20000000000002)"/><use xlink:href="#F" transform="matrix(1,0,0,1,1212.9573859611987,1423.6999999999998) translate(15.5 79.20000000000002)"/><path d="M1200.96 508c0-4.42 3.58-8 8-8h204c4.42 0 8 3.58 8 8v205c0 4.42-3.58 8-8 8h-204c-4.42 0-8-3.58-8-8z" stroke="#333" fill="#fff"/><path d="M1200.96 537.6h220m-220 59.1h220" stroke="#333" fill="none"/><g><use xlink:href="#J" transform="matrix(1,0,0,1,1208.9573859611987,508) translate(49.025 14.4)"/></g><g><use xlink:href="#t" transform="matrix(1,0,0,1,1212.9573859611987,604.7) translate(0 14.4)"/><use xlink:href="#B" transform="matrix(1,0,0,1,1212.9573859611987,604.7) translate(15.5 14.4)"/><use xlink:href="#C" transform="matrix(1,0,0,1,1212.9573859611987,604.7) translate(0 36)"/><use xlink:href="#D" transform="matrix(1,0,0,1,1212.9573859611987,604.7) translate(112.95 36)"/><use xlink:href="#E" transform="matrix(1,0,0,1,1212.9573859611987,604.7) translate(0 57.6)"/><use xlink:href="#t" transform="matrix(1,0,0,1,1212.9573859611987,604.7) translate(0 79.20000000000002)"/><use xlink:href="#F" transform="matrix(1,0,0,1,1212.9573859611987,604.7) translate(15.5 79.20000000000002)"/></g><path d="M540 515c0-4.42 3.58-8 8-8h24c4.42 0 8 3.58 8 8v44c0 4.42-3.58 8-8 8h-24c-4.42 0-8-3.58-8-8z" stroke="#000" stroke-opacity="0" fill="#fff" fill-opacity="0"/><g><use xlink:href="#K" transform="matrix(1,0,0,1,545,512) translate(10 30.025)"/></g><path d="M540 548c0-4.42 3.58-8 8-8h24c4.42 0 8 3.58 8 8v44c0 4.42-3.58 8-8 8h-24c-4.42 0-8-3.58-8-8z" stroke="#000" stroke-opacity="0" fill="#fff" fill-opacity="0"/><g><use xlink:href="#K" transform="matrix(1,0,0,1,545,545) translate(10 30.025)"/></g><path d="M620 483c0-4.42 3.58-8 8-8h24c4.42 0 8 3.58 8 8v44c0 4.42-3.58 8-8 8h-24c-4.42 0-8-3.58-8-8z" stroke="#000" stroke-opacity="0" fill="#fff" fill-opacity="0"/><g><use xlink:href="#K" transform="matrix(1,0,0,1,625,480) translate(10 30.025)"/></g><path d="M660 508c0-4.42 3.58-8 8-8h394c4.42 0 8 3.58 8 8v205c0 4.42-3.58 8-8 8H668c-4.42 0-8-3.58-8-8z" stroke="#333" fill="#fff"/><path d="M660 537.6h410m-410 59.1h410" stroke="#333" fill="none"/><g><use xlink:href="#L" transform="matrix(1,0,0,1,668,508) translate(163 14.4)"/></g><g><use xlink:href="#t" transform="matrix(1,0,0,1,672,604.7) translate(0 14.4)"/><use xlink:href="#u" transform="matrix(1,0,0,1,672,604.7) translate(15.5 14.4)"/><use xlink:href="#t" transform="matrix(1,0,0,1,672,604.7) translate(0 36)"/><use xlink:href="#v" transform="matrix(1,0,0,1,672,604.7) translate(15.5 36)"/><use xlink:href="#C" transform="matrix(1,0,0,1,672,604.7) translate(118.35000000000001 36)"/><use xlink:href="#M" transform="matrix(1,0,0,1,672,604.7) translate(231.3 36)"/><use xlink:href="#E" transform="matrix(1,0,0,1,672,604.7) translate(286.25 36)"/><use xlink:href="#t" transform="matrix(1,0,0,1,672,604.7) translate(0 57.6)"/><use xlink:href="#x" transform="matrix(1,0,0,1,672,604.7) translate(15.5 57.6)"/><use xlink:href="#t" transform="matrix(1,0,0,1,672,604.7) translate(0 79.20000000000002)"/><use xlink:href="#y" transform="matrix(1,0,0,1,672,604.7) translate(15.5 79.20000000000002)"/></g><path d="M1199.96 610.5H1093.5" stroke="#333" fill="none"/><path d="M1200.46 611h-.52v-1h.52z" fill="#333"/><path d="M1071.48 610.5l21.52-12.73v25.46z" stroke="#333" fill="#fff"/><path d="M1199 883.5h-52c-6.63 0-12-5.37-12-12v-249c0-6.63-5.37-12-12-12h-29.5" stroke="#333" fill="none"/><path d="M1199.5 884h-.5v-1h.5z" fill="#333"/><path d="M1071.48 610.5l21.52-12.73v25.46z" stroke="#333" fill="#fff"/><path d="M1199 1156.5h-52c-6.63 0-12-5.37-12-12v-522c0-6.63-5.37-12-12-12h-29.5" stroke="#333" fill="none"/><path d="M1199.5 1157h-.5v-1h.5z" fill="#333"/><path d="M1071.48 610.5l21.52-12.73v25.46z" stroke="#333" fill="#fff"/><path d="M1199.96 1429.5h-52.48c-6.63 0-12-5.37-12-12v-256c-2.76 0-5-2.24-5-5s2.24-5 5-5v-263c-2.76 0-5-2.24-5-5s2.24-5 5-5v-256c0-6.63-5.37-12-12-12h-29.98" stroke="#333" fill="none"/><path d="M1200.46 1430h-.52v-1h.52z" fill="#333"/><path d="M1071.48 610.5l21.52-12.73v25.46z" stroke="#333" fill="#fff"/><path d="M865 499v-24.75c0-6.63-5.37-12-12-12h-33.5c-6.63 0-12-5.37-12-12V448" stroke="#333" fill="none"/><path d="M865.5 499.5h-1v-.5h1z" fill="#333"/><path d="M807.5 425.98l12.73 21.52h-25.46z" stroke="#333" fill="#fff"/><path d="M310 499V326c0-6.63 5.37-12 12-12h314.5" stroke="#333" fill="none"/><path d="M310.5 499.5h-1v-.5h1z" fill="#333"/><path d="M658.52 314L637 326.73v-25.46z" stroke="#333" fill="#fff"/><path d="M659 520h-57c-6.63 0-12 5.37-12 12v13.33c0 6.63-5.37 12-12 12h-27.13" stroke="#333" fill="none"/><path d="M659.5 520.5h-.5v-1h.5z" fill="#333"/><path d="M521.2 557.33l14.86-14.85 15.15 14.85-15.14 14.85z" stroke="#333" fill="#333"/><path d="M659 818.26h-57c-6.63 0-12-5.38-12-12V600c0-6.63-5.37-12-12-12h-27.13" stroke="#333" fill="none"/><path d="M659.5 818.76h-.5v-1h.5z" fill="#333"/><path d="M521.2 588l14.86-14.85L551.2 588l-15.14 14.85z" stroke="#333" fill="#333"/><path d="M620 781c0-4.42 3.58-8 8-8h24c4.42 0 8 3.58 8 8v44c0 4.42-3.58 8-8 8h-24c-4.42 0-8-3.58-8-8z" stroke="#000" stroke-opacity="0" fill="#fff" fill-opacity="0"/><g><use xlink:href="#K" transform="matrix(1,0,0,1,625,778) translate(10 30.025)"/></g><path d="M660 804.5c0-4.42 3.58-8 8-8h384c4.42 0 8 3.58 8 8v529c0 4.42-3.58 8-8 8H668c-4.42 0-8-3.58-8-8z" stroke="#333" fill="#fff"/><path d="M660 834.1h400M660 979.6h400" stroke="#333" fill="none"/><g><use xlink:href="#N" transform="matrix(1,0,0,1,668,804.4999999998836) translate(170.525 14.4)"/></g><g><use xlink:href="#l" transform="matrix(1,0,0,1,672,842.0999999998836) translate(0 14.4)"/><use xlink:href="#O" transform="matrix(1,0,0,1,672,842.0999999998836) translate(10.95 14.4)"/><use xlink:href="#l" transform="matrix(1,0,0,1,672,842.0999999998836) translate(0 36)"/><use xlink:href="#P" transform="matrix(1,0,0,1,672,842.0999999998836) translate(10.95 36)"/><use xlink:href="#l" transform="matrix(1,0,0,1,672,842.0999999998836) translate(0 57.6)"/><use xlink:href="#Q" transform="matrix(1,0,0,1,672,842.0999999998836) translate(10.95 57.6)"/><use xlink:href="#l" transform="matrix(1,0,0,1,672,842.0999999998836) translate(0 79.20000000000002)"/><use xlink:href="#R" transform="matrix(1,0,0,1,672,842.0999999998836) translate(10.95 79.20000000000002)"/><use xlink:href="#l" transform="matrix(1,0,0,1,672,842.0999999998836) translate(0 100.80000000000001)"/><use xlink:href="#S" transform="matrix(1,0,0,1,672,842.0999999998836) translate(10.95 100.80000000000001)"/></g><g><use xlink:href="#t" transform="matrix(1,0,0,1,672,987.5999999998836) translate(0 14.4)"/><use xlink:href="#T" transform="matrix(1,0,0,1,672,987.5999999998836) translate(15.5 14.4)"/><use xlink:href="#U" transform="matrix(1,0,0,1,672,987.5999999998836) translate(110.35000000000001 14.4)"/><use xlink:href="#t" transform="matrix(1,0,0,1,672,987.5999999998836) translate(0 36)"/><use xlink:href="#V" transform="matrix(1,0,0,1,672,987.5999999998836) translate(15.5 36)"/><use xlink:href="#t" transform="matrix(1,0,0,1,672,987.5999999998836) translate(0 57.6)"/><use xlink:href="#W" transform="matrix(1,0,0,1,672,987.5999999998836) translate(15.5 57.6)"/><use xlink:href="#X" transform="matrix(1,0,0,1,672,987.5999999998836) translate(118.30000000000001 57.6)"/><use xlink:href="#t" transform="matrix(1,0,0,1,672,987.5999999998836) translate(0 79.20000000000002)"/><use xlink:href="#Y" transform="matrix(1,0,0,1,672,987.5999999998836) translate(15.5 79.20000000000002)"/><use xlink:href="#t" transform="matrix(1,0,0,1,672,987.5999999998836) translate(0 100.80000000000001)"/><use xlink:href="#Z" transform="matrix(1,0,0,1,672,987.5999999998836) translate(15.5 100.80000000000001)"/><use xlink:href="#t" transform="matrix(1,0,0,1,672,987.5999999998836) translate(0 122.4)"/><use xlink:href="#aa" transform="matrix(1,0,0,1,672,987.5999999998836) translate(15.5 122.4)"/><use xlink:href="#ab" transform="matrix(1,0,0,1,672,987.5999999998836) translate(267.25 122.4)"/><use xlink:href="#t" transform="matrix(1,0,0,1,672,987.5999999998836) translate(0 144)"/><use xlink:href="#v" transform="matrix(1,0,0,1,672,987.5999999998836) translate(15.5 144)"/><use xlink:href="#ac" transform="matrix(1,0,0,1,672,987.5999999998836) translate(118.35000000000001 144)"/><use xlink:href="#t" transform="matrix(1,0,0,1,672,987.5999999998836) translate(0 165.6)"/><use xlink:href="#ad" transform="matrix(1,0,0,1,672,987.5999999998836) translate(15.5 165.6)"/><use xlink:href="#t" transform="matrix(1,0,0,1,672,987.5999999998836) translate(0 187.2)"/><use xlink:href="#ae" transform="matrix(1,0,0,1,672,987.5999999998836) translate(15.5 187.2)"/><use xlink:href="#af" transform="matrix(1,0,0,1,672,987.5999999998836) translate(93.60000000000001 187.2)"/><use xlink:href="#ag" transform="matrix(1,0,0,1,672,987.5999999998836) translate(112.60000000000001 187.2)"/><use xlink:href="#ah" transform="matrix(1,0,0,1,672,987.5999999998836) translate(136.55 187.2)"/><use xlink:href="#t" transform="matrix(1,0,0,1,672,987.5999999998836) translate(0 208.79999999999998)"/><use xlink:href="#ai" transform="matrix(1,0,0,1,672,987.5999999998836) translate(15.5 208.79999999999998)"/><use xlink:href="#af" transform="matrix(1,0,0,1,672,987.5999999998836) translate(110.35000000000001 208.79999999999998)"/><use xlink:href="#ag" transform="matrix(1,0,0,1,672,987.5999999998836) translate(129.35000000000002 208.79999999999998)"/><use xlink:href="#ah" transform="matrix(1,0,0,1,672,987.5999999998836) translate(153.3 208.79999999999998)"/><use xlink:href="#t" transform="matrix(1,0,0,1,672,987.5999999998836) translate(0 230.39999999999998)"/><use xlink:href="#aj" transform="matrix(1,0,0,1,672,987.5999999998836) translate(15.5 230.39999999999998)"/><use xlink:href="#af" transform="matrix(1,0,0,1,672,987.5999999998836) translate(122.30000000000001 230.39999999999998)"/><use xlink:href="#ag" transform="matrix(1,0,0,1,672,987.5999999998836) translate(141.3 230.39999999999998)"/><use xlink:href="#ak" transform="matrix(1,0,0,1,672,987.5999999998836) translate(165.25 230.39999999999998)"/><use xlink:href="#t" transform="matrix(1,0,0,1,672,987.5999999998836) translate(0 251.99999999999997)"/><use xlink:href="#al" transform="matrix(1,0,0,1,672,987.5999999998836) translate(15.5 251.99999999999997)"/><use xlink:href="#af" transform="matrix(1,0,0,1,672,987.5999999998836) translate(175.29999999999998 251.99999999999997)"/><use xlink:href="#ag" transform="matrix(1,0,0,1,672,987.5999999998836) translate(194.29999999999998 251.99999999999997)"/><use xlink:href="#am" transform="matrix(1,0,0,1,672,987.5999999998836) translate(218.24999999999997 251.99999999999997)"/><use xlink:href="#l" transform="matrix(1,0,0,1,672,987.5999999998836) translate(0 273.59999999999997)"/><use xlink:href="#an" transform="matrix(1,0,0,1,672,987.5999999998836) translate(10.95 273.59999999999997)"/><use xlink:href="#l" transform="matrix(1,0,0,1,672,987.5999999998836) translate(0 295.2)"/><use xlink:href="#ao" transform="matrix(1,0,0,1,672,987.5999999998836) translate(10.95 295.2)"/><use xlink:href="#af" transform="matrix(1,0,0,1,672,987.5999999998836) translate(148.8 295.2)"/><use xlink:href="#ag" transform="matrix(1,0,0,1,672,987.5999999998836) translate(167.8 295.2)"/><use xlink:href="#ap" transform="matrix(1,0,0,1,672,987.5999999998836) translate(191.75 295.2)"/><use xlink:href="#p" transform="matrix(1,0,0,1,672,987.5999999998836) translate(0 316.8)"/></g><defs><path fill="#a9afb8" d="M101-251c68 0 84 54 84 127C185-50 166 4 99 4S15-52 14-124c-1-75 17-127 87-127zm-1 216c37-5 36-46 36-89s4-89-36-89c-39 0-36 45-36 89 0 43-3 85 36 89" id="aq"/><path fill="#a9afb8" d="M182-182c0 78-84 86-111 141h115V0H12c-6-101 99-100 120-180 1-22-12-31-33-32-23 0-32 14-35 34l-49-3c5-45 32-70 84-70 51 0 83 22 83 69" id="ar"/><g id="a"><use transform="matrix(0.0728395061728395,0,0,0.0728395061728395,0,0)" xlink:href="#aq"/><use transform="matrix(0.0728395061728395,0,0,0.0728395061728395,14.5679012345679,0)" xlink:href="#ar"/></g><path fill="#a9afb8" d="M67-125c0 54 23 88 75 88 28 0 53-7 68-21v-34h-60v-39h108v91C232-14 192 4 140 4 58 4 20-42 15-125 8-236 126-280 215-234c19 10 29 26 37 47l-47 15c-11-23-29-39-63-39-53 1-75 33-75 86" id="as"/><path fill="#a9afb8" d="M133-34C117-15 103 5 69 4 32 3 11-16 11-54c-1-60 55-63 116-61 1-26-3-47-28-47-18 1-26 9-28 27l-52-2c7-38 36-58 82-57s74 22 75 68l1 82c-1 14 12 18 25 15v27c-30 8-71 5-69-32zm-48 3c29 0 43-24 42-57-32 0-66-3-65 30 0 17 8 27 23 27" id="at"/><path fill="#a9afb8" d="M220-157c-53 9-28 100-34 157h-49v-107c1-27-5-49-29-50C55-147 81-57 75 0H25l-1-190h47c2 12-1 28 3 38 10-53 101-56 108 0 13-22 24-43 59-42 82 1 51 116 57 194h-49v-107c-1-25-5-48-29-50" id="au"/><path fill="#a9afb8" d="M185-48c-13 30-37 53-82 52C43 2 14-33 14-96s30-98 90-98c62 0 83 45 84 108H66c0 31 8 55 39 56 18 0 30-7 34-22zm-45-69c5-46-57-63-70-21-2 6-4 13-4 21h74" id="av"/><path fill="#a9afb8" d="M135-194c53 0 70 44 70 98 0 56-19 98-73 100-31 1-45-17-59-34 3 33 2 69 2 105H25l-1-265h48c2 10 0 23 3 31 11-24 29-35 60-35zM114-30c33 0 39-31 40-66 0-38-9-64-40-64-56 0-55 130 0 130" id="aw"/><path fill="#a9afb8" d="M25 0v-261h50V0H25" id="ax"/><path fill="#a9afb8" d="M123 10C108 53 80 86 19 72V37c35 8 53-11 59-39L3-190h52l48 148c12-52 28-100 44-148h51" id="ay"/><path fill="#a9afb8" d="M169-182c-1-43-94-46-97-3 18 66 151 10 154 114 3 95-165 93-204 36-6-8-10-19-12-30l50-8c3 46 112 56 116 5-17-69-150-10-154-114-4-87 153-88 188-35 5 8 8 18 10 28" id="az"/><path fill="#a9afb8" d="M115-3C79 11 28 4 28-45v-112H4v-33h27l15-45h31v45h36v33H77v99c-1 23 16 31 38 25v30" id="aA"/><g id="b"><use transform="matrix(0.0728395061728395,0,0,0.0728395061728395,0,0)" xlink:href="#as"/><use transform="matrix(0.0728395061728395,0,0,0.0728395061728395,20.39506172839506,0)" xlink:href="#at"/><use transform="matrix(0.0728395061728395,0,0,0.0728395061728395,34.96296296296296,0)" xlink:href="#au"/><use transform="matrix(0.0728395061728395,0,0,0.0728395061728395,58.2716049382716,0)" xlink:href="#av"/><use transform="matrix(0.0728395061728395,0,0,0.0728395061728395,72.8395061728395,0)" xlink:href="#aw"/><use transform="matrix(0.0728395061728395,0,0,0.0728395061728395,88.79135802469136,0)" xlink:href="#ax"/><use transform="matrix(0.0728395061728395,0,0,0.0728395061728395,96.07530864197531,0)" xlink:href="#at"/><use transform="matrix(0.0728395061728395,0,0,0.0728395061728395,110.64320987654321,0)" xlink:href="#ay"/><use transform="matrix(0.0728395061728395,0,0,0.0728395061728395,125.21111111111111,0)" xlink:href="#az"/><use transform="matrix(0.0728395061728395,0,0,0.0728395061728395,142.69259259259258,0)" xlink:href="#aA"/><use transform="matrix(0.0728395061728395,0,0,0.0728395061728395,151.36049382716047,0)" xlink:href="#at"/><use transform="matrix(0.0728395061728395,0,0,0.0728395061728395,165.92839506172837,0)" xlink:href="#aA"/><use transform="matrix(0.0728395061728395,0,0,0.0728395061728395,174.59629629629626,0)" xlink:href="#av"/></g><path fill="#a9afb8" d="M233-177c-1 41-23 64-60 70L243 0h-38l-65-103H63V0H30v-248c88 3 205-21 203 71zM63-129c60-2 137 13 137-47 0-61-80-42-137-45v92" id="aB"/><path fill="#a9afb8" d="M141-36C126-15 110 5 73 4 37 3 15-17 15-53c-1-64 63-63 125-63 3-35-9-54-41-54-24 1-41 7-42 31l-33-3c5-37 33-52 76-52 45 0 72 20 72 64v82c-1 20 7 32 28 27v20c-31 9-61-2-59-35zM48-53c0 20 12 33 32 33 41-3 63-29 60-74-43 2-92-5-92 41" id="aC"/><path fill="#a9afb8" d="M115-194c55 1 70 41 70 98S169 2 115 4C84 4 66-9 55-30l1 105H24l-1-265h31l2 30c10-21 28-34 59-34zm-8 174c40 0 45-34 45-75s-6-73-45-74c-42 0-51 32-51 76 0 43 10 73 51 73" id="aD"/><path fill="#a9afb8" d="M106-169C34-169 62-67 57 0H25v-261h32l-1 103c12-21 28-36 61-36 89 0 53 116 60 194h-32v-121c2-32-8-49-39-48" id="aE"/><path fill="#a9afb8" d="M100-194c63 0 86 42 84 106H49c0 40 14 67 53 68 26 1 43-12 49-29l28 8c-11 28-37 45-77 45C44 4 14-33 15-96c1-61 26-98 85-98zm52 81c6-60-76-77-97-28-3 7-6 17-6 28h103" id="aF"/><path fill="#a9afb8" d="M24 0v-261h32V0H24" id="aG"/><g id="c"><use transform="matrix(0.04248971193415638,0,0,0.04248971193415638,0,0)" xlink:href="#aB"/><use transform="matrix(0.04248971193415638,0,0,0.04248971193415638,11.004835390946502,0)" xlink:href="#aC"/><use transform="matrix(0.04248971193415638,0,0,0.04248971193415638,19.502777777777776,0)" xlink:href="#aD"/><use transform="matrix(0.04248971193415638,0,0,0.04248971193415638,28.000720164609046,0)" xlink:href="#aE"/><use transform="matrix(0.04248971193415638,0,0,0.04248971193415638,36.498662551440326,0)" xlink:href="#aC"/><use transform="matrix(0.04248971193415638,0,0,0.04248971193415638,44.9966049382716,0)" xlink:href="#aF"/><use transform="matrix(0.04248971193415638,0,0,0.04248971193415638,53.49454732510288,0)" xlink:href="#aG"/></g><path fill="#a9afb8" d="M197 0v-115H63V0H30v-248h33v105h134v-105h34V0h-34" id="aH"/><path fill="#a9afb8" d="M210-169c-67 3-38 105-44 169h-31v-121c0-29-5-50-35-48C34-165 62-65 56 0H25l-1-190h30c1 10-1 24 2 32 10-44 99-50 107 0 11-21 27-35 58-36 85-2 47 119 55 194h-31v-121c0-29-5-49-35-48" id="aI"/><path fill="#a9afb8" d="M9 0v-24l116-142H16v-24h144v24L44-24h123V0H9" id="aJ"/><path fill="#a9afb8" d="M177-190C167-65 218 103 67 71c-23-6-38-20-44-43l32-5c15 47 100 32 89-28v-30C133-14 115 1 83 1 29 1 15-40 15-95c0-56 16-97 71-98 29-1 48 16 59 35 1-10 0-23 2-32h30zM94-22c36 0 50-32 50-73 0-42-14-75-50-75-39 0-46 34-46 75s6 73 46 73" id="aK"/><path fill="#a9afb8" d="M24-231v-30h32v30H24zM24 0v-190h32V0H24" id="aL"/><path fill="#a9afb8" d="M96-169c-40 0-48 33-48 73s9 75 48 75c24 0 41-14 43-38l32 2c-6 37-31 61-74 61-59 0-76-41-82-99-10-93 101-131 147-64 4 7 5 14 7 22l-32 3c-4-21-16-35-41-35" id="aM"/><g id="d"><use transform="matrix(0.04248971193415638,0,0,0.04248971193415638,0,0)" xlink:href="#aH"/><use transform="matrix(0.04248971193415638,0,0,0.04248971193415638,11.004835390946502,0)" xlink:href="#aC"/><use transform="matrix(0.04248971193415638,0,0,0.04248971193415638,19.502777777777776,0)" xlink:href="#aI"/><use transform="matrix(0.04248971193415638,0,0,0.04248971193415638,32.20720164609053,0)" xlink:href="#aJ"/><use transform="matrix(0.04248971193415638,0,0,0.04248971193415638,39.85534979423868,0)" xlink:href="#aC"/><use transform="matrix(0.04248971193415638,0,0,0.04248971193415638,48.35329218106995,0)" xlink:href="#aK"/><use transform="matrix(0.04248971193415638,0,0,0.04248971193415638,56.85123456790123,0)" xlink:href="#aL"/><use transform="matrix(0.04248971193415638,0,0,0.04248971193415638,60.20792181069959,0)" xlink:href="#aM"/></g><path fill="#a9afb8" d="M85-194c31 0 48 13 60 33l-1-100h32l1 261h-30c-2-10 0-23-3-31C134-8 116 4 85 4 32 4 16-35 15-94c0-66 23-100 70-100zm9 24c-40 0-46 34-46 75 0 40 6 74 45 74 42 0 51-32 51-76 0-42-9-74-50-73" id="aN"/><g id="e"><use transform="matrix(0.04248971193415638,0,0,0.04248971193415638,0,0)" xlink:href="#aN"/><use transform="matrix(0.04248971193415638,0,0,0.04248971193415638,8.497942386831275,0)" xlink:href="#aF"/></g><path fill="#a9afb8" d="M212-179c-10-28-35-45-73-45-59 0-87 40-87 99 0 60 29 101 89 101 43 0 62-24 78-52l27 14C228-24 195 4 139 4 59 4 22-46 18-125c-6-104 99-153 187-111 19 9 31 26 39 46" id="aO"/><path fill="#a9afb8" d="M114-163C36-179 61-72 57 0H25l-1-190h30c1 12-1 29 2 39 6-27 23-49 58-41v29" id="aP"/><path fill="#a9afb8" d="M108 0H70L1-190h34L89-25l56-165h34" id="aQ"/><path fill="#a9afb8" d="M100-194c62-1 85 37 85 99 1 63-27 99-86 99S16-35 15-95c0-66 28-99 85-99zM99-20c44 1 53-31 53-75 0-43-8-75-51-75s-53 32-53 75 10 74 51 75" id="aR"/><g id="f"><use transform="matrix(0.04248971193415638,0,0,0.04248971193415638,0,0)" xlink:href="#aO"/><use transform="matrix(0.04248971193415638,0,0,0.04248971193415638,11.004835390946502,0)" xlink:href="#aC"/><use transform="matrix(0.04248971193415638,0,0,0.04248971193415638,19.502777777777776,0)" xlink:href="#aP"/><use transform="matrix(0.04248971193415638,0,0,0.04248971193415638,24.559053497942386,0)" xlink:href="#aQ"/><use transform="matrix(0.04248971193415638,0,0,0.04248971193415638,32.20720164609053,0)" xlink:href="#aC"/><use transform="matrix(0.04248971193415638,0,0,0.04248971193415638,40.70514403292181,0)" xlink:href="#aG"/><use transform="matrix(0.04248971193415638,0,0,0.04248971193415638,44.06183127572016,0)" xlink:href="#aE"/><use transform="matrix(0.04248971193415638,0,0,0.04248971193415638,52.559773662551436,0)" xlink:href="#aR"/></g><path fill="#a9afb8" d="M32 76v-337h29V76H32" id="aS"/><use transform="matrix(0.04248971193415638,0,0,0.04248971193415638,0,0)" xlink:href="#aS" id="g"/><path fill="#a9afb8" d="M190 0L58-211 59 0H30v-248h39L202-35l-2-213h31V0h-41" id="aT"/><path fill="#a9afb8" d="M115-194c53 0 69 39 70 98 0 66-23 100-70 100C84 3 66-7 56-30L54 0H23l1-261h32v101c10-23 28-34 59-34zm-8 174c40 0 45-34 45-75 0-40-5-75-45-74-42 0-51 32-51 76 0 43 10 73 51 73" id="aU"/><g id="h"><use transform="matrix(0.04248971193415638,0,0,0.04248971193415638,0,0)" xlink:href="#aT"/><use transform="matrix(0.04248971193415638,0,0,0.04248971193415638,11.004835390946502,0)" xlink:href="#aR"/><use transform="matrix(0.04248971193415638,0,0,0.04248971193415638,19.502777777777776,0)" xlink:href="#aQ"/><use transform="matrix(0.04248971193415638,0,0,0.04248971193415638,27.150925925925925,0)" xlink:href="#aF"/><use transform="matrix(0.04248971193415638,0,0,0.04248971193415638,35.6488683127572,0)" xlink:href="#aI"/><use transform="matrix(0.04248971193415638,0,0,0.04248971193415638,48.35329218106995,0)" xlink:href="#aU"/><use transform="matrix(0.04248971193415638,0,0,0.04248971193415638,56.851234567901244,0)" xlink:href="#aF"/><use transform="matrix(0.04248971193415638,0,0,0.04248971193415638,65.34917695473251,0)" xlink:href="#aP"/></g><path fill="#a9afb8" d="M101-251c82-7 93 87 43 132L82-64C71-53 59-42 53-27h129V0H18c2-99 128-94 128-182 0-28-16-43-45-43s-46 15-49 41l-32-3c6-41 34-60 81-64" id="aV"/><path fill="#a9afb8" d="M64 0c3-98 48-159 88-221H18v-27h164v26C143-157 98-101 97 0H64" id="aW"/><path fill="#a9afb8" d="M68-38c1 34 0 65-14 84H32c9-13 17-26 17-46H33v-38h35" id="aX"/><g id="i"><use transform="matrix(0.04248971193415638,0,0,0.04248971193415638,0,0)" xlink:href="#aV"/><use transform="matrix(0.04248971193415638,0,0,0.04248971193415638,8.497942386831275,0)" xlink:href="#aW"/><use transform="matrix(0.04248971193415638,0,0,0.04248971193415638,16.99588477366255,0)" xlink:href="#aX"/></g><path fill="#a9afb8" d="M101-251c68 0 85 55 85 127S166 4 100 4C33 4 14-52 14-124c0-73 17-127 87-127zm-1 229c47 0 54-49 54-102s-4-102-53-102c-51 0-55 48-55 102 0 53 5 102 54 102" id="aY"/><g id="j"><use transform="matrix(0.04248971193415638,0,0,0.04248971193415638,0,0)" xlink:href="#aV"/><use transform="matrix(0.04248971193415638,0,0,0.04248971193415638,8.497942386831275,0)" xlink:href="#aY"/><use transform="matrix(0.04248971193415638,0,0,0.04248971193415638,16.99588477366255,0)" xlink:href="#aV"/><use transform="matrix(0.04248971193415638,0,0,0.04248971193415638,25.493827160493822,0)" xlink:href="#aY"/></g><path fill="#333" d="M143 4C61 4 22-44 18-125c-5-107 100-154 193-111 17 8 29 25 37 43l-32 9c-13-25-37-40-76-40-61 0-88 39-88 99 0 61 29 100 91 101 35 0 62-11 79-27v-45h-74v-28h105v86C228-13 192 4 143 4" id="aZ"/><path fill="#333" d="M141-36C126-15 110 5 73 4 37 3 15-17 15-53c-1-64 63-63 125-63 3-35-9-54-41-54-24 1-41 7-42 31l-33-3c5-37 33-52 76-52 45 0 72 20 72 64v82c-1 20 7 32 28 27v20c-31 9-61-2-59-35zM48-53c0 20 12 33 32 33 41-3 63-29 60-74-43 2-92-5-92 41" id="ba"/><path fill="#333" d="M210-169c-67 3-38 105-44 169h-31v-121c0-29-5-50-35-48C34-165 62-65 56 0H25l-1-190h30c1 10-1 24 2 32 10-44 99-50 107 0 11-21 27-35 58-36 85-2 47 119 55 194h-31v-121c0-29-5-49-35-48" id="bb"/><path fill="#333" d="M100-194c63 0 86 42 84 106H49c0 40 14 67 53 68 26 1 43-12 49-29l28 8c-11 28-37 45-77 45C44 4 14-33 15-96c1-61 26-98 85-98zm52 81c6-60-76-77-97-28-3 7-6 17-6 28h103" id="bc"/><path fill="#333" d="M115-194c55 1 70 41 70 98S169 2 115 4C84 4 66-9 55-30l1 105H24l-1-265h31l2 30c10-21 28-34 59-34zm-8 174c40 0 45-34 45-75s-6-73-45-74c-42 0-51 32-51 76 0 43 10 73 51 73" id="bd"/><path fill="#333" d="M24 0v-261h32V0H24" id="be"/><path fill="#333" d="M179-190L93 31C79 59 56 82 12 73V49c39 6 53-20 64-50L1-190h34L92-34l54-156h33" id="bf"/><path fill="#333" d="M185-189c-5-48-123-54-124 2 14 75 158 14 163 119 3 78-121 87-175 55-17-10-28-26-33-46l33-7c5 56 141 63 141-1 0-78-155-14-162-118-5-82 145-84 179-34 5 7 8 16 11 25" id="bg"/><path fill="#333" d="M59-47c-2 24 18 29 38 22v24C64 9 27 4 27-40v-127H5v-23h24l9-43h21v43h35v23H59v120" id="bh"/><g id="k"><use transform="matrix(0.05,0,0,0.05,0,0)" xlink:href="#aZ"/><use transform="matrix(0.05,0,0,0.05,14,0)" xlink:href="#ba"/><use transform="matrix(0.05,0,0,0.05,24,0)" xlink:href="#bb"/><use transform="matrix(0.05,0,0,0.05,38.95,0)" xlink:href="#bc"/><use transform="matrix(0.05,0,0,0.05,48.95,0)" xlink:href="#bd"/><use transform="matrix(0.05,0,0,0.05,58.95,0)" xlink:href="#be"/><use transform="matrix(0.05,0,0,0.05,62.900000000000006,0)" xlink:href="#ba"/><use transform="matrix(0.05,0,0,0.05,72.9,0)" xlink:href="#bf"/><use transform="matrix(0.05,0,0,0.05,81.9,0)" xlink:href="#bg"/><use transform="matrix(0.05,0,0,0.05,93.9,0)" xlink:href="#bh"/><use transform="matrix(0.05,0,0,0.05,98.9,0)" xlink:href="#ba"/><use transform="matrix(0.05,0,0,0.05,108.9,0)" xlink:href="#bh"/><use transform="matrix(0.05,0,0,0.05,113.9,0)" xlink:href="#bc"/></g><path fill="#333" d="M16-82v-28h88v28H16" id="bi"/><use transform="matrix(0.05,0,0,0.05,0,0)" xlink:href="#bi" id="l"/><path fill="#333" d="M-5 72V49h209v23H-5" id="bj"/><path fill="#333" d="M135-143c-3-34-86-38-87 0 15 53 115 12 119 90S17 21 10-45l28-5c4 36 97 45 98 0-10-56-113-15-118-90-4-57 82-63 122-42 12 7 21 19 24 35" id="bk"/><path fill="#333" d="M33-154v-36h34v36H33zM33 0v-36h34V0H33" id="bl"/><path fill="#333" d="M30-248c87 1 191-15 191 75 0 78-77 80-158 76V0H30v-248zm33 125c57 0 124 11 124-50 0-59-68-47-124-48v98" id="bm"/><g id="m"><use transform="matrix(0.05,0,0,0.05,0,0)" xlink:href="#bb"/><use transform="matrix(0.05,0,0,0.05,14.950000000000001,0)" xlink:href="#bj"/><use transform="matrix(0.05,0,0,0.05,24.950000000000003,0)" xlink:href="#bk"/><use transform="matrix(0.05,0,0,0.05,33.95,0)" xlink:href="#bh"/><use transform="matrix(0.05,0,0,0.05,38.95,0)" xlink:href="#ba"/><use transform="matrix(0.05,0,0,0.05,48.95,0)" xlink:href="#bh"/><use transform="matrix(0.05,0,0,0.05,53.95,0)" xlink:href="#bc"/><use transform="matrix(0.05,0,0,0.05,63.95,0)" xlink:href="#bl"/><use transform="matrix(0.05,0,0,0.05,68.95,0)" xlink:href="#aZ"/><use transform="matrix(0.05,0,0,0.05,82.95,0)" xlink:href="#bm"/><use transform="matrix(0.05,0,0,0.05,94.95,0)" xlink:href="#bg"/><use transform="matrix(0.05,0,0,0.05,106.95,0)" xlink:href="#bh"/><use transform="matrix(0.05,0,0,0.05,111.95,0)" xlink:href="#ba"/><use transform="matrix(0.05,0,0,0.05,121.95,0)" xlink:href="#bh"/><use transform="matrix(0.05,0,0,0.05,126.95,0)" xlink:href="#bc"/></g><path fill="#333" d="M80-196l47-18 7 23-49 13 32 44-20 13-27-46-27 45-21-12 33-44-49-13 8-23 47 19-2-53h23" id="bn"/><path fill="#333" d="M108 0H70L1-190h34L89-25l56-165h34" id="bo"/><path fill="#333" d="M30 0v-248h33v221h125V0H30" id="bp"/><g id="n"><use transform="matrix(0.05,0,0,0.05,0,0)" xlink:href="#bn"/><use transform="matrix(0.05,0,0,0.05,7,0)" xlink:href="#bb"/><use transform="matrix(0.05,0,0,0.05,21.950000000000003,0)" xlink:href="#bj"/><use transform="matrix(0.05,0,0,0.05,31.950000000000003,0)" xlink:href="#bd"/><use transform="matrix(0.05,0,0,0.05,41.95,0)" xlink:href="#be"/><use transform="matrix(0.05,0,0,0.05,45.900000000000006,0)" xlink:href="#bc"/><use transform="matrix(0.05,0,0,0.05,55.900000000000006,0)" xlink:href="#bo"/><use transform="matrix(0.05,0,0,0.05,64.9,0)" xlink:href="#bc"/><use transform="matrix(0.05,0,0,0.05,74.9,0)" xlink:href="#be"/><use transform="matrix(0.05,0,0,0.05,78.85000000000001,0)" xlink:href="#bl"/><use transform="matrix(0.05,0,0,0.05,83.85000000000001,0)" xlink:href="#bp"/><use transform="matrix(0.05,0,0,0.05,93.85000000000001,0)" xlink:href="#bc"/><use transform="matrix(0.05,0,0,0.05,103.85000000000001,0)" xlink:href="#bo"/><use transform="matrix(0.05,0,0,0.05,112.85000000000001,0)" xlink:href="#bc"/><use transform="matrix(0.05,0,0,0.05,122.85000000000001,0)" xlink:href="#be"/></g><path fill="#333" d="M96-169c-40 0-48 33-48 73s9 75 48 75c24 0 41-14 43-38l32 2c-6 37-31 61-74 61-59 0-76-41-82-99-10-93 101-131 147-64 4 7 5 14 7 22l-32 3c-4-21-16-35-41-35" id="bq"/><path fill="#333" d="M100-194c62-1 85 37 85 99 1 63-27 99-86 99S16-35 15-95c0-66 28-99 85-99zM99-20c44 1 53-31 53-75 0-43-8-75-51-75s-53 32-53 75 10 74 51 75" id="br"/><path fill="#333" d="M114-163C36-179 61-72 57 0H25l-1-190h30c1 12-1 29 2 39 6-27 23-49 58-41v29" id="bs"/><path fill="#333" d="M18-100v-36l175-74v27L42-118l151 64v27" id="bt"/><path fill="#333" d="M24-231v-30h32v30H24zM24 0v-190h32V0H24" id="bu"/><path fill="#333" d="M117-194c89-4 53 116 60 194h-32v-121c0-31-8-49-39-48C34-167 62-67 57 0H25l-1-190h30c1 10-1 24 2 32 11-22 29-35 61-36" id="bv"/><path fill="#333" d="M177-190C167-65 218 103 67 71c-23-6-38-20-44-43l32-5c15 47 100 32 89-28v-30C133-14 115 1 83 1 29 1 15-40 15-95c0-56 16-97 71-98 29-1 48 16 59 35 1-10 0-23 2-32h30zM94-22c36 0 50-32 50-73 0-42-14-75-50-75-39 0-46 34-46 75s6 73 46 73" id="bw"/><path fill="#333" d="M18-27v-27l151-64-151-65v-27l175 74v36" id="bx"/><g id="o"><use transform="matrix(0.05,0,0,0.05,0,0)" xlink:href="#bb"/><use transform="matrix(0.05,0,0,0.05,14.950000000000001,0)" xlink:href="#bj"/><use transform="matrix(0.05,0,0,0.05,24.950000000000003,0)" xlink:href="#be"/><use transform="matrix(0.05,0,0,0.05,28.900000000000002,0)" xlink:href="#bc"/><use transform="matrix(0.05,0,0,0.05,38.900000000000006,0)" xlink:href="#bo"/><use transform="matrix(0.05,0,0,0.05,47.900000000000006,0)" xlink:href="#bc"/><use transform="matrix(0.05,0,0,0.05,57.900000000000006,0)" xlink:href="#be"/><use transform="matrix(0.05,0,0,0.05,61.85,0)" xlink:href="#bk"/><use transform="matrix(0.05,0,0,0.05,70.85000000000001,0)" xlink:href="#bl"/><use transform="matrix(0.05,0,0,0.05,75.85000000000001,0)" xlink:href="#bo"/><use transform="matrix(0.05,0,0,0.05,84.85000000000001,0)" xlink:href="#bc"/><use transform="matrix(0.05,0,0,0.05,94.85000000000001,0)" xlink:href="#bq"/><use transform="matrix(0.05,0,0,0.05,103.85000000000001,0)" xlink:href="#bh"/><use transform="matrix(0.05,0,0,0.05,108.85000000000001,0)" xlink:href="#br"/><use transform="matrix(0.05,0,0,0.05,118.85000000000001,0)" xlink:href="#bs"/><use transform="matrix(0.05,0,0,0.05,124.80000000000001,0)" xlink:href="#bt"/><use transform="matrix(0.05,0,0,0.05,135.3,0)" xlink:href="#bk"/><use transform="matrix(0.05,0,0,0.05,144.3,0)" xlink:href="#bh"/><use transform="matrix(0.05,0,0,0.05,149.3,0)" xlink:href="#bs"/><use transform="matrix(0.05,0,0,0.05,155.25,0)" xlink:href="#bu"/><use transform="matrix(0.05,0,0,0.05,159.2,0)" xlink:href="#bv"/><use transform="matrix(0.05,0,0,0.05,169.2,0)" xlink:href="#bw"/><use transform="matrix(0.05,0,0,0.05,179.2,0)" xlink:href="#bx"/></g><path fill="#333" d="M85-194c31 0 48 13 60 33l-1-100h32l1 261h-30c-2-10 0-23-3-31C134-8 116 4 85 4 32 4 16-35 15-94c0-66 23-100 70-100zm9 24c-40 0-46 34-46 75 0 40 6 74 45 74 42 0 51-32 51-76 0-42-9-74-50-73" id="by"/><path fill="#333" d="M87 75C49 33 22-17 22-94c0-76 28-126 65-167h31c-38 41-64 92-64 168S80 34 118 75H87" id="bz"/><path fill="#333" d="M33-261c38 41 65 92 65 168S71 34 33 75H2C39 34 66-17 66-93S39-220 2-261h31" id="bA"/><g id="q"><use transform="matrix(0.05,0,0,0.05,0,0)" xlink:href="#bp"/><use transform="matrix(0.05,0,0,0.05,10,0)" xlink:href="#br"/><use transform="matrix(0.05,0,0,0.05,20,0)" xlink:href="#ba"/><use transform="matrix(0.05,0,0,0.05,30,0)" xlink:href="#by"/><use transform="matrix(0.05,0,0,0.05,40,0)" xlink:href="#bp"/><use transform="matrix(0.05,0,0,0.05,50,0)" xlink:href="#bc"/><use transform="matrix(0.05,0,0,0.05,60,0)" xlink:href="#bo"/><use transform="matrix(0.05,0,0,0.05,69,0)" xlink:href="#bc"/><use transform="matrix(0.05,0,0,0.05,79,0)" xlink:href="#be"/><use transform="matrix(0.05,0,0,0.05,82.95,0)" xlink:href="#bz"/><use transform="matrix(0.05,0,0,0.05,88.9,0)" xlink:href="#bA"/><use transform="matrix(0.05,0,0,0.05,94.85000000000001,0)" xlink:href="#bl"/><use transform="matrix(0.05,0,0,0.05,99.85000000000001,0)" xlink:href="#bo"/><use transform="matrix(0.05,0,0,0.05,108.85000000000001,0)" xlink:href="#br"/><use transform="matrix(0.05,0,0,0.05,118.85000000000001,0)" xlink:href="#bu"/><use transform="matrix(0.05,0,0,0.05,122.80000000000001,0)" xlink:href="#by"/></g><path fill="#333" d="M232-93c-1 65-40 97-104 97C67 4 28-28 28-90v-158h33c8 89-33 224 67 224 102 0 64-133 71-224h33v155" id="bB"/><g id="r"><use transform="matrix(0.05,0,0,0.05,0,0)" xlink:href="#bB"/><use transform="matrix(0.05,0,0,0.05,12.950000000000001,0)" xlink:href="#bv"/><use transform="matrix(0.05,0,0,0.05,22.950000000000003,0)" xlink:href="#be"/><use transform="matrix(0.05,0,0,0.05,26.900000000000002,0)" xlink:href="#br"/><use transform="matrix(0.05,0,0,0.05,36.900000000000006,0)" xlink:href="#ba"/><use transform="matrix(0.05,0,0,0.05,46.900000000000006,0)" xlink:href="#by"/><use transform="matrix(0.05,0,0,0.05,56.900000000000006,0)" xlink:href="#bp"/><use transform="matrix(0.05,0,0,0.05,66.9,0)" xlink:href="#bc"/><use transform="matrix(0.05,0,0,0.05,76.9,0)" xlink:href="#bo"/><use transform="matrix(0.05,0,0,0.05,85.9,0)" xlink:href="#bc"/><use transform="matrix(0.05,0,0,0.05,95.9,0)" xlink:href="#be"/><use transform="matrix(0.05,0,0,0.05,99.85000000000001,0)" xlink:href="#bz"/><use transform="matrix(0.05,0,0,0.05,105.80000000000001,0)" xlink:href="#bA"/><use transform="matrix(0.05,0,0,0.05,111.75,0)" xlink:href="#bl"/><use transform="matrix(0.05,0,0,0.05,116.75,0)" xlink:href="#bo"/><use transform="matrix(0.05,0,0,0.05,125.75,0)" xlink:href="#br"/><use transform="matrix(0.05,0,0,0.05,135.75,0)" xlink:href="#bu"/><use transform="matrix(0.05,0,0,0.05,139.7,0)" xlink:href="#by"/></g><g id="s"><use transform="matrix(0.05,0,0,0.05,0,0)" xlink:href="#bg"/><use transform="matrix(0.05,0,0,0.05,12,0)" xlink:href="#bh"/><use transform="matrix(0.05,0,0,0.05,17,0)" xlink:href="#ba"/><use transform="matrix(0.05,0,0,0.05,27,0)" xlink:href="#bh"/><use transform="matrix(0.05,0,0,0.05,32,0)" xlink:href="#bc"/></g><path fill="#333" d="M118-107v75H92v-75H18v-26h74v-75h26v75h74v26h-74" id="bC"/><use transform="matrix(0.05,0,0,0.05,0,0)" xlink:href="#bC" id="t"/><path fill="#333" d="M30 0v-248h187v28H63v79h144v27H63v87h162V0H30" id="bD"/><g id="u"><use transform="matrix(0.05,0,0,0.05,0,0)" xlink:href="#bD"/><use transform="matrix(0.05,0,0,0.05,12,0)" xlink:href="#bv"/><use transform="matrix(0.05,0,0,0.05,22,0)" xlink:href="#bh"/><use transform="matrix(0.05,0,0,0.05,27,0)" xlink:href="#bc"/><use transform="matrix(0.05,0,0,0.05,37,0)" xlink:href="#bs"/><use transform="matrix(0.05,0,0,0.05,42.95,0)" xlink:href="#bz"/><use transform="matrix(0.05,0,0,0.05,48.900000000000006,0)" xlink:href="#bA"/><use transform="matrix(0.05,0,0,0.05,54.85,0)" xlink:href="#bl"/><use transform="matrix(0.05,0,0,0.05,59.85,0)" xlink:href="#bo"/><use transform="matrix(0.05,0,0,0.05,68.85000000000001,0)" xlink:href="#br"/><use transform="matrix(0.05,0,0,0.05,78.85000000000001,0)" xlink:href="#bu"/><use transform="matrix(0.05,0,0,0.05,82.80000000000001,0)" xlink:href="#by"/></g><path fill="#333" d="M115-194c53 0 69 39 70 98 0 66-23 100-70 100C84 3 66-7 56-30L54 0H23l1-261h32v101c10-23 28-34 59-34zm-8 174c40 0 45-34 45-75 0-40-5-75-45-74-42 0-51 32-51 76 0 43 10 73 51 73" id="bE"/><g id="v"><use transform="matrix(0.05,0,0,0.05,0,0)" xlink:href="#bB"/><use transform="matrix(0.05,0,0,0.05,12.950000000000001,0)" xlink:href="#bd"/><use transform="matrix(0.05,0,0,0.05,22.950000000000003,0)" xlink:href="#by"/><use transform="matrix(0.05,0,0,0.05,32.95,0)" xlink:href="#ba"/><use transform="matrix(0.05,0,0,0.05,42.95,0)" xlink:href="#bh"/><use transform="matrix(0.05,0,0,0.05,47.95,0)" xlink:href="#bc"/><use transform="matrix(0.05,0,0,0.05,57.95,0)" xlink:href="#bz"/><use transform="matrix(0.05,0,0,0.05,63.900000000000006,0)" xlink:href="#bE"/><use transform="matrix(0.05,0,0,0.05,73.9,0)" xlink:href="#br"/><use transform="matrix(0.05,0,0,0.05,83.9,0)" xlink:href="#br"/><use transform="matrix(0.05,0,0,0.05,93.9,0)" xlink:href="#be"/></g><path fill="#333" d="M33 0v-248h34V0H33" id="bF"/><path fill="#333" d="M84 4C-5 8 30-112 23-190h32v120c0 31 7 50 39 49 72-2 45-101 50-169h31l1 190h-30c-1-10 1-25-2-33-11 22-28 36-60 37" id="bG"/><g id="w"><use transform="matrix(0.05,0,0,0.05,0,0)" xlink:href="#bd"/><use transform="matrix(0.05,0,0,0.05,10,0)" xlink:href="#bs"/><use transform="matrix(0.05,0,0,0.05,15.949999999999998,0)" xlink:href="#br"/><use transform="matrix(0.05,0,0,0.05,25.950000000000003,0)" xlink:href="#bq"/><use transform="matrix(0.05,0,0,0.05,34.95,0)" xlink:href="#bc"/><use transform="matrix(0.05,0,0,0.05,44.95,0)" xlink:href="#bk"/><use transform="matrix(0.05,0,0,0.05,53.95,0)" xlink:href="#bk"/><use transform="matrix(0.05,0,0,0.05,62.95,0)" xlink:href="#bF"/><use transform="matrix(0.05,0,0,0.05,67.95,0)" xlink:href="#bv"/><use transform="matrix(0.05,0,0,0.05,77.95,0)" xlink:href="#bd"/><use transform="matrix(0.05,0,0,0.05,87.95,0)" xlink:href="#bG"/><use transform="matrix(0.05,0,0,0.05,97.95,0)" xlink:href="#bh"/><use transform="matrix(0.05,0,0,0.05,102.95,0)" xlink:href="#bA"/><use transform="matrix(0.05,0,0,0.05,108.9,0)" xlink:href="#bl"/><use transform="matrix(0.05,0,0,0.05,113.9,0)" xlink:href="#bE"/><use transform="matrix(0.05,0,0,0.05,123.9,0)" xlink:href="#br"/><use transform="matrix(0.05,0,0,0.05,133.9,0)" xlink:href="#br"/><use transform="matrix(0.05,0,0,0.05,143.9,0)" xlink:href="#be"/></g><path fill="#333" d="M30-248c118-7 216 8 213 122C240-48 200 0 122 0H30v-248zM63-27c89 8 146-16 146-99s-60-101-146-95v194" id="bH"/><path fill="#333" d="M206 0h-36l-40-164L89 0H53L-1-190h32L70-26l43-164h34l41 164 42-164h31" id="bI"/><g id="x"><use transform="matrix(0.05,0,0,0.05,0,0)" xlink:href="#bH"/><use transform="matrix(0.05,0,0,0.05,12.950000000000001,0)" xlink:href="#bs"/><use transform="matrix(0.05,0,0,0.05,18.900000000000002,0)" xlink:href="#ba"/><use transform="matrix(0.05,0,0,0.05,28.900000000000002,0)" xlink:href="#bI"/><use transform="matrix(0.05,0,0,0.05,41.85,0)" xlink:href="#bz"/><use transform="matrix(0.05,0,0,0.05,47.800000000000004,0)" xlink:href="#bA"/><use transform="matrix(0.05,0,0,0.05,53.75,0)" xlink:href="#bl"/><use transform="matrix(0.05,0,0,0.05,58.75,0)" xlink:href="#bo"/><use transform="matrix(0.05,0,0,0.05,67.75,0)" xlink:href="#br"/><use transform="matrix(0.05,0,0,0.05,77.75,0)" xlink:href="#bu"/><use transform="matrix(0.05,0,0,0.05,81.7,0)" xlink:href="#by"/></g><path fill="#333" d="M141 0L90-78 38 0H4l68-98-65-92h35l48 74 47-74h35l-64 92 68 98h-35" id="bJ"/><g id="y"><use transform="matrix(0.05,0,0,0.05,0,0)" xlink:href="#bD"/><use transform="matrix(0.05,0,0,0.05,12,0)" xlink:href="#bJ"/><use transform="matrix(0.05,0,0,0.05,21,0)" xlink:href="#bu"/><use transform="matrix(0.05,0,0,0.05,24.95,0)" xlink:href="#bh"/><use transform="matrix(0.05,0,0,0.05,29.950000000000003,0)" xlink:href="#bz"/><use transform="matrix(0.05,0,0,0.05,35.9,0)" xlink:href="#bA"/><use transform="matrix(0.05,0,0,0.05,41.85,0)" xlink:href="#bl"/><use transform="matrix(0.05,0,0,0.05,46.85,0)" xlink:href="#bo"/><use transform="matrix(0.05,0,0,0.05,55.85,0)" xlink:href="#br"/><use transform="matrix(0.05,0,0,0.05,65.85,0)" xlink:href="#bu"/><use transform="matrix(0.05,0,0,0.05,69.8,0)" xlink:href="#by"/></g><g id="z"><use transform="matrix(0.05,0,0,0.05,0,0)" xlink:href="#bm"/><use transform="matrix(0.05,0,0,0.05,12,0)" xlink:href="#be"/><use transform="matrix(0.05,0,0,0.05,15.949999999999998,0)" xlink:href="#ba"/><use transform="matrix(0.05,0,0,0.05,25.950000000000003,0)" xlink:href="#bf"/><use transform="matrix(0.05,0,0,0.05,34.95,0)" xlink:href="#bu"/><use transform="matrix(0.05,0,0,0.05,38.900000000000006,0)" xlink:href="#bv"/><use transform="matrix(0.05,0,0,0.05,48.900000000000006,0)" xlink:href="#bw"/><use transform="matrix(0.05,0,0,0.05,58.900000000000006,0)" xlink:href="#bg"/><use transform="matrix(0.05,0,0,0.05,70.9,0)" xlink:href="#bh"/><use transform="matrix(0.05,0,0,0.05,75.9,0)" xlink:href="#ba"/><use transform="matrix(0.05,0,0,0.05,85.9,0)" xlink:href="#bh"/><use transform="matrix(0.05,0,0,0.05,90.9,0)" xlink:href="#bc"/></g><path fill="#333" d="M68-36c1 33-1 63-14 82H32c9-13 17-26 17-46H33v-36h35zM33-154v-36h35v36H33" id="bK"/><g id="A"><use transform="matrix(0.05,0,0,0.05,0,0)" xlink:href="#bb"/><use transform="matrix(0.05,0,0,0.05,14.950000000000001,0)" xlink:href="#bj"/><use transform="matrix(0.05,0,0,0.05,24.950000000000003,0)" xlink:href="#be"/><use transform="matrix(0.05,0,0,0.05,28.900000000000002,0)" xlink:href="#bc"/><use transform="matrix(0.05,0,0,0.05,38.900000000000006,0)" xlink:href="#bo"/><use transform="matrix(0.05,0,0,0.05,47.900000000000006,0)" xlink:href="#bc"/><use transform="matrix(0.05,0,0,0.05,57.900000000000006,0)" xlink:href="#be"/><use transform="matrix(0.05,0,0,0.05,61.85,0)" xlink:href="#bl"/><use transform="matrix(0.05,0,0,0.05,66.85000000000001,0)" xlink:href="#bu"/><use transform="matrix(0.05,0,0,0.05,70.80000000000001,0)" xlink:href="#bv"/><use transform="matrix(0.05,0,0,0.05,80.80000000000001,0)" xlink:href="#bh"/><use transform="matrix(0.05,0,0,0.05,85.80000000000001,0)" xlink:href="#bK"/></g><g id="B"><use transform="matrix(0.05,0,0,0.05,0,0)" xlink:href="#bB"/><use transform="matrix(0.05,0,0,0.05,12.950000000000001,0)" xlink:href="#bd"/><use transform="matrix(0.05,0,0,0.05,22.950000000000003,0)" xlink:href="#by"/><use transform="matrix(0.05,0,0,0.05,32.95,0)" xlink:href="#ba"/><use transform="matrix(0.05,0,0,0.05,42.95,0)" xlink:href="#bh"/><use transform="matrix(0.05,0,0,0.05,47.95,0)" xlink:href="#bc"/><use transform="matrix(0.05,0,0,0.05,57.95,0)" xlink:href="#bz"/><use transform="matrix(0.05,0,0,0.05,63.900000000000006,0)" xlink:href="#bE"/><use transform="matrix(0.05,0,0,0.05,73.9,0)" xlink:href="#br"/><use transform="matrix(0.05,0,0,0.05,83.9,0)" xlink:href="#br"/><use transform="matrix(0.05,0,0,0.05,93.9,0)" xlink:href="#be"/></g><path fill="#333" d="M68-38c1 34 0 65-14 84H32c9-13 17-26 17-46H33v-38h35" id="bL"/><g id="C"><use transform="matrix(0.05,0,0,0.05,0,0)" xlink:href="#bd"/><use transform="matrix(0.05,0,0,0.05,10,0)" xlink:href="#bs"/><use transform="matrix(0.05,0,0,0.05,15.949999999999998,0)" xlink:href="#br"/><use transform="matrix(0.05,0,0,0.05,25.950000000000003,0)" xlink:href="#bq"/><use transform="matrix(0.05,0,0,0.05,34.95,0)" xlink:href="#bc"/><use transform="matrix(0.05,0,0,0.05,44.95,0)" xlink:href="#bk"/><use transform="matrix(0.05,0,0,0.05,53.95,0)" xlink:href="#bk"/><use transform="matrix(0.05,0,0,0.05,62.95,0)" xlink:href="#bF"/><use transform="matrix(0.05,0,0,0.05,67.95,0)" xlink:href="#bv"/><use transform="matrix(0.05,0,0,0.05,77.95,0)" xlink:href="#bd"/><use transform="matrix(0.05,0,0,0.05,87.95,0)" xlink:href="#bG"/><use transform="matrix(0.05,0,0,0.05,97.95,0)" xlink:href="#bh"/><use transform="matrix(0.05,0,0,0.05,102.95,0)" xlink:href="#bL"/></g><g id="D"><use transform="matrix(0.05,0,0,0.05,0,0)" xlink:href="#bp"/><use transform="matrix(0.05,0,0,0.05,10,0)" xlink:href="#bc"/><use transform="matrix(0.05,0,0,0.05,20,0)" xlink:href="#bo"/><use transform="matrix(0.05,0,0,0.05,29,0)" xlink:href="#bc"/><use transform="matrix(0.05,0,0,0.05,39,0)" xlink:href="#be"/><use transform="matrix(0.05,0,0,0.05,42.95,0)" xlink:href="#bn"/></g><g id="E"><use transform="matrix(0.05,0,0,0.05,0,0)" xlink:href="#bd"/><use transform="matrix(0.05,0,0,0.05,10,0)" xlink:href="#bp"/><use transform="matrix(0.05,0,0,0.05,20,0)" xlink:href="#bc"/><use transform="matrix(0.05,0,0,0.05,30,0)" xlink:href="#bo"/><use transform="matrix(0.05,0,0,0.05,39,0)" xlink:href="#bc"/><use transform="matrix(0.05,0,0,0.05,49,0)" xlink:href="#be"/><use transform="matrix(0.05,0,0,0.05,52.95,0)" xlink:href="#bA"/><use transform="matrix(0.05,0,0,0.05,58.900000000000006,0)" xlink:href="#bl"/><use transform="matrix(0.05,0,0,0.05,63.900000000000006,0)" xlink:href="#bE"/><use transform="matrix(0.05,0,0,0.05,73.9,0)" xlink:href="#br"/><use transform="matrix(0.05,0,0,0.05,83.9,0)" xlink:href="#br"/><use transform="matrix(0.05,0,0,0.05,93.9,0)" xlink:href="#be"/></g><g id="F"><use transform="matrix(0.05,0,0,0.05,0,0)" xlink:href="#bH"/><use transform="matrix(0.05,0,0,0.05,12.950000000000001,0)" xlink:href="#bs"/><use transform="matrix(0.05,0,0,0.05,18.900000000000002,0)" xlink:href="#ba"/><use transform="matrix(0.05,0,0,0.05,28.900000000000002,0)" xlink:href="#bI"/><use transform="matrix(0.05,0,0,0.05,41.85,0)" xlink:href="#bz"/><use transform="matrix(0.05,0,0,0.05,47.800000000000004,0)" xlink:href="#bA"/><use transform="matrix(0.05,0,0,0.05,53.75,0)" xlink:href="#bl"/><use transform="matrix(0.05,0,0,0.05,58.75,0)" xlink:href="#bo"/><use transform="matrix(0.05,0,0,0.05,67.75,0)" xlink:href="#br"/><use transform="matrix(0.05,0,0,0.05,77.75,0)" xlink:href="#bu"/><use transform="matrix(0.05,0,0,0.05,81.7,0)" xlink:href="#by"/></g><path fill="#333" d="M266 0h-40l-56-210L115 0H75L2-248h35L96-30l15-64 43-154h32l59 218 59-218h35" id="bM"/><path fill="#333" d="M127-220V0H93v-220H8v-28h204v28h-85" id="bN"/><g id="G"><use transform="matrix(0.05,0,0,0.05,0,0)" xlink:href="#bM"/><use transform="matrix(0.05,0,0,0.05,16.95,0)" xlink:href="#bu"/><use transform="matrix(0.05,0,0,0.05,20.9,0)" xlink:href="#bv"/><use transform="matrix(0.05,0,0,0.05,30.899999999999995,0)" xlink:href="#bN"/><use transform="matrix(0.05,0,0,0.05,41.2,0)" xlink:href="#bs"/><use transform="matrix(0.05,0,0,0.05,47.150000000000006,0)" xlink:href="#ba"/><use transform="matrix(0.05,0,0,0.05,57.150000000000006,0)" xlink:href="#bv"/><use transform="matrix(0.05,0,0,0.05,67.15,0)" xlink:href="#bk"/><use transform="matrix(0.05,0,0,0.05,76.15,0)" xlink:href="#bu"/><use transform="matrix(0.05,0,0,0.05,80.10000000000001,0)" xlink:href="#bh"/><use transform="matrix(0.05,0,0,0.05,85.10000000000001,0)" xlink:href="#bu"/><use transform="matrix(0.05,0,0,0.05,89.05000000000001,0)" xlink:href="#br"/><use transform="matrix(0.05,0,0,0.05,99.05000000000001,0)" xlink:href="#bv"/><use transform="matrix(0.05,0,0,0.05,109.05000000000001,0)" xlink:href="#bg"/><use transform="matrix(0.05,0,0,0.05,121.05000000000001,0)" xlink:href="#bh"/><use transform="matrix(0.05,0,0,0.05,126.05000000000001,0)" xlink:href="#ba"/><use transform="matrix(0.05,0,0,0.05,136.05,0)" xlink:href="#bh"/><use transform="matrix(0.05,0,0,0.05,141.05,0)" xlink:href="#bc"/></g><path fill="#333" d="M143 0L79-87 56-68V0H24v-261h32v163l83-92h37l-77 82L181 0h-38" id="bO"/><path fill="#333" d="M63-220v92h138v28H63V0H30v-248h175v28H63" id="bP"/><path fill="#333" d="M212-179c-10-28-35-45-73-45-59 0-87 40-87 99 0 60 29 101 89 101 43 0 62-24 78-52l27 14C228-24 195 4 139 4 59 4 22-46 18-125c-6-104 99-153 187-111 19 9 31 26 39 46" id="bQ"/><g id="H"><use transform="matrix(0.05,0,0,0.05,0,0)" xlink:href="#bb"/><use transform="matrix(0.05,0,0,0.05,14.950000000000001,0)" xlink:href="#bj"/><use transform="matrix(0.05,0,0,0.05,24.950000000000003,0)" xlink:href="#bk"/><use transform="matrix(0.05,0,0,0.05,33.95,0)" xlink:href="#bO"/><use transform="matrix(0.05,0,0,0.05,42.95,0)" xlink:href="#bu"/><use transform="matrix(0.05,0,0,0.05,46.900000000000006,0)" xlink:href="#bd"/><use transform="matrix(0.05,0,0,0.05,56.900000000000006,0)" xlink:href="#bP"/><use transform="matrix(0.05,0,0,0.05,67.85000000000001,0)" xlink:href="#bs"/><use transform="matrix(0.05,0,0,0.05,73.80000000000001,0)" xlink:href="#ba"/><use transform="matrix(0.05,0,0,0.05,83.80000000000001,0)" xlink:href="#bb"/><use transform="matrix(0.05,0,0,0.05,98.75000000000001,0)" xlink:href="#bc"/><use transform="matrix(0.05,0,0,0.05,108.75,0)" xlink:href="#bQ"/><use transform="matrix(0.05,0,0,0.05,121.7,0)" xlink:href="#br"/><use transform="matrix(0.05,0,0,0.05,131.70000000000002,0)" xlink:href="#bG"/><use transform="matrix(0.05,0,0,0.05,141.70000000000002,0)" xlink:href="#bv"/><use transform="matrix(0.05,0,0,0.05,151.70000000000002,0)" xlink:href="#bh"/><use transform="matrix(0.05,0,0,0.05,156.70000000000002,0)" xlink:href="#bl"/><use transform="matrix(0.05,0,0,0.05,161.70000000000002,0)" xlink:href="#bu"/><use transform="matrix(0.05,0,0,0.05,165.65,0)" xlink:href="#bv"/><use transform="matrix(0.05,0,0,0.05,175.65,0)" xlink:href="#bh"/></g><g id="I"><use transform="matrix(0.05,0,0,0.05,0,0)" xlink:href="#bp"/><use transform="matrix(0.05,0,0,0.05,10,0)" xlink:href="#br"/><use transform="matrix(0.05,0,0,0.05,20,0)" xlink:href="#bk"/><use transform="matrix(0.05,0,0,0.05,29,0)" xlink:href="#bc"/><use transform="matrix(0.05,0,0,0.05,39,0)" xlink:href="#bN"/><use transform="matrix(0.05,0,0,0.05,49.300000000000004,0)" xlink:href="#bs"/><use transform="matrix(0.05,0,0,0.05,55.25,0)" xlink:href="#ba"/><use transform="matrix(0.05,0,0,0.05,65.25,0)" xlink:href="#bv"/><use transform="matrix(0.05,0,0,0.05,75.25,0)" xlink:href="#bk"/><use transform="matrix(0.05,0,0,0.05,84.25,0)" xlink:href="#bu"/><use transform="matrix(0.05,0,0,0.05,88.2,0)" xlink:href="#bh"/><use transform="matrix(0.05,0,0,0.05,93.2,0)" xlink:href="#bu"/><use transform="matrix(0.05,0,0,0.05,97.15,0)" xlink:href="#br"/><use transform="matrix(0.05,0,0,0.05,107.15,0)" xlink:href="#bv"/><use transform="matrix(0.05,0,0,0.05,117.15,0)" xlink:href="#bg"/><use transform="matrix(0.05,0,0,0.05,129.15,0)" xlink:href="#bh"/><use transform="matrix(0.05,0,0,0.05,134.15,0)" xlink:href="#ba"/><use transform="matrix(0.05,0,0,0.05,144.15,0)" xlink:href="#bh"/><use transform="matrix(0.05,0,0,0.05,149.15,0)" xlink:href="#bc"/></g><g id="J"><use transform="matrix(0.05,0,0,0.05,0,0)" xlink:href="#bp"/><use transform="matrix(0.05,0,0,0.05,10,0)" xlink:href="#br"/><use transform="matrix(0.05,0,0,0.05,20,0)" xlink:href="#ba"/><use transform="matrix(0.05,0,0,0.05,30,0)" xlink:href="#by"/><use transform="matrix(0.05,0,0,0.05,40,0)" xlink:href="#bu"/><use transform="matrix(0.05,0,0,0.05,43.95,0)" xlink:href="#bv"/><use transform="matrix(0.05,0,0,0.05,53.95,0)" xlink:href="#bw"/><use transform="matrix(0.05,0,0,0.05,63.95,0)" xlink:href="#bg"/><use transform="matrix(0.05,0,0,0.05,75.95,0)" xlink:href="#bh"/><use transform="matrix(0.05,0,0,0.05,80.95,0)" xlink:href="#ba"/><use transform="matrix(0.05,0,0,0.05,90.95,0)" xlink:href="#bh"/><use transform="matrix(0.05,0,0,0.05,95.95,0)" xlink:href="#bc"/></g><path fill="#333" d="M27 0v-27h64v-190l-56 39v-29l58-41h29v221h61V0H27" id="bR"/><use transform="matrix(0.05,0,0,0.05,0,0)" xlink:href="#bR" id="K"/><g id="L"><use transform="matrix(0.05,0,0,0.05,0,0)" xlink:href="#aZ"/><use transform="matrix(0.05,0,0,0.05,14,0)" xlink:href="#bm"/><use transform="matrix(0.05,0,0,0.05,26,0)" xlink:href="#bg"/><use transform="matrix(0.05,0,0,0.05,38,0)" xlink:href="#bh"/><use transform="matrix(0.05,0,0,0.05,43,0)" xlink:href="#ba"/><use transform="matrix(0.05,0,0,0.05,53,0)" xlink:href="#bh"/><use transform="matrix(0.05,0,0,0.05,58,0)" xlink:href="#bc"/></g><g id="M"><use transform="matrix(0.05,0,0,0.05,0,0)" xlink:href="#bp"/><use transform="matrix(0.05,0,0,0.05,10,0)" xlink:href="#bc"/><use transform="matrix(0.05,0,0,0.05,20,0)" xlink:href="#bo"/><use transform="matrix(0.05,0,0,0.05,29,0)" xlink:href="#bc"/><use transform="matrix(0.05,0,0,0.05,39,0)" xlink:href="#be"/><use transform="matrix(0.05,0,0,0.05,42.95,0)" xlink:href="#bn"/></g><g id="N"><use transform="matrix(0.05,0,0,0.05,0,0)" xlink:href="#bp"/><use transform="matrix(0.05,0,0,0.05,10,0)" xlink:href="#bc"/><use transform="matrix(0.05,0,0,0.05,20,0)" xlink:href="#bo"/><use transform="matrix(0.05,0,0,0.05,29,0)" xlink:href="#bc"/><use transform="matrix(0.05,0,0,0.05,39,0)" xlink:href="#be"/></g><path fill="#333" d="M106-169C34-169 62-67 57 0H25v-261h32l-1 103c12-21 28-36 61-36 89 0 53 116 60 194h-32v-121c2-32-8-49-39-48" id="bS"/><g id="O"><use transform="matrix(0.05,0,0,0.05,0,0)" xlink:href="#bb"/><use transform="matrix(0.05,0,0,0.05,14.950000000000001,0)" xlink:href="#bj"/><use transform="matrix(0.05,0,0,0.05,24.950000000000003,0)" xlink:href="#bI"/><use transform="matrix(0.05,0,0,0.05,37.900000000000006,0)" xlink:href="#bu"/><use transform="matrix(0.05,0,0,0.05,41.85000000000001,0)" xlink:href="#by"/><use transform="matrix(0.05,0,0,0.05,51.85,0)" xlink:href="#bh"/><use transform="matrix(0.05,0,0,0.05,56.85,0)" xlink:href="#bS"/><use transform="matrix(0.05,0,0,0.05,66.85000000000001,0)" xlink:href="#bl"/><use transform="matrix(0.05,0,0,0.05,71.85000000000001,0)" xlink:href="#bu"/><use transform="matrix(0.05,0,0,0.05,75.80000000000001,0)" xlink:href="#bv"/><use transform="matrix(0.05,0,0,0.05,85.80000000000001,0)" xlink:href="#bh"/></g><g id="P"><use transform="matrix(0.05,0,0,0.05,0,0)" xlink:href="#bb"/><use transform="matrix(0.05,0,0,0.05,14.950000000000001,0)" xlink:href="#bj"/><use transform="matrix(0.05,0,0,0.05,24.950000000000003,0)" xlink:href="#bS"/><use transform="matrix(0.05,0,0,0.05,34.95,0)" xlink:href="#bc"/><use transform="matrix(0.05,0,0,0.05,44.95,0)" xlink:href="#bu"/><use transform="matrix(0.05,0,0,0.05,48.900000000000006,0)" xlink:href="#bw"/><use transform="matrix(0.05,0,0,0.05,58.900000000000006,0)" xlink:href="#bS"/><use transform="matrix(0.05,0,0,0.05,68.9,0)" xlink:href="#bh"/><use transform="matrix(0.05,0,0,0.05,73.9,0)" xlink:href="#bl"/><use transform="matrix(0.05,0,0,0.05,78.9,0)" xlink:href="#bu"/><use transform="matrix(0.05,0,0,0.05,82.85000000000001,0)" xlink:href="#bv"/><use transform="matrix(0.05,0,0,0.05,92.85000000000001,0)" xlink:href="#bh"/></g><path fill="#333" d="M240 0l2-218c-23 76-54 145-80 218h-23L58-218 59 0H30v-248h44l77 211c21-75 51-140 76-211h43V0h-30" id="bT"/><path fill="#333" d="M26 75v-336h71v23H56V52h41v23H26" id="bU"/><path fill="#333" d="M3 75V52h41v-290H3v-23h71V75H3" id="bV"/><g id="Q"><use transform="matrix(0.05,0,0,0.05,0,0)" xlink:href="#bn"/><use transform="matrix(0.05,0,0,0.05,7,0)" xlink:href="#bb"/><use transform="matrix(0.05,0,0,0.05,21.950000000000003,0)" xlink:href="#bj"/><use transform="matrix(0.05,0,0,0.05,31.950000000000003,0)" xlink:href="#bd"/><use transform="matrix(0.05,0,0,0.05,41.95,0)" xlink:href="#bT"/><use transform="matrix(0.05,0,0,0.05,56.900000000000006,0)" xlink:href="#ba"/><use transform="matrix(0.05,0,0,0.05,66.9,0)" xlink:href="#bd"/><use transform="matrix(0.05,0,0,0.05,76.9,0)" xlink:href="#bl"/><use transform="matrix(0.05,0,0,0.05,81.9,0)" xlink:href="#bq"/><use transform="matrix(0.05,0,0,0.05,90.9,0)" xlink:href="#bS"/><use transform="matrix(0.05,0,0,0.05,100.9,0)" xlink:href="#ba"/><use transform="matrix(0.05,0,0,0.05,110.9,0)" xlink:href="#bs"/><use transform="matrix(0.05,0,0,0.05,116.85000000000001,0)" xlink:href="#bU"/><use transform="matrix(0.05,0,0,0.05,121.85000000000001,0)" xlink:href="#bV"/></g><g id="R"><use transform="matrix(0.05,0,0,0.05,0,0)" xlink:href="#bn"/><use transform="matrix(0.05,0,0,0.05,7,0)" xlink:href="#bb"/><use transform="matrix(0.05,0,0,0.05,21.950000000000003,0)" xlink:href="#bj"/><use transform="matrix(0.05,0,0,0.05,31.950000000000003,0)" xlink:href="#bd"/><use transform="matrix(0.05,0,0,0.05,41.95,0)" xlink:href="#bm"/><use transform="matrix(0.05,0,0,0.05,53.95,0)" xlink:href="#be"/><use transform="matrix(0.05,0,0,0.05,57.900000000000006,0)" xlink:href="#ba"/><use transform="matrix(0.05,0,0,0.05,67.9,0)" xlink:href="#bf"/><use transform="matrix(0.05,0,0,0.05,76.9,0)" xlink:href="#bc"/><use transform="matrix(0.05,0,0,0.05,86.9,0)" xlink:href="#bs"/><use transform="matrix(0.05,0,0,0.05,92.85000000000001,0)" xlink:href="#bl"/><use transform="matrix(0.05,0,0,0.05,97.85000000000001,0)" xlink:href="#bm"/><use transform="matrix(0.05,0,0,0.05,109.85000000000001,0)" xlink:href="#be"/><use transform="matrix(0.05,0,0,0.05,113.80000000000001,0)" xlink:href="#ba"/><use transform="matrix(0.05,0,0,0.05,123.80000000000001,0)" xlink:href="#bf"/><use transform="matrix(0.05,0,0,0.05,132.8,0)" xlink:href="#bc"/><use transform="matrix(0.05,0,0,0.05,142.8,0)" xlink:href="#bs"/></g><path fill="#333" d="M140-251c81 0 123 46 123 126C263-46 219 4 140 4 59 4 17-45 17-125s42-126 123-126zm0 227c63 0 89-41 89-101s-29-99-89-99c-61 0-89 39-89 99S79-25 140-24" id="bW"/><path fill="#333" d="M24-231v-30h32v30H24zM-9 49c24 4 33-6 33-30v-209h32V24c2 40-23 58-65 49V49" id="bX"/><g id="S"><use transform="matrix(0.05,0,0,0.05,0,0)" xlink:href="#bb"/><use transform="matrix(0.05,0,0,0.05,14.950000000000001,0)" xlink:href="#bj"/><use transform="matrix(0.05,0,0,0.05,24.950000000000003,0)" xlink:href="#bw"/><use transform="matrix(0.05,0,0,0.05,34.95,0)" xlink:href="#ba"/><use transform="matrix(0.05,0,0,0.05,44.95,0)" xlink:href="#bb"/><use transform="matrix(0.05,0,0,0.05,59.900000000000006,0)" xlink:href="#bc"/><use transform="matrix(0.05,0,0,0.05,69.9,0)" xlink:href="#bW"/><use transform="matrix(0.05,0,0,0.05,83.9,0)" xlink:href="#bE"/><use transform="matrix(0.05,0,0,0.05,93.9,0)" xlink:href="#bX"/><use transform="matrix(0.05,0,0,0.05,97.85000000000001,0)" xlink:href="#bc"/><use transform="matrix(0.05,0,0,0.05,107.85000000000001,0)" xlink:href="#bq"/><use transform="matrix(0.05,0,0,0.05,116.85000000000001,0)" xlink:href="#bh"/><use transform="matrix(0.05,0,0,0.05,121.85000000000001,0)" xlink:href="#bk"/><use transform="matrix(0.05,0,0,0.05,130.85000000000002,0)" xlink:href="#bl"/><use transform="matrix(0.05,0,0,0.05,135.85000000000002,0)" xlink:href="#bo"/><use transform="matrix(0.05,0,0,0.05,144.85000000000002,0)" xlink:href="#bc"/><use transform="matrix(0.05,0,0,0.05,154.85000000000002,0)" xlink:href="#bq"/><use transform="matrix(0.05,0,0,0.05,163.85000000000002,0)" xlink:href="#bh"/><use transform="matrix(0.05,0,0,0.05,168.85000000000002,0)" xlink:href="#br"/><use transform="matrix(0.05,0,0,0.05,178.85000000000002,0)" xlink:href="#bs"/><use transform="matrix(0.05,0,0,0.05,184.8,0)" xlink:href="#bt"/><use transform="matrix(0.05,0,0,0.05,195.3,0)" xlink:href="#aZ"/><use transform="matrix(0.05,0,0,0.05,209.3,0)" xlink:href="#ba"/><use transform="matrix(0.05,0,0,0.05,219.3,0)" xlink:href="#bb"/><use transform="matrix(0.05,0,0,0.05,234.25,0)" xlink:href="#bc"/><use transform="matrix(0.05,0,0,0.05,244.25,0)" xlink:href="#bW"/><use transform="matrix(0.05,0,0,0.05,258.25,0)" xlink:href="#bE"/><use transform="matrix(0.05,0,0,0.05,268.25,0)" xlink:href="#bX"/><use transform="matrix(0.05,0,0,0.05,272.2,0)" xlink:href="#bc"/><use transform="matrix(0.05,0,0,0.05,282.2,0)" xlink:href="#bq"/><use transform="matrix(0.05,0,0,0.05,291.2,0)" xlink:href="#bh"/><use transform="matrix(0.05,0,0,0.05,296.2,0)" xlink:href="#bn"/><use transform="matrix(0.05,0,0,0.05,303.2,0)" xlink:href="#bx"/></g><g id="T"><use transform="matrix(0.05,0,0,0.05,0,0)" xlink:href="#bp"/><use transform="matrix(0.05,0,0,0.05,10,0)" xlink:href="#br"/><use transform="matrix(0.05,0,0,0.05,20,0)" xlink:href="#ba"/><use transform="matrix(0.05,0,0,0.05,30,0)" xlink:href="#by"/><use transform="matrix(0.05,0,0,0.05,40,0)" xlink:href="#bz"/><use transform="matrix(0.05,0,0,0.05,45.95,0)" xlink:href="#bk"/><use transform="matrix(0.05,0,0,0.05,54.95,0)" xlink:href="#bh"/><use transform="matrix(0.05,0,0,0.05,59.95,0)" xlink:href="#bs"/><use transform="matrix(0.05,0,0,0.05,65.9,0)" xlink:href="#bu"/><use transform="matrix(0.05,0,0,0.05,69.85000000000001,0)" xlink:href="#bv"/><use transform="matrix(0.05,0,0,0.05,79.85000000000001,0)" xlink:href="#bw"/></g><g id="U"><use transform="matrix(0.05,0,0,0.05,0,0)" xlink:href="#be"/><use transform="matrix(0.05,0,0,0.05,3.95,0)" xlink:href="#bc"/><use transform="matrix(0.05,0,0,0.05,13.949999999999998,0)" xlink:href="#bo"/><use transform="matrix(0.05,0,0,0.05,22.95,0)" xlink:href="#bc"/><use transform="matrix(0.05,0,0,0.05,32.95,0)" xlink:href="#be"/><use transform="matrix(0.05,0,0,0.05,36.900000000000006,0)" xlink:href="#bP"/><use transform="matrix(0.05,0,0,0.05,47.85000000000001,0)" xlink:href="#bu"/><use transform="matrix(0.05,0,0,0.05,51.80000000000001,0)" xlink:href="#be"/><use transform="matrix(0.05,0,0,0.05,55.750000000000014,0)" xlink:href="#bc"/><use transform="matrix(0.05,0,0,0.05,65.75000000000001,0)" xlink:href="#bA"/><use transform="matrix(0.05,0,0,0.05,71.70000000000002,0)" xlink:href="#bl"/><use transform="matrix(0.05,0,0,0.05,76.70000000000002,0)" xlink:href="#bo"/><use transform="matrix(0.05,0,0,0.05,85.70000000000002,0)" xlink:href="#br"/><use transform="matrix(0.05,0,0,0.05,95.70000000000002,0)" xlink:href="#bu"/><use transform="matrix(0.05,0,0,0.05,99.65000000000002,0)" xlink:href="#by"/></g><g id="V"><use transform="matrix(0.05,0,0,0.05,0,0)" xlink:href="#aZ"/><use transform="matrix(0.05,0,0,0.05,14,0)" xlink:href="#bc"/><use transform="matrix(0.05,0,0,0.05,24,0)" xlink:href="#bh"/><use transform="matrix(0.05,0,0,0.05,29,0)" xlink:href="#bM"/><use transform="matrix(0.05,0,0,0.05,45.95,0)" xlink:href="#bu"/><use transform="matrix(0.05,0,0,0.05,49.900000000000006,0)" xlink:href="#by"/><use transform="matrix(0.05,0,0,0.05,59.900000000000006,0)" xlink:href="#bh"/><use transform="matrix(0.05,0,0,0.05,64.9,0)" xlink:href="#bS"/><use transform="matrix(0.05,0,0,0.05,74.9,0)" xlink:href="#bz"/><use transform="matrix(0.05,0,0,0.05,80.85000000000001,0)" xlink:href="#bA"/><use transform="matrix(0.05,0,0,0.05,86.80000000000001,0)" xlink:href="#bl"/><use transform="matrix(0.05,0,0,0.05,91.80000000000001,0)" xlink:href="#bu"/><use transform="matrix(0.05,0,0,0.05,95.75000000000001,0)" xlink:href="#bv"/><use transform="matrix(0.05,0,0,0.05,105.75,0)" xlink:href="#bh"/></g><path fill="#333" d="M197 0v-115H63V0H30v-248h33v105h134v-105h34V0h-34" id="bY"/><g id="W"><use transform="matrix(0.05,0,0,0.05,0,0)" xlink:href="#aZ"/><use transform="matrix(0.05,0,0,0.05,14,0)" xlink:href="#bc"/><use transform="matrix(0.05,0,0,0.05,24,0)" xlink:href="#bh"/><use transform="matrix(0.05,0,0,0.05,29,0)" xlink:href="#bY"/><use transform="matrix(0.05,0,0,0.05,41.95,0)" xlink:href="#bc"/><use transform="matrix(0.05,0,0,0.05,51.95,0)" xlink:href="#bu"/><use transform="matrix(0.05,0,0,0.05,55.900000000000006,0)" xlink:href="#bw"/><use transform="matrix(0.05,0,0,0.05,65.9,0)" xlink:href="#bS"/><use transform="matrix(0.05,0,0,0.05,75.9,0)" xlink:href="#bh"/><use transform="matrix(0.05,0,0,0.05,80.9,0)" xlink:href="#bz"/><use transform="matrix(0.05,0,0,0.05,86.85000000000001,0)" xlink:href="#bA"/><use transform="matrix(0.05,0,0,0.05,92.80000000000001,0)" xlink:href="#bl"/></g><g id="X"><use transform="matrix(0.05,0,0,0.05,0,0)" xlink:href="#bu"/><use transform="matrix(0.05,0,0,0.05,3.95,0)" xlink:href="#bv"/><use transform="matrix(0.05,0,0,0.05,13.949999999999998,0)" xlink:href="#bh"/></g><g id="Y"><use transform="matrix(0.05,0,0,0.05,0,0)" xlink:href="#aZ"/><use transform="matrix(0.05,0,0,0.05,14,0)" xlink:href="#bc"/><use transform="matrix(0.05,0,0,0.05,24,0)" xlink:href="#bh"/><use transform="matrix(0.05,0,0,0.05,29,0)" xlink:href="#bm"/><use transform="matrix(0.05,0,0,0.05,41,0)" xlink:href="#be"/><use transform="matrix(0.05,0,0,0.05,44.95,0)" xlink:href="#ba"/><use transform="matrix(0.05,0,0,0.05,54.95,0)" xlink:href="#bf"/><use transform="matrix(0.05,0,0,0.05,63.95,0)" xlink:href="#bc"/><use transform="matrix(0.05,0,0,0.05,73.95,0)" xlink:href="#bs"/><use transform="matrix(0.05,0,0,0.05,79.9,0)" xlink:href="#bz"/><use transform="matrix(0.05,0,0,0.05,85.85000000000001,0)" xlink:href="#bA"/><use transform="matrix(0.05,0,0,0.05,91.80000000000001,0)" xlink:href="#bl"/><use transform="matrix(0.05,0,0,0.05,96.80000000000001,0)" xlink:href="#bn"/><use transform="matrix(0.05,0,0,0.05,103.80000000000001,0)" xlink:href="#bm"/><use transform="matrix(0.05,0,0,0.05,115.80000000000001,0)" xlink:href="#be"/><use transform="matrix(0.05,0,0,0.05,119.75,0)" xlink:href="#ba"/><use transform="matrix(0.05,0,0,0.05,129.75,0)" xlink:href="#bf"/><use transform="matrix(0.05,0,0,0.05,138.75,0)" xlink:href="#bc"/><use transform="matrix(0.05,0,0,0.05,148.75,0)" xlink:href="#bs"/></g><g id="Z"><use transform="matrix(0.05,0,0,0.05,0,0)" xlink:href="#aZ"/><use transform="matrix(0.05,0,0,0.05,14,0)" xlink:href="#bc"/><use transform="matrix(0.05,0,0,0.05,24,0)" xlink:href="#bh"/><use transform="matrix(0.05,0,0,0.05,29,0)" xlink:href="#aZ"/><use transform="matrix(0.05,0,0,0.05,43,0)" xlink:href="#ba"/><use transform="matrix(0.05,0,0,0.05,53,0)" xlink:href="#bb"/><use transform="matrix(0.05,0,0,0.05,67.95,0)" xlink:href="#bc"/><use transform="matrix(0.05,0,0,0.05,77.95,0)" xlink:href="#bW"/><use transform="matrix(0.05,0,0,0.05,91.95,0)" xlink:href="#bE"/><use transform="matrix(0.05,0,0,0.05,101.95,0)" xlink:href="#bX"/><use transform="matrix(0.05,0,0,0.05,105.9,0)" xlink:href="#bc"/><use transform="matrix(0.05,0,0,0.05,115.9,0)" xlink:href="#bq"/><use transform="matrix(0.05,0,0,0.05,124.9,0)" xlink:href="#bh"/><use transform="matrix(0.05,0,0,0.05,129.9,0)" xlink:href="#bk"/><use transform="matrix(0.05,0,0,0.05,138.9,0)" xlink:href="#bz"/><use transform="matrix(0.05,0,0,0.05,144.85,0)" xlink:href="#bA"/><use transform="matrix(0.05,0,0,0.05,150.79999999999998,0)" xlink:href="#bl"/><use transform="matrix(0.05,0,0,0.05,155.79999999999998,0)" xlink:href="#bo"/><use transform="matrix(0.05,0,0,0.05,164.79999999999998,0)" xlink:href="#bc"/><use transform="matrix(0.05,0,0,0.05,174.79999999999998,0)" xlink:href="#bq"/><use transform="matrix(0.05,0,0,0.05,183.79999999999998,0)" xlink:href="#bh"/><use transform="matrix(0.05,0,0,0.05,188.79999999999998,0)" xlink:href="#br"/><use transform="matrix(0.05,0,0,0.05,198.79999999999998,0)" xlink:href="#bs"/><use transform="matrix(0.05,0,0,0.05,204.74999999999997,0)" xlink:href="#bn"/></g><path fill="#333" d="M205 0l-28-72H64L36 0H1l101-248h38L239 0h-34zm-38-99l-47-123c-12 45-31 82-46 123h93" id="bZ"/><g id="aa"><use transform="matrix(0.05,0,0,0.05,0,0)" xlink:href="#bZ"/><use transform="matrix(0.05,0,0,0.05,12,0)" xlink:href="#by"/><use transform="matrix(0.05,0,0,0.05,22,0)" xlink:href="#by"/><use transform="matrix(0.05,0,0,0.05,32,0)" xlink:href="#aZ"/><use transform="matrix(0.05,0,0,0.05,46,0)" xlink:href="#ba"/><use transform="matrix(0.05,0,0,0.05,56,0)" xlink:href="#bb"/><use transform="matrix(0.05,0,0,0.05,70.95,0)" xlink:href="#bc"/><use transform="matrix(0.05,0,0,0.05,80.95,0)" xlink:href="#bW"/><use transform="matrix(0.05,0,0,0.05,94.95,0)" xlink:href="#bE"/><use transform="matrix(0.05,0,0,0.05,104.95,0)" xlink:href="#bX"/><use transform="matrix(0.05,0,0,0.05,108.9,0)" xlink:href="#bc"/><use transform="matrix(0.05,0,0,0.05,118.9,0)" xlink:href="#bq"/><use transform="matrix(0.05,0,0,0.05,127.9,0)" xlink:href="#bh"/><use transform="matrix(0.05,0,0,0.05,132.9,0)" xlink:href="#bz"/><use transform="matrix(0.05,0,0,0.05,138.85,0)" xlink:href="#aZ"/><use transform="matrix(0.05,0,0,0.05,152.85,0)" xlink:href="#ba"/><use transform="matrix(0.05,0,0,0.05,162.85,0)" xlink:href="#bb"/><use transform="matrix(0.05,0,0,0.05,177.79999999999998,0)" xlink:href="#bc"/><use transform="matrix(0.05,0,0,0.05,187.79999999999998,0)" xlink:href="#bW"/><use transform="matrix(0.05,0,0,0.05,201.79999999999998,0)" xlink:href="#bE"/><use transform="matrix(0.05,0,0,0.05,211.79999999999995,0)" xlink:href="#bX"/><use transform="matrix(0.05,0,0,0.05,215.74999999999997,0)" xlink:href="#bc"/><use transform="matrix(0.05,0,0,0.05,225.74999999999997,0)" xlink:href="#bq"/><use transform="matrix(0.05,0,0,0.05,234.74999999999997,0)" xlink:href="#bh"/><use transform="matrix(0.05,0,0,0.05,239.74999999999997,0)" xlink:href="#bn"/></g><g id="ab"><use transform="matrix(0.05,0,0,0.05,0,0)" xlink:href="#br"/><use transform="matrix(0.05,0,0,0.05,10,0)" xlink:href="#bE"/><use transform="matrix(0.05,0,0,0.05,20,0)" xlink:href="#bX"/><use transform="matrix(0.05,0,0,0.05,23.95,0)" xlink:href="#bc"/><use transform="matrix(0.05,0,0,0.05,33.95,0)" xlink:href="#bq"/><use transform="matrix(0.05,0,0,0.05,42.95,0)" xlink:href="#bh"/><use transform="matrix(0.05,0,0,0.05,47.95,0)" xlink:href="#bA"/><use transform="matrix(0.05,0,0,0.05,53.900000000000006,0)" xlink:href="#bl"/><use transform="matrix(0.05,0,0,0.05,58.900000000000006,0)" xlink:href="#bo"/><use transform="matrix(0.05,0,0,0.05,67.9,0)" xlink:href="#br"/><use transform="matrix(0.05,0,0,0.05,77.9,0)" xlink:href="#bu"/><use transform="matrix(0.05,0,0,0.05,81.85000000000001,0)" xlink:href="#by"/></g><g id="ac"><use transform="matrix(0.05,0,0,0.05,0,0)" xlink:href="#bd"/><use transform="matrix(0.05,0,0,0.05,10,0)" xlink:href="#bs"/><use transform="matrix(0.05,0,0,0.05,15.949999999999998,0)" xlink:href="#br"/><use transform="matrix(0.05,0,0,0.05,25.950000000000003,0)" xlink:href="#bq"/><use transform="matrix(0.05,0,0,0.05,34.95,0)" xlink:href="#bc"/><use transform="matrix(0.05,0,0,0.05,44.95,0)" xlink:href="#bk"/><use transform="matrix(0.05,0,0,0.05,53.95,0)" xlink:href="#bk"/><use transform="matrix(0.05,0,0,0.05,62.95,0)" xlink:href="#bF"/><use transform="matrix(0.05,0,0,0.05,67.95,0)" xlink:href="#bv"/><use transform="matrix(0.05,0,0,0.05,77.95,0)" xlink:href="#bd"/><use transform="matrix(0.05,0,0,0.05,87.95,0)" xlink:href="#bG"/><use transform="matrix(0.05,0,0,0.05,97.95,0)" xlink:href="#bh"/><use transform="matrix(0.05,0,0,0.05,102.95,0)" xlink:href="#bA"/></g><g id="ad"><use transform="matrix(0.05,0,0,0.05,0,0)" xlink:href="#bH"/><use transform="matrix(0.05,0,0,0.05,12.950000000000001,0)" xlink:href="#bs"/><use transform="matrix(0.05,0,0,0.05,18.900000000000002,0)" xlink:href="#ba"/><use transform="matrix(0.05,0,0,0.05,28.900000000000002,0)" xlink:href="#bI"/><use transform="matrix(0.05,0,0,0.05,41.85,0)" xlink:href="#bz"/><use transform="matrix(0.05,0,0,0.05,47.800000000000004,0)" xlink:href="#bA"/></g><g id="ae"><use transform="matrix(0.05,0,0,0.05,0,0)" xlink:href="#bF"/><use transform="matrix(0.05,0,0,0.05,5,0)" xlink:href="#bk"/><use transform="matrix(0.05,0,0,0.05,14,0)" xlink:href="#bM"/><use transform="matrix(0.05,0,0,0.05,30.299999999999997,0)" xlink:href="#ba"/><use transform="matrix(0.05,0,0,0.05,40.3,0)" xlink:href="#be"/><use transform="matrix(0.05,0,0,0.05,44.25,0)" xlink:href="#be"/><use transform="matrix(0.05,0,0,0.05,48.2,0)" xlink:href="#bz"/><use transform="matrix(0.05,0,0,0.05,54.150000000000006,0)" xlink:href="#bu"/><use transform="matrix(0.05,0,0,0.05,58.1,0)" xlink:href="#bv"/><use transform="matrix(0.05,0,0,0.05,68.10000000000001,0)" xlink:href="#bh"/></g><g id="af"><use transform="matrix(0.05,0,0,0.05,0,0)" xlink:href="#bJ"/><use transform="matrix(0.05,0,0,0.05,9,0)" xlink:href="#bL"/></g><g id="ag"><use transform="matrix(0.05,0,0,0.05,0,0)" xlink:href="#bu"/><use transform="matrix(0.05,0,0,0.05,3.95,0)" xlink:href="#bv"/><use transform="matrix(0.05,0,0,0.05,13.949999999999998,0)" xlink:href="#bh"/></g><g id="ah"><use transform="matrix(0.05,0,0,0.05,0,0)" xlink:href="#bf"/><use transform="matrix(0.05,0,0,0.05,9,0)" xlink:href="#bA"/><use transform="matrix(0.05,0,0,0.05,14.949999999999998,0)" xlink:href="#bl"/><use transform="matrix(0.05,0,0,0.05,19.95,0)" xlink:href="#bE"/><use transform="matrix(0.05,0,0,0.05,29.950000000000003,0)" xlink:href="#br"/><use transform="matrix(0.05,0,0,0.05,39.95,0)" xlink:href="#br"/><use transform="matrix(0.05,0,0,0.05,49.95,0)" xlink:href="#be"/></g><g id="ai"><use transform="matrix(0.05,0,0,0.05,0,0)" xlink:href="#bF"/><use transform="matrix(0.05,0,0,0.05,5,0)" xlink:href="#bk"/><use transform="matrix(0.05,0,0,0.05,14,0)" xlink:href="#bD"/><use transform="matrix(0.05,0,0,0.05,26,0)" xlink:href="#bb"/><use transform="matrix(0.05,0,0,0.05,40.95,0)" xlink:href="#bd"/><use transform="matrix(0.05,0,0,0.05,50.95,0)" xlink:href="#bh"/><use transform="matrix(0.05,0,0,0.05,55.95,0)" xlink:href="#bf"/><use transform="matrix(0.05,0,0,0.05,64.95,0)" xlink:href="#bz"/><use transform="matrix(0.05,0,0,0.05,70.9,0)" xlink:href="#bu"/><use transform="matrix(0.05,0,0,0.05,74.85000000000001,0)" xlink:href="#bv"/><use transform="matrix(0.05,0,0,0.05,84.85000000000001,0)" xlink:href="#bh"/></g><path fill="#333" d="M233-177c-1 41-23 64-60 70L243 0h-38l-65-103H63V0H30v-248c88 3 205-21 203 71zM63-129c60-2 137 13 137-47 0-61-80-42-137-45v92" id="ca"/><g id="aj"><use transform="matrix(0.05,0,0,0.05,0,0)" xlink:href="#aZ"/><use transform="matrix(0.05,0,0,0.05,14,0)" xlink:href="#bc"/><use transform="matrix(0.05,0,0,0.05,24,0)" xlink:href="#bh"/><use transform="matrix(0.05,0,0,0.05,29,0)" xlink:href="#ca"/><use transform="matrix(0.05,0,0,0.05,41.95,0)" xlink:href="#br"/><use transform="matrix(0.05,0,0,0.05,51.95,0)" xlink:href="#br"/><use transform="matrix(0.05,0,0,0.05,61.95,0)" xlink:href="#bb"/><use transform="matrix(0.05,0,0,0.05,76.9,0)" xlink:href="#bz"/><use transform="matrix(0.05,0,0,0.05,82.85000000000001,0)" xlink:href="#bu"/><use transform="matrix(0.05,0,0,0.05,86.80000000000001,0)" xlink:href="#bv"/><use transform="matrix(0.05,0,0,0.05,96.80000000000001,0)" xlink:href="#bh"/></g><g id="ak"><use transform="matrix(0.05,0,0,0.05,0,0)" xlink:href="#bf"/><use transform="matrix(0.05,0,0,0.05,9,0)" xlink:href="#bA"/><use transform="matrix(0.05,0,0,0.05,14.949999999999998,0)" xlink:href="#bl"/><use transform="matrix(0.05,0,0,0.05,19.95,0)" xlink:href="#bq"/><use transform="matrix(0.05,0,0,0.05,28.950000000000003,0)" xlink:href="#bS"/><use transform="matrix(0.05,0,0,0.05,38.95,0)" xlink:href="#ba"/><use transform="matrix(0.05,0,0,0.05,48.95,0)" xlink:href="#bs"/></g><g id="al"><use transform="matrix(0.05,0,0,0.05,0,0)" xlink:href="#aZ"/><use transform="matrix(0.05,0,0,0.05,14,0)" xlink:href="#bc"/><use transform="matrix(0.05,0,0,0.05,24,0)" xlink:href="#bh"/><use transform="matrix(0.05,0,0,0.05,29,0)" xlink:href="#aZ"/><use transform="matrix(0.05,0,0,0.05,43,0)" xlink:href="#ba"/><use transform="matrix(0.05,0,0,0.05,53,0)" xlink:href="#bb"/><use transform="matrix(0.05,0,0,0.05,67.95,0)" xlink:href="#bc"/><use transform="matrix(0.05,0,0,0.05,77.95,0)" xlink:href="#bW"/><use transform="matrix(0.05,0,0,0.05,91.95,0)" xlink:href="#bE"/><use transform="matrix(0.05,0,0,0.05,101.95,0)" xlink:href="#bX"/><use transform="matrix(0.05,0,0,0.05,105.9,0)" xlink:href="#bc"/><use transform="matrix(0.05,0,0,0.05,115.9,0)" xlink:href="#bq"/><use transform="matrix(0.05,0,0,0.05,124.9,0)" xlink:href="#bh"/><use transform="matrix(0.05,0,0,0.05,129.9,0)" xlink:href="#bz"/><use transform="matrix(0.05,0,0,0.05,135.85,0)" xlink:href="#bu"/><use transform="matrix(0.05,0,0,0.05,139.79999999999998,0)" xlink:href="#bv"/><use transform="matrix(0.05,0,0,0.05,149.79999999999998,0)" xlink:href="#bh"/></g><g id="am"><use transform="matrix(0.05,0,0,0.05,0,0)" xlink:href="#bf"/><use transform="matrix(0.05,0,0,0.05,9,0)" xlink:href="#bA"/><use transform="matrix(0.05,0,0,0.05,14.949999999999998,0)" xlink:href="#bl"/><use transform="matrix(0.05,0,0,0.05,19.95,0)" xlink:href="#aZ"/><use transform="matrix(0.05,0,0,0.05,33.95,0)" xlink:href="#ba"/><use transform="matrix(0.05,0,0,0.05,43.95,0)" xlink:href="#bb"/><use transform="matrix(0.05,0,0,0.05,58.900000000000006,0)" xlink:href="#bc"/><use transform="matrix(0.05,0,0,0.05,68.9,0)" xlink:href="#bW"/><use transform="matrix(0.05,0,0,0.05,82.9,0)" xlink:href="#bE"/><use transform="matrix(0.05,0,0,0.05,92.9,0)" xlink:href="#bX"/><use transform="matrix(0.05,0,0,0.05,96.85000000000001,0)" xlink:href="#bc"/><use transform="matrix(0.05,0,0,0.05,106.85000000000001,0)" xlink:href="#bq"/><use transform="matrix(0.05,0,0,0.05,115.85000000000001,0)" xlink:href="#bh"/></g><g id="an"><use transform="matrix(0.05,0,0,0.05,0,0)" xlink:href="#bQ"/><use transform="matrix(0.05,0,0,0.05,12.950000000000001,0)" xlink:href="#br"/><use transform="matrix(0.05,0,0,0.05,22.950000000000003,0)" xlink:href="#bv"/><use transform="matrix(0.05,0,0,0.05,32.95,0)" xlink:href="#bo"/><use transform="matrix(0.05,0,0,0.05,41.95,0)" xlink:href="#bc"/><use transform="matrix(0.05,0,0,0.05,51.95,0)" xlink:href="#bs"/><use transform="matrix(0.05,0,0,0.05,57.900000000000006,0)" xlink:href="#bh"/><use transform="matrix(0.05,0,0,0.05,62.900000000000006,0)" xlink:href="#bz"/><use transform="matrix(0.05,0,0,0.05,68.85000000000001,0)" xlink:href="#bA"/><use transform="matrix(0.05,0,0,0.05,74.80000000000001,0)" xlink:href="#bl"/><use transform="matrix(0.05,0,0,0.05,79.80000000000001,0)" xlink:href="#bo"/><use transform="matrix(0.05,0,0,0.05,88.80000000000001,0)" xlink:href="#br"/><use transform="matrix(0.05,0,0,0.05,98.80000000000001,0)" xlink:href="#bu"/><use transform="matrix(0.05,0,0,0.05,102.75,0)" xlink:href="#by"/></g><g id="ao"><use transform="matrix(0.05,0,0,0.05,0,0)" xlink:href="#aZ"/><use transform="matrix(0.05,0,0,0.05,14,0)" xlink:href="#bc"/><use transform="matrix(0.05,0,0,0.05,24,0)" xlink:href="#bh"/><use transform="matrix(0.05,0,0,0.05,29,0)" xlink:href="#bT"/><use transform="matrix(0.05,0,0,0.05,43.95,0)" xlink:href="#ba"/><use transform="matrix(0.05,0,0,0.05,53.95,0)" xlink:href="#bd"/><use transform="matrix(0.05,0,0,0.05,63.95,0)" xlink:href="#bF"/><use transform="matrix(0.05,0,0,0.05,68.95,0)" xlink:href="#bv"/><use transform="matrix(0.05,0,0,0.05,78.95,0)" xlink:href="#by"/><use transform="matrix(0.05,0,0,0.05,88.95,0)" xlink:href="#bc"/><use transform="matrix(0.05,0,0,0.05,98.95,0)" xlink:href="#bJ"/><use transform="matrix(0.05,0,0,0.05,107.95,0)" xlink:href="#bz"/><use transform="matrix(0.05,0,0,0.05,113.9,0)" xlink:href="#bu"/><use transform="matrix(0.05,0,0,0.05,117.85000000000001,0)" xlink:href="#bv"/><use transform="matrix(0.05,0,0,0.05,127.85000000000001,0)" xlink:href="#bh"/></g><g id="ap"><use transform="matrix(0.05,0,0,0.05,0,0)" xlink:href="#bf"/><use transform="matrix(0.05,0,0,0.05,9,0)" xlink:href="#bA"/><use transform="matrix(0.05,0,0,0.05,14.949999999999998,0)" xlink:href="#bl"/><use transform="matrix(0.05,0,0,0.05,19.95,0)" xlink:href="#bu"/><use transform="matrix(0.05,0,0,0.05,23.9,0)" xlink:href="#bv"/><use transform="matrix(0.05,0,0,0.05,33.9,0)" xlink:href="#bh"/></g></defs></g></svg>