<svg xmlns="http://www.w3.org/2000/svg" xmlns:xlink="http://www.w3.org/1999/xlink" xmlns:lucid="lucid" width="2497.4" height="1406.58"><g transform="translate(0 0)" lucid:page-tab-id="0_0"><path d="M0 0h2497.4v1406.58H0z" fill="#fff"/><path d="M453.15 76c0-4.42 3.58-8 8-8h836.75c4.4 0 8 3.58 8 8v25.16c0 4.4-3.6 8-8 8H461.15c-4.42 0-8-3.6-8-8z" stroke="#000" stroke-opacity="0" stroke-width="2" fill="#fff" fill-opacity="0"/><use xlink:href="#a" transform="matrix(1,0,0,1,457.1465527853429,72) translate(353.73530864197534 25.782777777777778)"/><use xlink:href="#b" transform="matrix(1,0,0,1,457.1465527853429,72) translate(390.1550617283951 25.782777777777778)"/><path d="M724.25 107.8h318.96M724.27 107.8h-1.02M1043.18 107.8h1.03" stroke="#a9afb8" stroke-width="2" fill="none"/><path d="M453.15 117.16c0-4.42 3.58-8 8-8h837.7c4.42 0 8 3.58 8 8V120c0 4.42-3.58 8-8 8h-837.7c-4.42 0-8-3.58-8-8z" stroke="#000" stroke-opacity="0" stroke-width="2" fill="#fff" fill-opacity="0"/><use xlink:href="#c" transform="matrix(1,0,0,1,457.1465527853434,113.15522395689881) translate(241.01236625514406 14.917037037037037)"/><use xlink:href="#d" transform="matrix(1,0,0,1,457.1465527853434,113.15522395689881) translate(302.11257201646094 14.917037037037037)"/><use xlink:href="#e" transform="matrix(1,0,0,1,457.1465527853434,113.15522395689881) translate(374.21761316872426 14.917037037037037)"/><use xlink:href="#f" transform="matrix(1,0,0,1,457.1465527853434,113.15522395689881) translate(395.4624691358025 14.917037037037037)"/><use xlink:href="#g" transform="matrix(1,0,0,1,457.1465527853434,113.15522395689881) translate(465.01812757201645 14.917037037037037)"/><use xlink:href="#h" transform="matrix(1,0,0,1,457.1465527853434,113.15522395689881) translate(477.46761316872426 14.917037037037037)"/><use xlink:href="#i" transform="matrix(1,0,0,1,457.1465527853434,113.15522395689881) translate(552.122037037037 14.917037037037037)"/><use xlink:href="#j" transform="matrix(1,0,0,1,457.1465527853434,113.15522395689881) translate(577.6158641975309 14.917037037037037)"/><path d="M100 188c0-4.42 3.58-8 8-8h504c4.42 0 8 3.58 8 8v397c0 4.42-3.58 8-8 8H108c-4.42 0-8-3.58-8-8z" stroke="#333" fill="#fff"/><path d="M100 217.6h520M100 373.1h520" stroke="#333" fill="none"/><use xlink:href="#k" transform="matrix(1,0,0,1,108,188) translate(199.05 14.4)"/><use xlink:href="#l" transform="matrix(1,0,0,1,108,188) translate(253 14.4)"/><use xlink:href="#m" transform="matrix(1,0,0,1,112,225.6) translate(0 14.4)"/><use xlink:href="#n" transform="matrix(1,0,0,1,112,225.6) translate(10.95 14.4)"/><use xlink:href="#o" transform="matrix(1,0,0,1,112,225.6) translate(0 36)"/><use xlink:href="#p" transform="matrix(1,0,0,1,112,225.6) translate(10.95 36)"/><use xlink:href="#o" transform="matrix(1,0,0,1,112,225.6) translate(0 57.6)"/><use xlink:href="#q" transform="matrix(1,0,0,1,112,225.6) translate(10.95 57.6)"/><use xlink:href="#o" transform="matrix(1,0,0,1,112,225.6) translate(0 79.20000000000002)"/><use xlink:href="#r" transform="matrix(1,0,0,1,112,225.6) translate(10.95 79.20000000000002)"/><use xlink:href="#o" transform="matrix(1,0,0,1,112,225.6) translate(0 100.80000000000001)"/><use xlink:href="#s" transform="matrix(1,0,0,1,112,225.6) translate(10.95 100.80000000000001)"/><use xlink:href="#t" transform="matrix(1,0,0,1,112,381.1) translate(0 14.4)"/><use xlink:href="#u" transform="matrix(1,0,0,1,112,381.1) translate(15.5 14.4)"/><use xlink:href="#t" transform="matrix(1,0,0,1,112,381.1) translate(0 36)"/><use xlink:href="#v" transform="matrix(1,0,0,1,112,381.1) translate(15.5 36)"/><use xlink:href="#w" transform="matrix(1,0,0,1,112,381.1) translate(0 57.6)"/><use xlink:href="#x" transform="matrix(1,0,0,1,112,381.1) translate(15.5 57.6)"/><use xlink:href="#w" transform="matrix(1,0,0,1,112,381.1) translate(0 79.20000000000002)"/><use xlink:href="#y" transform="matrix(1,0,0,1,112,381.1) translate(15.5 79.20000000000002)"/><use xlink:href="#z" transform="matrix(1,0,0,1,112,381.1) translate(136.3 79.20000000000002)"/><use xlink:href="#A" transform="matrix(1,0,0,1,112,381.1) translate(155.3 79.20000000000002)"/><use xlink:href="#B" transform="matrix(1,0,0,1,112,381.1) translate(179.25 79.20000000000002)"/><use xlink:href="#w" transform="matrix(1,0,0,1,112,381.1) translate(0 100.80000000000001)"/><use xlink:href="#C" transform="matrix(1,0,0,1,112,381.1) translate(15.5 100.80000000000001)"/><use xlink:href="#D" transform="matrix(1,0,0,1,112,381.1) translate(118.35000000000001 100.80000000000001)"/><use xlink:href="#E" transform="matrix(1,0,0,1,112,381.1) translate(231.3 100.80000000000001)"/><use xlink:href="#F" transform="matrix(1,0,0,1,112,381.1) translate(279.25 100.80000000000001)"/><use xlink:href="#w" transform="matrix(1,0,0,1,112,381.1) translate(0 122.4)"/><use xlink:href="#G" transform="matrix(1,0,0,1,112,381.1) translate(15.5 122.4)"/><use xlink:href="#t" transform="matrix(1,0,0,1,112,381.1) translate(0 144)"/><use xlink:href="#H" transform="matrix(1,0,0,1,112,381.1) translate(15.5 144)"/><use xlink:href="#I" transform="matrix(1,0,0,1,112,381.1) translate(151.25 144)"/><use xlink:href="#J" transform="matrix(1,0,0,1,112,381.1) translate(241.1 144)"/><use xlink:href="#K" transform="matrix(1,0,0,1,112,381.1) translate(265.05 144)"/><use xlink:href="#J" transform="matrix(1,0,0,1,112,381.1) translate(352.6 144)"/><use xlink:href="#L" transform="matrix(1,0,0,1,112,381.1) translate(376.55 144)"/><use xlink:href="#t" transform="matrix(1,0,0,1,112,381.1) translate(0 165.6)"/><use xlink:href="#M" transform="matrix(1,0,0,1,112,381.1) translate(15.5 165.6)"/><use xlink:href="#N" transform="matrix(1,0,0,1,112,381.1) translate(136.35000000000002 165.6)"/><path d="M420 668c0-4.42 3.58-8 8-8h504c4.42 0 8 3.58 8 8v161c0 4.42-3.58 8-8 8H428c-4.42 0-8-3.58-8-8z" stroke="#333" fill="#fff"/><path d="M420 697.6h520m-520 59.1h520" stroke="#333" fill="none"/><use xlink:href="#O" transform="matrix(1,0,0,1,428,668) translate(222.075 14.4)"/><use xlink:href="#m" transform="matrix(1,0,0,1,432,705.6) translate(0 14.4)"/><use xlink:href="#P" transform="matrix(1,0,0,1,432,705.6) translate(10.95 14.4)"/><use xlink:href="#t" transform="matrix(1,0,0,1,432,764.7) translate(0 14.4)"/><use xlink:href="#Q" transform="matrix(1,0,0,1,432,764.7) translate(15.5 14.4)"/><use xlink:href="#R" transform="matrix(1,0,0,1,432,764.7) translate(118.35000000000001 14.4)"/><use xlink:href="#S" transform="matrix(1,0,0,1,432,764.7) translate(231.3 14.4)"/><use xlink:href="#T" transform="matrix(1,0,0,1,432,764.7) translate(279.25 14.4)"/><use xlink:href="#t" transform="matrix(1,0,0,1,432,764.7) translate(0 36)"/><use xlink:href="#H" transform="matrix(1,0,0,1,432,764.7) translate(15.5 36)"/><use xlink:href="#I" transform="matrix(1,0,0,1,432,764.7) translate(151.25 36)"/><use xlink:href="#J" transform="matrix(1,0,0,1,432,764.7) translate(241.1 36)"/><use xlink:href="#K" transform="matrix(1,0,0,1,432,764.7) translate(265.05 36)"/><use xlink:href="#J" transform="matrix(1,0,0,1,432,764.7) translate(352.6 36)"/><use xlink:href="#U" transform="matrix(1,0,0,1,432,764.7) translate(376.55 36)"/><path d="M1180 208c0-4.42 3.58-8 8-8h524c4.42 0 8 3.58 8 8v140c0 4.42-3.58 8-8 8h-524c-4.42 0-8-3.58-8-8z" stroke="#333" fill="#fff"/><path d="M1180 237.6h540m-540 59.1h540" stroke="#333" fill="none"/><use xlink:href="#V" transform="matrix(1,0,0,1,1188,208) translate(190.55 14.4)"/><use xlink:href="#t" transform="matrix(1,0,0,1,1192,304.7) translate(0 14.4)"/><use xlink:href="#Q" transform="matrix(1,0,0,1,1192,304.7) translate(15.5 14.4)"/><use xlink:href="#R" transform="matrix(1,0,0,1,1192,304.7) translate(118.35000000000001 14.4)"/><use xlink:href="#S" transform="matrix(1,0,0,1,1192,304.7) translate(231.3 14.4)"/><use xlink:href="#W" transform="matrix(1,0,0,1,1192,304.7) translate(279.25 14.4)"/><path d="M1500 610c0-4.42 3.58-8 8-8h204c4.42 0 8 3.58 8 8v205c0 4.42-3.58 8-8 8h-204c-4.42 0-8-3.58-8-8z" stroke="#333" fill="#fff"/><path d="M1500 639.6h220m-220 59.1h220" stroke="#333" fill="none"/><use xlink:href="#X" transform="matrix(1,0,0,1,1508,610) translate(48.05 14.4)"/><use xlink:href="#o" transform="matrix(1,0,0,1,1512,647.6) translate(0 14.4)"/><use xlink:href="#Y" transform="matrix(1,0,0,1,1512,647.6) translate(10.95 14.4)"/><use xlink:href="#t" transform="matrix(1,0,0,1,1512,706.7) translate(0 14.4)"/><use xlink:href="#Z" transform="matrix(1,0,0,1,1512,706.7) translate(15.5 14.4)"/><use xlink:href="#R" transform="matrix(1,0,0,1,1512,706.7) translate(0 36)"/><use xlink:href="#aa" transform="matrix(1,0,0,1,1512,706.7) translate(112.95 36)"/><use xlink:href="#ab" transform="matrix(1,0,0,1,1512,706.7) translate(0 57.6)"/><use xlink:href="#t" transform="matrix(1,0,0,1,1512,706.7) translate(0 79.20000000000002)"/><use xlink:href="#ac" transform="matrix(1,0,0,1,1512,706.7) translate(15.5 79.20000000000002)"/><path d="M1805.9 610c0-4.42 3.58-8 8-8H2212c4.42 0 8 3.58 8 8v205c0 4.42-3.58 8-8 8h-398.1c-4.42 0-8-3.58-8-8z" stroke="#333" fill="#fff"/><path d="M1805.9 639.6H2220m-414.1 59.1H2220" stroke="#333" fill="none"/><g><use xlink:href="#ad" transform="matrix(1,0,0,1,1813.896061253458,610) translate(135.4 14.4)"/></g><g><use xlink:href="#o" transform="matrix(1,0,0,1,1817.896061253458,647.6) translate(0 14.4)"/><use xlink:href="#Y" transform="matrix(1,0,0,1,1817.896061253458,647.6) translate(10.95 14.4)"/></g><g><use xlink:href="#t" transform="matrix(1,0,0,1,1817.896061253458,706.7) translate(0 14.4)"/><use xlink:href="#Q" transform="matrix(1,0,0,1,1817.896061253458,706.7) translate(15.5 14.4)"/><use xlink:href="#R" transform="matrix(1,0,0,1,1817.896061253458,706.7) translate(118.35000000000001 14.4)"/><use xlink:href="#aa" transform="matrix(1,0,0,1,1817.896061253458,706.7) translate(231.3 14.4)"/><use xlink:href="#ab" transform="matrix(1,0,0,1,1817.896061253458,706.7) translate(0 36)"/><use xlink:href="#t" transform="matrix(1,0,0,1,1817.896061253458,706.7) translate(0 57.6)"/><use xlink:href="#ae" transform="matrix(1,0,0,1,1817.896061253458,706.7) translate(15.5 57.6)"/><use xlink:href="#o" transform="matrix(1,0,0,1,1817.896061253458,706.7) translate(0 79.20000000000002)"/><use xlink:href="#af" transform="matrix(1,0,0,1,1817.896061253458,706.7) translate(10.95 79.20000000000002)"/><use xlink:href="#ag" transform="matrix(1,0,0,1,1817.896061253458,706.7) translate(139.75 79.20000000000002)"/><use xlink:href="#J" transform="matrix(1,0,0,1,1817.896061253458,706.7) translate(171.75 79.20000000000002)"/><use xlink:href="#ah" transform="matrix(1,0,0,1,1817.896061253458,706.7) translate(195.7 79.20000000000002)"/><use xlink:href="#J" transform="matrix(1,0,0,1,1817.896061253458,706.7) translate(225.39999999999998 79.20000000000002)"/><use xlink:href="#ai" transform="matrix(1,0,0,1,1817.896061253458,706.7) translate(249.34999999999997 79.20000000000002)"/><use xlink:href="#J" transform="matrix(1,0,0,1,1817.896061253458,706.7) translate(281.34999999999997 79.20000000000002)"/><use xlink:href="#aj" transform="matrix(1,0,0,1,1817.896061253458,706.7) translate(305.29999999999995 79.20000000000002)"/></g><path d="M680 659v-20.5c0-6.63-5.37-12-12-12H370c-5.52 0-10-4.48-10-10" stroke="#333" fill="none"/><path d="M680.5 659.5h-1v-.5h1z" fill="#333"/><path d="M360 594.48L372.73 616h-25.46zM420 966c0-4.42 3.58-8 8-8h504c4.42 0 8 3.58 8 8v205c0 4.42-3.58 8-8 8H428c-4.42 0-8-3.58-8-8z" stroke="#333" fill="#fff"/><path d="M420 995.6h520m-520 102.3h520" stroke="#333" fill="none"/><g><use xlink:href="#ak" transform="matrix(1,0,0,1,428,966) translate(184.625 14.4)"/><use xlink:href="#al" transform="matrix(1,0,0,1,428,966) translate(249.525 14.4)"/></g><g><use xlink:href="#o" transform="matrix(1,0,0,1,432,1003.6) translate(0 14.4)"/><use xlink:href="#am" transform="matrix(1,0,0,1,432,1003.6) translate(10.95 14.4)"/><use xlink:href="#o" transform="matrix(1,0,0,1,432,1003.6) translate(0 36)"/><use xlink:href="#an" transform="matrix(1,0,0,1,432,1003.6) translate(10.95 36)"/><use xlink:href="#o" transform="matrix(1,0,0,1,432,1003.6) translate(0 57.6)"/><use xlink:href="#ao" transform="matrix(1,0,0,1,432,1003.6) translate(10.95 57.6)"/></g><g><use xlink:href="#t" transform="matrix(1,0,0,1,432,1105.9) translate(0 14.4)"/><use xlink:href="#Q" transform="matrix(1,0,0,1,432,1105.9) translate(15.5 14.4)"/><use xlink:href="#R" transform="matrix(1,0,0,1,432,1105.9) translate(118.35000000000001 14.4)"/><use xlink:href="#S" transform="matrix(1,0,0,1,432,1105.9) translate(231.3 14.4)"/><use xlink:href="#T" transform="matrix(1,0,0,1,432,1105.9) translate(279.25 14.4)"/><use xlink:href="#t" transform="matrix(1,0,0,1,432,1105.9) translate(0 36)"/><use xlink:href="#H" transform="matrix(1,0,0,1,432,1105.9) translate(15.5 36)"/><use xlink:href="#I" transform="matrix(1,0,0,1,432,1105.9) translate(151.25 36)"/><use xlink:href="#J" transform="matrix(1,0,0,1,432,1105.9) translate(241.1 36)"/><use xlink:href="#K" transform="matrix(1,0,0,1,432,1105.9) translate(265.05 36)"/><use xlink:href="#J" transform="matrix(1,0,0,1,432,1105.9) translate(352.6 36)"/><use xlink:href="#U" transform="matrix(1,0,0,1,432,1105.9) translate(376.55 36)"/></g><path d="M1220 908c0-4.42 3.58-8 8-8h289.9c4.4 0 8 3.58 8 8v183c0 4.42-3.6 8-8 8H1228c-4.42 0-8-3.58-8-8z" stroke="#333" fill="#fff"/><path d="M1220 937.6h305.9M1220 996.7h305.9" stroke="#333" fill="none"/><g><use xlink:href="#ap" transform="matrix(1,0,0,1,1228,908) translate(96.575 14.4)"/></g><g><use xlink:href="#t" transform="matrix(1,0,0,1,1232,1004.7) translate(0 14.4)"/><use xlink:href="#Q" transform="matrix(1,0,0,1,1232,1004.7) translate(15.5 14.4)"/><use xlink:href="#R" transform="matrix(1,0,0,1,1232,1004.7) translate(118.35000000000001 14.4)"/><use xlink:href="#aa" transform="matrix(1,0,0,1,1232,1004.7) translate(231.3 14.4)"/><use xlink:href="#ab" transform="matrix(1,0,0,1,1232,1004.7) translate(0 36)"/><use xlink:href="#t" transform="matrix(1,0,0,1,1232,1004.7) translate(0 57.6)"/><use xlink:href="#ac" transform="matrix(1,0,0,1,1232,1004.7) translate(15.5 57.6)"/></g><path d="M1585.9 908c0-4.42 3.58-8 8-8H1892c4.42 0 8 3.58 8 8v205c0 4.42-3.58 8-8 8h-298.1c-4.42 0-8-3.58-8-8z" stroke="#333" fill="#fff"/><path d="M1585.9 937.6H1900m-314.1 59.1H1900" stroke="#333" fill="none"/><g><use xlink:href="#aq" transform="matrix(1,0,0,1,1593.896061253458,908) translate(98.55 14.4)"/></g><g><use xlink:href="#ar" transform="matrix(1,0,0,1,1597.896061253458,1004.7) translate(0 14.4)"/><use xlink:href="#as" transform="matrix(1,0,0,1,1597.896061253458,1004.7) translate(81.75 14.4)"/><use xlink:href="#J" transform="matrix(1,0,0,1,1597.896061253458,1004.7) translate(100.75 14.4)"/><use xlink:href="#at" transform="matrix(1,0,0,1,1597.896061253458,1004.7) translate(124.7 14.4)"/><use xlink:href="#J" transform="matrix(1,0,0,1,1597.896061253458,1004.7) translate(142.35 14.4)"/><use xlink:href="#au" transform="matrix(1,0,0,1,1597.896061253458,1004.7) translate(166.29999999999998 14.4)"/><use xlink:href="#t" transform="matrix(1,0,0,1,1597.896061253458,1004.7) translate(0 36)"/><use xlink:href="#Q" transform="matrix(1,0,0,1,1597.896061253458,1004.7) translate(15.5 36)"/><use xlink:href="#R" transform="matrix(1,0,0,1,1597.896061253458,1004.7) translate(118.35000000000001 36)"/><use xlink:href="#aa" transform="matrix(1,0,0,1,1597.896061253458,1004.7) translate(231.3 36)"/><use xlink:href="#ab" transform="matrix(1,0,0,1,1597.896061253458,1004.7) translate(0 57.6)"/><use xlink:href="#t" transform="matrix(1,0,0,1,1597.896061253458,1004.7) translate(0 79.20000000000002)"/><use xlink:href="#ac" transform="matrix(1,0,0,1,1597.896061253458,1004.7) translate(15.5 79.20000000000002)"/></g><path d="M1960 908c0-4.42 3.58-8 8-8h204c4.42 0 8 3.58 8 8v205c0 4.42-3.58 8-8 8h-204c-4.42 0-8-3.58-8-8z" stroke="#333" fill="#fff"/><path d="M1960 937.6h220m-220 59.1h220" stroke="#333" fill="none"/><g><use xlink:href="#av" transform="matrix(1,0,0,1,1968,908) translate(35.57499999999999 14.4)"/></g><g><use xlink:href="#o" transform="matrix(1,0,0,1,1972,945.6) translate(0 14.4)"/><use xlink:href="#Y" transform="matrix(1,0,0,1,1972,945.6) translate(10.95 14.4)"/></g><g><use xlink:href="#t" transform="matrix(1,0,0,1,1972,1004.7) translate(0 14.4)"/><use xlink:href="#Z" transform="matrix(1,0,0,1,1972,1004.7) translate(15.5 14.4)"/><use xlink:href="#R" transform="matrix(1,0,0,1,1972,1004.7) translate(0 36)"/><use xlink:href="#aa" transform="matrix(1,0,0,1,1972,1004.7) translate(112.95 36)"/><use xlink:href="#ab" transform="matrix(1,0,0,1,1972,1004.7) translate(0 57.6)"/><use xlink:href="#t" transform="matrix(1,0,0,1,1972,1004.7) translate(0 79.20000000000002)"/><use xlink:href="#ac" transform="matrix(1,0,0,1,1972,1004.7) translate(15.5 79.20000000000002)"/></g><path d="M2260 908c0-4.42 3.58-8 8-8h204c4.42 0 8 3.58 8 8v140c0 4.42-3.58 8-8 8h-204c-4.42 0-8-3.58-8-8z" stroke="#333" fill="#fff"/><path d="M2260 937.6h220m-220 59.1h220" stroke="#333" fill="none"/><g><use xlink:href="#aw" transform="matrix(1,0,0,1,2268,908) translate(66.525 14.4)"/></g><g><use xlink:href="#t" transform="matrix(1,0,0,1,2272,1004.7) translate(0 14.4)"/><use xlink:href="#ac" transform="matrix(1,0,0,1,2272,1004.7) translate(15.5 14.4)"/></g><path d="M680 957v-45c0-6.63-5.37-12-12-12H372c-6.63 0-12-5.37-12-12V616.5" stroke="#333" fill="none"/><path d="M680.5 957.5h-1v-.5h1z" fill="#333"/><path d="M360 594.48L372.73 616h-25.46z" stroke="#333" fill="#fff"/><path d="M1610 601V491c0-6.63-5.37-12-12-12h-136c-6.63 0-12-5.37-12-12v-87.5" stroke="#333" fill="none"/><path d="M1610.5 601.5h-1v-.5h1z" fill="#333"/><path d="M1450 357.48l12.73 21.52h-25.46z" stroke="#333" fill="#fff"/><path d="M2012.95 601V491c0-6.63-5.37-12-12-12H1462c-6.63 0-12-5.37-12-12v-87.5" stroke="#333" fill="none"/><path d="M2013.45 601.5h-1v-.5h1z" fill="#333"/><path d="M1450 357.48l12.73 21.52h-25.46z" stroke="#333" fill="#fff"/><path d="M1372.95 899v-47c0-6.63 5.37-12 12-12H1438c6.63 0 12-5.37 12-12V379.5" stroke="#333" fill="none"/><path d="M1373.45 899.5h-1v-.5h1z" fill="#333"/><path d="M1450 357.48l12.73 21.52h-25.46z" stroke="#333" fill="#fff"/><path d="M1742.95 899v-47c0-6.63-5.37-12-12-12H1462c-6.63 0-12-5.37-12-12V379.5" stroke="#333" fill="none"/><path d="M1743.45 899.5h-1v-.5h1z" fill="#333"/><path d="M1450 357.48l12.73 21.52h-25.46z" stroke="#333" fill="#fff"/><path d="M2055.32 899v-47c0-6.63-5.37-12-12-12H1462c-6.63 0-12-5.37-12-12V379.5" stroke="#333" fill="none"/><path d="M2055.82 899.5h-1v-.5h1z" fill="#333"/><path d="M1450 357.48l12.73 21.52h-25.46z" stroke="#333" fill="#fff"/><path d="M2370 899v-47c0-6.63-5.37-12-12-12h-896c-6.63 0-12-5.37-12-12V379.5" stroke="#333" fill="none"/><path d="M2370.5 899.5h-1v-.5h1z" fill="#333"/><path d="M1450 357.48l12.73 21.52h-25.46z" stroke="#333" fill="#fff"/><path d="M941 726.35h107c6.63 0 12-5.37 12-12V290c0-6.63 5.37-12 12-12h84.5" stroke="#333" fill="none"/><path d="M941 726.85h-.5v-1h.5z" fill="#333"/><path d="M1178.52 278L1157 290.73v-25.46z" stroke="#333" fill="#fff"/><path d="M941 1031.13h157c6.63 0 12-5.37 12-12V290c0-6.63 5.37-12 12-12h34.5" stroke="#333" fill="none"/><path d="M941 1031.63h-.5v-1h.5z" fill="#333"/><path d="M1178.52 278L1157 290.73v-25.46zM1900 208c0-4.42 3.58-8 8-8h294.2c4.42 0 8 3.58 8 8v205c0 4.42-3.58 8-8 8H1908c-4.42 0-8-3.58-8-8z" stroke="#333" fill="#fff"/><path d="M1900 237.6h310.2M1900 296.7h310.2" stroke="#333" fill="none"/><g><use xlink:href="#ax" transform="matrix(1,0,0,1,1908,208) translate(126.5 14.4)"/></g><g><use xlink:href="#w" transform="matrix(1,0,0,1,1912,304.7) translate(0 14.4)"/><use xlink:href="#ay" transform="matrix(1,0,0,1,1912,304.7) translate(15.5 14.4)"/><use xlink:href="#w" transform="matrix(1,0,0,1,1912,304.7) translate(0 36)"/><use xlink:href="#az" transform="matrix(1,0,0,1,1912,304.7) translate(15.5 36)"/><use xlink:href="#w" transform="matrix(1,0,0,1,1912,304.7) translate(0 57.6)"/><use xlink:href="#G" transform="matrix(1,0,0,1,1912,304.7) translate(15.5 57.6)"/><use xlink:href="#w" transform="matrix(1,0,0,1,1912,304.7) translate(0 79.20000000000002)"/><use xlink:href="#aA" transform="matrix(1,0,0,1,1912,304.7) translate(15.5 79.20000000000002)"/></g><path d="M1721 278h155.5" stroke="#333" fill="none"/><path d="M1721 278.5h-.5v-1h.5z" fill="#333"/><path d="M1898.52 278L1877 290.73v-25.46z" stroke="#333" fill="#fff"/><defs><path fill="#a9afb8" d="M101-251c68 0 84 54 84 127C185-50 166 4 99 4S15-52 14-124c-1-75 17-127 87-127zm-1 216c37-5 36-46 36-89s4-89-36-89c-39 0-36 45-36 89 0 43-3 85 36 89" id="aB"/><path fill="#a9afb8" d="M128-127c34 4 56 21 59 58 7 91-148 94-172 28-4-9-6-17-7-26l51-5c1 24 16 35 40 36 23 0 39-12 38-36-1-31-31-36-65-34v-40c32 2 59-3 59-33 0-20-13-33-34-33s-33 13-35 32l-50-3c6-44 37-68 86-68 50 0 83 20 83 66 0 35-22 52-53 58" id="aC"/><g id="a"><use transform="matrix(0.0728395061728395,0,0,0.0728395061728395,0,0)" xlink:href="#aB"/><use transform="matrix(0.0728395061728395,0,0,0.0728395061728395,14.5679012345679,0)" xlink:href="#aC"/></g><path fill="#a9afb8" d="M24 0v-248h195v40H76v63h132v40H76v65h150V0H24" id="aD"/><path fill="#a9afb8" d="M135-194c87-1 58 113 63 194h-50c-7-57 23-157-34-157-59 0-34 97-39 157H25l-1-190h47c2 12-1 28 3 38 12-26 28-41 61-42" id="aE"/><path fill="#a9afb8" d="M185-48c-13 30-37 53-82 52C43 2 14-33 14-96s30-98 90-98c62 0 83 45 84 108H66c0 31 8 55 39 56 18 0 30-7 34-22zm-45-69c5-46-57-63-70-21-2 6-4 13-4 21h74" id="aF"/><path fill="#a9afb8" d="M220-157c-53 9-28 100-34 157h-49v-107c1-27-5-49-29-50C55-147 81-57 75 0H25l-1-190h47c2 12-1 28 3 38 10-53 101-56 108 0 13-22 24-43 59-42 82 1 51 116 57 194h-49v-107c-1-25-5-48-29-50" id="aG"/><path fill="#a9afb8" d="M25-224v-37h50v37H25zM25 0v-190h50V0H25" id="aH"/><path fill="#a9afb8" d="M137-138c1-29-70-34-71-4 15 46 118 7 119 86 1 83-164 76-172 9l43-7c4 19 20 25 44 25 33 8 57-30 24-41C81-84 22-81 20-136c-2-80 154-74 161-7" id="aI"/><g id="b"><use transform="matrix(0.0728395061728395,0,0,0.0728395061728395,0,0)" xlink:href="#aD"/><use transform="matrix(0.0728395061728395,0,0,0.0728395061728395,17.48148148148148,0)" xlink:href="#aE"/><use transform="matrix(0.0728395061728395,0,0,0.0728395061728395,33.43333333333333,0)" xlink:href="#aF"/><use transform="matrix(0.0728395061728395,0,0,0.0728395061728395,48.00123456790123,0)" xlink:href="#aG"/><use transform="matrix(0.0728395061728395,0,0,0.0728395061728395,71.30987654320987,0)" xlink:href="#aH"/><use transform="matrix(0.0728395061728395,0,0,0.0728395061728395,78.5938271604938,0)" xlink:href="#aF"/><use transform="matrix(0.0728395061728395,0,0,0.0728395061728395,93.16172839506171,0)" xlink:href="#aI"/></g><path fill="#a9afb8" d="M233-177c-1 41-23 64-60 70L243 0h-38l-65-103H63V0H30v-248c88 3 205-21 203 71zM63-129c60-2 137 13 137-47 0-61-80-42-137-45v92" id="aJ"/><path fill="#a9afb8" d="M141-36C126-15 110 5 73 4 37 3 15-17 15-53c-1-64 63-63 125-63 3-35-9-54-41-54-24 1-41 7-42 31l-33-3c5-37 33-52 76-52 45 0 72 20 72 64v82c-1 20 7 32 28 27v20c-31 9-61-2-59-35zM48-53c0 20 12 33 32 33 41-3 63-29 60-74-43 2-92-5-92 41" id="aK"/><path fill="#a9afb8" d="M115-194c55 1 70 41 70 98S169 2 115 4C84 4 66-9 55-30l1 105H24l-1-265h31l2 30c10-21 28-34 59-34zm-8 174c40 0 45-34 45-75s-6-73-45-74c-42 0-51 32-51 76 0 43 10 73 51 73" id="aL"/><path fill="#a9afb8" d="M106-169C34-169 62-67 57 0H25v-261h32l-1 103c12-21 28-36 61-36 89 0 53 116 60 194h-32v-121c2-32-8-49-39-48" id="aM"/><path fill="#a9afb8" d="M100-194c63 0 86 42 84 106H49c0 40 14 67 53 68 26 1 43-12 49-29l28 8c-11 28-37 45-77 45C44 4 14-33 15-96c1-61 26-98 85-98zm52 81c6-60-76-77-97-28-3 7-6 17-6 28h103" id="aN"/><path fill="#a9afb8" d="M24 0v-261h32V0H24" id="aO"/><g id="c"><use transform="matrix(0.04248971193415638,0,0,0.04248971193415638,0,0)" xlink:href="#aJ"/><use transform="matrix(0.04248971193415638,0,0,0.04248971193415638,11.004835390946502,0)" xlink:href="#aK"/><use transform="matrix(0.04248971193415638,0,0,0.04248971193415638,19.502777777777776,0)" xlink:href="#aL"/><use transform="matrix(0.04248971193415638,0,0,0.04248971193415638,28.000720164609046,0)" xlink:href="#aM"/><use transform="matrix(0.04248971193415638,0,0,0.04248971193415638,36.498662551440326,0)" xlink:href="#aK"/><use transform="matrix(0.04248971193415638,0,0,0.04248971193415638,44.9966049382716,0)" xlink:href="#aN"/><use transform="matrix(0.04248971193415638,0,0,0.04248971193415638,53.49454732510288,0)" xlink:href="#aO"/></g><path fill="#a9afb8" d="M197 0v-115H63V0H30v-248h33v105h134v-105h34V0h-34" id="aP"/><path fill="#a9afb8" d="M210-169c-67 3-38 105-44 169h-31v-121c0-29-5-50-35-48C34-165 62-65 56 0H25l-1-190h30c1 10-1 24 2 32 10-44 99-50 107 0 11-21 27-35 58-36 85-2 47 119 55 194h-31v-121c0-29-5-49-35-48" id="aQ"/><path fill="#a9afb8" d="M9 0v-24l116-142H16v-24h144v24L44-24h123V0H9" id="aR"/><path fill="#a9afb8" d="M177-190C167-65 218 103 67 71c-23-6-38-20-44-43l32-5c15 47 100 32 89-28v-30C133-14 115 1 83 1 29 1 15-40 15-95c0-56 16-97 71-98 29-1 48 16 59 35 1-10 0-23 2-32h30zM94-22c36 0 50-32 50-73 0-42-14-75-50-75-39 0-46 34-46 75s6 73 46 73" id="aS"/><path fill="#a9afb8" d="M24-231v-30h32v30H24zM24 0v-190h32V0H24" id="aT"/><path fill="#a9afb8" d="M96-169c-40 0-48 33-48 73s9 75 48 75c24 0 41-14 43-38l32 2c-6 37-31 61-74 61-59 0-76-41-82-99-10-93 101-131 147-64 4 7 5 14 7 22l-32 3c-4-21-16-35-41-35" id="aU"/><g id="d"><use transform="matrix(0.04248971193415638,0,0,0.04248971193415638,0,0)" xlink:href="#aP"/><use transform="matrix(0.04248971193415638,0,0,0.04248971193415638,11.004835390946502,0)" xlink:href="#aK"/><use transform="matrix(0.04248971193415638,0,0,0.04248971193415638,19.502777777777776,0)" xlink:href="#aQ"/><use transform="matrix(0.04248971193415638,0,0,0.04248971193415638,32.20720164609053,0)" xlink:href="#aR"/><use transform="matrix(0.04248971193415638,0,0,0.04248971193415638,39.85534979423868,0)" xlink:href="#aK"/><use transform="matrix(0.04248971193415638,0,0,0.04248971193415638,48.35329218106995,0)" xlink:href="#aS"/><use transform="matrix(0.04248971193415638,0,0,0.04248971193415638,56.85123456790123,0)" xlink:href="#aT"/><use transform="matrix(0.04248971193415638,0,0,0.04248971193415638,60.20792181069959,0)" xlink:href="#aU"/></g><path fill="#a9afb8" d="M85-194c31 0 48 13 60 33l-1-100h32l1 261h-30c-2-10 0-23-3-31C134-8 116 4 85 4 32 4 16-35 15-94c0-66 23-100 70-100zm9 24c-40 0-46 34-46 75 0 40 6 74 45 74 42 0 51-32 51-76 0-42-9-74-50-73" id="aV"/><g id="e"><use transform="matrix(0.04248971193415638,0,0,0.04248971193415638,0,0)" xlink:href="#aV"/><use transform="matrix(0.04248971193415638,0,0,0.04248971193415638,8.497942386831275,0)" xlink:href="#aN"/></g><path fill="#a9afb8" d="M212-179c-10-28-35-45-73-45-59 0-87 40-87 99 0 60 29 101 89 101 43 0 62-24 78-52l27 14C228-24 195 4 139 4 59 4 22-46 18-125c-6-104 99-153 187-111 19 9 31 26 39 46" id="aW"/><path fill="#a9afb8" d="M114-163C36-179 61-72 57 0H25l-1-190h30c1 12-1 29 2 39 6-27 23-49 58-41v29" id="aX"/><path fill="#a9afb8" d="M108 0H70L1-190h34L89-25l56-165h34" id="aY"/><path fill="#a9afb8" d="M100-194c62-1 85 37 85 99 1 63-27 99-86 99S16-35 15-95c0-66 28-99 85-99zM99-20c44 1 53-31 53-75 0-43-8-75-51-75s-53 32-53 75 10 74 51 75" id="aZ"/><g id="f"><use transform="matrix(0.04248971193415638,0,0,0.04248971193415638,0,0)" xlink:href="#aW"/><use transform="matrix(0.04248971193415638,0,0,0.04248971193415638,11.004835390946502,0)" xlink:href="#aK"/><use transform="matrix(0.04248971193415638,0,0,0.04248971193415638,19.502777777777776,0)" xlink:href="#aX"/><use transform="matrix(0.04248971193415638,0,0,0.04248971193415638,24.559053497942386,0)" xlink:href="#aY"/><use transform="matrix(0.04248971193415638,0,0,0.04248971193415638,32.20720164609053,0)" xlink:href="#aK"/><use transform="matrix(0.04248971193415638,0,0,0.04248971193415638,40.70514403292181,0)" xlink:href="#aO"/><use transform="matrix(0.04248971193415638,0,0,0.04248971193415638,44.06183127572016,0)" xlink:href="#aM"/><use transform="matrix(0.04248971193415638,0,0,0.04248971193415638,52.559773662551436,0)" xlink:href="#aZ"/></g><path fill="#a9afb8" d="M32 76v-337h29V76H32" id="ba"/><use transform="matrix(0.04248971193415638,0,0,0.04248971193415638,0,0)" xlink:href="#ba" id="g"/><path fill="#a9afb8" d="M190 0L58-211 59 0H30v-248h39L202-35l-2-213h31V0h-41" id="bb"/><path fill="#a9afb8" d="M115-194c53 0 69 39 70 98 0 66-23 100-70 100C84 3 66-7 56-30L54 0H23l1-261h32v101c10-23 28-34 59-34zm-8 174c40 0 45-34 45-75 0-40-5-75-45-74-42 0-51 32-51 76 0 43 10 73 51 73" id="bc"/><g id="h"><use transform="matrix(0.04248971193415638,0,0,0.04248971193415638,0,0)" xlink:href="#bb"/><use transform="matrix(0.04248971193415638,0,0,0.04248971193415638,11.004835390946502,0)" xlink:href="#aZ"/><use transform="matrix(0.04248971193415638,0,0,0.04248971193415638,19.502777777777776,0)" xlink:href="#aY"/><use transform="matrix(0.04248971193415638,0,0,0.04248971193415638,27.150925925925925,0)" xlink:href="#aN"/><use transform="matrix(0.04248971193415638,0,0,0.04248971193415638,35.6488683127572,0)" xlink:href="#aQ"/><use transform="matrix(0.04248971193415638,0,0,0.04248971193415638,48.35329218106995,0)" xlink:href="#bc"/><use transform="matrix(0.04248971193415638,0,0,0.04248971193415638,56.851234567901244,0)" xlink:href="#aN"/><use transform="matrix(0.04248971193415638,0,0,0.04248971193415638,65.34917695473251,0)" xlink:href="#aX"/></g><path fill="#a9afb8" d="M101-251c82-7 93 87 43 132L82-64C71-53 59-42 53-27h129V0H18c2-99 128-94 128-182 0-28-16-43-45-43s-46 15-49 41l-32-3c6-41 34-60 81-64" id="bd"/><path fill="#a9afb8" d="M64 0c3-98 48-159 88-221H18v-27h164v26C143-157 98-101 97 0H64" id="be"/><path fill="#a9afb8" d="M68-38c1 34 0 65-14 84H32c9-13 17-26 17-46H33v-38h35" id="bf"/><g id="i"><use transform="matrix(0.04248971193415638,0,0,0.04248971193415638,0,0)" xlink:href="#bd"/><use transform="matrix(0.04248971193415638,0,0,0.04248971193415638,8.497942386831275,0)" xlink:href="#be"/><use transform="matrix(0.04248971193415638,0,0,0.04248971193415638,16.99588477366255,0)" xlink:href="#bf"/></g><path fill="#a9afb8" d="M101-251c68 0 85 55 85 127S166 4 100 4C33 4 14-52 14-124c0-73 17-127 87-127zm-1 229c47 0 54-49 54-102s-4-102-53-102c-51 0-55 48-55 102 0 53 5 102 54 102" id="bg"/><g id="j"><use transform="matrix(0.04248971193415638,0,0,0.04248971193415638,0,0)" xlink:href="#bd"/><use transform="matrix(0.04248971193415638,0,0,0.04248971193415638,8.497942386831275,0)" xlink:href="#bg"/><use transform="matrix(0.04248971193415638,0,0,0.04248971193415638,16.99588477366255,0)" xlink:href="#bd"/><use transform="matrix(0.04248971193415638,0,0,0.04248971193415638,25.493827160493822,0)" xlink:href="#bg"/></g><path fill="#333" d="M143 4C61 4 22-44 18-125c-5-107 100-154 193-111 17 8 29 25 37 43l-32 9c-13-25-37-40-76-40-61 0-88 39-88 99 0 61 29 100 91 101 35 0 62-11 79-27v-45h-74v-28h105v86C228-13 192 4 143 4" id="bh"/><path fill="#333" d="M141-36C126-15 110 5 73 4 37 3 15-17 15-53c-1-64 63-63 125-63 3-35-9-54-41-54-24 1-41 7-42 31l-33-3c5-37 33-52 76-52 45 0 72 20 72 64v82c-1 20 7 32 28 27v20c-31 9-61-2-59-35zM48-53c0 20 12 33 32 33 41-3 63-29 60-74-43 2-92-5-92 41" id="bi"/><path fill="#333" d="M210-169c-67 3-38 105-44 169h-31v-121c0-29-5-50-35-48C34-165 62-65 56 0H25l-1-190h30c1 10-1 24 2 32 10-44 99-50 107 0 11-21 27-35 58-36 85-2 47 119 55 194h-31v-121c0-29-5-49-35-48" id="bj"/><path fill="#333" d="M100-194c63 0 86 42 84 106H49c0 40 14 67 53 68 26 1 43-12 49-29l28 8c-11 28-37 45-77 45C44 4 14-33 15-96c1-61 26-98 85-98zm52 81c6-60-76-77-97-28-3 7-6 17-6 28h103" id="bk"/><g id="k"><use transform="matrix(0.05,0,0,0.05,0,0)" xlink:href="#bh"/><use transform="matrix(0.05,0,0,0.05,14,0)" xlink:href="#bi"/><use transform="matrix(0.05,0,0,0.05,24,0)" xlink:href="#bj"/><use transform="matrix(0.05,0,0,0.05,38.95,0)" xlink:href="#bk"/></g><path fill="#333" d="M140-251c81 0 123 46 123 126C263-46 219 4 140 4 59 4 17-45 17-125s42-126 123-126zm0 227c63 0 89-41 89-101s-29-99-89-99c-61 0-89 39-89 99S79-25 140-24" id="bl"/><path fill="#333" d="M115-194c53 0 69 39 70 98 0 66-23 100-70 100C84 3 66-7 56-30L54 0H23l1-261h32v101c10-23 28-34 59-34zm-8 174c40 0 45-34 45-75 0-40-5-75-45-74-42 0-51 32-51 76 0 43 10 73 51 73" id="bm"/><path fill="#333" d="M24-231v-30h32v30H24zM-9 49c24 4 33-6 33-30v-209h32V24c2 40-23 58-65 49V49" id="bn"/><path fill="#333" d="M96-169c-40 0-48 33-48 73s9 75 48 75c24 0 41-14 43-38l32 2c-6 37-31 61-74 61-59 0-76-41-82-99-10-93 101-131 147-64 4 7 5 14 7 22l-32 3c-4-21-16-35-41-35" id="bo"/><path fill="#333" d="M59-47c-2 24 18 29 38 22v24C64 9 27 4 27-40v-127H5v-23h24l9-43h21v43h35v23H59v120" id="bp"/><g id="l"><use transform="matrix(0.05,0,0,0.05,0,0)" xlink:href="#bl"/><use transform="matrix(0.05,0,0,0.05,14,0)" xlink:href="#bm"/><use transform="matrix(0.05,0,0,0.05,24,0)" xlink:href="#bn"/><use transform="matrix(0.05,0,0,0.05,27.950000000000003,0)" xlink:href="#bk"/><use transform="matrix(0.05,0,0,0.05,37.95,0)" xlink:href="#bo"/><use transform="matrix(0.05,0,0,0.05,46.95,0)" xlink:href="#bp"/></g><path fill="#333" d="M16-82v-28h88v28H16" id="bq"/><use transform="matrix(0.05,0,0,0.05,0,0)" xlink:href="#bq" id="m"/><path fill="#333" d="M-5 72V49h209v23H-5" id="br"/><path fill="#333" d="M141 0L90-78 38 0H4l68-98-65-92h35l48 74 47-74h35l-64 92 68 98h-35" id="bs"/><path fill="#333" d="M33-154v-36h34v36H33zM33 0v-36h34V0H33" id="bt"/><path fill="#333" d="M24-231v-30h32v30H24zM24 0v-190h32V0H24" id="bu"/><path fill="#333" d="M117-194c89-4 53 116 60 194h-32v-121c0-31-8-49-39-48C34-167 62-67 57 0H25l-1-190h30c1 10-1 24 2 32 11-22 29-35 61-36" id="bv"/><g id="n"><use transform="matrix(0.05,0,0,0.05,0,0)" xlink:href="#bj"/><use transform="matrix(0.05,0,0,0.05,14.950000000000001,0)" xlink:href="#br"/><use transform="matrix(0.05,0,0,0.05,24.950000000000003,0)" xlink:href="#bs"/><use transform="matrix(0.05,0,0,0.05,33.95,0)" xlink:href="#bt"/><use transform="matrix(0.05,0,0,0.05,38.95,0)" xlink:href="#bu"/><use transform="matrix(0.05,0,0,0.05,42.900000000000006,0)" xlink:href="#bv"/><use transform="matrix(0.05,0,0,0.05,52.900000000000006,0)" xlink:href="#bp"/></g><use transform="matrix(0.05,0,0,0.05,0,0)" xlink:href="#bq" id="o"/><path fill="#333" d="M179-190L93 31C79 59 56 82 12 73V49c39 6 53-20 64-50L1-190h34L92-34l54-156h33" id="bw"/><g id="p"><use transform="matrix(0.05,0,0,0.05,0,0)" xlink:href="#bj"/><use transform="matrix(0.05,0,0,0.05,14.950000000000001,0)" xlink:href="#br"/><use transform="matrix(0.05,0,0,0.05,24.950000000000003,0)" xlink:href="#bw"/><use transform="matrix(0.05,0,0,0.05,33.95,0)" xlink:href="#bt"/><use transform="matrix(0.05,0,0,0.05,38.95,0)" xlink:href="#bu"/><use transform="matrix(0.05,0,0,0.05,42.900000000000006,0)" xlink:href="#bv"/><use transform="matrix(0.05,0,0,0.05,52.900000000000006,0)" xlink:href="#bp"/></g><path fill="#333" d="M24 0v-261h32V0H24" id="bx"/><path fill="#333" d="M135-143c-3-34-86-38-87 0 15 53 115 12 119 90S17 21 10-45l28-5c4 36 97 45 98 0-10-56-113-15-118-90-4-57 82-63 122-42 12 7 21 19 24 35" id="by"/><path fill="#333" d="M195 0l-74-108L45 0H8l94-129-87-119h37l69 98 67-98h37l-84 118L233 0h-38" id="bz"/><g id="q"><use transform="matrix(0.05,0,0,0.05,0,0)" xlink:href="#bj"/><use transform="matrix(0.05,0,0,0.05,14.950000000000001,0)" xlink:href="#br"/><use transform="matrix(0.05,0,0,0.05,24.950000000000003,0)" xlink:href="#bx"/><use transform="matrix(0.05,0,0,0.05,28.900000000000002,0)" xlink:href="#bi"/><use transform="matrix(0.05,0,0,0.05,38.900000000000006,0)" xlink:href="#by"/><use transform="matrix(0.05,0,0,0.05,47.900000000000006,0)" xlink:href="#bp"/><use transform="matrix(0.05,0,0,0.05,52.900000000000006,0)" xlink:href="#bz"/><use transform="matrix(0.05,0,0,0.05,64.9,0)" xlink:href="#bt"/><use transform="matrix(0.05,0,0,0.05,69.9,0)" xlink:href="#bu"/><use transform="matrix(0.05,0,0,0.05,73.85000000000001,0)" xlink:href="#bv"/><use transform="matrix(0.05,0,0,0.05,83.85000000000001,0)" xlink:href="#bp"/></g><path fill="#333" d="M137-103V0h-34v-103L8-248h37l75 118 75-118h37" id="bA"/><g id="r"><use transform="matrix(0.05,0,0,0.05,0,0)" xlink:href="#bj"/><use transform="matrix(0.05,0,0,0.05,14.950000000000001,0)" xlink:href="#br"/><use transform="matrix(0.05,0,0,0.05,24.950000000000003,0)" xlink:href="#bx"/><use transform="matrix(0.05,0,0,0.05,28.900000000000002,0)" xlink:href="#bi"/><use transform="matrix(0.05,0,0,0.05,38.900000000000006,0)" xlink:href="#by"/><use transform="matrix(0.05,0,0,0.05,47.900000000000006,0)" xlink:href="#bp"/><use transform="matrix(0.05,0,0,0.05,52.900000000000006,0)" xlink:href="#bA"/><use transform="matrix(0.05,0,0,0.05,63.900000000000006,0)" xlink:href="#bt"/><use transform="matrix(0.05,0,0,0.05,68.9,0)" xlink:href="#bu"/><use transform="matrix(0.05,0,0,0.05,72.85000000000001,0)" xlink:href="#bv"/><use transform="matrix(0.05,0,0,0.05,82.85000000000001,0)" xlink:href="#bp"/></g><path fill="#333" d="M115-194c55 1 70 41 70 98S169 2 115 4C84 4 66-9 55-30l1 105H24l-1-265h31l2 30c10-21 28-34 59-34zm-8 174c40 0 45-34 45-75s-6-73-45-74c-42 0-51 32-51 76 0 43 10 73 51 73" id="bB"/><path fill="#333" d="M127-220V0H93v-220H8v-28h204v28h-85" id="bC"/><g id="s"><use transform="matrix(0.05,0,0,0.05,0,0)" xlink:href="#bj"/><use transform="matrix(0.05,0,0,0.05,14.950000000000001,0)" xlink:href="#br"/><use transform="matrix(0.05,0,0,0.05,24.950000000000003,0)" xlink:href="#bp"/><use transform="matrix(0.05,0,0,0.05,29.950000000000003,0)" xlink:href="#bw"/><use transform="matrix(0.05,0,0,0.05,38.95,0)" xlink:href="#bB"/><use transform="matrix(0.05,0,0,0.05,48.95,0)" xlink:href="#bk"/><use transform="matrix(0.05,0,0,0.05,58.95,0)" xlink:href="#bt"/><use transform="matrix(0.05,0,0,0.05,63.95,0)" xlink:href="#bl"/><use transform="matrix(0.05,0,0,0.05,77.95,0)" xlink:href="#bm"/><use transform="matrix(0.05,0,0,0.05,87.95,0)" xlink:href="#bn"/><use transform="matrix(0.05,0,0,0.05,91.9,0)" xlink:href="#bk"/><use transform="matrix(0.05,0,0,0.05,101.9,0)" xlink:href="#bo"/><use transform="matrix(0.05,0,0,0.05,110.9,0)" xlink:href="#bp"/><use transform="matrix(0.05,0,0,0.05,115.9,0)" xlink:href="#bC"/><use transform="matrix(0.05,0,0,0.05,125.85000000000001,0)" xlink:href="#bw"/><use transform="matrix(0.05,0,0,0.05,134.85000000000002,0)" xlink:href="#bB"/><use transform="matrix(0.05,0,0,0.05,144.85000000000002,0)" xlink:href="#bk"/></g><path fill="#333" d="M118-107v75H92v-75H18v-26h74v-75h26v75h74v26h-74" id="bD"/><use transform="matrix(0.05,0,0,0.05,0,0)" xlink:href="#bD" id="t"/><path fill="#333" d="M87 75C49 33 22-17 22-94c0-76 28-126 65-167h31c-38 41-64 92-64 168S80 34 118 75H87" id="bE"/><path fill="#333" d="M33-261c38 41 65 92 65 168S71 34 33 75H2C39 34 66-17 66-93S39-220 2-261h31" id="bF"/><g id="u"><use transform="matrix(0.05,0,0,0.05,0,0)" xlink:href="#bh"/><use transform="matrix(0.05,0,0,0.05,14,0)" xlink:href="#bk"/><use transform="matrix(0.05,0,0,0.05,24,0)" xlink:href="#bp"/><use transform="matrix(0.05,0,0,0.05,29,0)" xlink:href="#bC"/><use transform="matrix(0.05,0,0,0.05,38.95,0)" xlink:href="#bw"/><use transform="matrix(0.05,0,0,0.05,47.95,0)" xlink:href="#bB"/><use transform="matrix(0.05,0,0,0.05,57.95,0)" xlink:href="#bk"/><use transform="matrix(0.05,0,0,0.05,67.95,0)" xlink:href="#bE"/><use transform="matrix(0.05,0,0,0.05,73.9,0)" xlink:href="#bF"/><use transform="matrix(0.05,0,0,0.05,79.85000000000001,0)" xlink:href="#bt"/><use transform="matrix(0.05,0,0,0.05,84.85000000000001,0)" xlink:href="#bl"/><use transform="matrix(0.05,0,0,0.05,98.85000000000001,0)" xlink:href="#bm"/><use transform="matrix(0.05,0,0,0.05,108.85000000000001,0)" xlink:href="#bn"/><use transform="matrix(0.05,0,0,0.05,112.80000000000001,0)" xlink:href="#bk"/><use transform="matrix(0.05,0,0,0.05,122.80000000000001,0)" xlink:href="#bo"/><use transform="matrix(0.05,0,0,0.05,131.8,0)" xlink:href="#bp"/><use transform="matrix(0.05,0,0,0.05,136.8,0)" xlink:href="#bC"/><use transform="matrix(0.05,0,0,0.05,146.75,0)" xlink:href="#bw"/><use transform="matrix(0.05,0,0,0.05,155.75,0)" xlink:href="#bB"/><use transform="matrix(0.05,0,0,0.05,165.75,0)" xlink:href="#bk"/></g><path fill="#333" d="M30-248c87 1 191-15 191 75 0 78-77 80-158 76V0H30v-248zm33 125c57 0 124 11 124-50 0-59-68-47-124-48v98" id="bG"/><path fill="#333" d="M100-194c62-1 85 37 85 99 1 63-27 99-86 99S16-35 15-95c0-66 28-99 85-99zM99-20c44 1 53-31 53-75 0-43-8-75-51-75s-53 32-53 75 10 74 51 75" id="bH"/><g id="v"><use transform="matrix(0.05,0,0,0.05,0,0)" xlink:href="#bh"/><use transform="matrix(0.05,0,0,0.05,14,0)" xlink:href="#bk"/><use transform="matrix(0.05,0,0,0.05,24,0)" xlink:href="#bp"/><use transform="matrix(0.05,0,0,0.05,29,0)" xlink:href="#bz"/><use transform="matrix(0.05,0,0,0.05,41,0)" xlink:href="#bG"/><use transform="matrix(0.05,0,0,0.05,53,0)" xlink:href="#bH"/><use transform="matrix(0.05,0,0,0.05,63,0)" xlink:href="#by"/><use transform="matrix(0.05,0,0,0.05,72,0)" xlink:href="#bu"/><use transform="matrix(0.05,0,0,0.05,75.95,0)" xlink:href="#bp"/><use transform="matrix(0.05,0,0,0.05,80.95,0)" xlink:href="#bu"/><use transform="matrix(0.05,0,0,0.05,84.9,0)" xlink:href="#bH"/><use transform="matrix(0.05,0,0,0.05,94.9,0)" xlink:href="#bv"/><use transform="matrix(0.05,0,0,0.05,104.9,0)" xlink:href="#bE"/><use transform="matrix(0.05,0,0,0.05,110.85000000000001,0)" xlink:href="#bF"/><use transform="matrix(0.05,0,0,0.05,116.80000000000001,0)" xlink:href="#bt"/><use transform="matrix(0.05,0,0,0.05,121.80000000000001,0)" xlink:href="#bu"/><use transform="matrix(0.05,0,0,0.05,125.75,0)" xlink:href="#bv"/><use transform="matrix(0.05,0,0,0.05,135.75,0)" xlink:href="#bp"/></g><use transform="matrix(0.05,0,0,0.05,0,0)" xlink:href="#bD" id="w"/><g id="x"><use transform="matrix(0.05,0,0,0.05,0,0)" xlink:href="#bh"/><use transform="matrix(0.05,0,0,0.05,14,0)" xlink:href="#bk"/><use transform="matrix(0.05,0,0,0.05,24,0)" xlink:href="#bp"/><use transform="matrix(0.05,0,0,0.05,29,0)" xlink:href="#bA"/><use transform="matrix(0.05,0,0,0.05,41,0)" xlink:href="#bG"/><use transform="matrix(0.05,0,0,0.05,53,0)" xlink:href="#bH"/><use transform="matrix(0.05,0,0,0.05,63,0)" xlink:href="#by"/><use transform="matrix(0.05,0,0,0.05,72,0)" xlink:href="#bu"/><use transform="matrix(0.05,0,0,0.05,75.95,0)" xlink:href="#bp"/><use transform="matrix(0.05,0,0,0.05,80.95,0)" xlink:href="#bu"/><use transform="matrix(0.05,0,0,0.05,84.9,0)" xlink:href="#bH"/><use transform="matrix(0.05,0,0,0.05,94.9,0)" xlink:href="#bv"/><use transform="matrix(0.05,0,0,0.05,104.9,0)" xlink:href="#bE"/><use transform="matrix(0.05,0,0,0.05,110.85000000000001,0)" xlink:href="#bF"/><use transform="matrix(0.05,0,0,0.05,116.80000000000001,0)" xlink:href="#bt"/><use transform="matrix(0.05,0,0,0.05,121.80000000000001,0)" xlink:href="#bu"/><use transform="matrix(0.05,0,0,0.05,125.75,0)" xlink:href="#bv"/><use transform="matrix(0.05,0,0,0.05,135.75,0)" xlink:href="#bp"/></g><path fill="#333" d="M185-189c-5-48-123-54-124 2 14 75 158 14 163 119 3 78-121 87-175 55-17-10-28-26-33-46l33-7c5 56 141 63 141-1 0-78-155-14-162-118-5-82 145-84 179-34 5 7 8 16 11 25" id="bI"/><g id="y"><use transform="matrix(0.05,0,0,0.05,0,0)" xlink:href="#bI"/><use transform="matrix(0.05,0,0,0.05,12,0)" xlink:href="#bk"/><use transform="matrix(0.05,0,0,0.05,22,0)" xlink:href="#bp"/><use transform="matrix(0.05,0,0,0.05,27,0)" xlink:href="#bG"/><use transform="matrix(0.05,0,0,0.05,39,0)" xlink:href="#bH"/><use transform="matrix(0.05,0,0,0.05,49,0)" xlink:href="#by"/><use transform="matrix(0.05,0,0,0.05,58,0)" xlink:href="#bu"/><use transform="matrix(0.05,0,0,0.05,61.95,0)" xlink:href="#bp"/><use transform="matrix(0.05,0,0,0.05,66.95,0)" xlink:href="#bu"/><use transform="matrix(0.05,0,0,0.05,70.9,0)" xlink:href="#bH"/><use transform="matrix(0.05,0,0,0.05,80.9,0)" xlink:href="#bv"/><use transform="matrix(0.05,0,0,0.05,90.9,0)" xlink:href="#bE"/><use transform="matrix(0.05,0,0,0.05,96.85000000000001,0)" xlink:href="#bu"/><use transform="matrix(0.05,0,0,0.05,100.80000000000001,0)" xlink:href="#bv"/><use transform="matrix(0.05,0,0,0.05,110.80000000000001,0)" xlink:href="#bp"/></g><path fill="#333" d="M68-38c1 34 0 65-14 84H32c9-13 17-26 17-46H33v-38h35" id="bJ"/><g id="z"><use transform="matrix(0.05,0,0,0.05,0,0)" xlink:href="#bs"/><use transform="matrix(0.05,0,0,0.05,9,0)" xlink:href="#bJ"/></g><g id="A"><use transform="matrix(0.05,0,0,0.05,0,0)" xlink:href="#bu"/><use transform="matrix(0.05,0,0,0.05,3.95,0)" xlink:href="#bv"/><use transform="matrix(0.05,0,0,0.05,13.949999999999998,0)" xlink:href="#bp"/></g><path fill="#333" d="M108 0H70L1-190h34L89-25l56-165h34" id="bK"/><path fill="#333" d="M85-194c31 0 48 13 60 33l-1-100h32l1 261h-30c-2-10 0-23-3-31C134-8 116 4 85 4 32 4 16-35 15-94c0-66 23-100 70-100zm9 24c-40 0-46 34-46 75 0 40 6 74 45 74 42 0 51-32 51-76 0-42-9-74-50-73" id="bL"/><g id="B"><use transform="matrix(0.05,0,0,0.05,0,0)" xlink:href="#bw"/><use transform="matrix(0.05,0,0,0.05,9,0)" xlink:href="#bF"/><use transform="matrix(0.05,0,0,0.05,14.949999999999998,0)" xlink:href="#bt"/><use transform="matrix(0.05,0,0,0.05,19.95,0)" xlink:href="#bK"/><use transform="matrix(0.05,0,0,0.05,28.950000000000003,0)" xlink:href="#bH"/><use transform="matrix(0.05,0,0,0.05,38.95,0)" xlink:href="#bu"/><use transform="matrix(0.05,0,0,0.05,42.900000000000006,0)" xlink:href="#bL"/></g><path fill="#333" d="M232-93c-1 65-40 97-104 97C67 4 28-28 28-90v-158h33c8 89-33 224 67 224 102 0 64-133 71-224h33v155" id="bM"/><g id="C"><use transform="matrix(0.05,0,0,0.05,0,0)" xlink:href="#bM"/><use transform="matrix(0.05,0,0,0.05,12.950000000000001,0)" xlink:href="#bB"/><use transform="matrix(0.05,0,0,0.05,22.950000000000003,0)" xlink:href="#bL"/><use transform="matrix(0.05,0,0,0.05,32.95,0)" xlink:href="#bi"/><use transform="matrix(0.05,0,0,0.05,42.95,0)" xlink:href="#bp"/><use transform="matrix(0.05,0,0,0.05,47.95,0)" xlink:href="#bk"/><use transform="matrix(0.05,0,0,0.05,57.95,0)" xlink:href="#bE"/><use transform="matrix(0.05,0,0,0.05,63.900000000000006,0)" xlink:href="#bm"/><use transform="matrix(0.05,0,0,0.05,73.9,0)" xlink:href="#bH"/><use transform="matrix(0.05,0,0,0.05,83.9,0)" xlink:href="#bH"/><use transform="matrix(0.05,0,0,0.05,93.9,0)" xlink:href="#bx"/></g><path fill="#333" d="M114-163C36-179 61-72 57 0H25l-1-190h30c1 12-1 29 2 39 6-27 23-49 58-41v29" id="bN"/><path fill="#333" d="M33 0v-248h34V0H33" id="bO"/><path fill="#333" d="M84 4C-5 8 30-112 23-190h32v120c0 31 7 50 39 49 72-2 45-101 50-169h31l1 190h-30c-1-10 1-25-2-33-11 22-28 36-60 37" id="bP"/><g id="D"><use transform="matrix(0.05,0,0,0.05,0,0)" xlink:href="#bB"/><use transform="matrix(0.05,0,0,0.05,10,0)" xlink:href="#bN"/><use transform="matrix(0.05,0,0,0.05,15.949999999999998,0)" xlink:href="#bH"/><use transform="matrix(0.05,0,0,0.05,25.950000000000003,0)" xlink:href="#bo"/><use transform="matrix(0.05,0,0,0.05,34.95,0)" xlink:href="#bk"/><use transform="matrix(0.05,0,0,0.05,44.95,0)" xlink:href="#by"/><use transform="matrix(0.05,0,0,0.05,53.95,0)" xlink:href="#by"/><use transform="matrix(0.05,0,0,0.05,62.95,0)" xlink:href="#bO"/><use transform="matrix(0.05,0,0,0.05,67.95,0)" xlink:href="#bv"/><use transform="matrix(0.05,0,0,0.05,77.95,0)" xlink:href="#bB"/><use transform="matrix(0.05,0,0,0.05,87.95,0)" xlink:href="#bP"/><use transform="matrix(0.05,0,0,0.05,97.95,0)" xlink:href="#bp"/><use transform="matrix(0.05,0,0,0.05,102.95,0)" xlink:href="#bJ"/></g><path fill="#333" d="M30 0v-248h33v221h125V0H30" id="bQ"/><g id="E"><use transform="matrix(0.05,0,0,0.05,0,0)" xlink:href="#bQ"/><use transform="matrix(0.05,0,0,0.05,10,0)" xlink:href="#bk"/><use transform="matrix(0.05,0,0,0.05,20,0)" xlink:href="#bK"/><use transform="matrix(0.05,0,0,0.05,29,0)" xlink:href="#bk"/><use transform="matrix(0.05,0,0,0.05,39,0)" xlink:href="#bx"/></g><path fill="#333" d="M234-2c-28 10-62 0-77-18C117 19 8 12 13-65c3-43 29-61 60-76-25-40-17-114 47-108 35 3 59 15 59 50 0 44-40 53-71 69 14 26 32 50 51 72 14-21 24-43 30-72l26 8c-9 33-21 57-38 82 13 13 33 22 57 15v23zM97-151c25-10 52-18 56-48-1-18-13-29-33-29-42 0-39 50-23 77zM42-66c-3 51 71 58 98 28-20-24-41-51-56-80-23 10-40 24-42 52" id="bR"/><g id="F"><use transform="matrix(0.05,0,0,0.05,0,0)" xlink:href="#bR"/><use transform="matrix(0.05,0,0,0.05,12,0)" xlink:href="#bx"/><use transform="matrix(0.05,0,0,0.05,15.949999999999998,0)" xlink:href="#bk"/><use transform="matrix(0.05,0,0,0.05,25.950000000000003,0)" xlink:href="#bK"/><use transform="matrix(0.05,0,0,0.05,34.95,0)" xlink:href="#bk"/><use transform="matrix(0.05,0,0,0.05,44.95,0)" xlink:href="#bx"/><use transform="matrix(0.05,0,0,0.05,48.900000000000006,0)" xlink:href="#bF"/><use transform="matrix(0.05,0,0,0.05,54.85,0)" xlink:href="#bt"/><use transform="matrix(0.05,0,0,0.05,59.85,0)" xlink:href="#bK"/><use transform="matrix(0.05,0,0,0.05,68.85000000000001,0)" xlink:href="#bH"/><use transform="matrix(0.05,0,0,0.05,78.85000000000001,0)" xlink:href="#bu"/><use transform="matrix(0.05,0,0,0.05,82.80000000000001,0)" xlink:href="#bL"/></g><path fill="#333" d="M30-248c118-7 216 8 213 122C240-48 200 0 122 0H30v-248zM63-27c89 8 146-16 146-99s-60-101-146-95v194" id="bS"/><path fill="#333" d="M206 0h-36l-40-164L89 0H53L-1-190h32L70-26l43-164h34l41 164 42-164h31" id="bT"/><g id="G"><use transform="matrix(0.05,0,0,0.05,0,0)" xlink:href="#bS"/><use transform="matrix(0.05,0,0,0.05,12.950000000000001,0)" xlink:href="#bN"/><use transform="matrix(0.05,0,0,0.05,18.900000000000002,0)" xlink:href="#bi"/><use transform="matrix(0.05,0,0,0.05,28.900000000000002,0)" xlink:href="#bT"/><use transform="matrix(0.05,0,0,0.05,41.85,0)" xlink:href="#bE"/><use transform="matrix(0.05,0,0,0.05,47.800000000000004,0)" xlink:href="#bF"/><use transform="matrix(0.05,0,0,0.05,53.75,0)" xlink:href="#bt"/><use transform="matrix(0.05,0,0,0.05,58.75,0)" xlink:href="#bK"/><use transform="matrix(0.05,0,0,0.05,67.75,0)" xlink:href="#bH"/><use transform="matrix(0.05,0,0,0.05,77.75,0)" xlink:href="#bu"/><use transform="matrix(0.05,0,0,0.05,81.7,0)" xlink:href="#bL"/></g><path fill="#333" d="M143 0L79-87 56-68V0H24v-261h32v163l83-92h37l-77 82L181 0h-38" id="bU"/><path fill="#333" d="M177-190C167-65 218 103 67 71c-23-6-38-20-44-43l32-5c15 47 100 32 89-28v-30C133-14 115 1 83 1 29 1 15-40 15-95c0-56 16-97 71-98 29-1 48 16 59 35 1-10 0-23 2-32h30zM94-22c36 0 50-32 50-73 0-42-14-75-50-75-39 0-46 34-46 75s6 73 46 73" id="bV"/><g id="H"><use transform="matrix(0.05,0,0,0.05,0,0)" xlink:href="#bC"/><use transform="matrix(0.05,0,0,0.05,8.950000000000001,0)" xlink:href="#bi"/><use transform="matrix(0.05,0,0,0.05,18.950000000000003,0)" xlink:href="#bU"/><use transform="matrix(0.05,0,0,0.05,27.950000000000003,0)" xlink:href="#bk"/><use transform="matrix(0.05,0,0,0.05,37.95,0)" xlink:href="#bS"/><use transform="matrix(0.05,0,0,0.05,50.900000000000006,0)" xlink:href="#bi"/><use transform="matrix(0.05,0,0,0.05,60.900000000000006,0)" xlink:href="#bj"/><use transform="matrix(0.05,0,0,0.05,75.85000000000001,0)" xlink:href="#bi"/><use transform="matrix(0.05,0,0,0.05,85.85000000000001,0)" xlink:href="#bV"/><use transform="matrix(0.05,0,0,0.05,95.85000000000001,0)" xlink:href="#bk"/><use transform="matrix(0.05,0,0,0.05,105.85000000000001,0)" xlink:href="#bE"/><use transform="matrix(0.05,0,0,0.05,111.80000000000001,0)" xlink:href="#bu"/><use transform="matrix(0.05,0,0,0.05,115.75,0)" xlink:href="#bv"/><use transform="matrix(0.05,0,0,0.05,125.75,0)" xlink:href="#bp"/></g><g id="I"><use transform="matrix(0.05,0,0,0.05,0,0)" xlink:href="#bL"/><use transform="matrix(0.05,0,0,0.05,10,0)" xlink:href="#bu"/><use transform="matrix(0.05,0,0,0.05,13.949999999999998,0)" xlink:href="#bN"/><use transform="matrix(0.05,0,0,0.05,19.9,0)" xlink:href="#bk"/><use transform="matrix(0.05,0,0,0.05,29.899999999999995,0)" xlink:href="#bo"/><use transform="matrix(0.05,0,0,0.05,38.9,0)" xlink:href="#bp"/><use transform="matrix(0.05,0,0,0.05,43.9,0)" xlink:href="#bu"/><use transform="matrix(0.05,0,0,0.05,47.85,0)" xlink:href="#bH"/><use transform="matrix(0.05,0,0,0.05,57.85,0)" xlink:href="#bv"/><use transform="matrix(0.05,0,0,0.05,67.85,0)" xlink:href="#bz"/><use transform="matrix(0.05,0,0,0.05,79.85,0)" xlink:href="#bJ"/></g><g id="J"><use transform="matrix(0.05,0,0,0.05,0,0)" xlink:href="#bu"/><use transform="matrix(0.05,0,0,0.05,3.95,0)" xlink:href="#bv"/><use transform="matrix(0.05,0,0,0.05,13.949999999999998,0)" xlink:href="#bp"/></g><g id="K"><use transform="matrix(0.05,0,0,0.05,0,0)" xlink:href="#bL"/><use transform="matrix(0.05,0,0,0.05,10,0)" xlink:href="#bu"/><use transform="matrix(0.05,0,0,0.05,13.949999999999998,0)" xlink:href="#bN"/><use transform="matrix(0.05,0,0,0.05,19.9,0)" xlink:href="#bk"/><use transform="matrix(0.05,0,0,0.05,29.899999999999995,0)" xlink:href="#bo"/><use transform="matrix(0.05,0,0,0.05,38.9,0)" xlink:href="#bp"/><use transform="matrix(0.05,0,0,0.05,43.9,0)" xlink:href="#bu"/><use transform="matrix(0.05,0,0,0.05,47.85,0)" xlink:href="#bH"/><use transform="matrix(0.05,0,0,0.05,57.85,0)" xlink:href="#bv"/><use transform="matrix(0.05,0,0,0.05,67.85,0)" xlink:href="#bA"/><use transform="matrix(0.05,0,0,0.05,77.55,0)" xlink:href="#bJ"/></g><g id="L"><use transform="matrix(0.05,0,0,0.05,0,0)" xlink:href="#bL"/><use transform="matrix(0.05,0,0,0.05,10,0)" xlink:href="#bi"/><use transform="matrix(0.05,0,0,0.05,20,0)" xlink:href="#bj"/><use transform="matrix(0.05,0,0,0.05,34.95,0)" xlink:href="#bi"/><use transform="matrix(0.05,0,0,0.05,44.95,0)" xlink:href="#bV"/><use transform="matrix(0.05,0,0,0.05,54.95,0)" xlink:href="#bk"/><use transform="matrix(0.05,0,0,0.05,64.95,0)" xlink:href="#bF"/><use transform="matrix(0.05,0,0,0.05,70.9,0)" xlink:href="#bt"/><use transform="matrix(0.05,0,0,0.05,75.9,0)" xlink:href="#bK"/><use transform="matrix(0.05,0,0,0.05,84.9,0)" xlink:href="#bH"/><use transform="matrix(0.05,0,0,0.05,94.9,0)" xlink:href="#bu"/><use transform="matrix(0.05,0,0,0.05,98.85000000000001,0)" xlink:href="#bL"/></g><path fill="#333" d="M205 0l-28-72H64L36 0H1l101-248h38L239 0h-34zm-38-99l-47-123c-12 45-31 82-46 123h93" id="bW"/><g id="M"><use transform="matrix(0.05,0,0,0.05,0,0)" xlink:href="#bI"/><use transform="matrix(0.05,0,0,0.05,12,0)" xlink:href="#bk"/><use transform="matrix(0.05,0,0,0.05,22,0)" xlink:href="#bp"/><use transform="matrix(0.05,0,0,0.05,27,0)" xlink:href="#bW"/><use transform="matrix(0.05,0,0,0.05,39,0)" xlink:href="#bo"/><use transform="matrix(0.05,0,0,0.05,48,0)" xlink:href="#bp"/><use transform="matrix(0.05,0,0,0.05,53,0)" xlink:href="#bu"/><use transform="matrix(0.05,0,0,0.05,56.95,0)" xlink:href="#bK"/><use transform="matrix(0.05,0,0,0.05,65.95,0)" xlink:href="#bk"/><use transform="matrix(0.05,0,0,0.05,75.95,0)" xlink:href="#bE"/><use transform="matrix(0.05,0,0,0.05,81.9,0)" xlink:href="#bm"/><use transform="matrix(0.05,0,0,0.05,91.9,0)" xlink:href="#bH"/><use transform="matrix(0.05,0,0,0.05,101.9,0)" xlink:href="#bH"/><use transform="matrix(0.05,0,0,0.05,111.9,0)" xlink:href="#bx"/></g><g id="N"><use transform="matrix(0.05,0,0,0.05,0,0)" xlink:href="#bu"/><use transform="matrix(0.05,0,0,0.05,3.95,0)" xlink:href="#by"/><use transform="matrix(0.05,0,0,0.05,12.949999999999998,0)" xlink:href="#bW"/><use transform="matrix(0.05,0,0,0.05,24.95,0)" xlink:href="#bo"/><use transform="matrix(0.05,0,0,0.05,33.95,0)" xlink:href="#bp"/><use transform="matrix(0.05,0,0,0.05,38.95,0)" xlink:href="#bu"/><use transform="matrix(0.05,0,0,0.05,42.900000000000006,0)" xlink:href="#bK"/><use transform="matrix(0.05,0,0,0.05,51.900000000000006,0)" xlink:href="#bk"/><use transform="matrix(0.05,0,0,0.05,61.900000000000006,0)" xlink:href="#bF"/><use transform="matrix(0.05,0,0,0.05,67.85000000000001,0)" xlink:href="#bt"/><use transform="matrix(0.05,0,0,0.05,72.85000000000001,0)" xlink:href="#bK"/><use transform="matrix(0.05,0,0,0.05,81.85000000000001,0)" xlink:href="#bH"/><use transform="matrix(0.05,0,0,0.05,91.85000000000001,0)" xlink:href="#bu"/><use transform="matrix(0.05,0,0,0.05,95.80000000000001,0)" xlink:href="#bL"/></g><path fill="#333" d="M209 0H11v-25l151-195H24v-28h176v25L50-27h159V0" id="bX"/><g id="O"><use transform="matrix(0.05,0,0,0.05,0,0)" xlink:href="#bX"/><use transform="matrix(0.05,0,0,0.05,10.950000000000001,0)" xlink:href="#bH"/><use transform="matrix(0.05,0,0,0.05,20.950000000000003,0)" xlink:href="#bj"/><use transform="matrix(0.05,0,0,0.05,35.900000000000006,0)" xlink:href="#bm"/><use transform="matrix(0.05,0,0,0.05,45.900000000000006,0)" xlink:href="#bu"/><use transform="matrix(0.05,0,0,0.05,49.85000000000001,0)" xlink:href="#bk"/></g><g id="P"><use transform="matrix(0.05,0,0,0.05,0,0)" xlink:href="#bj"/><use transform="matrix(0.05,0,0,0.05,14.950000000000001,0)" xlink:href="#br"/><use transform="matrix(0.05,0,0,0.05,24.950000000000003,0)" xlink:href="#by"/><use transform="matrix(0.05,0,0,0.05,33.95,0)" xlink:href="#bp"/><use transform="matrix(0.05,0,0,0.05,38.95,0)" xlink:href="#bi"/><use transform="matrix(0.05,0,0,0.05,48.95,0)" xlink:href="#bp"/><use transform="matrix(0.05,0,0,0.05,53.95,0)" xlink:href="#bk"/><use transform="matrix(0.05,0,0,0.05,63.95,0)" xlink:href="#bt"/><use transform="matrix(0.05,0,0,0.05,68.95,0)" xlink:href="#bI"/><use transform="matrix(0.05,0,0,0.05,80.95,0)" xlink:href="#bp"/><use transform="matrix(0.05,0,0,0.05,85.95,0)" xlink:href="#bi"/><use transform="matrix(0.05,0,0,0.05,95.95,0)" xlink:href="#bp"/><use transform="matrix(0.05,0,0,0.05,100.95,0)" xlink:href="#bk"/></g><g id="Q"><use transform="matrix(0.05,0,0,0.05,0,0)" xlink:href="#bM"/><use transform="matrix(0.05,0,0,0.05,12.950000000000001,0)" xlink:href="#bB"/><use transform="matrix(0.05,0,0,0.05,22.950000000000003,0)" xlink:href="#bL"/><use transform="matrix(0.05,0,0,0.05,32.95,0)" xlink:href="#bi"/><use transform="matrix(0.05,0,0,0.05,42.95,0)" xlink:href="#bp"/><use transform="matrix(0.05,0,0,0.05,47.95,0)" xlink:href="#bk"/><use transform="matrix(0.05,0,0,0.05,57.95,0)" xlink:href="#bE"/><use transform="matrix(0.05,0,0,0.05,63.900000000000006,0)" xlink:href="#bm"/><use transform="matrix(0.05,0,0,0.05,73.9,0)" xlink:href="#bH"/><use transform="matrix(0.05,0,0,0.05,83.9,0)" xlink:href="#bH"/><use transform="matrix(0.05,0,0,0.05,93.9,0)" xlink:href="#bx"/></g><g id="R"><use transform="matrix(0.05,0,0,0.05,0,0)" xlink:href="#bB"/><use transform="matrix(0.05,0,0,0.05,10,0)" xlink:href="#bN"/><use transform="matrix(0.05,0,0,0.05,15.949999999999998,0)" xlink:href="#bH"/><use transform="matrix(0.05,0,0,0.05,25.950000000000003,0)" xlink:href="#bo"/><use transform="matrix(0.05,0,0,0.05,34.95,0)" xlink:href="#bk"/><use transform="matrix(0.05,0,0,0.05,44.95,0)" xlink:href="#by"/><use transform="matrix(0.05,0,0,0.05,53.95,0)" xlink:href="#by"/><use transform="matrix(0.05,0,0,0.05,62.95,0)" xlink:href="#bO"/><use transform="matrix(0.05,0,0,0.05,67.95,0)" xlink:href="#bv"/><use transform="matrix(0.05,0,0,0.05,77.95,0)" xlink:href="#bB"/><use transform="matrix(0.05,0,0,0.05,87.95,0)" xlink:href="#bP"/><use transform="matrix(0.05,0,0,0.05,97.95,0)" xlink:href="#bp"/><use transform="matrix(0.05,0,0,0.05,102.95,0)" xlink:href="#bJ"/></g><g id="S"><use transform="matrix(0.05,0,0,0.05,0,0)" xlink:href="#bQ"/><use transform="matrix(0.05,0,0,0.05,10,0)" xlink:href="#bk"/><use transform="matrix(0.05,0,0,0.05,20,0)" xlink:href="#bK"/><use transform="matrix(0.05,0,0,0.05,29,0)" xlink:href="#bk"/><use transform="matrix(0.05,0,0,0.05,39,0)" xlink:href="#bx"/></g><g id="T"><use transform="matrix(0.05,0,0,0.05,0,0)" xlink:href="#bR"/><use transform="matrix(0.05,0,0,0.05,12,0)" xlink:href="#bx"/><use transform="matrix(0.05,0,0,0.05,15.949999999999998,0)" xlink:href="#bk"/><use transform="matrix(0.05,0,0,0.05,25.950000000000003,0)" xlink:href="#bK"/><use transform="matrix(0.05,0,0,0.05,34.95,0)" xlink:href="#bk"/><use transform="matrix(0.05,0,0,0.05,44.95,0)" xlink:href="#bx"/><use transform="matrix(0.05,0,0,0.05,48.900000000000006,0)" xlink:href="#bF"/><use transform="matrix(0.05,0,0,0.05,54.85,0)" xlink:href="#bt"/><use transform="matrix(0.05,0,0,0.05,59.85,0)" xlink:href="#bK"/><use transform="matrix(0.05,0,0,0.05,68.85000000000001,0)" xlink:href="#bH"/><use transform="matrix(0.05,0,0,0.05,78.85000000000001,0)" xlink:href="#bu"/><use transform="matrix(0.05,0,0,0.05,82.80000000000001,0)" xlink:href="#bL"/></g><g id="U"><use transform="matrix(0.05,0,0,0.05,0,0)" xlink:href="#bL"/><use transform="matrix(0.05,0,0,0.05,10,0)" xlink:href="#bi"/><use transform="matrix(0.05,0,0,0.05,20,0)" xlink:href="#bj"/><use transform="matrix(0.05,0,0,0.05,34.95,0)" xlink:href="#bi"/><use transform="matrix(0.05,0,0,0.05,44.95,0)" xlink:href="#bV"/><use transform="matrix(0.05,0,0,0.05,54.95,0)" xlink:href="#bk"/><use transform="matrix(0.05,0,0,0.05,64.95,0)" xlink:href="#bF"/><use transform="matrix(0.05,0,0,0.05,70.9,0)" xlink:href="#bt"/><use transform="matrix(0.05,0,0,0.05,75.9,0)" xlink:href="#bK"/><use transform="matrix(0.05,0,0,0.05,84.9,0)" xlink:href="#bH"/><use transform="matrix(0.05,0,0,0.05,94.9,0)" xlink:href="#bu"/><use transform="matrix(0.05,0,0,0.05,98.85000000000001,0)" xlink:href="#bL"/></g><g id="V"><use transform="matrix(0.05,0,0,0.05,0,0)" xlink:href="#bh"/><use transform="matrix(0.05,0,0,0.05,14,0)" xlink:href="#bi"/><use transform="matrix(0.05,0,0,0.05,24,0)" xlink:href="#bj"/><use transform="matrix(0.05,0,0,0.05,38.95,0)" xlink:href="#bk"/><use transform="matrix(0.05,0,0,0.05,48.95,0)" xlink:href="#bl"/><use transform="matrix(0.05,0,0,0.05,62.95,0)" xlink:href="#bm"/><use transform="matrix(0.05,0,0,0.05,72.95,0)" xlink:href="#bn"/><use transform="matrix(0.05,0,0,0.05,76.9,0)" xlink:href="#bk"/><use transform="matrix(0.05,0,0,0.05,86.9,0)" xlink:href="#bo"/><use transform="matrix(0.05,0,0,0.05,95.9,0)" xlink:href="#bp"/><use transform="matrix(0.05,0,0,0.05,100.9,0)" xlink:href="#bI"/><use transform="matrix(0.05,0,0,0.05,112.9,0)" xlink:href="#bp"/><use transform="matrix(0.05,0,0,0.05,117.9,0)" xlink:href="#bi"/><use transform="matrix(0.05,0,0,0.05,127.9,0)" xlink:href="#bp"/><use transform="matrix(0.05,0,0,0.05,132.9,0)" xlink:href="#bk"/></g><g id="W"><use transform="matrix(0.05,0,0,0.05,0,0)" xlink:href="#bR"/><use transform="matrix(0.05,0,0,0.05,12,0)" xlink:href="#bx"/><use transform="matrix(0.05,0,0,0.05,15.949999999999998,0)" xlink:href="#bk"/><use transform="matrix(0.05,0,0,0.05,25.950000000000003,0)" xlink:href="#bK"/><use transform="matrix(0.05,0,0,0.05,34.95,0)" xlink:href="#bk"/><use transform="matrix(0.05,0,0,0.05,44.95,0)" xlink:href="#bx"/><use transform="matrix(0.05,0,0,0.05,48.900000000000006,0)" xlink:href="#bF"/><use transform="matrix(0.05,0,0,0.05,54.85,0)" xlink:href="#bt"/><use transform="matrix(0.05,0,0,0.05,59.85,0)" xlink:href="#bh"/><use transform="matrix(0.05,0,0,0.05,73.85000000000001,0)" xlink:href="#bi"/><use transform="matrix(0.05,0,0,0.05,83.85000000000001,0)" xlink:href="#bj"/><use transform="matrix(0.05,0,0,0.05,98.80000000000001,0)" xlink:href="#bk"/><use transform="matrix(0.05,0,0,0.05,108.80000000000001,0)" xlink:href="#bl"/><use transform="matrix(0.05,0,0,0.05,122.80000000000001,0)" xlink:href="#bm"/><use transform="matrix(0.05,0,0,0.05,132.8,0)" xlink:href="#bn"/><use transform="matrix(0.05,0,0,0.05,136.75,0)" xlink:href="#bk"/><use transform="matrix(0.05,0,0,0.05,146.75,0)" xlink:href="#bo"/><use transform="matrix(0.05,0,0,0.05,155.75,0)" xlink:href="#bp"/><use transform="matrix(0.05,0,0,0.05,160.75,0)" xlink:href="#bI"/><use transform="matrix(0.05,0,0,0.05,172.75,0)" xlink:href="#bp"/><use transform="matrix(0.05,0,0,0.05,177.75,0)" xlink:href="#bi"/><use transform="matrix(0.05,0,0,0.05,187.75,0)" xlink:href="#bp"/><use transform="matrix(0.05,0,0,0.05,192.75,0)" xlink:href="#bk"/></g><path fill="#333" d="M212-179c-10-28-35-45-73-45-59 0-87 40-87 99 0 60 29 101 89 101 43 0 62-24 78-52l27 14C228-24 195 4 139 4 59 4 22-46 18-125c-6-104 99-153 187-111 19 9 31 26 39 46" id="bY"/><path fill="#333" d="M106-169C34-169 62-67 57 0H25v-261h32l-1 103c12-21 28-36 61-36 89 0 53 116 60 194h-32v-121c2-32-8-49-39-48" id="bZ"/><g id="X"><use transform="matrix(0.05,0,0,0.05,0,0)" xlink:href="#bY"/><use transform="matrix(0.05,0,0,0.05,12.950000000000001,0)" xlink:href="#bZ"/><use transform="matrix(0.05,0,0,0.05,22.950000000000003,0)" xlink:href="#bi"/><use transform="matrix(0.05,0,0,0.05,32.95,0)" xlink:href="#by"/><use transform="matrix(0.05,0,0,0.05,41.95,0)" xlink:href="#bu"/><use transform="matrix(0.05,0,0,0.05,45.900000000000006,0)" xlink:href="#bv"/><use transform="matrix(0.05,0,0,0.05,55.900000000000006,0)" xlink:href="#bV"/><use transform="matrix(0.05,0,0,0.05,65.9,0)" xlink:href="#bI"/><use transform="matrix(0.05,0,0,0.05,77.9,0)" xlink:href="#bp"/><use transform="matrix(0.05,0,0,0.05,82.9,0)" xlink:href="#bi"/><use transform="matrix(0.05,0,0,0.05,92.9,0)" xlink:href="#bp"/><use transform="matrix(0.05,0,0,0.05,97.9,0)" xlink:href="#bk"/></g><g id="Y"><use transform="matrix(0.05,0,0,0.05,0,0)" xlink:href="#bj"/><use transform="matrix(0.05,0,0,0.05,14.950000000000001,0)" xlink:href="#br"/><use transform="matrix(0.05,0,0,0.05,24.950000000000003,0)" xlink:href="#bP"/><use transform="matrix(0.05,0,0,0.05,34.95,0)" xlink:href="#bB"/><use transform="matrix(0.05,0,0,0.05,44.95,0)" xlink:href="#bL"/><use transform="matrix(0.05,0,0,0.05,54.95,0)" xlink:href="#bi"/><use transform="matrix(0.05,0,0,0.05,64.95,0)" xlink:href="#bp"/><use transform="matrix(0.05,0,0,0.05,69.95,0)" xlink:href="#bk"/><use transform="matrix(0.05,0,0,0.05,79.95,0)" xlink:href="#bY"/><use transform="matrix(0.05,0,0,0.05,92.9,0)" xlink:href="#bH"/><use transform="matrix(0.05,0,0,0.05,102.9,0)" xlink:href="#bP"/><use transform="matrix(0.05,0,0,0.05,112.9,0)" xlink:href="#bv"/><use transform="matrix(0.05,0,0,0.05,122.9,0)" xlink:href="#bp"/><use transform="matrix(0.05,0,0,0.05,127.9,0)" xlink:href="#bt"/><use transform="matrix(0.05,0,0,0.05,132.9,0)" xlink:href="#bu"/><use transform="matrix(0.05,0,0,0.05,136.85,0)" xlink:href="#bv"/><use transform="matrix(0.05,0,0,0.05,146.85,0)" xlink:href="#bp"/></g><g id="Z"><use transform="matrix(0.05,0,0,0.05,0,0)" xlink:href="#bM"/><use transform="matrix(0.05,0,0,0.05,12.950000000000001,0)" xlink:href="#bB"/><use transform="matrix(0.05,0,0,0.05,22.950000000000003,0)" xlink:href="#bL"/><use transform="matrix(0.05,0,0,0.05,32.95,0)" xlink:href="#bi"/><use transform="matrix(0.05,0,0,0.05,42.95,0)" xlink:href="#bp"/><use transform="matrix(0.05,0,0,0.05,47.95,0)" xlink:href="#bk"/><use transform="matrix(0.05,0,0,0.05,57.95,0)" xlink:href="#bE"/><use transform="matrix(0.05,0,0,0.05,63.900000000000006,0)" xlink:href="#bm"/><use transform="matrix(0.05,0,0,0.05,73.9,0)" xlink:href="#bH"/><use transform="matrix(0.05,0,0,0.05,83.9,0)" xlink:href="#bH"/><use transform="matrix(0.05,0,0,0.05,93.9,0)" xlink:href="#bx"/></g><g id="aa"><use transform="matrix(0.05,0,0,0.05,0,0)" xlink:href="#bQ"/><use transform="matrix(0.05,0,0,0.05,10,0)" xlink:href="#bk"/><use transform="matrix(0.05,0,0,0.05,20,0)" xlink:href="#bK"/><use transform="matrix(0.05,0,0,0.05,29,0)" xlink:href="#bk"/><use transform="matrix(0.05,0,0,0.05,39,0)" xlink:href="#bx"/></g><g id="ab"><use transform="matrix(0.05,0,0,0.05,0,0)" xlink:href="#bR"/><use transform="matrix(0.05,0,0,0.05,12,0)" xlink:href="#bx"/><use transform="matrix(0.05,0,0,0.05,15.949999999999998,0)" xlink:href="#bk"/><use transform="matrix(0.05,0,0,0.05,25.950000000000003,0)" xlink:href="#bK"/><use transform="matrix(0.05,0,0,0.05,34.95,0)" xlink:href="#bk"/><use transform="matrix(0.05,0,0,0.05,44.95,0)" xlink:href="#bx"/><use transform="matrix(0.05,0,0,0.05,48.900000000000006,0)" xlink:href="#bF"/><use transform="matrix(0.05,0,0,0.05,54.85,0)" xlink:href="#bt"/><use transform="matrix(0.05,0,0,0.05,59.85,0)" xlink:href="#bh"/><use transform="matrix(0.05,0,0,0.05,73.85000000000001,0)" xlink:href="#bi"/><use transform="matrix(0.05,0,0,0.05,83.85000000000001,0)" xlink:href="#bj"/><use transform="matrix(0.05,0,0,0.05,98.80000000000001,0)" xlink:href="#bk"/><use transform="matrix(0.05,0,0,0.05,108.80000000000001,0)" xlink:href="#bl"/><use transform="matrix(0.05,0,0,0.05,122.80000000000001,0)" xlink:href="#bm"/><use transform="matrix(0.05,0,0,0.05,132.8,0)" xlink:href="#bn"/><use transform="matrix(0.05,0,0,0.05,136.75,0)" xlink:href="#bk"/><use transform="matrix(0.05,0,0,0.05,146.75,0)" xlink:href="#bo"/><use transform="matrix(0.05,0,0,0.05,155.75,0)" xlink:href="#bp"/><use transform="matrix(0.05,0,0,0.05,160.75,0)" xlink:href="#bI"/><use transform="matrix(0.05,0,0,0.05,172.75,0)" xlink:href="#bp"/><use transform="matrix(0.05,0,0,0.05,177.75,0)" xlink:href="#bi"/><use transform="matrix(0.05,0,0,0.05,187.75,0)" xlink:href="#bp"/><use transform="matrix(0.05,0,0,0.05,192.75,0)" xlink:href="#bk"/></g><g id="ac"><use transform="matrix(0.05,0,0,0.05,0,0)" xlink:href="#bS"/><use transform="matrix(0.05,0,0,0.05,12.950000000000001,0)" xlink:href="#bN"/><use transform="matrix(0.05,0,0,0.05,18.900000000000002,0)" xlink:href="#bi"/><use transform="matrix(0.05,0,0,0.05,28.900000000000002,0)" xlink:href="#bT"/><use transform="matrix(0.05,0,0,0.05,41.85,0)" xlink:href="#bE"/><use transform="matrix(0.05,0,0,0.05,47.800000000000004,0)" xlink:href="#bF"/><use transform="matrix(0.05,0,0,0.05,53.75,0)" xlink:href="#bt"/><use transform="matrix(0.05,0,0,0.05,58.75,0)" xlink:href="#bK"/><use transform="matrix(0.05,0,0,0.05,67.75,0)" xlink:href="#bH"/><use transform="matrix(0.05,0,0,0.05,77.75,0)" xlink:href="#bu"/><use transform="matrix(0.05,0,0,0.05,81.7,0)" xlink:href="#bL"/></g><path fill="#333" d="M266 0h-40l-56-210L115 0H75L2-248h35L96-30l15-64 43-154h32l59 218 59-218h35" id="ca"/><g id="ad"><use transform="matrix(0.05,0,0,0.05,0,0)" xlink:href="#ca"/><use transform="matrix(0.05,0,0,0.05,16.3,0)" xlink:href="#bi"/><use transform="matrix(0.05,0,0,0.05,26.3,0)" xlink:href="#bv"/><use transform="matrix(0.05,0,0,0.05,36.3,0)" xlink:href="#bL"/><use transform="matrix(0.05,0,0,0.05,46.3,0)" xlink:href="#bk"/><use transform="matrix(0.05,0,0,0.05,56.29999999999999,0)" xlink:href="#bN"/><use transform="matrix(0.05,0,0,0.05,62.25,0)" xlink:href="#bu"/><use transform="matrix(0.05,0,0,0.05,66.2,0)" xlink:href="#bv"/><use transform="matrix(0.05,0,0,0.05,76.2,0)" xlink:href="#bV"/><use transform="matrix(0.05,0,0,0.05,86.2,0)" xlink:href="#bI"/><use transform="matrix(0.05,0,0,0.05,98.2,0)" xlink:href="#bp"/><use transform="matrix(0.05,0,0,0.05,103.2,0)" xlink:href="#bi"/><use transform="matrix(0.05,0,0,0.05,113.2,0)" xlink:href="#bp"/><use transform="matrix(0.05,0,0,0.05,118.2,0)" xlink:href="#bk"/></g><g id="ae"><use transform="matrix(0.05,0,0,0.05,0,0)" xlink:href="#bS"/><use transform="matrix(0.05,0,0,0.05,12.950000000000001,0)" xlink:href="#bN"/><use transform="matrix(0.05,0,0,0.05,18.900000000000002,0)" xlink:href="#bi"/><use transform="matrix(0.05,0,0,0.05,28.900000000000002,0)" xlink:href="#bT"/><use transform="matrix(0.05,0,0,0.05,41.85,0)" xlink:href="#bE"/><use transform="matrix(0.05,0,0,0.05,47.800000000000004,0)" xlink:href="#bF"/><use transform="matrix(0.05,0,0,0.05,53.75,0)" xlink:href="#bt"/><use transform="matrix(0.05,0,0,0.05,58.75,0)" xlink:href="#bK"/><use transform="matrix(0.05,0,0,0.05,67.75,0)" xlink:href="#bH"/><use transform="matrix(0.05,0,0,0.05,77.75,0)" xlink:href="#bu"/><use transform="matrix(0.05,0,0,0.05,81.7,0)" xlink:href="#bL"/></g><g id="af"><use transform="matrix(0.05,0,0,0.05,0,0)" xlink:href="#bh"/><use transform="matrix(0.05,0,0,0.05,14,0)" xlink:href="#bk"/><use transform="matrix(0.05,0,0,0.05,24,0)" xlink:href="#bp"/><use transform="matrix(0.05,0,0,0.05,29,0)" xlink:href="#bS"/><use transform="matrix(0.05,0,0,0.05,41.95,0)" xlink:href="#bu"/><use transform="matrix(0.05,0,0,0.05,45.900000000000006,0)" xlink:href="#by"/><use transform="matrix(0.05,0,0,0.05,54.900000000000006,0)" xlink:href="#bp"/><use transform="matrix(0.05,0,0,0.05,59.900000000000006,0)" xlink:href="#bi"/><use transform="matrix(0.05,0,0,0.05,69.9,0)" xlink:href="#bv"/><use transform="matrix(0.05,0,0,0.05,79.9,0)" xlink:href="#bo"/><use transform="matrix(0.05,0,0,0.05,88.9,0)" xlink:href="#bk"/><use transform="matrix(0.05,0,0,0.05,98.9,0)" xlink:href="#bE"/><use transform="matrix(0.05,0,0,0.05,104.85000000000001,0)" xlink:href="#bu"/><use transform="matrix(0.05,0,0,0.05,108.80000000000001,0)" xlink:href="#bv"/><use transform="matrix(0.05,0,0,0.05,118.80000000000001,0)" xlink:href="#bp"/></g><g id="ag"><use transform="matrix(0.05,0,0,0.05,0,0)" xlink:href="#bi"/><use transform="matrix(0.05,0,0,0.05,10,0)" xlink:href="#bz"/><use transform="matrix(0.05,0,0,0.05,22,0)" xlink:href="#bJ"/></g><g id="ah"><use transform="matrix(0.05,0,0,0.05,0,0)" xlink:href="#bi"/><use transform="matrix(0.05,0,0,0.05,10,0)" xlink:href="#bA"/><use transform="matrix(0.05,0,0,0.05,19.7,0)" xlink:href="#bJ"/></g><g id="ai"><use transform="matrix(0.05,0,0,0.05,0,0)" xlink:href="#bm"/><use transform="matrix(0.05,0,0,0.05,10,0)" xlink:href="#bz"/><use transform="matrix(0.05,0,0,0.05,22,0)" xlink:href="#bJ"/></g><g id="aj"><use transform="matrix(0.05,0,0,0.05,0,0)" xlink:href="#bm"/><use transform="matrix(0.05,0,0,0.05,10,0)" xlink:href="#bA"/><use transform="matrix(0.05,0,0,0.05,22,0)" xlink:href="#bF"/><use transform="matrix(0.05,0,0,0.05,27.950000000000003,0)" xlink:href="#bt"/><use transform="matrix(0.05,0,0,0.05,32.95,0)" xlink:href="#bu"/><use transform="matrix(0.05,0,0,0.05,36.900000000000006,0)" xlink:href="#bv"/><use transform="matrix(0.05,0,0,0.05,46.900000000000006,0)" xlink:href="#bp"/></g><g id="ak"><use transform="matrix(0.05,0,0,0.05,0,0)" xlink:href="#bI"/><use transform="matrix(0.05,0,0,0.05,12,0)" xlink:href="#bB"/><use transform="matrix(0.05,0,0,0.05,22,0)" xlink:href="#bu"/><use transform="matrix(0.05,0,0,0.05,25.950000000000003,0)" xlink:href="#bp"/><use transform="matrix(0.05,0,0,0.05,30.950000000000003,0)" xlink:href="#bp"/><use transform="matrix(0.05,0,0,0.05,35.95,0)" xlink:href="#bu"/><use transform="matrix(0.05,0,0,0.05,39.900000000000006,0)" xlink:href="#bv"/><use transform="matrix(0.05,0,0,0.05,49.900000000000006,0)" xlink:href="#bV"/></g><g id="al"><use transform="matrix(0.05,0,0,0.05,0,0)" xlink:href="#bY"/><use transform="matrix(0.05,0,0,0.05,12.950000000000001,0)" xlink:href="#bN"/><use transform="matrix(0.05,0,0,0.05,18.900000000000002,0)" xlink:href="#bk"/><use transform="matrix(0.05,0,0,0.05,28.900000000000002,0)" xlink:href="#bi"/><use transform="matrix(0.05,0,0,0.05,38.900000000000006,0)" xlink:href="#bp"/><use transform="matrix(0.05,0,0,0.05,43.900000000000006,0)" xlink:href="#bP"/><use transform="matrix(0.05,0,0,0.05,53.900000000000006,0)" xlink:href="#bN"/><use transform="matrix(0.05,0,0,0.05,59.85,0)" xlink:href="#bk"/></g><g id="am"><use transform="matrix(0.05,0,0,0.05,0,0)" xlink:href="#bj"/><use transform="matrix(0.05,0,0,0.05,14.950000000000001,0)" xlink:href="#br"/><use transform="matrix(0.05,0,0,0.05,24.950000000000003,0)" xlink:href="#by"/><use transform="matrix(0.05,0,0,0.05,33.95,0)" xlink:href="#bp"/><use transform="matrix(0.05,0,0,0.05,38.95,0)" xlink:href="#bi"/><use transform="matrix(0.05,0,0,0.05,48.95,0)" xlink:href="#bp"/><use transform="matrix(0.05,0,0,0.05,53.95,0)" xlink:href="#bk"/><use transform="matrix(0.05,0,0,0.05,63.95,0)" xlink:href="#bt"/><use transform="matrix(0.05,0,0,0.05,68.95,0)" xlink:href="#bI"/><use transform="matrix(0.05,0,0,0.05,80.95,0)" xlink:href="#bp"/><use transform="matrix(0.05,0,0,0.05,85.95,0)" xlink:href="#bi"/><use transform="matrix(0.05,0,0,0.05,95.95,0)" xlink:href="#bp"/><use transform="matrix(0.05,0,0,0.05,100.95,0)" xlink:href="#bk"/></g><g id="an"><use transform="matrix(0.05,0,0,0.05,0,0)" xlink:href="#bj"/><use transform="matrix(0.05,0,0,0.05,14.950000000000001,0)" xlink:href="#br"/><use transform="matrix(0.05,0,0,0.05,24.950000000000003,0)" xlink:href="#bL"/><use transform="matrix(0.05,0,0,0.05,34.95,0)" xlink:href="#bu"/><use transform="matrix(0.05,0,0,0.05,38.900000000000006,0)" xlink:href="#bN"/><use transform="matrix(0.05,0,0,0.05,44.85000000000001,0)" xlink:href="#bk"/><use transform="matrix(0.05,0,0,0.05,54.85,0)" xlink:href="#bo"/><use transform="matrix(0.05,0,0,0.05,63.85,0)" xlink:href="#bp"/><use transform="matrix(0.05,0,0,0.05,68.85000000000001,0)" xlink:href="#bu"/><use transform="matrix(0.05,0,0,0.05,72.80000000000001,0)" xlink:href="#bH"/><use transform="matrix(0.05,0,0,0.05,82.80000000000001,0)" xlink:href="#bv"/><use transform="matrix(0.05,0,0,0.05,92.80000000000001,0)" xlink:href="#bz"/><use transform="matrix(0.05,0,0,0.05,104.80000000000001,0)" xlink:href="#bt"/><use transform="matrix(0.05,0,0,0.05,109.80000000000001,0)" xlink:href="#bu"/><use transform="matrix(0.05,0,0,0.05,113.75,0)" xlink:href="#bv"/><use transform="matrix(0.05,0,0,0.05,123.75,0)" xlink:href="#bp"/></g><g id="ao"><use transform="matrix(0.05,0,0,0.05,0,0)" xlink:href="#bj"/><use transform="matrix(0.05,0,0,0.05,14.950000000000001,0)" xlink:href="#br"/><use transform="matrix(0.05,0,0,0.05,24.950000000000003,0)" xlink:href="#bL"/><use transform="matrix(0.05,0,0,0.05,34.95,0)" xlink:href="#bu"/><use transform="matrix(0.05,0,0,0.05,38.900000000000006,0)" xlink:href="#bN"/><use transform="matrix(0.05,0,0,0.05,44.85000000000001,0)" xlink:href="#bk"/><use transform="matrix(0.05,0,0,0.05,54.85,0)" xlink:href="#bo"/><use transform="matrix(0.05,0,0,0.05,63.85,0)" xlink:href="#bp"/><use transform="matrix(0.05,0,0,0.05,68.85000000000001,0)" xlink:href="#bu"/><use transform="matrix(0.05,0,0,0.05,72.80000000000001,0)" xlink:href="#bH"/><use transform="matrix(0.05,0,0,0.05,82.80000000000001,0)" xlink:href="#bv"/><use transform="matrix(0.05,0,0,0.05,92.80000000000001,0)" xlink:href="#bA"/><use transform="matrix(0.05,0,0,0.05,103.80000000000001,0)" xlink:href="#bt"/><use transform="matrix(0.05,0,0,0.05,108.80000000000001,0)" xlink:href="#bu"/><use transform="matrix(0.05,0,0,0.05,112.75,0)" xlink:href="#bv"/><use transform="matrix(0.05,0,0,0.05,122.75,0)" xlink:href="#bp"/></g><g id="ap"><use transform="matrix(0.05,0,0,0.05,0,0)" xlink:href="#bW"/><use transform="matrix(0.05,0,0,0.05,12,0)" xlink:href="#bu"/><use transform="matrix(0.05,0,0,0.05,15.949999999999998,0)" xlink:href="#bj"/><use transform="matrix(0.05,0,0,0.05,30.899999999999995,0)" xlink:href="#bu"/><use transform="matrix(0.05,0,0,0.05,34.85,0)" xlink:href="#bv"/><use transform="matrix(0.05,0,0,0.05,44.85,0)" xlink:href="#bV"/><use transform="matrix(0.05,0,0,0.05,54.85,0)" xlink:href="#bI"/><use transform="matrix(0.05,0,0,0.05,66.85,0)" xlink:href="#bp"/><use transform="matrix(0.05,0,0,0.05,71.85,0)" xlink:href="#bi"/><use transform="matrix(0.05,0,0,0.05,81.85,0)" xlink:href="#bp"/><use transform="matrix(0.05,0,0,0.05,86.85,0)" xlink:href="#bk"/></g><g id="aq"><use transform="matrix(0.05,0,0,0.05,0,0)" xlink:href="#bI"/><use transform="matrix(0.05,0,0,0.05,12,0)" xlink:href="#bB"/><use transform="matrix(0.05,0,0,0.05,22,0)" xlink:href="#bu"/><use transform="matrix(0.05,0,0,0.05,25.950000000000003,0)" xlink:href="#bp"/><use transform="matrix(0.05,0,0,0.05,30.950000000000003,0)" xlink:href="#bp"/><use transform="matrix(0.05,0,0,0.05,35.95,0)" xlink:href="#bu"/><use transform="matrix(0.05,0,0,0.05,39.900000000000006,0)" xlink:href="#bv"/><use transform="matrix(0.05,0,0,0.05,49.900000000000006,0)" xlink:href="#bV"/><use transform="matrix(0.05,0,0,0.05,59.900000000000006,0)" xlink:href="#bI"/><use transform="matrix(0.05,0,0,0.05,71.9,0)" xlink:href="#bp"/><use transform="matrix(0.05,0,0,0.05,76.9,0)" xlink:href="#bi"/><use transform="matrix(0.05,0,0,0.05,86.9,0)" xlink:href="#bp"/><use transform="matrix(0.05,0,0,0.05,91.9,0)" xlink:href="#bk"/></g><g id="ar"><use transform="matrix(0.05,0,0,0.05,0,0)" xlink:href="#bq"/><use transform="matrix(0.05,0,0,0.05,5.95,0)" xlink:href="#bI"/><use transform="matrix(0.05,0,0,0.05,17.95,0)" xlink:href="#bp"/><use transform="matrix(0.05,0,0,0.05,22.95,0)" xlink:href="#bN"/><use transform="matrix(0.05,0,0,0.05,28.899999999999995,0)" xlink:href="#bu"/><use transform="matrix(0.05,0,0,0.05,32.85,0)" xlink:href="#bU"/><use transform="matrix(0.05,0,0,0.05,41.85,0)" xlink:href="#bk"/><use transform="matrix(0.05,0,0,0.05,51.85,0)" xlink:href="#bE"/><use transform="matrix(0.05,0,0,0.05,57.800000000000004,0)" xlink:href="#bu"/><use transform="matrix(0.05,0,0,0.05,61.75,0)" xlink:href="#bv"/><use transform="matrix(0.05,0,0,0.05,71.75,0)" xlink:href="#bp"/></g><g id="as"><use transform="matrix(0.05,0,0,0.05,0,0)" xlink:href="#bs"/><use transform="matrix(0.05,0,0,0.05,9,0)" xlink:href="#bJ"/></g><g id="at"><use transform="matrix(0.05,0,0,0.05,0,0)" xlink:href="#bw"/><use transform="matrix(0.05,0,0,0.05,7.65,0)" xlink:href="#bJ"/></g><g id="au"><use transform="matrix(0.05,0,0,0.05,0,0)" xlink:href="#bL"/><use transform="matrix(0.05,0,0,0.05,10,0)" xlink:href="#bu"/><use transform="matrix(0.05,0,0,0.05,13.949999999999998,0)" xlink:href="#bN"/><use transform="matrix(0.05,0,0,0.05,19.9,0)" xlink:href="#bk"/><use transform="matrix(0.05,0,0,0.05,29.899999999999995,0)" xlink:href="#bo"/><use transform="matrix(0.05,0,0,0.05,38.9,0)" xlink:href="#bp"/><use transform="matrix(0.05,0,0,0.05,43.9,0)" xlink:href="#bu"/><use transform="matrix(0.05,0,0,0.05,47.85,0)" xlink:href="#bH"/><use transform="matrix(0.05,0,0,0.05,57.85,0)" xlink:href="#bv"/><use transform="matrix(0.05,0,0,0.05,67.85,0)" xlink:href="#bz"/><use transform="matrix(0.05,0,0,0.05,79.85,0)" xlink:href="#bF"/><use transform="matrix(0.05,0,0,0.05,85.8,0)" xlink:href="#bt"/><use transform="matrix(0.05,0,0,0.05,90.8,0)" xlink:href="#bK"/><use transform="matrix(0.05,0,0,0.05,99.8,0)" xlink:href="#bH"/><use transform="matrix(0.05,0,0,0.05,109.80000000000001,0)" xlink:href="#bu"/><use transform="matrix(0.05,0,0,0.05,113.75,0)" xlink:href="#bL"/></g><path fill="#333" d="M233-177c-1 41-23 64-60 70L243 0h-38l-65-103H63V0H30v-248c88 3 205-21 203 71zM63-129c60-2 137 13 137-47 0-61-80-42-137-45v92" id="cb"/><g id="av"><use transform="matrix(0.05,0,0,0.05,0,0)" xlink:href="#cb"/><use transform="matrix(0.05,0,0,0.05,12.950000000000001,0)" xlink:href="#bk"/><use transform="matrix(0.05,0,0,0.05,22.950000000000003,0)" xlink:href="#bo"/><use transform="matrix(0.05,0,0,0.05,31.950000000000003,0)" xlink:href="#bH"/><use transform="matrix(0.05,0,0,0.05,41.95,0)" xlink:href="#bK"/><use transform="matrix(0.05,0,0,0.05,50.95,0)" xlink:href="#bk"/><use transform="matrix(0.05,0,0,0.05,60.95,0)" xlink:href="#bN"/><use transform="matrix(0.05,0,0,0.05,66.9,0)" xlink:href="#bu"/><use transform="matrix(0.05,0,0,0.05,70.85000000000001,0)" xlink:href="#bv"/><use transform="matrix(0.05,0,0,0.05,80.85000000000001,0)" xlink:href="#bV"/><use transform="matrix(0.05,0,0,0.05,90.85000000000001,0)" xlink:href="#bI"/><use transform="matrix(0.05,0,0,0.05,102.85000000000001,0)" xlink:href="#bp"/><use transform="matrix(0.05,0,0,0.05,107.85000000000001,0)" xlink:href="#bi"/><use transform="matrix(0.05,0,0,0.05,117.85000000000001,0)" xlink:href="#bp"/><use transform="matrix(0.05,0,0,0.05,122.85000000000001,0)" xlink:href="#bk"/></g><g id="aw"><use transform="matrix(0.05,0,0,0.05,0,0)" xlink:href="#bO"/><use transform="matrix(0.05,0,0,0.05,5,0)" xlink:href="#bL"/><use transform="matrix(0.05,0,0,0.05,15,0)" xlink:href="#bx"/><use transform="matrix(0.05,0,0,0.05,18.95,0)" xlink:href="#bk"/><use transform="matrix(0.05,0,0,0.05,28.950000000000003,0)" xlink:href="#bI"/><use transform="matrix(0.05,0,0,0.05,40.95,0)" xlink:href="#bp"/><use transform="matrix(0.05,0,0,0.05,45.95,0)" xlink:href="#bi"/><use transform="matrix(0.05,0,0,0.05,55.95,0)" xlink:href="#bp"/><use transform="matrix(0.05,0,0,0.05,60.95,0)" xlink:href="#bk"/></g><g id="ax"><use transform="matrix(0.05,0,0,0.05,0,0)" xlink:href="#bI"/><use transform="matrix(0.05,0,0,0.05,12,0)" xlink:href="#bp"/><use transform="matrix(0.05,0,0,0.05,17,0)" xlink:href="#bi"/><use transform="matrix(0.05,0,0,0.05,27,0)" xlink:href="#bp"/><use transform="matrix(0.05,0,0,0.05,32,0)" xlink:href="#bk"/></g><path fill="#333" d="M30 0v-248h187v28H63v79h144v27H63v87h162V0H30" id="cc"/><g id="ay"><use transform="matrix(0.05,0,0,0.05,0,0)" xlink:href="#cc"/><use transform="matrix(0.05,0,0,0.05,12,0)" xlink:href="#bv"/><use transform="matrix(0.05,0,0,0.05,22,0)" xlink:href="#bp"/><use transform="matrix(0.05,0,0,0.05,27,0)" xlink:href="#bk"/><use transform="matrix(0.05,0,0,0.05,37,0)" xlink:href="#bN"/><use transform="matrix(0.05,0,0,0.05,42.95,0)" xlink:href="#bE"/><use transform="matrix(0.05,0,0,0.05,48.900000000000006,0)" xlink:href="#bF"/><use transform="matrix(0.05,0,0,0.05,54.85,0)" xlink:href="#bt"/><use transform="matrix(0.05,0,0,0.05,59.85,0)" xlink:href="#bK"/><use transform="matrix(0.05,0,0,0.05,68.85000000000001,0)" xlink:href="#bH"/><use transform="matrix(0.05,0,0,0.05,78.85000000000001,0)" xlink:href="#bu"/><use transform="matrix(0.05,0,0,0.05,82.80000000000001,0)" xlink:href="#bL"/></g><g id="az"><use transform="matrix(0.05,0,0,0.05,0,0)" xlink:href="#bM"/><use transform="matrix(0.05,0,0,0.05,12.950000000000001,0)" xlink:href="#bB"/><use transform="matrix(0.05,0,0,0.05,22.950000000000003,0)" xlink:href="#bL"/><use transform="matrix(0.05,0,0,0.05,32.95,0)" xlink:href="#bi"/><use transform="matrix(0.05,0,0,0.05,42.95,0)" xlink:href="#bp"/><use transform="matrix(0.05,0,0,0.05,47.95,0)" xlink:href="#bk"/><use transform="matrix(0.05,0,0,0.05,57.95,0)" xlink:href="#bE"/><use transform="matrix(0.05,0,0,0.05,63.900000000000006,0)" xlink:href="#bF"/><use transform="matrix(0.05,0,0,0.05,69.85000000000001,0)" xlink:href="#bt"/><use transform="matrix(0.05,0,0,0.05,74.85000000000001,0)" xlink:href="#bK"/><use transform="matrix(0.05,0,0,0.05,83.85000000000001,0)" xlink:href="#bH"/><use transform="matrix(0.05,0,0,0.05,93.85000000000001,0)" xlink:href="#bu"/><use transform="matrix(0.05,0,0,0.05,97.80000000000001,0)" xlink:href="#bL"/></g><g id="aA"><use transform="matrix(0.05,0,0,0.05,0,0)" xlink:href="#cc"/><use transform="matrix(0.05,0,0,0.05,12,0)" xlink:href="#bs"/><use transform="matrix(0.05,0,0,0.05,21,0)" xlink:href="#bu"/><use transform="matrix(0.05,0,0,0.05,24.95,0)" xlink:href="#bp"/><use transform="matrix(0.05,0,0,0.05,29.950000000000003,0)" xlink:href="#bE"/><use transform="matrix(0.05,0,0,0.05,35.9,0)" xlink:href="#bF"/><use transform="matrix(0.05,0,0,0.05,41.85,0)" xlink:href="#bt"/><use transform="matrix(0.05,0,0,0.05,46.85,0)" xlink:href="#bK"/><use transform="matrix(0.05,0,0,0.05,55.85,0)" xlink:href="#bH"/><use transform="matrix(0.05,0,0,0.05,65.85,0)" xlink:href="#bu"/><use transform="matrix(0.05,0,0,0.05,69.8,0)" xlink:href="#bL"/></g></defs></g></svg>