<svg xmlns="http://www.w3.org/2000/svg" xmlns:xlink="http://www.w3.org/1999/xlink" xmlns:lucid="lucid" width="1877.33" height="1357.33"><g transform="translate(0 0)" lucid:page-tab-id="0_0"><path d="M0 0h1877.33v1357.33H0z" fill="#fff"/><path d="M453.15 76c0-4.42 3.58-8 8-8h836.75c4.4 0 8 3.58 8 8v25.16c0 4.4-3.6 8-8 8H461.15c-4.42 0-8-3.6-8-8z" stroke="#000" stroke-opacity="0" stroke-width="2" fill="#fff" fill-opacity="0"/><use xlink:href="#a" transform="matrix(1,0,0,1,457.1465527853429,72) translate(368.2667901234568 25.782777777777778)"/><use xlink:href="#b" transform="matrix(1,0,0,1,457.1465527853429,72) translate(404.68654320987656 25.782777777777778)"/><path d="M724.25 107.8h318.96M724.27 107.8h-1.02M1043.18 107.8h1.03" stroke="#a9afb8" stroke-width="2" fill="none"/><path d="M453.15 117.16c0-4.42 3.58-8 8-8h837.7c4.42 0 8 3.58 8 8V120c0 4.42-3.58 8-8 8h-837.7c-4.42 0-8-3.58-8-8z" stroke="#000" stroke-opacity="0" stroke-width="2" fill="#fff" fill-opacity="0"/><use xlink:href="#c" transform="matrix(1,0,0,1,457.1465527853434,113.15522395689881) translate(241.01236625514406 14.917037037037037)"/><use xlink:href="#d" transform="matrix(1,0,0,1,457.1465527853434,113.15522395689881) translate(302.11257201646094 14.917037037037037)"/><use xlink:href="#e" transform="matrix(1,0,0,1,457.1465527853434,113.15522395689881) translate(374.21761316872426 14.917037037037037)"/><use xlink:href="#f" transform="matrix(1,0,0,1,457.1465527853434,113.15522395689881) translate(395.4624691358025 14.917037037037037)"/><use xlink:href="#g" transform="matrix(1,0,0,1,457.1465527853434,113.15522395689881) translate(465.01812757201645 14.917037037037037)"/><use xlink:href="#h" transform="matrix(1,0,0,1,457.1465527853434,113.15522395689881) translate(477.46761316872426 14.917037037037037)"/><use xlink:href="#i" transform="matrix(1,0,0,1,457.1465527853434,113.15522395689881) translate(552.122037037037 14.917037037037037)"/><use xlink:href="#j" transform="matrix(1,0,0,1,457.1465527853434,113.15522395689881) translate(577.6158641975309 14.917037037037037)"/><path d="M180 688c0-4.42 3.58-8 8-8h454c4.42 0 8 3.58 8 8v485c0 4.42-3.58 8-8 8H188c-4.42 0-8-3.58-8-8z" stroke="#333" fill="#fff"/><path d="M180 717.6h470M180 841.5h470" stroke="#333" fill="none"/><use xlink:href="#k" transform="matrix(1,0,0,1,188,688) translate(201.55 14.6)"/><use xlink:href="#l" transform="matrix(1,0,0,1,192,725.6) translate(0 14.4)"/><use xlink:href="#m" transform="matrix(1,0,0,1,192,725.6) translate(10.95 14.4)"/><use xlink:href="#l" transform="matrix(1,0,0,1,192,725.6) translate(0 46.800000000000004)"/><use xlink:href="#n" transform="matrix(1,0,0,1,192,725.6) translate(10.95 46.800000000000004)"/><use xlink:href="#l" transform="matrix(1,0,0,1,192,725.6) translate(0 79.20000000000002)"/><use xlink:href="#o" transform="matrix(1,0,0,1,192,725.6) translate(10.95 79.20000000000002)"/><use xlink:href="#p" transform="matrix(1,0,0,1,192,849.5) translate(0 14.4)"/><use xlink:href="#q" transform="matrix(1,0,0,1,192,849.5) translate(15.5 14.4)"/><use xlink:href="#r" transform="matrix(1,0,0,1,192,849.5) translate(118.35000000000001 14.4)"/><use xlink:href="#s" transform="matrix(1,0,0,1,192,849.5) translate(231.3 14.4)"/><use xlink:href="#t" transform="matrix(1,0,0,1,192,849.5) translate(279.25 14.4)"/><use xlink:href="#p" transform="matrix(1,0,0,1,192,849.5) translate(0 36)"/><use xlink:href="#u" transform="matrix(1,0,0,1,192,849.5) translate(15.5 36)"/><use xlink:href="#p" transform="matrix(1,0,0,1,192,849.5) translate(0 57.6)"/><use xlink:href="#v" transform="matrix(1,0,0,1,192,849.5) translate(15.5 57.6)"/><use xlink:href="#l" transform="matrix(1,0,0,1,192,849.5) translate(0 79.20000000000002)"/><use xlink:href="#w" transform="matrix(1,0,0,1,192,849.5) translate(10.95 79.20000000000002)"/><use xlink:href="#x" transform="matrix(1,0,0,1,192,849.5) translate(84.80000000000001 79.20000000000002)"/><use xlink:href="#y" transform="matrix(1,0,0,1,192,849.5) translate(139.75 79.20000000000002)"/><use xlink:href="#z" transform="matrix(1,0,0,1,192,849.5) translate(163.7 79.20000000000002)"/><use xlink:href="#l" transform="matrix(1,0,0,1,192,849.5) translate(0 100.80000000000001)"/><use xlink:href="#A" transform="matrix(1,0,0,1,192,849.5) translate(10.95 100.80000000000001)"/><use xlink:href="#x" transform="matrix(1,0,0,1,192,849.5) translate(174.5 100.80000000000001)"/><use xlink:href="#y" transform="matrix(1,0,0,1,192,849.5) translate(229.45 100.80000000000001)"/><use xlink:href="#z" transform="matrix(1,0,0,1,192,849.5) translate(253.39999999999998 100.80000000000001)"/><use xlink:href="#l" transform="matrix(1,0,0,1,192,849.5) translate(0 122.4)"/><use xlink:href="#B" transform="matrix(1,0,0,1,192,849.5) translate(10.95 122.4)"/><use xlink:href="#l" transform="matrix(1,0,0,1,192,849.5) translate(0 144)"/><use xlink:href="#C" transform="matrix(1,0,0,1,192,849.5) translate(10.95 144)"/><use xlink:href="#D" transform="matrix(1,0,0,1,192,849.5) translate(158.7 144)"/><use xlink:href="#l" transform="matrix(1,0,0,1,192,849.5) translate(0 165.6)"/><use xlink:href="#E" transform="matrix(1,0,0,1,192,849.5) translate(10.95 165.6)"/><use xlink:href="#F" transform="matrix(1,0,0,1,192,849.5) translate(137.85 165.6)"/><use xlink:href="#l" transform="matrix(1,0,0,1,192,849.5) translate(0 187.2)"/><use xlink:href="#G" transform="matrix(1,0,0,1,192,849.5) translate(10.95 187.2)"/><use xlink:href="#l" transform="matrix(1,0,0,1,192,849.5) translate(0 208.79999999999998)"/><use xlink:href="#H" transform="matrix(1,0,0,1,192,849.5) translate(10.95 208.79999999999998)"/><use xlink:href="#l" transform="matrix(1,0,0,1,192,849.5) translate(0 230.39999999999998)"/><use xlink:href="#I" transform="matrix(1,0,0,1,192,849.5) translate(10.95 230.39999999999998)"/><use xlink:href="#J" transform="matrix(1,0,0,1,192,849.5) translate(209.04999999999998 230.39999999999998)"/><use xlink:href="#l" transform="matrix(1,0,0,1,192,849.5) translate(0 251.99999999999997)"/><use xlink:href="#K" transform="matrix(1,0,0,1,192,849.5) translate(10.95 251.99999999999997)"/><use xlink:href="#l" transform="matrix(1,0,0,1,192,849.5) translate(0 273.59999999999997)"/><use xlink:href="#L" transform="matrix(1,0,0,1,192,849.5) translate(10.95 273.59999999999997)"/><use xlink:href="#l" transform="matrix(1,0,0,1,192,849.5) translate(0 295.2)"/><use xlink:href="#M" transform="matrix(1,0,0,1,192,849.5) translate(10.95 295.2)"/><path d="M415 679v-40.5c0-6.63 5.37-12 12-12h1c6.63 0 12-5.37 12-12v-18" stroke="#333" fill="none"/><path d="M415.5 679.5h-1v-.5h1z" fill="#333"/><path d="M440 574.48L452.73 596h-25.46z" stroke="#333" fill="#fff"/><path d="M1160 1111h280v177h-280z" stroke="#333" stroke-width="2" fill="#fff"/><path d="M1160 1148.6h280m-280 59.1h280" stroke="#333" stroke-width="2" fill="none"/><g><use xlink:href="#N" transform="matrix(1,0,0,1,1168,1119) translate(100.125 14.6)"/></g><g><use xlink:href="#l" transform="matrix(1,0,0,1,1172,1156.6) translate(73.125 25.6)"/><use xlink:href="#O" transform="matrix(1,0,0,1,1172,1156.6) translate(84.075 25.6)"/></g><g><use xlink:href="#p" transform="matrix(1,0,0,1,1172,1215.6999999999998) translate(61.875 25.299999999999997)"/><use xlink:href="#P" transform="matrix(1,0,0,1,1172,1215.6999999999998) translate(77.375 25.299999999999997)"/><use xlink:href="#p" transform="matrix(1,0,0,1,1172,1215.6999999999998) translate(11.424999999999983 46.9)"/><use xlink:href="#Q" transform="matrix(1,0,0,1,1172,1215.6999999999998) translate(26.924999999999983 46.9)"/><use xlink:href="#R" transform="matrix(1,0,0,1,1172,1215.6999999999998) translate(140.725 46.9)"/></g><path d="M800 1100h280v199H800z" stroke="#333" stroke-width="2" fill="#fff"/><path d="M800 1137.6h280m-280 59.1h280" stroke="#333" stroke-width="2" fill="none"/><g><use xlink:href="#S" transform="matrix(1,0,0,1,808,1108) translate(98.7 14.6)"/></g><g><use xlink:href="#l" transform="matrix(1,0,0,1,812,1145.6) translate(65.6 25.6)"/><use xlink:href="#T" transform="matrix(1,0,0,1,812,1145.6) translate(76.55 25.6)"/></g><g><use xlink:href="#p" transform="matrix(1,0,0,1,812,1204.6999999999998) translate(8.174999999999997 25.5)"/><use xlink:href="#U" transform="matrix(1,0,0,1,812,1204.6999999999998) translate(23.674999999999997 25.5)"/><use xlink:href="#V" transform="matrix(1,0,0,1,812,1204.6999999999998) translate(99.47500000000001 25.5)"/><use xlink:href="#y" transform="matrix(1,0,0,1,812,1204.6999999999998) translate(165.325 25.5)"/><use xlink:href="#W" transform="matrix(1,0,0,1,812,1204.6999999999998) translate(189.27499999999998 25.5)"/><use xlink:href="#y" transform="matrix(1,0,0,1,812,1204.6999999999998) translate(61.625 47.1)"/><use xlink:href="#X" transform="matrix(1,0,0,1,812,1204.6999999999998) translate(85.575 47.1)"/><use xlink:href="#Y" transform="matrix(1,0,0,1,812,1204.6999999999998) translate(175.425 47.1)"/><use xlink:href="#Z" transform="matrix(1,0,0,1,812,1204.6999999999998) translate(66.125 68.7)"/></g><path d="M1520 1121.5h280v156h-280z" stroke="#333" stroke-width="2" fill="#fff"/><path d="M1520 1159.1h280m-280 59.1h280" stroke="#333" stroke-width="2" fill="none"/><g><use xlink:href="#aa" transform="matrix(1,0,0,1,1528,1129.5) translate(115 14.6)"/></g><path d="M1518.5 1199.5H1464" stroke="#333" fill="none"/><path d="M1519 1200h-.5v-1h.5z" fill="#333"/><path d="M1441.98 1199.5l21.52-12.73v25.46z" stroke="#333" fill="#fff"/><path d="M1158.5 1199.5H1104" stroke="#333" fill="none"/><path d="M1159 1200h-.5v-1h.5z" fill="#333"/><path d="M1081.98 1199.5l21.52-12.73v25.46z" stroke="#333" fill="#fff"/><path d="M798.5 1120h-61.75c-6.63 0-12-5.37-12-12V841.83c0-6.63-5.37-12-12-12h-31.88" stroke="#333" fill="none"/><path d="M799 1120.5h-.5v-1h.5z" fill="#333"/><path d="M651.2 829.83l14.86-14.85 15.15 14.85-15.14 14.85z" stroke="#333" fill="#fff"/><path d="M800 757.33h180v156H800z" stroke="#333" stroke-width="2" fill="#fff"/><path d="M800 794.93h180m-180 59.1h180" stroke="#333" stroke-width="2" fill="none"/><g><use xlink:href="#ab" transform="matrix(1,0,0,1,808,765.3333333333333) translate(67 14.6)"/></g><g><use xlink:href="#l" transform="matrix(1,0,0,1,812,802.9333333333333) translate(0 25.6)"/><use xlink:href="#ac" transform="matrix(1,0,0,1,812,802.9333333333333) translate(10.95 25.6)"/></g><g><use xlink:href="#p" transform="matrix(1,0,0,1,812,862.0333333333333) translate(4.949999999999989 25.6)"/><use xlink:href="#ad" transform="matrix(1,0,0,1,812,862.0333333333333) translate(20.44999999999999 25.6)"/></g><path d="M798.5 778.67H732c-4 0-7.25 3.24-7.25 7.24s-3.24 7.25-7.24 7.25h-36.63" stroke="#333" fill="none"/><path d="M799 779.17h-.5v-1h.5z" fill="#333"/><path d="M651.2 793.15l14.86-14.85 15.15 14.85L666.07 808z" stroke="#333" fill="#fff"/><path d="M890 755.83V378.5c0-6.63-5.37-12-12-12H723.5" stroke="#333" fill="none"/><path d="M890.5 756.33h-1v-.5h1z" fill="#333"/><path d="M701.48 366.5L723 353.77v25.46z" stroke="#333" fill="#fff"/><path d="M940 1098.5V1042c0-6.63 5.37-12 12-12h136c6.63 0 12-5.37 12-12V378.5c0-6.63-5.37-12-12-12H723.5" stroke="#333" fill="none"/><path d="M940.5 1099h-1v-.5h1z" fill="#333"/><path d="M701.48 366.5L723 353.77v25.46z" stroke="#333" fill="#fff"/><path d="M760 736h40v60h-40z" stroke="#000" stroke-opacity="0" stroke-width="2" fill="#fff" fill-opacity="0"/><g><use xlink:href="#ae" transform="matrix(1,0,0,1,765,741) translate(10 30.025)"/></g><path d="M679 751h40v60h-40z" stroke="#000" stroke-opacity="0" stroke-width="2" fill="#fff" fill-opacity="0"/><g><use xlink:href="#ae" transform="matrix(1,0,0,1,684,756) translate(10 30.025)"/></g><path d="M680 790h40v60h-40z" stroke="#000" stroke-opacity="0" stroke-width="2" fill="#fff" fill-opacity="0"/><g><use xlink:href="#ae" transform="matrix(1,0,0,1,685,795) translate(10 30.025)"/></g><path d="M760 1080h40v60h-40z" stroke="#000" stroke-opacity="0" stroke-width="2" fill="#fff" fill-opacity="0"/><g><use xlink:href="#ae" transform="matrix(1,0,0,1,765,1085) translate(10 30.025)"/></g><path d="M180 168c0-4.42 3.58-8 8-8h504c4.42 0 8 3.58 8 8v397c0 4.42-3.58 8-8 8H188c-4.42 0-8-3.58-8-8z" stroke="#333" fill="#fff"/><path d="M180 197.6h520M180 353.1h520" stroke="#333" fill="none"/><g><use xlink:href="#af" transform="matrix(1,0,0,1,188,168) translate(199.05 14.4)"/><use xlink:href="#ag" transform="matrix(1,0,0,1,188,168) translate(253 14.4)"/></g><g><use xlink:href="#ah" transform="matrix(1,0,0,1,192,205.6) translate(0 14.4)"/><use xlink:href="#ai" transform="matrix(1,0,0,1,192,205.6) translate(10.95 14.4)"/><use xlink:href="#ah" transform="matrix(1,0,0,1,192,205.6) translate(0 36)"/><use xlink:href="#aj" transform="matrix(1,0,0,1,192,205.6) translate(10.95 36)"/><use xlink:href="#ah" transform="matrix(1,0,0,1,192,205.6) translate(0 57.6)"/><use xlink:href="#ak" transform="matrix(1,0,0,1,192,205.6) translate(10.95 57.6)"/><use xlink:href="#ah" transform="matrix(1,0,0,1,192,205.6) translate(0 79.20000000000002)"/><use xlink:href="#al" transform="matrix(1,0,0,1,192,205.6) translate(10.95 79.20000000000002)"/><use xlink:href="#ah" transform="matrix(1,0,0,1,192,205.6) translate(0 100.80000000000001)"/><use xlink:href="#am" transform="matrix(1,0,0,1,192,205.6) translate(10.95 100.80000000000001)"/></g><g><use xlink:href="#an" transform="matrix(1,0,0,1,192,361.1) translate(0 14.4)"/><use xlink:href="#ao" transform="matrix(1,0,0,1,192,361.1) translate(15.5 14.4)"/><use xlink:href="#an" transform="matrix(1,0,0,1,192,361.1) translate(0 36)"/><use xlink:href="#ap" transform="matrix(1,0,0,1,192,361.1) translate(15.5 36)"/><use xlink:href="#an" transform="matrix(1,0,0,1,192,361.1) translate(0 57.6)"/><use xlink:href="#aq" transform="matrix(1,0,0,1,192,361.1) translate(15.5 57.6)"/><use xlink:href="#an" transform="matrix(1,0,0,1,192,361.1) translate(0 79.20000000000002)"/><use xlink:href="#ar" transform="matrix(1,0,0,1,192,361.1) translate(15.5 79.20000000000002)"/><use xlink:href="#as" transform="matrix(1,0,0,1,192,361.1) translate(136.3 79.20000000000002)"/><use xlink:href="#at" transform="matrix(1,0,0,1,192,361.1) translate(155.3 79.20000000000002)"/><use xlink:href="#au" transform="matrix(1,0,0,1,192,361.1) translate(179.25 79.20000000000002)"/><use xlink:href="#an" transform="matrix(1,0,0,1,192,361.1) translate(0 100.80000000000001)"/><use xlink:href="#av" transform="matrix(1,0,0,1,192,361.1) translate(15.5 100.80000000000001)"/><use xlink:href="#aw" transform="matrix(1,0,0,1,192,361.1) translate(118.35000000000001 100.80000000000001)"/><use xlink:href="#ax" transform="matrix(1,0,0,1,192,361.1) translate(231.3 100.80000000000001)"/><use xlink:href="#ay" transform="matrix(1,0,0,1,192,361.1) translate(279.25 100.80000000000001)"/><use xlink:href="#an" transform="matrix(1,0,0,1,192,361.1) translate(0 122.4)"/><use xlink:href="#az" transform="matrix(1,0,0,1,192,361.1) translate(15.5 122.4)"/><use xlink:href="#an" transform="matrix(1,0,0,1,192,361.1) translate(0 144)"/><use xlink:href="#aA" transform="matrix(1,0,0,1,192,361.1) translate(15.5 144)"/><use xlink:href="#aB" transform="matrix(1,0,0,1,192,361.1) translate(151.25 144)"/><use xlink:href="#at" transform="matrix(1,0,0,1,192,361.1) translate(241.1 144)"/><use xlink:href="#aC" transform="matrix(1,0,0,1,192,361.1) translate(265.05 144)"/><use xlink:href="#at" transform="matrix(1,0,0,1,192,361.1) translate(352.6 144)"/><use xlink:href="#aD" transform="matrix(1,0,0,1,192,361.1) translate(376.55 144)"/><use xlink:href="#an" transform="matrix(1,0,0,1,192,361.1) translate(0 165.6)"/><use xlink:href="#aE" transform="matrix(1,0,0,1,192,361.1) translate(15.5 165.6)"/><use xlink:href="#aF" transform="matrix(1,0,0,1,192,361.1) translate(136.35000000000002 165.6)"/></g><defs><path fill="#a9afb8" d="M101-251c68 0 84 54 84 127C185-50 166 4 99 4S15-52 14-124c-1-75 17-127 87-127zm-1 216c37-5 36-46 36-89s4-89-36-89c-39 0-36 45-36 89 0 43-3 85 36 89" id="aG"/><path fill="#a9afb8" d="M165-50V0h-47v-50H5v-38l105-160h55v161h33v37h-33zm-47-37l2-116L46-87h72" id="aH"/><g id="a"><use transform="matrix(0.0728395061728395,0,0,0.0728395061728395,0,0)" xlink:href="#aG"/><use transform="matrix(0.0728395061728395,0,0,0.0728395061728395,14.5679012345679,0)" xlink:href="#aH"/></g><path fill="#a9afb8" d="M24-248c93 1 206-16 204 79-1 75-69 88-152 82V0H24v-248zm52 121c47 0 100 7 100-41 0-47-54-39-100-39v80" id="aI"/><path fill="#a9afb8" d="M25 0v-261h50V0H25" id="aJ"/><path fill="#a9afb8" d="M133-34C117-15 103 5 69 4 32 3 11-16 11-54c-1-60 55-63 116-61 1-26-3-47-28-47-18 1-26 9-28 27l-52-2c7-38 36-58 82-57s74 22 75 68l1 82c-1 14 12 18 25 15v27c-30 8-71 5-69-32zm-48 3c29 0 43-24 42-57-32 0-66-3-65 30 0 17 8 27 23 27" id="aK"/><path fill="#a9afb8" d="M123 10C108 53 80 86 19 72V37c35 8 53-11 59-39L3-190h52l48 148c12-52 28-100 44-148h51" id="aL"/><path fill="#a9afb8" d="M185-48c-13 30-37 53-82 52C43 2 14-33 14-96s30-98 90-98c62 0 83 45 84 108H66c0 31 8 55 39 56 18 0 30-7 34-22zm-45-69c5-46-57-63-70-21-2 6-4 13-4 21h74" id="aM"/><path fill="#a9afb8" d="M135-150c-39-12-60 13-60 57V0H25l-1-190h47c2 13-1 29 3 40 6-28 27-53 61-41v41" id="aN"/><g id="b"><use transform="matrix(0.0728395061728395,0,0,0.0728395061728395,0,0)" xlink:href="#aI"/><use transform="matrix(0.0728395061728395,0,0,0.0728395061728395,17.48148148148148,0)" xlink:href="#aJ"/><use transform="matrix(0.0728395061728395,0,0,0.0728395061728395,24.76543209876543,0)" xlink:href="#aK"/><use transform="matrix(0.0728395061728395,0,0,0.0728395061728395,39.333333333333336,0)" xlink:href="#aL"/><use transform="matrix(0.0728395061728395,0,0,0.0728395061728395,53.90123456790123,0)" xlink:href="#aM"/><use transform="matrix(0.0728395061728395,0,0,0.0728395061728395,68.46913580246913,0)" xlink:href="#aN"/></g><path fill="#a9afb8" d="M233-177c-1 41-23 64-60 70L243 0h-38l-65-103H63V0H30v-248c88 3 205-21 203 71zM63-129c60-2 137 13 137-47 0-61-80-42-137-45v92" id="aO"/><path fill="#a9afb8" d="M141-36C126-15 110 5 73 4 37 3 15-17 15-53c-1-64 63-63 125-63 3-35-9-54-41-54-24 1-41 7-42 31l-33-3c5-37 33-52 76-52 45 0 72 20 72 64v82c-1 20 7 32 28 27v20c-31 9-61-2-59-35zM48-53c0 20 12 33 32 33 41-3 63-29 60-74-43 2-92-5-92 41" id="aP"/><path fill="#a9afb8" d="M115-194c55 1 70 41 70 98S169 2 115 4C84 4 66-9 55-30l1 105H24l-1-265h31l2 30c10-21 28-34 59-34zm-8 174c40 0 45-34 45-75s-6-73-45-74c-42 0-51 32-51 76 0 43 10 73 51 73" id="aQ"/><path fill="#a9afb8" d="M106-169C34-169 62-67 57 0H25v-261h32l-1 103c12-21 28-36 61-36 89 0 53 116 60 194h-32v-121c2-32-8-49-39-48" id="aR"/><path fill="#a9afb8" d="M100-194c63 0 86 42 84 106H49c0 40 14 67 53 68 26 1 43-12 49-29l28 8c-11 28-37 45-77 45C44 4 14-33 15-96c1-61 26-98 85-98zm52 81c6-60-76-77-97-28-3 7-6 17-6 28h103" id="aS"/><path fill="#a9afb8" d="M24 0v-261h32V0H24" id="aT"/><g id="c"><use transform="matrix(0.04248971193415638,0,0,0.04248971193415638,0,0)" xlink:href="#aO"/><use transform="matrix(0.04248971193415638,0,0,0.04248971193415638,11.004835390946502,0)" xlink:href="#aP"/><use transform="matrix(0.04248971193415638,0,0,0.04248971193415638,19.502777777777776,0)" xlink:href="#aQ"/><use transform="matrix(0.04248971193415638,0,0,0.04248971193415638,28.000720164609046,0)" xlink:href="#aR"/><use transform="matrix(0.04248971193415638,0,0,0.04248971193415638,36.498662551440326,0)" xlink:href="#aP"/><use transform="matrix(0.04248971193415638,0,0,0.04248971193415638,44.9966049382716,0)" xlink:href="#aS"/><use transform="matrix(0.04248971193415638,0,0,0.04248971193415638,53.49454732510288,0)" xlink:href="#aT"/></g><path fill="#a9afb8" d="M197 0v-115H63V0H30v-248h33v105h134v-105h34V0h-34" id="aU"/><path fill="#a9afb8" d="M210-169c-67 3-38 105-44 169h-31v-121c0-29-5-50-35-48C34-165 62-65 56 0H25l-1-190h30c1 10-1 24 2 32 10-44 99-50 107 0 11-21 27-35 58-36 85-2 47 119 55 194h-31v-121c0-29-5-49-35-48" id="aV"/><path fill="#a9afb8" d="M9 0v-24l116-142H16v-24h144v24L44-24h123V0H9" id="aW"/><path fill="#a9afb8" d="M177-190C167-65 218 103 67 71c-23-6-38-20-44-43l32-5c15 47 100 32 89-28v-30C133-14 115 1 83 1 29 1 15-40 15-95c0-56 16-97 71-98 29-1 48 16 59 35 1-10 0-23 2-32h30zM94-22c36 0 50-32 50-73 0-42-14-75-50-75-39 0-46 34-46 75s6 73 46 73" id="aX"/><path fill="#a9afb8" d="M24-231v-30h32v30H24zM24 0v-190h32V0H24" id="aY"/><path fill="#a9afb8" d="M96-169c-40 0-48 33-48 73s9 75 48 75c24 0 41-14 43-38l32 2c-6 37-31 61-74 61-59 0-76-41-82-99-10-93 101-131 147-64 4 7 5 14 7 22l-32 3c-4-21-16-35-41-35" id="aZ"/><g id="d"><use transform="matrix(0.04248971193415638,0,0,0.04248971193415638,0,0)" xlink:href="#aU"/><use transform="matrix(0.04248971193415638,0,0,0.04248971193415638,11.004835390946502,0)" xlink:href="#aP"/><use transform="matrix(0.04248971193415638,0,0,0.04248971193415638,19.502777777777776,0)" xlink:href="#aV"/><use transform="matrix(0.04248971193415638,0,0,0.04248971193415638,32.20720164609053,0)" xlink:href="#aW"/><use transform="matrix(0.04248971193415638,0,0,0.04248971193415638,39.85534979423868,0)" xlink:href="#aP"/><use transform="matrix(0.04248971193415638,0,0,0.04248971193415638,48.35329218106995,0)" xlink:href="#aX"/><use transform="matrix(0.04248971193415638,0,0,0.04248971193415638,56.85123456790123,0)" xlink:href="#aY"/><use transform="matrix(0.04248971193415638,0,0,0.04248971193415638,60.20792181069959,0)" xlink:href="#aZ"/></g><path fill="#a9afb8" d="M85-194c31 0 48 13 60 33l-1-100h32l1 261h-30c-2-10 0-23-3-31C134-8 116 4 85 4 32 4 16-35 15-94c0-66 23-100 70-100zm9 24c-40 0-46 34-46 75 0 40 6 74 45 74 42 0 51-32 51-76 0-42-9-74-50-73" id="ba"/><g id="e"><use transform="matrix(0.04248971193415638,0,0,0.04248971193415638,0,0)" xlink:href="#ba"/><use transform="matrix(0.04248971193415638,0,0,0.04248971193415638,8.497942386831275,0)" xlink:href="#aS"/></g><path fill="#a9afb8" d="M212-179c-10-28-35-45-73-45-59 0-87 40-87 99 0 60 29 101 89 101 43 0 62-24 78-52l27 14C228-24 195 4 139 4 59 4 22-46 18-125c-6-104 99-153 187-111 19 9 31 26 39 46" id="bb"/><path fill="#a9afb8" d="M114-163C36-179 61-72 57 0H25l-1-190h30c1 12-1 29 2 39 6-27 23-49 58-41v29" id="bc"/><path fill="#a9afb8" d="M108 0H70L1-190h34L89-25l56-165h34" id="bd"/><path fill="#a9afb8" d="M100-194c62-1 85 37 85 99 1 63-27 99-86 99S16-35 15-95c0-66 28-99 85-99zM99-20c44 1 53-31 53-75 0-43-8-75-51-75s-53 32-53 75 10 74 51 75" id="be"/><g id="f"><use transform="matrix(0.04248971193415638,0,0,0.04248971193415638,0,0)" xlink:href="#bb"/><use transform="matrix(0.04248971193415638,0,0,0.04248971193415638,11.004835390946502,0)" xlink:href="#aP"/><use transform="matrix(0.04248971193415638,0,0,0.04248971193415638,19.502777777777776,0)" xlink:href="#bc"/><use transform="matrix(0.04248971193415638,0,0,0.04248971193415638,24.559053497942386,0)" xlink:href="#bd"/><use transform="matrix(0.04248971193415638,0,0,0.04248971193415638,32.20720164609053,0)" xlink:href="#aP"/><use transform="matrix(0.04248971193415638,0,0,0.04248971193415638,40.70514403292181,0)" xlink:href="#aT"/><use transform="matrix(0.04248971193415638,0,0,0.04248971193415638,44.06183127572016,0)" xlink:href="#aR"/><use transform="matrix(0.04248971193415638,0,0,0.04248971193415638,52.559773662551436,0)" xlink:href="#be"/></g><path fill="#a9afb8" d="M32 76v-337h29V76H32" id="bf"/><use transform="matrix(0.04248971193415638,0,0,0.04248971193415638,0,0)" xlink:href="#bf" id="g"/><path fill="#a9afb8" d="M190 0L58-211 59 0H30v-248h39L202-35l-2-213h31V0h-41" id="bg"/><path fill="#a9afb8" d="M115-194c53 0 69 39 70 98 0 66-23 100-70 100C84 3 66-7 56-30L54 0H23l1-261h32v101c10-23 28-34 59-34zm-8 174c40 0 45-34 45-75 0-40-5-75-45-74-42 0-51 32-51 76 0 43 10 73 51 73" id="bh"/><g id="h"><use transform="matrix(0.04248971193415638,0,0,0.04248971193415638,0,0)" xlink:href="#bg"/><use transform="matrix(0.04248971193415638,0,0,0.04248971193415638,11.004835390946502,0)" xlink:href="#be"/><use transform="matrix(0.04248971193415638,0,0,0.04248971193415638,19.502777777777776,0)" xlink:href="#bd"/><use transform="matrix(0.04248971193415638,0,0,0.04248971193415638,27.150925925925925,0)" xlink:href="#aS"/><use transform="matrix(0.04248971193415638,0,0,0.04248971193415638,35.6488683127572,0)" xlink:href="#aV"/><use transform="matrix(0.04248971193415638,0,0,0.04248971193415638,48.35329218106995,0)" xlink:href="#bh"/><use transform="matrix(0.04248971193415638,0,0,0.04248971193415638,56.851234567901244,0)" xlink:href="#aS"/><use transform="matrix(0.04248971193415638,0,0,0.04248971193415638,65.34917695473251,0)" xlink:href="#bc"/></g><path fill="#a9afb8" d="M101-251c82-7 93 87 43 132L82-64C71-53 59-42 53-27h129V0H18c2-99 128-94 128-182 0-28-16-43-45-43s-46 15-49 41l-32-3c6-41 34-60 81-64" id="bi"/><path fill="#a9afb8" d="M64 0c3-98 48-159 88-221H18v-27h164v26C143-157 98-101 97 0H64" id="bj"/><path fill="#a9afb8" d="M68-38c1 34 0 65-14 84H32c9-13 17-26 17-46H33v-38h35" id="bk"/><g id="i"><use transform="matrix(0.04248971193415638,0,0,0.04248971193415638,0,0)" xlink:href="#bi"/><use transform="matrix(0.04248971193415638,0,0,0.04248971193415638,8.497942386831275,0)" xlink:href="#bj"/><use transform="matrix(0.04248971193415638,0,0,0.04248971193415638,16.99588477366255,0)" xlink:href="#bk"/></g><path fill="#a9afb8" d="M101-251c68 0 85 55 85 127S166 4 100 4C33 4 14-52 14-124c0-73 17-127 87-127zm-1 229c47 0 54-49 54-102s-4-102-53-102c-51 0-55 48-55 102 0 53 5 102 54 102" id="bl"/><g id="j"><use transform="matrix(0.04248971193415638,0,0,0.04248971193415638,0,0)" xlink:href="#bi"/><use transform="matrix(0.04248971193415638,0,0,0.04248971193415638,8.497942386831275,0)" xlink:href="#bl"/><use transform="matrix(0.04248971193415638,0,0,0.04248971193415638,16.99588477366255,0)" xlink:href="#bi"/><use transform="matrix(0.04248971193415638,0,0,0.04248971193415638,25.493827160493822,0)" xlink:href="#bl"/></g><path fill="#333" d="M30-248c87 1 191-15 191 75 0 78-77 80-158 76V0H30v-248zm33 125c57 0 124 11 124-50 0-59-68-47-124-48v98" id="bm"/><path fill="#333" d="M24 0v-261h32V0H24" id="bn"/><path fill="#333" d="M141-36C126-15 110 5 73 4 37 3 15-17 15-53c-1-64 63-63 125-63 3-35-9-54-41-54-24 1-41 7-42 31l-33-3c5-37 33-52 76-52 45 0 72 20 72 64v82c-1 20 7 32 28 27v20c-31 9-61-2-59-35zM48-53c0 20 12 33 32 33 41-3 63-29 60-74-43 2-92-5-92 41" id="bo"/><path fill="#333" d="M179-190L93 31C79 59 56 82 12 73V49c39 6 53-20 64-50L1-190h34L92-34l54-156h33" id="bp"/><path fill="#333" d="M100-194c63 0 86 42 84 106H49c0 40 14 67 53 68 26 1 43-12 49-29l28 8c-11 28-37 45-77 45C44 4 14-33 15-96c1-61 26-98 85-98zm52 81c6-60-76-77-97-28-3 7-6 17-6 28h103" id="bq"/><path fill="#333" d="M114-163C36-179 61-72 57 0H25l-1-190h30c1 12-1 29 2 39 6-27 23-49 58-41v29" id="br"/><g id="k"><use transform="matrix(0.05,0,0,0.05,0,0)" xlink:href="#bm"/><use transform="matrix(0.05,0,0,0.05,12,0)" xlink:href="#bn"/><use transform="matrix(0.05,0,0,0.05,15.949999999999998,0)" xlink:href="#bo"/><use transform="matrix(0.05,0,0,0.05,25.950000000000003,0)" xlink:href="#bp"/><use transform="matrix(0.05,0,0,0.05,34.95,0)" xlink:href="#bq"/><use transform="matrix(0.05,0,0,0.05,44.95,0)" xlink:href="#br"/></g><path fill="#333" d="M16-82v-28h88v28H16" id="bs"/><use transform="matrix(0.05,0,0,0.05,0,0)" xlink:href="#bs" id="l"/><path fill="#333" d="M210-169c-67 3-38 105-44 169h-31v-121c0-29-5-50-35-48C34-165 62-65 56 0H25l-1-190h30c1 10-1 24 2 32 10-44 99-50 107 0 11-21 27-35 58-36 85-2 47 119 55 194h-31v-121c0-29-5-49-35-48" id="bt"/><path fill="#333" d="M-5 72V49h209v23H-5" id="bu"/><path fill="#333" d="M106-169C34-169 62-67 57 0H25v-261h32l-1 103c12-21 28-36 61-36 89 0 53 116 60 194h-32v-121c2-32-8-49-39-48" id="bv"/><path fill="#333" d="M59-47c-2 24 18 29 38 22v24C64 9 27 4 27-40v-127H5v-23h24l9-43h21v43h35v23H59v120" id="bw"/><path fill="#333" d="M33-154v-36h34v36H33zM33 0v-36h34V0H33" id="bx"/><path fill="#333" d="M24-231v-30h32v30H24zM24 0v-190h32V0H24" id="by"/><path fill="#333" d="M117-194c89-4 53 116 60 194h-32v-121c0-31-8-49-39-48C34-167 62-67 57 0H25l-1-190h30c1 10-1 24 2 32 11-22 29-35 61-36" id="bz"/><g id="m"><use transform="matrix(0.05,0,0,0.05,0,0)" xlink:href="#bt"/><use transform="matrix(0.05,0,0,0.05,14.950000000000001,0)" xlink:href="#bu"/><use transform="matrix(0.05,0,0,0.05,24.950000000000003,0)" xlink:href="#bv"/><use transform="matrix(0.05,0,0,0.05,34.95,0)" xlink:href="#bq"/><use transform="matrix(0.05,0,0,0.05,44.95,0)" xlink:href="#bo"/><use transform="matrix(0.05,0,0,0.05,54.95,0)" xlink:href="#bn"/><use transform="matrix(0.05,0,0,0.05,58.900000000000006,0)" xlink:href="#bw"/><use transform="matrix(0.05,0,0,0.05,63.900000000000006,0)" xlink:href="#bv"/><use transform="matrix(0.05,0,0,0.05,73.9,0)" xlink:href="#bx"/><use transform="matrix(0.05,0,0,0.05,78.9,0)" xlink:href="#by"/><use transform="matrix(0.05,0,0,0.05,82.85000000000001,0)" xlink:href="#bz"/><use transform="matrix(0.05,0,0,0.05,92.85000000000001,0)" xlink:href="#bw"/></g><path fill="#333" d="M80-196l47-18 7 23-49 13 32 44-20 13-27-46-27 45-21-12 33-44-49-13 8-23 47 19-2-53h23" id="bA"/><path fill="#333" d="M115-194c55 1 70 41 70 98S169 2 115 4C84 4 66-9 55-30l1 105H24l-1-265h31l2 30c10-21 28-34 59-34zm-8 174c40 0 45-34 45-75s-6-73-45-74c-42 0-51 32-51 76 0 43 10 73 51 73" id="bB"/><path fill="#333" d="M194 0L95-120 63-95V0H30v-248h33v124l119-124h40L117-140 236 0h-42" id="bC"/><g id="n"><use transform="matrix(0.05,0,0,0.05,0,0)" xlink:href="#bA"/><use transform="matrix(0.05,0,0,0.05,7,0)" xlink:href="#bt"/><use transform="matrix(0.05,0,0,0.05,21.950000000000003,0)" xlink:href="#bu"/><use transform="matrix(0.05,0,0,0.05,31.950000000000003,0)" xlink:href="#bB"/><use transform="matrix(0.05,0,0,0.05,41.95,0)" xlink:href="#bC"/><use transform="matrix(0.05,0,0,0.05,53.95,0)" xlink:href="#bq"/><use transform="matrix(0.05,0,0,0.05,63.95,0)" xlink:href="#bp"/><use transform="matrix(0.05,0,0,0.05,72.95,0)" xlink:href="#bx"/><use transform="matrix(0.05,0,0,0.05,77.95,0)" xlink:href="#bC"/><use transform="matrix(0.05,0,0,0.05,89.95,0)" xlink:href="#bq"/><use transform="matrix(0.05,0,0,0.05,99.95,0)" xlink:href="#bp"/></g><path fill="#333" d="M266 0h-40l-56-210L115 0H75L2-248h35L96-30l15-64 43-154h32l59 218 59-218h35" id="bD"/><path fill="#333" d="M100-194c62-1 85 37 85 99 1 63-27 99-86 99S16-35 15-95c0-66 28-99 85-99zM99-20c44 1 53-31 53-75 0-43-8-75-51-75s-53 32-53 75 10 74 51 75" id="bE"/><g id="o"><use transform="matrix(0.05,0,0,0.05,0,0)" xlink:href="#bA"/><use transform="matrix(0.05,0,0,0.05,7,0)" xlink:href="#bt"/><use transform="matrix(0.05,0,0,0.05,21.950000000000003,0)" xlink:href="#bu"/><use transform="matrix(0.05,0,0,0.05,31.950000000000003,0)" xlink:href="#bB"/><use transform="matrix(0.05,0,0,0.05,41.95,0)" xlink:href="#bD"/><use transform="matrix(0.05,0,0,0.05,58.54999999999999,0)" xlink:href="#bq"/><use transform="matrix(0.05,0,0,0.05,68.55,0)" xlink:href="#bo"/><use transform="matrix(0.05,0,0,0.05,78.55,0)" xlink:href="#bB"/><use transform="matrix(0.05,0,0,0.05,88.55,0)" xlink:href="#bE"/><use transform="matrix(0.05,0,0,0.05,98.55,0)" xlink:href="#bz"/><use transform="matrix(0.05,0,0,0.05,108.55000000000001,0)" xlink:href="#bx"/><use transform="matrix(0.05,0,0,0.05,113.55000000000001,0)" xlink:href="#bD"/><use transform="matrix(0.05,0,0,0.05,130.15,0)" xlink:href="#bq"/><use transform="matrix(0.05,0,0,0.05,140.15,0)" xlink:href="#bo"/><use transform="matrix(0.05,0,0,0.05,150.15,0)" xlink:href="#bB"/><use transform="matrix(0.05,0,0,0.05,160.15,0)" xlink:href="#bE"/><use transform="matrix(0.05,0,0,0.05,170.15,0)" xlink:href="#bz"/></g><path fill="#333" d="M118-107v75H92v-75H18v-26h74v-75h26v75h74v26h-74" id="bF"/><use transform="matrix(0.05,0,0,0.05,0,0)" xlink:href="#bF" id="p"/><path fill="#333" d="M232-93c-1 65-40 97-104 97C67 4 28-28 28-90v-158h33c8 89-33 224 67 224 102 0 64-133 71-224h33v155" id="bG"/><path fill="#333" d="M85-194c31 0 48 13 60 33l-1-100h32l1 261h-30c-2-10 0-23-3-31C134-8 116 4 85 4 32 4 16-35 15-94c0-66 23-100 70-100zm9 24c-40 0-46 34-46 75 0 40 6 74 45 74 42 0 51-32 51-76 0-42-9-74-50-73" id="bH"/><path fill="#333" d="M87 75C49 33 22-17 22-94c0-76 28-126 65-167h31c-38 41-64 92-64 168S80 34 118 75H87" id="bI"/><path fill="#333" d="M115-194c53 0 69 39 70 98 0 66-23 100-70 100C84 3 66-7 56-30L54 0H23l1-261h32v101c10-23 28-34 59-34zm-8 174c40 0 45-34 45-75 0-40-5-75-45-74-42 0-51 32-51 76 0 43 10 73 51 73" id="bJ"/><g id="q"><use transform="matrix(0.05,0,0,0.05,0,0)" xlink:href="#bG"/><use transform="matrix(0.05,0,0,0.05,12.950000000000001,0)" xlink:href="#bB"/><use transform="matrix(0.05,0,0,0.05,22.950000000000003,0)" xlink:href="#bH"/><use transform="matrix(0.05,0,0,0.05,32.95,0)" xlink:href="#bo"/><use transform="matrix(0.05,0,0,0.05,42.95,0)" xlink:href="#bw"/><use transform="matrix(0.05,0,0,0.05,47.95,0)" xlink:href="#bq"/><use transform="matrix(0.05,0,0,0.05,57.95,0)" xlink:href="#bI"/><use transform="matrix(0.05,0,0,0.05,63.900000000000006,0)" xlink:href="#bJ"/><use transform="matrix(0.05,0,0,0.05,73.9,0)" xlink:href="#bE"/><use transform="matrix(0.05,0,0,0.05,83.9,0)" xlink:href="#bE"/><use transform="matrix(0.05,0,0,0.05,93.9,0)" xlink:href="#bn"/></g><path fill="#333" d="M96-169c-40 0-48 33-48 73s9 75 48 75c24 0 41-14 43-38l32 2c-6 37-31 61-74 61-59 0-76-41-82-99-10-93 101-131 147-64 4 7 5 14 7 22l-32 3c-4-21-16-35-41-35" id="bK"/><path fill="#333" d="M135-143c-3-34-86-38-87 0 15 53 115 12 119 90S17 21 10-45l28-5c4 36 97 45 98 0-10-56-113-15-118-90-4-57 82-63 122-42 12 7 21 19 24 35" id="bL"/><path fill="#333" d="M33 0v-248h34V0H33" id="bM"/><path fill="#333" d="M84 4C-5 8 30-112 23-190h32v120c0 31 7 50 39 49 72-2 45-101 50-169h31l1 190h-30c-1-10 1-25-2-33-11 22-28 36-60 37" id="bN"/><path fill="#333" d="M68-38c1 34 0 65-14 84H32c9-13 17-26 17-46H33v-38h35" id="bO"/><g id="r"><use transform="matrix(0.05,0,0,0.05,0,0)" xlink:href="#bB"/><use transform="matrix(0.05,0,0,0.05,10,0)" xlink:href="#br"/><use transform="matrix(0.05,0,0,0.05,15.949999999999998,0)" xlink:href="#bE"/><use transform="matrix(0.05,0,0,0.05,25.950000000000003,0)" xlink:href="#bK"/><use transform="matrix(0.05,0,0,0.05,34.95,0)" xlink:href="#bq"/><use transform="matrix(0.05,0,0,0.05,44.95,0)" xlink:href="#bL"/><use transform="matrix(0.05,0,0,0.05,53.95,0)" xlink:href="#bL"/><use transform="matrix(0.05,0,0,0.05,62.95,0)" xlink:href="#bM"/><use transform="matrix(0.05,0,0,0.05,67.95,0)" xlink:href="#bz"/><use transform="matrix(0.05,0,0,0.05,77.95,0)" xlink:href="#bB"/><use transform="matrix(0.05,0,0,0.05,87.95,0)" xlink:href="#bN"/><use transform="matrix(0.05,0,0,0.05,97.95,0)" xlink:href="#bw"/><use transform="matrix(0.05,0,0,0.05,102.95,0)" xlink:href="#bO"/></g><path fill="#333" d="M30 0v-248h33v221h125V0H30" id="bP"/><path fill="#333" d="M108 0H70L1-190h34L89-25l56-165h34" id="bQ"/><g id="s"><use transform="matrix(0.05,0,0,0.05,0,0)" xlink:href="#bP"/><use transform="matrix(0.05,0,0,0.05,10,0)" xlink:href="#bq"/><use transform="matrix(0.05,0,0,0.05,20,0)" xlink:href="#bQ"/><use transform="matrix(0.05,0,0,0.05,29,0)" xlink:href="#bq"/><use transform="matrix(0.05,0,0,0.05,39,0)" xlink:href="#bn"/></g><path fill="#333" d="M234-2c-28 10-62 0-77-18C117 19 8 12 13-65c3-43 29-61 60-76-25-40-17-114 47-108 35 3 59 15 59 50 0 44-40 53-71 69 14 26 32 50 51 72 14-21 24-43 30-72l26 8c-9 33-21 57-38 82 13 13 33 22 57 15v23zM97-151c25-10 52-18 56-48-1-18-13-29-33-29-42 0-39 50-23 77zM42-66c-3 51 71 58 98 28-20-24-41-51-56-80-23 10-40 24-42 52" id="bR"/><path fill="#333" d="M33-261c38 41 65 92 65 168S71 34 33 75H2C39 34 66-17 66-93S39-220 2-261h31" id="bS"/><g id="t"><use transform="matrix(0.05,0,0,0.05,0,0)" xlink:href="#bR"/><use transform="matrix(0.05,0,0,0.05,12,0)" xlink:href="#bn"/><use transform="matrix(0.05,0,0,0.05,15.949999999999998,0)" xlink:href="#bq"/><use transform="matrix(0.05,0,0,0.05,25.950000000000003,0)" xlink:href="#bQ"/><use transform="matrix(0.05,0,0,0.05,34.95,0)" xlink:href="#bq"/><use transform="matrix(0.05,0,0,0.05,44.95,0)" xlink:href="#bn"/><use transform="matrix(0.05,0,0,0.05,48.900000000000006,0)" xlink:href="#bS"/><use transform="matrix(0.05,0,0,0.05,54.85,0)" xlink:href="#bx"/><use transform="matrix(0.05,0,0,0.05,59.85,0)" xlink:href="#bQ"/><use transform="matrix(0.05,0,0,0.05,68.85000000000001,0)" xlink:href="#bE"/><use transform="matrix(0.05,0,0,0.05,78.85000000000001,0)" xlink:href="#by"/><use transform="matrix(0.05,0,0,0.05,82.80000000000001,0)" xlink:href="#bH"/></g><path fill="#333" d="M205 0l-28-72H64L36 0H1l101-248h38L239 0h-34zm-38-99l-47-123c-12 45-31 82-46 123h93" id="bT"/><g id="u"><use transform="matrix(0.05,0,0,0.05,0,0)" xlink:href="#bM"/><use transform="matrix(0.05,0,0,0.05,5,0)" xlink:href="#bL"/><use transform="matrix(0.05,0,0,0.05,14,0)" xlink:href="#bT"/><use transform="matrix(0.05,0,0,0.05,26,0)" xlink:href="#bn"/><use transform="matrix(0.05,0,0,0.05,29.950000000000003,0)" xlink:href="#by"/><use transform="matrix(0.05,0,0,0.05,33.9,0)" xlink:href="#bQ"/><use transform="matrix(0.05,0,0,0.05,42.9,0)" xlink:href="#bq"/><use transform="matrix(0.05,0,0,0.05,52.900000000000006,0)" xlink:href="#bI"/><use transform="matrix(0.05,0,0,0.05,58.85,0)" xlink:href="#bS"/><use transform="matrix(0.05,0,0,0.05,64.8,0)" xlink:href="#bx"/><use transform="matrix(0.05,0,0,0.05,69.8,0)" xlink:href="#bJ"/><use transform="matrix(0.05,0,0,0.05,79.8,0)" xlink:href="#bE"/><use transform="matrix(0.05,0,0,0.05,89.8,0)" xlink:href="#bE"/><use transform="matrix(0.05,0,0,0.05,99.8,0)" xlink:href="#bn"/></g><path fill="#333" d="M143 4C61 4 22-44 18-125c-5-107 100-154 193-111 17 8 29 25 37 43l-32 9c-13-25-37-40-76-40-61 0-88 39-88 99 0 61 29 100 91 101 35 0 62-11 79-27v-45h-74v-28h105v86C228-13 192 4 143 4" id="bU"/><g id="v"><use transform="matrix(0.05,0,0,0.05,0,0)" xlink:href="#bU"/><use transform="matrix(0.05,0,0,0.05,14,0)" xlink:href="#bq"/><use transform="matrix(0.05,0,0,0.05,24,0)" xlink:href="#bw"/><use transform="matrix(0.05,0,0,0.05,29,0)" xlink:href="#bP"/><use transform="matrix(0.05,0,0,0.05,39,0)" xlink:href="#by"/><use transform="matrix(0.05,0,0,0.05,42.95,0)" xlink:href="#bQ"/><use transform="matrix(0.05,0,0,0.05,51.95,0)" xlink:href="#bq"/><use transform="matrix(0.05,0,0,0.05,61.95,0)" xlink:href="#bL"/><use transform="matrix(0.05,0,0,0.05,70.95,0)" xlink:href="#bI"/><use transform="matrix(0.05,0,0,0.05,76.9,0)" xlink:href="#bS"/><use transform="matrix(0.05,0,0,0.05,82.85000000000001,0)" xlink:href="#bx"/><use transform="matrix(0.05,0,0,0.05,87.85000000000001,0)" xlink:href="#by"/><use transform="matrix(0.05,0,0,0.05,91.80000000000001,0)" xlink:href="#bz"/><use transform="matrix(0.05,0,0,0.05,101.80000000000001,0)" xlink:href="#bw"/></g><path fill="#333" d="M240 0l2-218c-23 76-54 145-80 218h-23L58-218 59 0H30v-248h44l77 211c21-75 51-140 76-211h43V0h-30" id="bV"/><g id="w"><use transform="matrix(0.05,0,0,0.05,0,0)" xlink:href="#bV"/><use transform="matrix(0.05,0,0,0.05,14.950000000000001,0)" xlink:href="#bE"/><use transform="matrix(0.05,0,0,0.05,24.950000000000003,0)" xlink:href="#bQ"/><use transform="matrix(0.05,0,0,0.05,33.95,0)" xlink:href="#bq"/><use transform="matrix(0.05,0,0,0.05,43.95,0)" xlink:href="#bI"/><use transform="matrix(0.05,0,0,0.05,49.900000000000006,0)" xlink:href="#by"/><use transform="matrix(0.05,0,0,0.05,53.85,0)" xlink:href="#bz"/><use transform="matrix(0.05,0,0,0.05,63.85,0)" xlink:href="#bw"/></g><path fill="#333" d="M206 0h-36l-40-164L89 0H53L-1-190h32L70-26l43-164h34l41 164 42-164h31" id="bW"/><path fill="#333" d="M195 0l-74-108L45 0H8l94-129-87-119h37l69 98 67-98h37l-84 118L233 0h-38" id="bX"/><g id="x"><use transform="matrix(0.05,0,0,0.05,0,0)" xlink:href="#bz"/><use transform="matrix(0.05,0,0,0.05,10,0)" xlink:href="#bq"/><use transform="matrix(0.05,0,0,0.05,20,0)" xlink:href="#bW"/><use transform="matrix(0.05,0,0,0.05,32.95,0)" xlink:href="#bX"/><use transform="matrix(0.05,0,0,0.05,44.95,0)" xlink:href="#bO"/></g><g id="y"><use transform="matrix(0.05,0,0,0.05,0,0)" xlink:href="#by"/><use transform="matrix(0.05,0,0,0.05,3.95,0)" xlink:href="#bz"/><use transform="matrix(0.05,0,0,0.05,13.949999999999998,0)" xlink:href="#bw"/></g><path fill="#333" d="M137-103V0h-34v-103L8-248h37l75 118 75-118h37" id="bY"/><g id="z"><use transform="matrix(0.05,0,0,0.05,0,0)" xlink:href="#bz"/><use transform="matrix(0.05,0,0,0.05,10,0)" xlink:href="#bq"/><use transform="matrix(0.05,0,0,0.05,20,0)" xlink:href="#bW"/><use transform="matrix(0.05,0,0,0.05,32.95,0)" xlink:href="#bY"/><use transform="matrix(0.05,0,0,0.05,44.95,0)" xlink:href="#bS"/><use transform="matrix(0.05,0,0,0.05,50.900000000000006,0)" xlink:href="#bx"/><use transform="matrix(0.05,0,0,0.05,55.900000000000006,0)" xlink:href="#bQ"/><use transform="matrix(0.05,0,0,0.05,64.9,0)" xlink:href="#bE"/><use transform="matrix(0.05,0,0,0.05,74.9,0)" xlink:href="#by"/><use transform="matrix(0.05,0,0,0.05,78.85000000000001,0)" xlink:href="#bH"/></g><path fill="#333" d="M197 0v-115H63V0H30v-248h33v105h134v-105h34V0h-34" id="bZ"/><path fill="#333" d="M212-179c-10-28-35-45-73-45-59 0-87 40-87 99 0 60 29 101 89 101 43 0 62-24 78-52l27 14C228-24 195 4 139 4 59 4 22-46 18-125c-6-104 99-153 187-111 19 9 31 26 39 46" id="ca"/><g id="A"><use transform="matrix(0.05,0,0,0.05,0,0)" xlink:href="#bZ"/><use transform="matrix(0.05,0,0,0.05,12.950000000000001,0)" xlink:href="#bo"/><use transform="matrix(0.05,0,0,0.05,22.950000000000003,0)" xlink:href="#bz"/><use transform="matrix(0.05,0,0,0.05,32.95,0)" xlink:href="#bH"/><use transform="matrix(0.05,0,0,0.05,42.95,0)" xlink:href="#bn"/><use transform="matrix(0.05,0,0,0.05,46.900000000000006,0)" xlink:href="#bq"/><use transform="matrix(0.05,0,0,0.05,56.900000000000006,0)" xlink:href="#ca"/><use transform="matrix(0.05,0,0,0.05,69.85000000000001,0)" xlink:href="#bE"/><use transform="matrix(0.05,0,0,0.05,79.85000000000001,0)" xlink:href="#bn"/><use transform="matrix(0.05,0,0,0.05,83.80000000000001,0)" xlink:href="#bn"/><use transform="matrix(0.05,0,0,0.05,87.75000000000001,0)" xlink:href="#by"/><use transform="matrix(0.05,0,0,0.05,91.70000000000002,0)" xlink:href="#bL"/><use transform="matrix(0.05,0,0,0.05,100.70000000000002,0)" xlink:href="#by"/><use transform="matrix(0.05,0,0,0.05,104.65000000000003,0)" xlink:href="#bE"/><use transform="matrix(0.05,0,0,0.05,114.65000000000003,0)" xlink:href="#bz"/><use transform="matrix(0.05,0,0,0.05,124.65000000000003,0)" xlink:href="#bL"/><use transform="matrix(0.05,0,0,0.05,133.65000000000003,0)" xlink:href="#bI"/><use transform="matrix(0.05,0,0,0.05,139.60000000000002,0)" xlink:href="#by"/><use transform="matrix(0.05,0,0,0.05,143.55,0)" xlink:href="#bz"/><use transform="matrix(0.05,0,0,0.05,153.55,0)" xlink:href="#bw"/></g><g id="B"><use transform="matrix(0.05,0,0,0.05,0,0)" xlink:href="#bZ"/><use transform="matrix(0.05,0,0,0.05,12.950000000000001,0)" xlink:href="#bo"/><use transform="matrix(0.05,0,0,0.05,22.950000000000003,0)" xlink:href="#bL"/><use transform="matrix(0.05,0,0,0.05,31.950000000000003,0)" xlink:href="#bC"/><use transform="matrix(0.05,0,0,0.05,43.95,0)" xlink:href="#bq"/><use transform="matrix(0.05,0,0,0.05,53.95,0)" xlink:href="#bp"/><use transform="matrix(0.05,0,0,0.05,62.95,0)" xlink:href="#bI"/><use transform="matrix(0.05,0,0,0.05,68.9,0)" xlink:href="#bS"/><use transform="matrix(0.05,0,0,0.05,74.85000000000001,0)" xlink:href="#bx"/><use transform="matrix(0.05,0,0,0.05,79.85000000000001,0)" xlink:href="#bJ"/><use transform="matrix(0.05,0,0,0.05,89.85000000000001,0)" xlink:href="#bE"/><use transform="matrix(0.05,0,0,0.05,99.85000000000001,0)" xlink:href="#bE"/><use transform="matrix(0.05,0,0,0.05,109.85000000000001,0)" xlink:href="#bn"/></g><g id="C"><use transform="matrix(0.05,0,0,0.05,0,0)" xlink:href="#bZ"/><use transform="matrix(0.05,0,0,0.05,12.950000000000001,0)" xlink:href="#bo"/><use transform="matrix(0.05,0,0,0.05,22.950000000000003,0)" xlink:href="#bL"/><use transform="matrix(0.05,0,0,0.05,31.950000000000003,0)" xlink:href="#bC"/><use transform="matrix(0.05,0,0,0.05,43.95,0)" xlink:href="#bq"/><use transform="matrix(0.05,0,0,0.05,53.95,0)" xlink:href="#bp"/><use transform="matrix(0.05,0,0,0.05,62.95,0)" xlink:href="#bI"/><use transform="matrix(0.05,0,0,0.05,68.9,0)" xlink:href="#bC"/><use transform="matrix(0.05,0,0,0.05,80.9,0)" xlink:href="#bq"/><use transform="matrix(0.05,0,0,0.05,90.9,0)" xlink:href="#bp"/><use transform="matrix(0.05,0,0,0.05,99.9,0)" xlink:href="#ca"/><use transform="matrix(0.05,0,0,0.05,112.85000000000001,0)" xlink:href="#bE"/><use transform="matrix(0.05,0,0,0.05,122.85000000000001,0)" xlink:href="#bn"/><use transform="matrix(0.05,0,0,0.05,126.80000000000001,0)" xlink:href="#bE"/><use transform="matrix(0.05,0,0,0.05,136.8,0)" xlink:href="#br"/></g><g id="D"><use transform="matrix(0.05,0,0,0.05,0,0)" xlink:href="#bK"/><use transform="matrix(0.05,0,0,0.05,9,0)" xlink:href="#bE"/><use transform="matrix(0.05,0,0,0.05,19,0)" xlink:href="#bn"/><use transform="matrix(0.05,0,0,0.05,22.95,0)" xlink:href="#bE"/><use transform="matrix(0.05,0,0,0.05,32.95,0)" xlink:href="#br"/><use transform="matrix(0.05,0,0,0.05,38.900000000000006,0)" xlink:href="#bS"/><use transform="matrix(0.05,0,0,0.05,44.85000000000001,0)" xlink:href="#bx"/><use transform="matrix(0.05,0,0,0.05,49.85000000000001,0)" xlink:href="#bJ"/><use transform="matrix(0.05,0,0,0.05,59.85,0)" xlink:href="#bE"/><use transform="matrix(0.05,0,0,0.05,69.85000000000001,0)" xlink:href="#bE"/><use transform="matrix(0.05,0,0,0.05,79.85000000000001,0)" xlink:href="#bn"/></g><path fill="#333" d="M143 0L79-87 56-68V0H24v-261h32v163l83-92h37l-77 82L181 0h-38" id="cb"/><g id="E"><use transform="matrix(0.05,0,0,0.05,0,0)" xlink:href="#bm"/><use transform="matrix(0.05,0,0,0.05,12,0)" xlink:href="#by"/><use transform="matrix(0.05,0,0,0.05,15.949999999999998,0)" xlink:href="#bK"/><use transform="matrix(0.05,0,0,0.05,24.95,0)" xlink:href="#cb"/><use transform="matrix(0.05,0,0,0.05,33.95,0)" xlink:href="#bN"/><use transform="matrix(0.05,0,0,0.05,43.95,0)" xlink:href="#bB"/><use transform="matrix(0.05,0,0,0.05,53.95,0)" xlink:href="#bC"/><use transform="matrix(0.05,0,0,0.05,65.95,0)" xlink:href="#bq"/><use transform="matrix(0.05,0,0,0.05,75.95,0)" xlink:href="#bp"/><use transform="matrix(0.05,0,0,0.05,84.95,0)" xlink:href="#bI"/><use transform="matrix(0.05,0,0,0.05,90.9,0)" xlink:href="#bC"/><use transform="matrix(0.05,0,0,0.05,102.9,0)" xlink:href="#bq"/><use transform="matrix(0.05,0,0,0.05,112.9,0)" xlink:href="#bp"/></g><g id="F"><use transform="matrix(0.05,0,0,0.05,0,0)" xlink:href="#bR"/><use transform="matrix(0.05,0,0,0.05,12,0)" xlink:href="#cb"/><use transform="matrix(0.05,0,0,0.05,21,0)" xlink:href="#bq"/><use transform="matrix(0.05,0,0,0.05,31,0)" xlink:href="#bp"/><use transform="matrix(0.05,0,0,0.05,40,0)" xlink:href="#bS"/><use transform="matrix(0.05,0,0,0.05,45.95,0)" xlink:href="#bx"/><use transform="matrix(0.05,0,0,0.05,50.95,0)" xlink:href="#bQ"/><use transform="matrix(0.05,0,0,0.05,59.95,0)" xlink:href="#bE"/><use transform="matrix(0.05,0,0,0.05,69.95,0)" xlink:href="#by"/><use transform="matrix(0.05,0,0,0.05,73.9,0)" xlink:href="#bH"/></g><path fill="#333" d="M77-214v-33h29v33H77zm-69 0v-33h29v33H8" id="cc"/><g id="G"><use transform="matrix(0.05,0,0,0.05,0,0)" xlink:href="#bG"/><use transform="matrix(0.05,0,0,0.05,12.950000000000001,0)" xlink:href="#bL"/><use transform="matrix(0.05,0,0,0.05,21.950000000000003,0)" xlink:href="#bq"/><use transform="matrix(0.05,0,0,0.05,31.950000000000003,0)" xlink:href="#bC"/><use transform="matrix(0.05,0,0,0.05,43.95,0)" xlink:href="#bq"/><use transform="matrix(0.05,0,0,0.05,53.95,0)" xlink:href="#bp"/><use transform="matrix(0.05,0,0,0.05,62.95,0)" xlink:href="#bI"/><use transform="matrix(0.05,0,0,0.05,68.9,0)" xlink:href="#bS"/><use transform="matrix(0.05,0,0,0.05,74.85000000000001,0)" xlink:href="#cc"/><use transform="matrix(0.05,0,0,0.05,80.80000000000001,0)" xlink:href="#bx"/><use transform="matrix(0.05,0,0,0.05,85.80000000000001,0)" xlink:href="#bQ"/><use transform="matrix(0.05,0,0,0.05,94.80000000000001,0)" xlink:href="#bE"/><use transform="matrix(0.05,0,0,0.05,104.80000000000001,0)" xlink:href="#by"/><use transform="matrix(0.05,0,0,0.05,108.75,0)" xlink:href="#bH"/></g><g id="H"><use transform="matrix(0.05,0,0,0.05,0,0)" xlink:href="#bZ"/><use transform="matrix(0.05,0,0,0.05,12.950000000000001,0)" xlink:href="#bo"/><use transform="matrix(0.05,0,0,0.05,22.950000000000003,0)" xlink:href="#bL"/><use transform="matrix(0.05,0,0,0.05,31.950000000000003,0)" xlink:href="#bD"/><use transform="matrix(0.05,0,0,0.05,48.55,0)" xlink:href="#bq"/><use transform="matrix(0.05,0,0,0.05,58.54999999999999,0)" xlink:href="#bo"/><use transform="matrix(0.05,0,0,0.05,68.55,0)" xlink:href="#bB"/><use transform="matrix(0.05,0,0,0.05,78.55,0)" xlink:href="#bE"/><use transform="matrix(0.05,0,0,0.05,88.55,0)" xlink:href="#bz"/><use transform="matrix(0.05,0,0,0.05,98.55,0)" xlink:href="#bI"/><use transform="matrix(0.05,0,0,0.05,104.5,0)" xlink:href="#bS"/><use transform="matrix(0.05,0,0,0.05,110.45,0)" xlink:href="#bx"/><use transform="matrix(0.05,0,0,0.05,115.45,0)" xlink:href="#bJ"/><use transform="matrix(0.05,0,0,0.05,125.45,0)" xlink:href="#bE"/><use transform="matrix(0.05,0,0,0.05,135.45,0)" xlink:href="#bE"/><use transform="matrix(0.05,0,0,0.05,145.45,0)" xlink:href="#bn"/></g><g id="I"><use transform="matrix(0.05,0,0,0.05,0,0)" xlink:href="#bm"/><use transform="matrix(0.05,0,0,0.05,12,0)" xlink:href="#by"/><use transform="matrix(0.05,0,0,0.05,15.949999999999998,0)" xlink:href="#bK"/><use transform="matrix(0.05,0,0,0.05,24.95,0)" xlink:href="#cb"/><use transform="matrix(0.05,0,0,0.05,33.95,0)" xlink:href="#bN"/><use transform="matrix(0.05,0,0,0.05,43.95,0)" xlink:href="#bB"/><use transform="matrix(0.05,0,0,0.05,53.95,0)" xlink:href="#bD"/><use transform="matrix(0.05,0,0,0.05,70.55,0)" xlink:href="#bq"/><use transform="matrix(0.05,0,0,0.05,80.55,0)" xlink:href="#bo"/><use transform="matrix(0.05,0,0,0.05,90.55,0)" xlink:href="#bB"/><use transform="matrix(0.05,0,0,0.05,100.55,0)" xlink:href="#bE"/><use transform="matrix(0.05,0,0,0.05,110.55000000000001,0)" xlink:href="#bz"/><use transform="matrix(0.05,0,0,0.05,120.55000000000001,0)" xlink:href="#bI"/><use transform="matrix(0.05,0,0,0.05,126.5,0)" xlink:href="#bD"/><use transform="matrix(0.05,0,0,0.05,143.1,0)" xlink:href="#bq"/><use transform="matrix(0.05,0,0,0.05,153.1,0)" xlink:href="#bo"/><use transform="matrix(0.05,0,0,0.05,163.1,0)" xlink:href="#bB"/><use transform="matrix(0.05,0,0,0.05,173.1,0)" xlink:href="#bE"/><use transform="matrix(0.05,0,0,0.05,183.1,0)" xlink:href="#bz"/></g><g id="J"><use transform="matrix(0.05,0,0,0.05,0,0)" xlink:href="#bR"/><use transform="matrix(0.05,0,0,0.05,12,0)" xlink:href="#bW"/><use transform="matrix(0.05,0,0,0.05,24.950000000000003,0)" xlink:href="#bq"/><use transform="matrix(0.05,0,0,0.05,34.95,0)" xlink:href="#bo"/><use transform="matrix(0.05,0,0,0.05,44.95,0)" xlink:href="#bB"/><use transform="matrix(0.05,0,0,0.05,54.95,0)" xlink:href="#bE"/><use transform="matrix(0.05,0,0,0.05,64.95,0)" xlink:href="#bz"/><use transform="matrix(0.05,0,0,0.05,74.95,0)" xlink:href="#bS"/><use transform="matrix(0.05,0,0,0.05,80.9,0)" xlink:href="#bx"/><use transform="matrix(0.05,0,0,0.05,85.9,0)" xlink:href="#bQ"/><use transform="matrix(0.05,0,0,0.05,94.9,0)" xlink:href="#bE"/><use transform="matrix(0.05,0,0,0.05,104.9,0)" xlink:href="#by"/><use transform="matrix(0.05,0,0,0.05,108.85000000000001,0)" xlink:href="#bH"/></g><path fill="#333" d="M30 0v-248h187v28H63v79h144v27H63v87h162V0H30" id="cd"/><path fill="#333" d="M145-31C134-9 116 4 85 4 32 4 16-35 15-94c0-59 17-99 70-100 32-1 48 14 60 33 0-11-1-24 2-32h30l-1 268h-32zM93-21c41 0 51-33 51-76s-8-73-50-73c-40 0-46 35-46 75s5 74 45 74" id="ce"/><g id="K"><use transform="matrix(0.05,0,0,0.05,0,0)" xlink:href="#bU"/><use transform="matrix(0.05,0,0,0.05,14,0)" xlink:href="#bq"/><use transform="matrix(0.05,0,0,0.05,24,0)" xlink:href="#bw"/><use transform="matrix(0.05,0,0,0.05,29,0)" xlink:href="#cd"/><use transform="matrix(0.05,0,0,0.05,41,0)" xlink:href="#ce"/><use transform="matrix(0.05,0,0,0.05,51,0)" xlink:href="#bN"/><use transform="matrix(0.05,0,0,0.05,61,0)" xlink:href="#by"/><use transform="matrix(0.05,0,0,0.05,64.95,0)" xlink:href="#bB"/><use transform="matrix(0.05,0,0,0.05,74.95,0)" xlink:href="#bB"/><use transform="matrix(0.05,0,0,0.05,84.95,0)" xlink:href="#bq"/><use transform="matrix(0.05,0,0,0.05,94.95,0)" xlink:href="#bH"/><use transform="matrix(0.05,0,0,0.05,104.95,0)" xlink:href="#bD"/><use transform="matrix(0.05,0,0,0.05,121.55000000000001,0)" xlink:href="#bq"/><use transform="matrix(0.05,0,0,0.05,131.55,0)" xlink:href="#bo"/><use transform="matrix(0.05,0,0,0.05,141.55,0)" xlink:href="#bB"/><use transform="matrix(0.05,0,0,0.05,151.55,0)" xlink:href="#bE"/><use transform="matrix(0.05,0,0,0.05,161.55,0)" xlink:href="#bz"/><use transform="matrix(0.05,0,0,0.05,171.55,0)" xlink:href="#bI"/><use transform="matrix(0.05,0,0,0.05,177.5,0)" xlink:href="#bS"/><use transform="matrix(0.05,0,0,0.05,183.45,0)" xlink:href="#bx"/><use transform="matrix(0.05,0,0,0.05,188.45,0)" xlink:href="#bA"/><use transform="matrix(0.05,0,0,0.05,195.45,0)" xlink:href="#bD"/><use transform="matrix(0.05,0,0,0.05,212.04999999999995,0)" xlink:href="#bq"/><use transform="matrix(0.05,0,0,0.05,222.04999999999995,0)" xlink:href="#bo"/><use transform="matrix(0.05,0,0,0.05,232.04999999999995,0)" xlink:href="#bB"/><use transform="matrix(0.05,0,0,0.05,242.04999999999995,0)" xlink:href="#bE"/><use transform="matrix(0.05,0,0,0.05,252.04999999999995,0)" xlink:href="#bz"/></g><path fill="#333" d="M185-189c-5-48-123-54-124 2 14 75 158 14 163 119 3 78-121 87-175 55-17-10-28-26-33-46l33-7c5 56 141 63 141-1 0-78-155-14-162-118-5-82 145-84 179-34 5 7 8 16 11 25" id="cf"/><g id="L"><use transform="matrix(0.05,0,0,0.05,0,0)" xlink:href="#cf"/><use transform="matrix(0.05,0,0,0.05,12,0)" xlink:href="#bw"/><use transform="matrix(0.05,0,0,0.05,17,0)" xlink:href="#br"/><use transform="matrix(0.05,0,0,0.05,22.95,0)" xlink:href="#by"/><use transform="matrix(0.05,0,0,0.05,26.899999999999995,0)" xlink:href="#cb"/><use transform="matrix(0.05,0,0,0.05,35.9,0)" xlink:href="#bq"/><use transform="matrix(0.05,0,0,0.05,45.9,0)" xlink:href="#bI"/><use transform="matrix(0.05,0,0,0.05,51.85,0)" xlink:href="#bS"/><use transform="matrix(0.05,0,0,0.05,57.800000000000004,0)" xlink:href="#bx"/><use transform="matrix(0.05,0,0,0.05,62.800000000000004,0)" xlink:href="#bQ"/><use transform="matrix(0.05,0,0,0.05,71.80000000000001,0)" xlink:href="#bE"/><use transform="matrix(0.05,0,0,0.05,81.80000000000001,0)" xlink:href="#by"/><use transform="matrix(0.05,0,0,0.05,85.75000000000001,0)" xlink:href="#bH"/></g><g id="M"><use transform="matrix(0.05,0,0,0.05,0,0)" xlink:href="#bm"/><use transform="matrix(0.05,0,0,0.05,12,0)" xlink:href="#by"/><use transform="matrix(0.05,0,0,0.05,15.949999999999998,0)" xlink:href="#bK"/><use transform="matrix(0.05,0,0,0.05,24.95,0)" xlink:href="#cb"/><use transform="matrix(0.05,0,0,0.05,33.95,0)" xlink:href="#bN"/><use transform="matrix(0.05,0,0,0.05,43.95,0)" xlink:href="#bB"/><use transform="matrix(0.05,0,0,0.05,53.95,0)" xlink:href="#bZ"/><use transform="matrix(0.05,0,0,0.05,66.9,0)" xlink:href="#bq"/><use transform="matrix(0.05,0,0,0.05,76.9,0)" xlink:href="#bo"/><use transform="matrix(0.05,0,0,0.05,86.9,0)" xlink:href="#bn"/><use transform="matrix(0.05,0,0,0.05,90.85000000000001,0)" xlink:href="#bw"/><use transform="matrix(0.05,0,0,0.05,95.85000000000001,0)" xlink:href="#bv"/><use transform="matrix(0.05,0,0,0.05,105.85000000000001,0)" xlink:href="#bC"/><use transform="matrix(0.05,0,0,0.05,117.85000000000001,0)" xlink:href="#by"/><use transform="matrix(0.05,0,0,0.05,121.80000000000001,0)" xlink:href="#bw"/><use transform="matrix(0.05,0,0,0.05,126.80000000000001,0)" xlink:href="#bI"/><use transform="matrix(0.05,0,0,0.05,132.75,0)" xlink:href="#bS"/><use transform="matrix(0.05,0,0,0.05,138.7,0)" xlink:href="#bx"/><use transform="matrix(0.05,0,0,0.05,143.7,0)" xlink:href="#bQ"/><use transform="matrix(0.05,0,0,0.05,152.7,0)" xlink:href="#bE"/><use transform="matrix(0.05,0,0,0.05,162.7,0)" xlink:href="#by"/><use transform="matrix(0.05,0,0,0.05,166.64999999999998,0)" xlink:href="#bH"/></g><path fill="#333" d="M63-220v92h138v28H63V0H30v-248h175v28H63" id="cg"/><g id="N"><use transform="matrix(0.05,0,0,0.05,0,0)" xlink:href="#cg"/><use transform="matrix(0.05,0,0,0.05,10.950000000000001,0)" xlink:href="#by"/><use transform="matrix(0.05,0,0,0.05,14.9,0)" xlink:href="#br"/><use transform="matrix(0.05,0,0,0.05,20.85,0)" xlink:href="#bq"/><use transform="matrix(0.05,0,0,0.05,30.85,0)" xlink:href="#bT"/><use transform="matrix(0.05,0,0,0.05,42.85,0)" xlink:href="#br"/><use transform="matrix(0.05,0,0,0.05,48.800000000000004,0)" xlink:href="#bt"/></g><g id="O"><use transform="matrix(0.05,0,0,0.05,0,0)" xlink:href="#bt"/><use transform="matrix(0.05,0,0,0.05,14.950000000000001,0)" xlink:href="#bu"/><use transform="matrix(0.05,0,0,0.05,24.950000000000003,0)" xlink:href="#bo"/><use transform="matrix(0.05,0,0,0.05,34.95,0)" xlink:href="#bt"/><use transform="matrix(0.05,0,0,0.05,49.900000000000006,0)" xlink:href="#bt"/><use transform="matrix(0.05,0,0,0.05,64.85000000000001,0)" xlink:href="#bE"/><use transform="matrix(0.05,0,0,0.05,74.85000000000001,0)" xlink:href="#bx"/><use transform="matrix(0.05,0,0,0.05,79.85000000000001,0)" xlink:href="#by"/><use transform="matrix(0.05,0,0,0.05,83.80000000000001,0)" xlink:href="#bz"/><use transform="matrix(0.05,0,0,0.05,93.80000000000001,0)" xlink:href="#bw"/></g><g id="P"><use transform="matrix(0.05,0,0,0.05,0,0)" xlink:href="#bU"/><use transform="matrix(0.05,0,0,0.05,14,0)" xlink:href="#bq"/><use transform="matrix(0.05,0,0,0.05,24,0)" xlink:href="#bw"/><use transform="matrix(0.05,0,0,0.05,29,0)" xlink:href="#bT"/><use transform="matrix(0.05,0,0,0.05,41,0)" xlink:href="#bt"/><use transform="matrix(0.05,0,0,0.05,55.95,0)" xlink:href="#bt"/><use transform="matrix(0.05,0,0,0.05,70.9,0)" xlink:href="#bE"/><use transform="matrix(0.05,0,0,0.05,80.9,0)" xlink:href="#bI"/><use transform="matrix(0.05,0,0,0.05,86.85000000000001,0)" xlink:href="#bS"/><use transform="matrix(0.05,0,0,0.05,92.80000000000001,0)" xlink:href="#bx"/><use transform="matrix(0.05,0,0,0.05,97.80000000000001,0)" xlink:href="#by"/><use transform="matrix(0.05,0,0,0.05,101.75000000000001,0)" xlink:href="#bz"/><use transform="matrix(0.05,0,0,0.05,111.75,0)" xlink:href="#bw"/></g><g id="Q"><use transform="matrix(0.05,0,0,0.05,0,0)" xlink:href="#bT"/><use transform="matrix(0.05,0,0,0.05,12,0)" xlink:href="#bH"/><use transform="matrix(0.05,0,0,0.05,22,0)" xlink:href="#bH"/><use transform="matrix(0.05,0,0,0.05,32,0)" xlink:href="#bT"/><use transform="matrix(0.05,0,0,0.05,44,0)" xlink:href="#bt"/><use transform="matrix(0.05,0,0,0.05,58.95,0)" xlink:href="#bt"/><use transform="matrix(0.05,0,0,0.05,73.9,0)" xlink:href="#bE"/><use transform="matrix(0.05,0,0,0.05,83.9,0)" xlink:href="#bI"/><use transform="matrix(0.05,0,0,0.05,89.85000000000001,0)" xlink:href="#by"/><use transform="matrix(0.05,0,0,0.05,93.80000000000001,0)" xlink:href="#bz"/><use transform="matrix(0.05,0,0,0.05,103.80000000000001,0)" xlink:href="#bw"/></g><g id="R"><use transform="matrix(0.05,0,0,0.05,0,0)" xlink:href="#bo"/><use transform="matrix(0.05,0,0,0.05,10,0)" xlink:href="#bt"/><use transform="matrix(0.05,0,0,0.05,24.950000000000003,0)" xlink:href="#bE"/><use transform="matrix(0.05,0,0,0.05,34.95,0)" xlink:href="#bN"/><use transform="matrix(0.05,0,0,0.05,44.95,0)" xlink:href="#bz"/><use transform="matrix(0.05,0,0,0.05,54.95,0)" xlink:href="#bw"/><use transform="matrix(0.05,0,0,0.05,59.95,0)" xlink:href="#bS"/><use transform="matrix(0.05,0,0,0.05,65.9,0)" xlink:href="#bx"/><use transform="matrix(0.05,0,0,0.05,70.9,0)" xlink:href="#bQ"/><use transform="matrix(0.05,0,0,0.05,79.9,0)" xlink:href="#bE"/><use transform="matrix(0.05,0,0,0.05,89.9,0)" xlink:href="#by"/><use transform="matrix(0.05,0,0,0.05,93.85000000000001,0)" xlink:href="#bH"/></g><g id="S"><use transform="matrix(0.05,0,0,0.05,0,0)" xlink:href="#bD"/><use transform="matrix(0.05,0,0,0.05,16.599999999999998,0)" xlink:href="#bq"/><use transform="matrix(0.05,0,0,0.05,26.599999999999994,0)" xlink:href="#bo"/><use transform="matrix(0.05,0,0,0.05,36.599999999999994,0)" xlink:href="#bB"/><use transform="matrix(0.05,0,0,0.05,46.599999999999994,0)" xlink:href="#bE"/><use transform="matrix(0.05,0,0,0.05,56.599999999999994,0)" xlink:href="#bz"/></g><path fill="#333" d="M177-190C167-65 218 103 67 71c-23-6-38-20-44-43l32-5c15 47 100 32 89-28v-30C133-14 115 1 83 1 29 1 15-40 15-95c0-56 16-97 71-98 29-1 48 16 59 35 1-10 0-23 2-32h30zM94-22c36 0 50-32 50-73 0-42-14-75-50-75-39 0-46 34-46 75s6 73 46 73" id="ch"/><g id="T"><use transform="matrix(0.05,0,0,0.05,0,0)" xlink:href="#bt"/><use transform="matrix(0.05,0,0,0.05,14.950000000000001,0)" xlink:href="#bu"/><use transform="matrix(0.05,0,0,0.05,24.950000000000003,0)" xlink:href="#bH"/><use transform="matrix(0.05,0,0,0.05,34.95,0)" xlink:href="#bo"/><use transform="matrix(0.05,0,0,0.05,44.95,0)" xlink:href="#bt"/><use transform="matrix(0.05,0,0,0.05,59.900000000000006,0)" xlink:href="#bo"/><use transform="matrix(0.05,0,0,0.05,69.9,0)" xlink:href="#ch"/><use transform="matrix(0.05,0,0,0.05,79.9,0)" xlink:href="#bq"/><use transform="matrix(0.05,0,0,0.05,89.9,0)" xlink:href="#bx"/><use transform="matrix(0.05,0,0,0.05,94.9,0)" xlink:href="#by"/><use transform="matrix(0.05,0,0,0.05,98.85000000000001,0)" xlink:href="#bz"/><use transform="matrix(0.05,0,0,0.05,108.85000000000001,0)" xlink:href="#bw"/></g><g id="U"><use transform="matrix(0.05,0,0,0.05,0,0)" xlink:href="#cf"/><use transform="matrix(0.05,0,0,0.05,12,0)" xlink:href="#bw"/><use transform="matrix(0.05,0,0,0.05,17,0)" xlink:href="#br"/><use transform="matrix(0.05,0,0,0.05,22.95,0)" xlink:href="#by"/><use transform="matrix(0.05,0,0,0.05,26.899999999999995,0)" xlink:href="#cb"/><use transform="matrix(0.05,0,0,0.05,35.9,0)" xlink:href="#bq"/><use transform="matrix(0.05,0,0,0.05,45.9,0)" xlink:href="#bI"/><use transform="matrix(0.05,0,0,0.05,51.85,0)" xlink:href="#by"/><use transform="matrix(0.05,0,0,0.05,55.800000000000004,0)" xlink:href="#bz"/><use transform="matrix(0.05,0,0,0.05,65.80000000000001,0)" xlink:href="#bw"/></g><g id="V"><use transform="matrix(0.05,0,0,0.05,0,0)" xlink:href="#bE"/><use transform="matrix(0.05,0,0,0.05,10,0)" xlink:href="#br"/><use transform="matrix(0.05,0,0,0.05,15.949999999999998,0)" xlink:href="#by"/><use transform="matrix(0.05,0,0,0.05,19.9,0)" xlink:href="#ch"/><use transform="matrix(0.05,0,0,0.05,29.899999999999995,0)" xlink:href="#by"/><use transform="matrix(0.05,0,0,0.05,33.85,0)" xlink:href="#bz"/><use transform="matrix(0.05,0,0,0.05,43.85,0)" xlink:href="#bX"/><use transform="matrix(0.05,0,0,0.05,55.85,0)" xlink:href="#bO"/></g><g id="W"><use transform="matrix(0.05,0,0,0.05,0,0)" xlink:href="#bE"/><use transform="matrix(0.05,0,0,0.05,10,0)" xlink:href="#br"/><use transform="matrix(0.05,0,0,0.05,15.949999999999998,0)" xlink:href="#by"/><use transform="matrix(0.05,0,0,0.05,19.9,0)" xlink:href="#ch"/><use transform="matrix(0.05,0,0,0.05,29.899999999999995,0)" xlink:href="#by"/><use transform="matrix(0.05,0,0,0.05,33.85,0)" xlink:href="#bz"/><use transform="matrix(0.05,0,0,0.05,43.85,0)" xlink:href="#bY"/><use transform="matrix(0.05,0,0,0.05,53.550000000000004,0)" xlink:href="#bO"/></g><g id="X"><use transform="matrix(0.05,0,0,0.05,0,0)" xlink:href="#bH"/><use transform="matrix(0.05,0,0,0.05,10,0)" xlink:href="#by"/><use transform="matrix(0.05,0,0,0.05,13.949999999999998,0)" xlink:href="#br"/><use transform="matrix(0.05,0,0,0.05,19.9,0)" xlink:href="#bq"/><use transform="matrix(0.05,0,0,0.05,29.899999999999995,0)" xlink:href="#bK"/><use transform="matrix(0.05,0,0,0.05,38.9,0)" xlink:href="#bw"/><use transform="matrix(0.05,0,0,0.05,43.9,0)" xlink:href="#by"/><use transform="matrix(0.05,0,0,0.05,47.85,0)" xlink:href="#bE"/><use transform="matrix(0.05,0,0,0.05,57.85,0)" xlink:href="#bz"/><use transform="matrix(0.05,0,0,0.05,67.85,0)" xlink:href="#bX"/><use transform="matrix(0.05,0,0,0.05,79.85,0)" xlink:href="#bO"/></g><g id="Y"><use transform="matrix(0.05,0,0,0.05,0,0)" xlink:href="#by"/><use transform="matrix(0.05,0,0,0.05,3.95,0)" xlink:href="#bz"/><use transform="matrix(0.05,0,0,0.05,13.949999999999998,0)" xlink:href="#bw"/></g><g id="Z"><use transform="matrix(0.05,0,0,0.05,0,0)" xlink:href="#bH"/><use transform="matrix(0.05,0,0,0.05,10,0)" xlink:href="#by"/><use transform="matrix(0.05,0,0,0.05,13.949999999999998,0)" xlink:href="#br"/><use transform="matrix(0.05,0,0,0.05,19.9,0)" xlink:href="#bq"/><use transform="matrix(0.05,0,0,0.05,29.899999999999995,0)" xlink:href="#bK"/><use transform="matrix(0.05,0,0,0.05,38.9,0)" xlink:href="#bw"/><use transform="matrix(0.05,0,0,0.05,43.9,0)" xlink:href="#by"/><use transform="matrix(0.05,0,0,0.05,47.85,0)" xlink:href="#bE"/><use transform="matrix(0.05,0,0,0.05,57.85,0)" xlink:href="#bz"/><use transform="matrix(0.05,0,0,0.05,67.85,0)" xlink:href="#bY"/><use transform="matrix(0.05,0,0,0.05,79.85,0)" xlink:href="#bS"/><use transform="matrix(0.05,0,0,0.05,85.8,0)" xlink:href="#bx"/><use transform="matrix(0.05,0,0,0.05,90.8,0)" xlink:href="#bQ"/><use transform="matrix(0.05,0,0,0.05,99.8,0)" xlink:href="#bE"/><use transform="matrix(0.05,0,0,0.05,109.80000000000001,0)" xlink:href="#by"/><use transform="matrix(0.05,0,0,0.05,113.75,0)" xlink:href="#bH"/></g><g id="aa"><use transform="matrix(0.05,0,0,0.05,0,0)" xlink:href="#bU"/><use transform="matrix(0.05,0,0,0.05,14,0)" xlink:href="#bN"/><use transform="matrix(0.05,0,0,0.05,24,0)" xlink:href="#bz"/></g><g id="ab"><use transform="matrix(0.05,0,0,0.05,0,0)" xlink:href="#bC"/><use transform="matrix(0.05,0,0,0.05,12,0)" xlink:href="#bq"/><use transform="matrix(0.05,0,0,0.05,22,0)" xlink:href="#bp"/></g><g id="ac"><use transform="matrix(0.05,0,0,0.05,0,0)" xlink:href="#bt"/><use transform="matrix(0.05,0,0,0.05,14.950000000000001,0)" xlink:href="#bu"/><use transform="matrix(0.05,0,0,0.05,24.950000000000003,0)" xlink:href="#bK"/><use transform="matrix(0.05,0,0,0.05,33.95,0)" xlink:href="#bE"/><use transform="matrix(0.05,0,0,0.05,43.95,0)" xlink:href="#bn"/><use transform="matrix(0.05,0,0,0.05,47.900000000000006,0)" xlink:href="#bE"/><use transform="matrix(0.05,0,0,0.05,57.900000000000006,0)" xlink:href="#br"/><use transform="matrix(0.05,0,0,0.05,63.85,0)" xlink:href="#bx"/><use transform="matrix(0.05,0,0,0.05,68.85000000000001,0)" xlink:href="#ca"/><use transform="matrix(0.05,0,0,0.05,81.80000000000001,0)" xlink:href="#bE"/><use transform="matrix(0.05,0,0,0.05,91.80000000000001,0)" xlink:href="#bn"/><use transform="matrix(0.05,0,0,0.05,95.75000000000001,0)" xlink:href="#bE"/><use transform="matrix(0.05,0,0,0.05,105.75,0)" xlink:href="#br"/></g><g id="ad"><use transform="matrix(0.05,0,0,0.05,0,0)" xlink:href="#bU"/><use transform="matrix(0.05,0,0,0.05,14,0)" xlink:href="#bq"/><use transform="matrix(0.05,0,0,0.05,24,0)" xlink:href="#bw"/><use transform="matrix(0.05,0,0,0.05,29,0)" xlink:href="#ca"/><use transform="matrix(0.05,0,0,0.05,41.95,0)" xlink:href="#bE"/><use transform="matrix(0.05,0,0,0.05,51.95,0)" xlink:href="#bn"/><use transform="matrix(0.05,0,0,0.05,55.900000000000006,0)" xlink:href="#bE"/><use transform="matrix(0.05,0,0,0.05,65.9,0)" xlink:href="#br"/><use transform="matrix(0.05,0,0,0.05,71.85000000000001,0)" xlink:href="#bI"/><use transform="matrix(0.05,0,0,0.05,77.80000000000001,0)" xlink:href="#bS"/><use transform="matrix(0.05,0,0,0.05,83.75000000000001,0)" xlink:href="#bx"/><use transform="matrix(0.05,0,0,0.05,88.75000000000001,0)" xlink:href="#ca"/><use transform="matrix(0.05,0,0,0.05,101.70000000000002,0)" xlink:href="#bE"/><use transform="matrix(0.05,0,0,0.05,111.7,0)" xlink:href="#bn"/><use transform="matrix(0.05,0,0,0.05,115.65000000000003,0)" xlink:href="#bE"/><use transform="matrix(0.05,0,0,0.05,125.65000000000003,0)" xlink:href="#br"/></g><path fill="#333" d="M27 0v-27h64v-190l-56 39v-29l58-41h29v221h61V0H27" id="ci"/><use transform="matrix(0.05,0,0,0.05,0,0)" xlink:href="#ci" id="ae"/><g id="af"><use transform="matrix(0.05,0,0,0.05,0,0)" xlink:href="#bU"/><use transform="matrix(0.05,0,0,0.05,14,0)" xlink:href="#bo"/><use transform="matrix(0.05,0,0,0.05,24,0)" xlink:href="#bt"/><use transform="matrix(0.05,0,0,0.05,38.95,0)" xlink:href="#bq"/></g><path fill="#333" d="M140-251c81 0 123 46 123 126C263-46 219 4 140 4 59 4 17-45 17-125s42-126 123-126zm0 227c63 0 89-41 89-101s-29-99-89-99c-61 0-89 39-89 99S79-25 140-24" id="cj"/><path fill="#333" d="M24-231v-30h32v30H24zM-9 49c24 4 33-6 33-30v-209h32V24c2 40-23 58-65 49V49" id="ck"/><g id="ag"><use transform="matrix(0.05,0,0,0.05,0,0)" xlink:href="#cj"/><use transform="matrix(0.05,0,0,0.05,14,0)" xlink:href="#bJ"/><use transform="matrix(0.05,0,0,0.05,24,0)" xlink:href="#ck"/><use transform="matrix(0.05,0,0,0.05,27.950000000000003,0)" xlink:href="#bq"/><use transform="matrix(0.05,0,0,0.05,37.95,0)" xlink:href="#bK"/><use transform="matrix(0.05,0,0,0.05,46.95,0)" xlink:href="#bw"/></g><use transform="matrix(0.05,0,0,0.05,0,0)" xlink:href="#bs" id="ah"/><path fill="#333" d="M141 0L90-78 38 0H4l68-98-65-92h35l48 74 47-74h35l-64 92 68 98h-35" id="cl"/><g id="ai"><use transform="matrix(0.05,0,0,0.05,0,0)" xlink:href="#bt"/><use transform="matrix(0.05,0,0,0.05,14.950000000000001,0)" xlink:href="#bu"/><use transform="matrix(0.05,0,0,0.05,24.950000000000003,0)" xlink:href="#cl"/><use transform="matrix(0.05,0,0,0.05,33.95,0)" xlink:href="#bx"/><use transform="matrix(0.05,0,0,0.05,38.95,0)" xlink:href="#by"/><use transform="matrix(0.05,0,0,0.05,42.900000000000006,0)" xlink:href="#bz"/><use transform="matrix(0.05,0,0,0.05,52.900000000000006,0)" xlink:href="#bw"/></g><g id="aj"><use transform="matrix(0.05,0,0,0.05,0,0)" xlink:href="#bt"/><use transform="matrix(0.05,0,0,0.05,14.950000000000001,0)" xlink:href="#bu"/><use transform="matrix(0.05,0,0,0.05,24.950000000000003,0)" xlink:href="#bp"/><use transform="matrix(0.05,0,0,0.05,33.95,0)" xlink:href="#bx"/><use transform="matrix(0.05,0,0,0.05,38.95,0)" xlink:href="#by"/><use transform="matrix(0.05,0,0,0.05,42.900000000000006,0)" xlink:href="#bz"/><use transform="matrix(0.05,0,0,0.05,52.900000000000006,0)" xlink:href="#bw"/></g><g id="ak"><use transform="matrix(0.05,0,0,0.05,0,0)" xlink:href="#bt"/><use transform="matrix(0.05,0,0,0.05,14.950000000000001,0)" xlink:href="#bu"/><use transform="matrix(0.05,0,0,0.05,24.950000000000003,0)" xlink:href="#bn"/><use transform="matrix(0.05,0,0,0.05,28.900000000000002,0)" xlink:href="#bo"/><use transform="matrix(0.05,0,0,0.05,38.900000000000006,0)" xlink:href="#bL"/><use transform="matrix(0.05,0,0,0.05,47.900000000000006,0)" xlink:href="#bw"/><use transform="matrix(0.05,0,0,0.05,52.900000000000006,0)" xlink:href="#bX"/><use transform="matrix(0.05,0,0,0.05,64.9,0)" xlink:href="#bx"/><use transform="matrix(0.05,0,0,0.05,69.9,0)" xlink:href="#by"/><use transform="matrix(0.05,0,0,0.05,73.85000000000001,0)" xlink:href="#bz"/><use transform="matrix(0.05,0,0,0.05,83.85000000000001,0)" xlink:href="#bw"/></g><g id="al"><use transform="matrix(0.05,0,0,0.05,0,0)" xlink:href="#bt"/><use transform="matrix(0.05,0,0,0.05,14.950000000000001,0)" xlink:href="#bu"/><use transform="matrix(0.05,0,0,0.05,24.950000000000003,0)" xlink:href="#bn"/><use transform="matrix(0.05,0,0,0.05,28.900000000000002,0)" xlink:href="#bo"/><use transform="matrix(0.05,0,0,0.05,38.900000000000006,0)" xlink:href="#bL"/><use transform="matrix(0.05,0,0,0.05,47.900000000000006,0)" xlink:href="#bw"/><use transform="matrix(0.05,0,0,0.05,52.900000000000006,0)" xlink:href="#bY"/><use transform="matrix(0.05,0,0,0.05,63.900000000000006,0)" xlink:href="#bx"/><use transform="matrix(0.05,0,0,0.05,68.9,0)" xlink:href="#by"/><use transform="matrix(0.05,0,0,0.05,72.85000000000001,0)" xlink:href="#bz"/><use transform="matrix(0.05,0,0,0.05,82.85000000000001,0)" xlink:href="#bw"/></g><path fill="#333" d="M127-220V0H93v-220H8v-28h204v28h-85" id="cm"/><g id="am"><use transform="matrix(0.05,0,0,0.05,0,0)" xlink:href="#bt"/><use transform="matrix(0.05,0,0,0.05,14.950000000000001,0)" xlink:href="#bu"/><use transform="matrix(0.05,0,0,0.05,24.950000000000003,0)" xlink:href="#bw"/><use transform="matrix(0.05,0,0,0.05,29.950000000000003,0)" xlink:href="#bp"/><use transform="matrix(0.05,0,0,0.05,38.95,0)" xlink:href="#bB"/><use transform="matrix(0.05,0,0,0.05,48.95,0)" xlink:href="#bq"/><use transform="matrix(0.05,0,0,0.05,58.95,0)" xlink:href="#bx"/><use transform="matrix(0.05,0,0,0.05,63.95,0)" xlink:href="#cj"/><use transform="matrix(0.05,0,0,0.05,77.95,0)" xlink:href="#bJ"/><use transform="matrix(0.05,0,0,0.05,87.95,0)" xlink:href="#ck"/><use transform="matrix(0.05,0,0,0.05,91.9,0)" xlink:href="#bq"/><use transform="matrix(0.05,0,0,0.05,101.9,0)" xlink:href="#bK"/><use transform="matrix(0.05,0,0,0.05,110.9,0)" xlink:href="#bw"/><use transform="matrix(0.05,0,0,0.05,115.9,0)" xlink:href="#cm"/><use transform="matrix(0.05,0,0,0.05,125.85000000000001,0)" xlink:href="#bp"/><use transform="matrix(0.05,0,0,0.05,134.85000000000002,0)" xlink:href="#bB"/><use transform="matrix(0.05,0,0,0.05,144.85000000000002,0)" xlink:href="#bq"/></g><use transform="matrix(0.05,0,0,0.05,0,0)" xlink:href="#bF" id="an"/><g id="ao"><use transform="matrix(0.05,0,0,0.05,0,0)" xlink:href="#bU"/><use transform="matrix(0.05,0,0,0.05,14,0)" xlink:href="#bq"/><use transform="matrix(0.05,0,0,0.05,24,0)" xlink:href="#bw"/><use transform="matrix(0.05,0,0,0.05,29,0)" xlink:href="#cm"/><use transform="matrix(0.05,0,0,0.05,38.95,0)" xlink:href="#bp"/><use transform="matrix(0.05,0,0,0.05,47.95,0)" xlink:href="#bB"/><use transform="matrix(0.05,0,0,0.05,57.95,0)" xlink:href="#bq"/><use transform="matrix(0.05,0,0,0.05,67.95,0)" xlink:href="#bI"/><use transform="matrix(0.05,0,0,0.05,73.9,0)" xlink:href="#bS"/><use transform="matrix(0.05,0,0,0.05,79.85000000000001,0)" xlink:href="#bx"/><use transform="matrix(0.05,0,0,0.05,84.85000000000001,0)" xlink:href="#cj"/><use transform="matrix(0.05,0,0,0.05,98.85000000000001,0)" xlink:href="#bJ"/><use transform="matrix(0.05,0,0,0.05,108.85000000000001,0)" xlink:href="#ck"/><use transform="matrix(0.05,0,0,0.05,112.80000000000001,0)" xlink:href="#bq"/><use transform="matrix(0.05,0,0,0.05,122.80000000000001,0)" xlink:href="#bK"/><use transform="matrix(0.05,0,0,0.05,131.8,0)" xlink:href="#bw"/><use transform="matrix(0.05,0,0,0.05,136.8,0)" xlink:href="#cm"/><use transform="matrix(0.05,0,0,0.05,146.75,0)" xlink:href="#bp"/><use transform="matrix(0.05,0,0,0.05,155.75,0)" xlink:href="#bB"/><use transform="matrix(0.05,0,0,0.05,165.75,0)" xlink:href="#bq"/></g><g id="ap"><use transform="matrix(0.05,0,0,0.05,0,0)" xlink:href="#bU"/><use transform="matrix(0.05,0,0,0.05,14,0)" xlink:href="#bq"/><use transform="matrix(0.05,0,0,0.05,24,0)" xlink:href="#bw"/><use transform="matrix(0.05,0,0,0.05,29,0)" xlink:href="#bX"/><use transform="matrix(0.05,0,0,0.05,41,0)" xlink:href="#bm"/><use transform="matrix(0.05,0,0,0.05,53,0)" xlink:href="#bE"/><use transform="matrix(0.05,0,0,0.05,63,0)" xlink:href="#bL"/><use transform="matrix(0.05,0,0,0.05,72,0)" xlink:href="#by"/><use transform="matrix(0.05,0,0,0.05,75.95,0)" xlink:href="#bw"/><use transform="matrix(0.05,0,0,0.05,80.95,0)" xlink:href="#by"/><use transform="matrix(0.05,0,0,0.05,84.9,0)" xlink:href="#bE"/><use transform="matrix(0.05,0,0,0.05,94.9,0)" xlink:href="#bz"/><use transform="matrix(0.05,0,0,0.05,104.9,0)" xlink:href="#bI"/><use transform="matrix(0.05,0,0,0.05,110.85000000000001,0)" xlink:href="#bS"/><use transform="matrix(0.05,0,0,0.05,116.80000000000001,0)" xlink:href="#bx"/><use transform="matrix(0.05,0,0,0.05,121.80000000000001,0)" xlink:href="#by"/><use transform="matrix(0.05,0,0,0.05,125.75,0)" xlink:href="#bz"/><use transform="matrix(0.05,0,0,0.05,135.75,0)" xlink:href="#bw"/></g><g id="aq"><use transform="matrix(0.05,0,0,0.05,0,0)" xlink:href="#bU"/><use transform="matrix(0.05,0,0,0.05,14,0)" xlink:href="#bq"/><use transform="matrix(0.05,0,0,0.05,24,0)" xlink:href="#bw"/><use transform="matrix(0.05,0,0,0.05,29,0)" xlink:href="#bY"/><use transform="matrix(0.05,0,0,0.05,41,0)" xlink:href="#bm"/><use transform="matrix(0.05,0,0,0.05,53,0)" xlink:href="#bE"/><use transform="matrix(0.05,0,0,0.05,63,0)" xlink:href="#bL"/><use transform="matrix(0.05,0,0,0.05,72,0)" xlink:href="#by"/><use transform="matrix(0.05,0,0,0.05,75.95,0)" xlink:href="#bw"/><use transform="matrix(0.05,0,0,0.05,80.95,0)" xlink:href="#by"/><use transform="matrix(0.05,0,0,0.05,84.9,0)" xlink:href="#bE"/><use transform="matrix(0.05,0,0,0.05,94.9,0)" xlink:href="#bz"/><use transform="matrix(0.05,0,0,0.05,104.9,0)" xlink:href="#bI"/><use transform="matrix(0.05,0,0,0.05,110.85000000000001,0)" xlink:href="#bS"/><use transform="matrix(0.05,0,0,0.05,116.80000000000001,0)" xlink:href="#bx"/><use transform="matrix(0.05,0,0,0.05,121.80000000000001,0)" xlink:href="#by"/><use transform="matrix(0.05,0,0,0.05,125.75,0)" xlink:href="#bz"/><use transform="matrix(0.05,0,0,0.05,135.75,0)" xlink:href="#bw"/></g><g id="ar"><use transform="matrix(0.05,0,0,0.05,0,0)" xlink:href="#cf"/><use transform="matrix(0.05,0,0,0.05,12,0)" xlink:href="#bq"/><use transform="matrix(0.05,0,0,0.05,22,0)" xlink:href="#bw"/><use transform="matrix(0.05,0,0,0.05,27,0)" xlink:href="#bm"/><use transform="matrix(0.05,0,0,0.05,39,0)" xlink:href="#bE"/><use transform="matrix(0.05,0,0,0.05,49,0)" xlink:href="#bL"/><use transform="matrix(0.05,0,0,0.05,58,0)" xlink:href="#by"/><use transform="matrix(0.05,0,0,0.05,61.95,0)" xlink:href="#bw"/><use transform="matrix(0.05,0,0,0.05,66.95,0)" xlink:href="#by"/><use transform="matrix(0.05,0,0,0.05,70.9,0)" xlink:href="#bE"/><use transform="matrix(0.05,0,0,0.05,80.9,0)" xlink:href="#bz"/><use transform="matrix(0.05,0,0,0.05,90.9,0)" xlink:href="#bI"/><use transform="matrix(0.05,0,0,0.05,96.85000000000001,0)" xlink:href="#by"/><use transform="matrix(0.05,0,0,0.05,100.80000000000001,0)" xlink:href="#bz"/><use transform="matrix(0.05,0,0,0.05,110.80000000000001,0)" xlink:href="#bw"/></g><g id="as"><use transform="matrix(0.05,0,0,0.05,0,0)" xlink:href="#cl"/><use transform="matrix(0.05,0,0,0.05,9,0)" xlink:href="#bO"/></g><g id="at"><use transform="matrix(0.05,0,0,0.05,0,0)" xlink:href="#by"/><use transform="matrix(0.05,0,0,0.05,3.95,0)" xlink:href="#bz"/><use transform="matrix(0.05,0,0,0.05,13.949999999999998,0)" xlink:href="#bw"/></g><g id="au"><use transform="matrix(0.05,0,0,0.05,0,0)" xlink:href="#bp"/><use transform="matrix(0.05,0,0,0.05,9,0)" xlink:href="#bS"/><use transform="matrix(0.05,0,0,0.05,14.949999999999998,0)" xlink:href="#bx"/><use transform="matrix(0.05,0,0,0.05,19.95,0)" xlink:href="#bQ"/><use transform="matrix(0.05,0,0,0.05,28.950000000000003,0)" xlink:href="#bE"/><use transform="matrix(0.05,0,0,0.05,38.95,0)" xlink:href="#by"/><use transform="matrix(0.05,0,0,0.05,42.900000000000006,0)" xlink:href="#bH"/></g><g id="av"><use transform="matrix(0.05,0,0,0.05,0,0)" xlink:href="#bG"/><use transform="matrix(0.05,0,0,0.05,12.950000000000001,0)" xlink:href="#bB"/><use transform="matrix(0.05,0,0,0.05,22.950000000000003,0)" xlink:href="#bH"/><use transform="matrix(0.05,0,0,0.05,32.95,0)" xlink:href="#bo"/><use transform="matrix(0.05,0,0,0.05,42.95,0)" xlink:href="#bw"/><use transform="matrix(0.05,0,0,0.05,47.95,0)" xlink:href="#bq"/><use transform="matrix(0.05,0,0,0.05,57.95,0)" xlink:href="#bI"/><use transform="matrix(0.05,0,0,0.05,63.900000000000006,0)" xlink:href="#bJ"/><use transform="matrix(0.05,0,0,0.05,73.9,0)" xlink:href="#bE"/><use transform="matrix(0.05,0,0,0.05,83.9,0)" xlink:href="#bE"/><use transform="matrix(0.05,0,0,0.05,93.9,0)" xlink:href="#bn"/></g><g id="aw"><use transform="matrix(0.05,0,0,0.05,0,0)" xlink:href="#bB"/><use transform="matrix(0.05,0,0,0.05,10,0)" xlink:href="#br"/><use transform="matrix(0.05,0,0,0.05,15.949999999999998,0)" xlink:href="#bE"/><use transform="matrix(0.05,0,0,0.05,25.950000000000003,0)" xlink:href="#bK"/><use transform="matrix(0.05,0,0,0.05,34.95,0)" xlink:href="#bq"/><use transform="matrix(0.05,0,0,0.05,44.95,0)" xlink:href="#bL"/><use transform="matrix(0.05,0,0,0.05,53.95,0)" xlink:href="#bL"/><use transform="matrix(0.05,0,0,0.05,62.95,0)" xlink:href="#bM"/><use transform="matrix(0.05,0,0,0.05,67.95,0)" xlink:href="#bz"/><use transform="matrix(0.05,0,0,0.05,77.95,0)" xlink:href="#bB"/><use transform="matrix(0.05,0,0,0.05,87.95,0)" xlink:href="#bN"/><use transform="matrix(0.05,0,0,0.05,97.95,0)" xlink:href="#bw"/><use transform="matrix(0.05,0,0,0.05,102.95,0)" xlink:href="#bO"/></g><g id="ax"><use transform="matrix(0.05,0,0,0.05,0,0)" xlink:href="#bP"/><use transform="matrix(0.05,0,0,0.05,10,0)" xlink:href="#bq"/><use transform="matrix(0.05,0,0,0.05,20,0)" xlink:href="#bQ"/><use transform="matrix(0.05,0,0,0.05,29,0)" xlink:href="#bq"/><use transform="matrix(0.05,0,0,0.05,39,0)" xlink:href="#bn"/></g><g id="ay"><use transform="matrix(0.05,0,0,0.05,0,0)" xlink:href="#bR"/><use transform="matrix(0.05,0,0,0.05,12,0)" xlink:href="#bn"/><use transform="matrix(0.05,0,0,0.05,15.949999999999998,0)" xlink:href="#bq"/><use transform="matrix(0.05,0,0,0.05,25.950000000000003,0)" xlink:href="#bQ"/><use transform="matrix(0.05,0,0,0.05,34.95,0)" xlink:href="#bq"/><use transform="matrix(0.05,0,0,0.05,44.95,0)" xlink:href="#bn"/><use transform="matrix(0.05,0,0,0.05,48.900000000000006,0)" xlink:href="#bS"/><use transform="matrix(0.05,0,0,0.05,54.85,0)" xlink:href="#bx"/><use transform="matrix(0.05,0,0,0.05,59.85,0)" xlink:href="#bQ"/><use transform="matrix(0.05,0,0,0.05,68.85000000000001,0)" xlink:href="#bE"/><use transform="matrix(0.05,0,0,0.05,78.85000000000001,0)" xlink:href="#by"/><use transform="matrix(0.05,0,0,0.05,82.80000000000001,0)" xlink:href="#bH"/></g><path fill="#333" d="M30-248c118-7 216 8 213 122C240-48 200 0 122 0H30v-248zM63-27c89 8 146-16 146-99s-60-101-146-95v194" id="cn"/><g id="az"><use transform="matrix(0.05,0,0,0.05,0,0)" xlink:href="#cn"/><use transform="matrix(0.05,0,0,0.05,12.950000000000001,0)" xlink:href="#br"/><use transform="matrix(0.05,0,0,0.05,18.900000000000002,0)" xlink:href="#bo"/><use transform="matrix(0.05,0,0,0.05,28.900000000000002,0)" xlink:href="#bW"/><use transform="matrix(0.05,0,0,0.05,41.85,0)" xlink:href="#bI"/><use transform="matrix(0.05,0,0,0.05,47.800000000000004,0)" xlink:href="#bS"/><use transform="matrix(0.05,0,0,0.05,53.75,0)" xlink:href="#bx"/><use transform="matrix(0.05,0,0,0.05,58.75,0)" xlink:href="#bQ"/><use transform="matrix(0.05,0,0,0.05,67.75,0)" xlink:href="#bE"/><use transform="matrix(0.05,0,0,0.05,77.75,0)" xlink:href="#by"/><use transform="matrix(0.05,0,0,0.05,81.7,0)" xlink:href="#bH"/></g><g id="aA"><use transform="matrix(0.05,0,0,0.05,0,0)" xlink:href="#cm"/><use transform="matrix(0.05,0,0,0.05,8.950000000000001,0)" xlink:href="#bo"/><use transform="matrix(0.05,0,0,0.05,18.950000000000003,0)" xlink:href="#cb"/><use transform="matrix(0.05,0,0,0.05,27.950000000000003,0)" xlink:href="#bq"/><use transform="matrix(0.05,0,0,0.05,37.95,0)" xlink:href="#cn"/><use transform="matrix(0.05,0,0,0.05,50.900000000000006,0)" xlink:href="#bo"/><use transform="matrix(0.05,0,0,0.05,60.900000000000006,0)" xlink:href="#bt"/><use transform="matrix(0.05,0,0,0.05,75.85000000000001,0)" xlink:href="#bo"/><use transform="matrix(0.05,0,0,0.05,85.85000000000001,0)" xlink:href="#ch"/><use transform="matrix(0.05,0,0,0.05,95.85000000000001,0)" xlink:href="#bq"/><use transform="matrix(0.05,0,0,0.05,105.85000000000001,0)" xlink:href="#bI"/><use transform="matrix(0.05,0,0,0.05,111.80000000000001,0)" xlink:href="#by"/><use transform="matrix(0.05,0,0,0.05,115.75,0)" xlink:href="#bz"/><use transform="matrix(0.05,0,0,0.05,125.75,0)" xlink:href="#bw"/></g><g id="aB"><use transform="matrix(0.05,0,0,0.05,0,0)" xlink:href="#bH"/><use transform="matrix(0.05,0,0,0.05,10,0)" xlink:href="#by"/><use transform="matrix(0.05,0,0,0.05,13.949999999999998,0)" xlink:href="#br"/><use transform="matrix(0.05,0,0,0.05,19.9,0)" xlink:href="#bq"/><use transform="matrix(0.05,0,0,0.05,29.899999999999995,0)" xlink:href="#bK"/><use transform="matrix(0.05,0,0,0.05,38.9,0)" xlink:href="#bw"/><use transform="matrix(0.05,0,0,0.05,43.9,0)" xlink:href="#by"/><use transform="matrix(0.05,0,0,0.05,47.85,0)" xlink:href="#bE"/><use transform="matrix(0.05,0,0,0.05,57.85,0)" xlink:href="#bz"/><use transform="matrix(0.05,0,0,0.05,67.85,0)" xlink:href="#bX"/><use transform="matrix(0.05,0,0,0.05,79.85,0)" xlink:href="#bO"/></g><g id="aC"><use transform="matrix(0.05,0,0,0.05,0,0)" xlink:href="#bH"/><use transform="matrix(0.05,0,0,0.05,10,0)" xlink:href="#by"/><use transform="matrix(0.05,0,0,0.05,13.949999999999998,0)" xlink:href="#br"/><use transform="matrix(0.05,0,0,0.05,19.9,0)" xlink:href="#bq"/><use transform="matrix(0.05,0,0,0.05,29.899999999999995,0)" xlink:href="#bK"/><use transform="matrix(0.05,0,0,0.05,38.9,0)" xlink:href="#bw"/><use transform="matrix(0.05,0,0,0.05,43.9,0)" xlink:href="#by"/><use transform="matrix(0.05,0,0,0.05,47.85,0)" xlink:href="#bE"/><use transform="matrix(0.05,0,0,0.05,57.85,0)" xlink:href="#bz"/><use transform="matrix(0.05,0,0,0.05,67.85,0)" xlink:href="#bY"/><use transform="matrix(0.05,0,0,0.05,77.55,0)" xlink:href="#bO"/></g><g id="aD"><use transform="matrix(0.05,0,0,0.05,0,0)" xlink:href="#bH"/><use transform="matrix(0.05,0,0,0.05,10,0)" xlink:href="#bo"/><use transform="matrix(0.05,0,0,0.05,20,0)" xlink:href="#bt"/><use transform="matrix(0.05,0,0,0.05,34.95,0)" xlink:href="#bo"/><use transform="matrix(0.05,0,0,0.05,44.95,0)" xlink:href="#ch"/><use transform="matrix(0.05,0,0,0.05,54.95,0)" xlink:href="#bq"/><use transform="matrix(0.05,0,0,0.05,64.95,0)" xlink:href="#bS"/><use transform="matrix(0.05,0,0,0.05,70.9,0)" xlink:href="#bx"/><use transform="matrix(0.05,0,0,0.05,75.9,0)" xlink:href="#bQ"/><use transform="matrix(0.05,0,0,0.05,84.9,0)" xlink:href="#bE"/><use transform="matrix(0.05,0,0,0.05,94.9,0)" xlink:href="#by"/><use transform="matrix(0.05,0,0,0.05,98.85000000000001,0)" xlink:href="#bH"/></g><g id="aE"><use transform="matrix(0.05,0,0,0.05,0,0)" xlink:href="#cf"/><use transform="matrix(0.05,0,0,0.05,12,0)" xlink:href="#bq"/><use transform="matrix(0.05,0,0,0.05,22,0)" xlink:href="#bw"/><use transform="matrix(0.05,0,0,0.05,27,0)" xlink:href="#bT"/><use transform="matrix(0.05,0,0,0.05,39,0)" xlink:href="#bK"/><use transform="matrix(0.05,0,0,0.05,48,0)" xlink:href="#bw"/><use transform="matrix(0.05,0,0,0.05,53,0)" xlink:href="#by"/><use transform="matrix(0.05,0,0,0.05,56.95,0)" xlink:href="#bQ"/><use transform="matrix(0.05,0,0,0.05,65.95,0)" xlink:href="#bq"/><use transform="matrix(0.05,0,0,0.05,75.95,0)" xlink:href="#bI"/><use transform="matrix(0.05,0,0,0.05,81.9,0)" xlink:href="#bJ"/><use transform="matrix(0.05,0,0,0.05,91.9,0)" xlink:href="#bE"/><use transform="matrix(0.05,0,0,0.05,101.9,0)" xlink:href="#bE"/><use transform="matrix(0.05,0,0,0.05,111.9,0)" xlink:href="#bn"/></g><g id="aF"><use transform="matrix(0.05,0,0,0.05,0,0)" xlink:href="#by"/><use transform="matrix(0.05,0,0,0.05,3.95,0)" xlink:href="#bL"/><use transform="matrix(0.05,0,0,0.05,12.949999999999998,0)" xlink:href="#bT"/><use transform="matrix(0.05,0,0,0.05,24.95,0)" xlink:href="#bK"/><use transform="matrix(0.05,0,0,0.05,33.95,0)" xlink:href="#bw"/><use transform="matrix(0.05,0,0,0.05,38.95,0)" xlink:href="#by"/><use transform="matrix(0.05,0,0,0.05,42.900000000000006,0)" xlink:href="#bQ"/><use transform="matrix(0.05,0,0,0.05,51.900000000000006,0)" xlink:href="#bq"/><use transform="matrix(0.05,0,0,0.05,61.900000000000006,0)" xlink:href="#bS"/><use transform="matrix(0.05,0,0,0.05,67.85000000000001,0)" xlink:href="#bx"/><use transform="matrix(0.05,0,0,0.05,72.85000000000001,0)" xlink:href="#bQ"/><use transform="matrix(0.05,0,0,0.05,81.85000000000001,0)" xlink:href="#bE"/><use transform="matrix(0.05,0,0,0.05,91.85000000000001,0)" xlink:href="#by"/><use transform="matrix(0.05,0,0,0.05,95.80000000000001,0)" xlink:href="#bH"/></g></defs></g></svg>